<svg width="109" height="188" viewBox="0 0 109 188" fill="none" xmlns="http://www.w3.org/2000/svg">
<g clip-path="url(#clip0_110_210)">
<path d="M0 132.039H9.00495C11.1554 132.039 13.1714 132.441 14.9187 133.381C16.6659 134.187 18.0099 135.395 18.9507 137.006C19.8915 138.617 20.429 140.362 20.429 142.376C20.429 144.389 19.8915 146.269 18.9507 147.746C18.0099 149.357 16.6659 150.565 14.9187 151.37C13.1714 152.176 11.2898 152.713 9.00495 152.713H0V132.039ZM8.73612 149.357C10.2146 149.357 11.5586 149.088 12.7682 148.551C13.9778 148.014 14.7842 147.209 15.4562 146.135C16.1282 145.061 16.397 143.853 16.397 142.376C16.397 140.899 16.1282 139.691 15.4562 138.617C14.7842 137.543 13.9778 136.737 12.7682 136.2C11.5586 135.663 10.2146 135.395 8.73612 135.395H3.76323V149.357H8.73612Z" fill="white"/>
<path d="M45.8312 149.357V152.579H30.375V132.039H45.4281V135.261H34.1383V140.631H44.084V143.853H34.1383V149.357H45.8312Z" fill="white"/>
<path d="M44.7557 107.337H48.3846V115.526C47.3094 116.332 46.0998 117.003 44.6213 117.54C43.143 117.943 41.7989 118.211 40.1862 118.211C38.0356 118.211 36.154 117.809 34.5413 116.869C32.794 115.929 31.4499 114.721 30.5091 113.11C29.5683 111.499 29.0308 109.619 29.0308 107.606C29.0308 105.592 29.5683 103.713 30.5091 102.102C31.4499 100.491 32.794 99.2823 34.5413 98.3426C36.2884 97.4029 38.17 97.0001 40.3206 97.0001C42.0676 97.0001 43.6805 97.2686 45.0245 97.8056C46.503 98.3426 47.5782 99.1481 48.6534 100.356L46.2342 102.773C44.6213 101.162 42.7397 100.356 40.5893 100.356C39.1108 100.356 37.9012 100.625 36.6917 101.296C35.6165 101.967 34.6757 102.773 34.0036 103.847C33.3315 104.921 33.0628 106.263 33.0628 107.606C33.0628 108.948 33.3315 110.156 34.0036 111.365C34.6757 112.439 35.4819 113.378 36.6917 113.915C37.7669 114.587 39.1108 114.855 40.5893 114.855C42.2022 114.855 43.6805 114.452 44.8903 113.781V107.337H44.7557Z" fill="white"/>
<path d="M61.5559 115.795C59.943 114.184 59.1367 111.902 59.1367 108.948V97.2687H63.0344V108.814C63.0344 112.841 64.7815 114.855 68.276 114.855C71.7705 114.855 73.5177 112.841 73.5177 108.814V97.2687H77.281V108.948C77.281 111.902 76.4745 114.184 74.8617 115.795C73.2488 117.406 71.0984 118.211 68.1416 118.211C65.3191 118.211 63.1687 117.406 61.5559 115.795Z" fill="white"/>
<path d="M22.3108 117.943L13.037 97.2687H9.27377L0 117.943H3.89769L5.91372 113.11L7.3921 109.754L11.1553 101.162L14.7842 109.619L16.5314 113.781L18.2786 117.943H22.3108Z" fill="white"/>
<path d="M107.656 117.943L98.248 97.2687H94.4847L85.2109 117.943H89.1086L91.1246 113.11L92.6031 109.754H92.7375L96.3664 101.162L99.9952 109.619L101.742 113.781L103.624 117.943H107.656Z" fill="white"/>
<path d="M21.7732 166.675L12.7682 187.349H9.00495L0 166.675H4.1665L11.021 182.65L18.0099 166.675H21.7732Z" fill="white"/>
<path d="M36.5576 166.675H40.4553V187.349H36.5576V166.675Z" fill="white"/>
<path d="M56.583 166.675H65.5879C67.7383 166.675 69.7544 167.077 71.5017 168.017C73.2488 168.823 74.5929 170.031 75.5337 171.642C76.4745 173.253 77.012 174.998 77.012 177.012C77.012 179.026 76.4745 180.905 75.5337 182.382C74.5929 183.993 73.2488 185.201 71.5017 186.006C69.7544 186.812 67.8728 187.349 65.5879 187.349H56.583V166.675ZM65.4535 183.993C66.932 183.993 68.2759 183.724 69.4855 183.187C70.6953 182.65 71.5017 181.845 72.1736 180.771C72.8456 179.697 73.1144 178.489 73.1144 177.012C73.1144 175.535 72.8456 174.327 72.1736 173.253C71.5017 172.179 70.6953 171.373 69.4855 170.836C68.2759 170.3 66.932 170.031 65.4535 170.031H60.4807V184.261H65.4535V183.993Z" fill="white"/>
<path d="M109 187.349L99.5921 166.675H95.8288L86.5552 187.349H90.4527L92.6032 182.516L94.0815 179.026L97.7104 170.434L101.339 179.026H101.474L103.221 183.187L104.968 187.349H109Z" fill="white"/>
</g>
<g clip-path="url(#clip1_110_210)">
<path d="M89.9998 54.5473C83.4933 55.0067 77.3292 61.4375 72.421 63.964C53.8149 73.6103 34.7521 69.4761 24.8213 54.4324C13.7489 37.896 19.4563 17.9143 34.2956 6.08608C44.2265 -1.72284 61.2344 -1.26348 69.7956 3.32999C73.1059 5.05255 75.9595 7.80864 80.8679 14.1247C80.8679 14.1247 80.8679 14.0098 80.5254 13.7802C70.3663 6.08608 65.2296 2.52614 50.847 4.13385C35.2088 5.97125 21.9676 22.2781 23.5657 38.2404C25.1637 54.2028 40.802 63.7343 52.445 64.8825C68.8824 66.3755 78.3566 53.9731 85.8904 53.7434L89.9998 54.5473Z" fill="white"/>
<path d="M36.5786 51.1026C36.5786 51.1026 46.3954 40.8822 59.4082 47.6576C62.0335 44.3273 66.257 42.4899 70.4805 43.064C73.5625 43.5235 76.7587 42.7196 79.1558 40.7673C79.1558 40.7673 79.0416 45.1312 70.024 45.935C62.0335 46.624 59.8648 51.7918 59.8648 51.7918C55.9838 49.7246 51.5319 48.691 47.0802 49.0356C43.6558 49.4949 40.1173 50.184 36.5786 51.1026Z" fill="white"/>
<path d="M31.5557 26.0678C31.5557 26.0678 41.3724 15.8474 54.3853 22.6227C57.0106 19.2925 61.2341 17.4551 65.4576 18.0293C68.5396 18.4887 71.7357 17.6848 74.1328 15.7325C74.1328 15.7325 74.0187 20.0964 65.0009 20.9003C57.0106 21.5893 54.8418 26.7568 54.8418 26.7568C50.9608 24.6898 48.6779 22.2783 42.0573 22.9673C38.6328 23.5414 36.2357 24.4601 31.5557 26.0678Z" fill="white"/>
<path d="M31.7837 27.5608L36.0072 49.3798L36.3497 48.5759C37.6052 45.8198 37.6052 42.6044 36.5779 39.7335L31.7837 27.5608Z" fill="white"/>
</g>
<defs>
<clipPath id="clip0_110_210">
<rect width="109" height="91" fill="white" transform="translate(0 97.0001)"/>
</clipPath>
<clipPath id="clip1_110_210">
<rect width="71" height="70" fill="white" transform="translate(19 0.00012207)"/>
</clipPath>
</defs>
</svg>
