<svg width="56" height="41" viewBox="0 0 56 41" fill="none" xmlns="http://www.w3.org/2000/svg">
<g clip-path="url(#clip0_510_1069)">
<path d="M19.542 40.5461C13.4384 40.5461 7.33352 40.5461 1.22994 40.5461C1.14953 40.5461 1.06912 40.5448 0.988701 40.5461C0.710547 40.5553 0.593221 40.5199 0.594539 40.4226C0.602449 39.8183 0.602449 39.214 0.594539 38.6097C0.594539 38.523 0.6855 38.4875 0.94388 38.4954C1.08362 38.4994 1.22467 38.4954 1.36573 38.4954C13.5333 38.4954 25.7009 38.4954 37.8699 38.4954C38.6384 38.4954 38.5475 38.4639 38.5488 38.7135C38.5527 39.2574 38.5501 39.8026 38.5488 40.3464C38.5488 40.5527 38.6055 40.5422 37.974 40.5422C31.8296 40.5422 25.6851 40.5422 19.542 40.5422V40.5461Z" fill="#DD0832"/>
<path d="M40.4629 40.3926C40.3983 39.9603 40.3008 39.5478 40.1768 39.1524C40.0529 38.757 39.9382 38.5192 39.8341 38.4391C39.9554 38.4023 40.0964 38.3826 40.2573 38.3826C40.3812 38.3826 40.4893 38.4299 40.5697 38.5363C40.6501 38.644 40.7081 38.7202 40.7582 38.8949L40.8149 39.0959C40.8281 39.1458 40.8412 39.2168 40.8557 39.314L40.8795 39.4913L40.8992 39.6424H40.9256C40.9757 39.5518 41.0258 39.4178 41.0733 39.2404C41.1207 39.0631 41.1444 38.912 41.1444 38.7951C41.1444 38.5941 41.1207 38.5231 41.0377 38.4404C41.068 38.4036 41.1444 38.3839 41.2631 38.3839C41.4608 38.3839 41.5887 38.4982 41.5887 38.6755C41.5887 38.8529 41.532 39.0907 41.4173 39.3797C41.3026 39.6648 41.1893 39.9052 41.0785 40.0996L40.9072 40.3939H40.4629V40.3926Z" fill="#5D5C60"/>
<path d="M41.793 40.3926C41.7904 40.3689 41.7864 40.3085 41.7864 40.2178C41.7864 40.0878 41.797 39.829 41.8128 39.4441C41.8299 39.0591 41.8392 38.7977 41.8392 38.6637C41.8392 38.5704 41.8154 38.489 41.7983 38.4627L41.7851 38.4391C41.9433 38.4023 42.1648 38.3826 42.4548 38.3826C42.7264 38.3826 42.9083 38.3957 42.9966 38.4233C43.0876 38.4469 43.1311 38.51 43.1311 38.6138C43.1311 38.7346 43.0203 38.8555 42.9122 38.8581C42.9122 38.8516 42.8859 38.7911 42.7105 38.7911L42.4284 38.8043C42.4258 38.8713 42.4258 39.0223 42.4153 39.1432C42.5392 39.1327 42.6407 39.1301 42.7185 39.1301C42.762 39.1301 42.8028 39.134 42.8727 39.1563C42.9439 39.1734 42.994 39.2299 42.994 39.3101C42.994 39.427 42.9373 39.511 42.8859 39.5281L42.849 39.5413C42.8055 39.5242 42.7409 39.515 42.6578 39.515L42.4153 39.5255C42.4153 39.5518 42.4126 39.6161 42.4087 39.7134C42.4047 39.8106 42.4021 39.8841 42.4021 39.9275H42.7989C42.8898 39.9275 42.9702 39.9078 42.9966 39.8947L43.0164 39.8841C43.1271 39.9577 43.1812 40.0379 43.1812 40.1285C43.1812 40.3058 43.0665 40.3926 42.8384 40.3926H41.793Z" fill="#5D5C60"/>
<path d="M43.4158 40.3924C43.4132 40.3688 43.4092 40.3083 43.4092 40.2177C43.4092 40.0837 43.4158 39.8183 43.433 39.4203C43.4501 39.0222 43.4593 38.7739 43.4593 38.6727C43.4593 38.5716 43.4356 38.4888 43.4185 38.4612L43.4053 38.4376C43.4699 38.4008 43.6874 38.3811 44.0605 38.3811C44.249 38.3811 44.4375 38.4179 44.622 38.498C44.8105 38.5782 44.9384 38.7397 44.9384 38.9434C44.9384 39.1838 44.8171 39.4084 44.6194 39.5122C44.6866 39.7263 44.7815 39.8669 44.8923 39.9247C45.003 39.9825 45.0742 39.9957 45.1915 39.9957C45.2218 40.0324 45.239 40.0732 45.239 40.1165C45.239 40.2768 45.1243 40.441 44.8725 40.441C44.6814 40.441 44.5232 40.3779 44.419 40.2873C44.2569 40.1336 44.1831 39.9116 44.1264 39.6646H44.0328C44.0262 39.7789 44.0222 39.9326 44.0222 40.127C44.0222 40.265 44.0249 40.3517 44.0288 40.3911H43.4171L43.4158 40.3924ZM44.0578 38.7437L44.0315 39.3099C44.2766 39.3099 44.3979 39.193 44.3979 38.9618C44.3979 38.8173 44.2832 38.7437 44.0578 38.7437Z" fill="#5D5C60"/>
<path d="M46.2316 39.7986H45.7571L45.7096 39.9628C45.6556 40.1638 45.6081 40.3346 45.6081 40.3911H45.1678L45.7768 38.6084C45.7874 38.5847 45.79 38.5585 45.79 38.5282C45.79 38.4744 45.7834 38.4415 45.7663 38.4245C45.8507 38.3942 45.9337 38.3811 46.0247 38.3811C46.1328 38.3811 46.1868 38.3837 46.2831 38.4113C46.3872 38.4376 46.4544 38.5085 46.4913 38.6163L46.9659 40.1875C46.9923 40.2781 47.02 40.3517 47.0331 40.3753L47.0437 40.3924H46.378L46.2303 39.7999L46.2316 39.7986ZM45.9891 38.9237L45.8441 39.4636H46.1605L46.0154 38.9237H45.9891Z" fill="#5D5C60"/>
<path d="M47.1294 39.4465C47.1294 39.1115 47.2164 38.8501 47.3943 38.6622C47.5723 38.4744 47.8043 38.3811 48.097 38.3811C48.4635 38.3811 48.706 38.5151 48.706 38.7187C48.706 38.8724 48.6019 38.9499 48.3962 38.9499C48.3962 38.9499 48.3026 38.7227 48.0864 38.7227C48.0021 38.7227 47.9348 38.7595 47.8808 38.837C47.7766 38.988 47.7529 39.1825 47.7529 39.4137C47.7529 39.8485 47.8505 40.0666 48.0482 40.0666C48.2459 40.0666 48.3409 39.905 48.3778 39.7277C48.4345 39.708 48.4925 39.6974 48.5531 39.6974C48.7073 39.6974 48.7851 39.775 48.7851 39.9287C48.7851 40.2203 48.499 40.441 47.9915 40.441C47.4537 40.441 47.1281 40.1126 47.1281 39.4465H47.1294Z" fill="#5D5C60"/>
<path d="M48.9539 40.3924C48.9512 40.3688 48.9473 40.3083 48.9473 40.2177C48.9473 40.0837 48.9539 39.8183 48.971 39.4203C48.9881 39.0222 48.9974 38.7739 48.9974 38.6727C48.9974 38.5716 48.9736 38.4888 48.9565 38.4612L48.9433 38.4376C49.0079 38.4008 49.2254 38.3811 49.5985 38.3811C49.787 38.3811 49.9755 38.4179 50.1601 38.498C50.3486 38.5782 50.4765 38.7397 50.4765 38.9434C50.4765 39.1838 50.3552 39.4084 50.1574 39.5122C50.2247 39.7263 50.3196 39.8669 50.4303 39.9247C50.5411 39.9825 50.6122 39.9957 50.7296 39.9957C50.7599 40.0324 50.777 40.0732 50.777 40.1165C50.777 40.2768 50.6623 40.441 50.4105 40.441C50.2194 40.441 50.0612 40.3779 49.9571 40.2873C49.7949 40.1336 49.7211 39.9116 49.6644 39.6646H49.5708C49.5642 39.7789 49.5603 39.9326 49.5603 40.127C49.5603 40.265 49.5629 40.3517 49.5669 40.3911H48.9552L48.9539 40.3924ZM49.5959 38.7437L49.5695 39.3099C49.8147 39.3099 49.936 39.193 49.936 38.9618C49.936 38.8173 49.8213 38.7437 49.5959 38.7437Z" fill="#5D5C60"/>
<path d="M51.9081 38.4417C51.9951 38.405 52.123 38.3853 52.2878 38.3853C52.5527 38.3853 52.5633 38.5232 52.5633 38.6204C52.5633 38.6848 52.5567 38.8687 52.5461 39.1669C52.5356 39.4651 52.529 39.6766 52.5224 39.7936C52.4921 40.2494 52.1994 40.4438 51.6247 40.4438C51.4533 40.4438 51.2859 40.4031 51.1237 40.3098C50.9655 40.2166 50.8587 40.0313 50.8587 39.7936C50.8587 39.783 50.8614 39.6293 50.8653 39.3351C50.8719 39.0369 50.8759 38.8162 50.8759 38.669C50.8759 38.5784 50.8522 38.4943 50.835 38.4641L50.8218 38.4444C50.8218 38.4378 50.9734 38.3879 51.2015 38.3879C51.4296 38.3879 51.481 38.4785 51.481 38.623C51.481 38.7097 51.477 38.891 51.4744 39.1695C51.4704 39.4441 51.4678 39.6359 51.4678 39.7463C51.4678 39.9604 51.5179 40.0721 51.6761 40.0721C51.8672 40.0721 51.9186 39.9814 51.9424 39.7436C51.9555 39.586 51.9621 39.2313 51.9621 38.6716C51.9621 38.581 51.9384 38.4969 51.9213 38.4667L51.9081 38.447V38.4417Z" fill="#5D5C60"/>
<path d="M54.4418 39.9301C54.4616 39.9866 54.4721 40.051 54.4721 40.118C54.4721 40.3361 54.3442 40.4425 54.0885 40.4425C53.9501 40.4425 53.8064 40.4254 53.6548 40.3926C53.5032 40.3597 53.3661 40.3426 53.2343 40.3426C53.1262 40.3426 53.0088 40.3834 52.9548 40.4201L52.9139 40.4464L52.7623 40.2848C52.7623 40.0733 52.877 39.8329 53.0748 39.6083C53.1723 39.4979 53.2659 39.4007 53.3503 39.3166C53.4346 39.2325 53.5348 39.1458 53.6456 39.0486L53.8578 38.8608V38.8345C53.7431 38.8174 53.6021 38.8082 53.4373 38.8082C53.2725 38.8082 53.171 38.8424 53.1314 38.9054C53.1314 38.9054 52.8902 38.8857 52.8902 38.644C52.8902 38.4693 53.0141 38.3826 53.2633 38.3826C53.3371 38.3826 53.4887 38.3931 53.7168 38.4128C53.9448 38.4299 54.103 38.4391 54.1913 38.4391C54.2454 38.4391 54.3192 38.4285 54.3561 38.4194L54.3864 38.4128L54.4642 38.577C54.4444 38.6676 54.3838 38.7741 54.2823 38.8949C54.1847 39.0158 54.0766 39.1261 53.9659 39.226C53.8552 39.3232 53.7365 39.4309 53.6166 39.5439C53.4992 39.6582 53.4149 39.7488 53.3674 39.8158V39.8355C53.4281 39.8185 53.4913 39.8093 53.5559 39.8093C53.6469 39.8093 53.7708 39.8329 53.9356 39.8802C54.1004 39.9236 54.2217 39.9472 54.2994 39.9472L54.4405 39.9301H54.4418Z" fill="#5D5C60"/>
<path d="M56 36.4882L55.8906 36.3253C55.7535 36.1072 55.5623 35.4267 55.5623 34.6647C55.5623 34.4493 55.5386 33.9672 55.5215 33.221V28.3839C55.5215 26.3279 53.8499 24.6621 51.7868 24.6621H4.21319C4.10905 24.6621 4.00622 24.6674 3.9034 24.6766C1.68212 24.7212 0.386258 24.8762 -0.00131226 25.1259L0.108104 25.2888C0.245204 25.5068 0.436353 26.1873 0.436353 26.9493C0.436353 27.1647 0.460081 29.9629 0.477219 30.7091V33.2302C0.477219 35.2861 2.14878 36.9519 4.21187 36.9519H51.7855C51.8896 36.9519 51.9925 36.9467 52.0953 36.9388C54.3153 36.8941 55.6124 36.7391 56 36.4895V36.4882Z" fill="#F1980B"/>
<path d="M19.5657 21.9479H18.9765C18.8736 21.9479 18.7879 21.8612 18.7879 21.7587V20.6671C18.7879 20.5633 18.8736 20.4766 18.9765 20.4766H19.4603C19.7846 20.4766 19.9876 20.6224 19.9876 20.872C19.9876 20.9771 19.9427 21.0664 19.8452 21.1571C19.9876 21.2214 20.0825 21.3515 20.0825 21.4999C20.0825 21.7666 19.8465 21.9492 19.5657 21.9492V21.9479ZM19.4418 20.7787H19.1663V21.0664H19.4352C19.5499 21.0664 19.6013 20.9942 19.6013 20.9167C19.6013 20.8391 19.5367 20.78 19.4418 20.78V20.7787ZM19.5288 21.3515H19.1676V21.6431H19.5341C19.6211 21.6431 19.7002 21.5906 19.7002 21.4999C19.7002 21.4093 19.6198 21.3515 19.5288 21.3515Z" fill="#5D5C60"/>
<path d="M21.2004 21.9478L21.0989 21.6759H20.5689L20.4674 21.9478H20.097L20.6691 20.5684C20.6981 20.5001 20.7627 20.4607 20.8352 20.4607C20.9077 20.4607 20.971 20.5001 21 20.5684L21.5721 21.9478H21.2017H21.2004ZM20.8339 20.9599L20.6717 21.3974H20.996L20.8339 20.9599Z" fill="#5D5C60"/>
<path d="M22.9181 21.9598C22.8561 21.969 22.7942 21.9532 22.7454 21.9007L22.0599 21.1335V21.9493H21.6855V20.6526C21.6855 20.5489 21.7725 20.4622 21.8766 20.4622C21.9294 20.4622 21.9742 20.4753 22.0203 20.5278C22.2154 20.7485 22.4 20.9535 22.7085 21.3174V20.4779H23.0829V21.7732C23.0829 21.8678 23.0117 21.948 22.9181 21.9611V21.9598Z" fill="#5D5C60"/>
<path d="M24.0953 21.973C23.5891 21.973 23.2635 21.6354 23.2635 21.2124C23.2635 20.7893 23.5851 20.4543 24.0953 20.4543C24.264 20.4543 24.4169 20.4806 24.5303 20.5227L24.4486 20.8366C24.3695 20.8104 24.2469 20.7907 24.1493 20.7907C23.7829 20.7907 23.655 20.9982 23.655 21.2124C23.655 21.4265 23.7842 21.6367 24.1493 21.6367C24.2469 21.6367 24.3695 21.617 24.4486 21.592L24.5303 21.8981C24.4196 21.9467 24.2508 21.973 24.0953 21.973Z" fill="#5D5C60"/>
<path d="M25.4096 21.973C24.9508 21.973 24.6424 21.6327 24.6424 21.215C24.6424 20.7972 24.9508 20.4543 25.4096 20.4543C25.8684 20.4543 26.1768 20.7972 26.1768 21.215C26.1768 21.6327 25.8684 21.973 25.4096 21.973ZM25.4096 20.7907C25.1604 20.7907 25.022 20.9746 25.022 21.215C25.022 21.4554 25.1618 21.6367 25.4096 21.6367C25.6574 21.6367 25.7972 21.4554 25.7972 21.215C25.7972 20.9746 25.6574 20.7907 25.4096 20.7907Z" fill="#5D5C60"/>
<path d="M26.8782 21.973C26.683 21.973 26.4563 21.927 26.2704 21.8626L26.339 21.5671C26.5104 21.6104 26.716 21.6551 26.8847 21.6551C27.0535 21.6551 27.155 21.6262 27.155 21.546C27.155 21.4817 27.006 21.4318 26.7292 21.3148C26.455 21.2005 26.3258 21.0849 26.3258 20.8682C26.3258 20.5857 26.5169 20.4543 26.9533 20.4543C27.1352 20.4543 27.3461 20.4832 27.5096 20.5292L27.4542 20.834C27.2815 20.7985 27.1128 20.7762 26.9572 20.7762C26.749 20.7762 26.7028 20.8038 26.7028 20.8563C26.7028 20.9286 26.8004 20.9601 27.064 21.077C27.3672 21.2124 27.536 21.2715 27.536 21.5145C27.536 21.8771 27.1879 21.9717 26.8768 21.9717L26.8782 21.973Z" fill="#5D5C60"/>
<path d="M28.5379 21.9479H28.3493C28.2452 21.9479 28.1608 21.8612 28.1608 21.7587V20.6671C28.1608 20.5633 28.2452 20.4766 28.3493 20.4766H28.5089C29.1324 20.4766 29.4896 20.8129 29.4896 21.2122C29.4896 21.6116 29.1614 21.9479 28.5379 21.9479ZM28.6024 20.8116H28.5405V21.6116H28.6024C28.878 21.6116 29.106 21.4986 29.106 21.2109C29.106 20.9232 28.878 20.8102 28.6024 20.8102V20.8116Z" fill="#5D5C60"/>
<path d="M30.0262 20.7971V21.0428H30.5179C30.6089 21.0428 30.6827 21.1111 30.6827 21.2017C30.6827 21.2924 30.6089 21.3607 30.5179 21.3607H30.0262V21.6274H30.7539V21.9479H29.835C29.7309 21.9479 29.6465 21.8612 29.6465 21.7587V20.6671C29.6465 20.5633 29.7309 20.4766 29.835 20.4766H30.7552V20.7971H30.0262Z" fill="#5D5C60"/>
<path d="M32.3292 21.9478L32.2264 21.6759H31.6964L31.5949 21.9478H31.2245L31.7966 20.5684C31.8256 20.5001 31.8902 20.4607 31.9627 20.4607C32.0352 20.4607 32.0985 20.5001 32.1262 20.5684L32.6983 21.9478H32.3292ZM31.9627 20.9599L31.8006 21.3974H32.1249L31.9627 20.9599Z" fill="#5D5C60"/>
<path d="M33.0015 21.9479C32.896 21.9479 32.8156 21.8612 32.8156 21.7587V20.4766H33.1953V21.6234H33.9467V21.9479H33.0028H33.0015Z" fill="#5D5C60"/>
<path d="M34.0944 21.9479V20.4766H34.474V21.9479H34.0944Z" fill="#5D5C60"/>
<path d="M35.9874 21.9479V21.2004L35.7106 21.609C35.6881 21.6418 35.642 21.6904 35.5642 21.6904C35.4864 21.6904 35.4377 21.6392 35.4153 21.6063L35.1411 21.1991V21.9466H34.7772V20.6447C34.7772 20.5436 34.8497 20.4595 34.9591 20.4595C35.0264 20.4595 35.0752 20.4857 35.1081 20.5344L35.5642 21.2083L36.0217 20.5344C36.0546 20.4857 36.106 20.4595 36.1746 20.4595C36.2748 20.4595 36.3526 20.5383 36.3526 20.6408V21.9466H35.9887L35.9874 21.9479Z" fill="#5D5C60"/>
<path d="M37.0222 20.7971V21.0428H37.5139C37.6049 21.0428 37.6787 21.1111 37.6787 21.2017C37.6787 21.2924 37.6049 21.3607 37.5139 21.3607H37.0222V21.6274H37.7499V21.9479H36.8311C36.7269 21.9479 36.6426 21.8612 36.6426 21.7587V20.6671C36.6426 20.5633 36.7269 20.4766 36.8311 20.4766H37.7512V20.7971H37.0222Z" fill="#5D5C60"/>
<path d="M39.2119 21.9598C39.1486 21.969 39.0879 21.9532 39.0392 21.9007L38.3537 21.1335V21.9493H37.9793V20.6526C37.9793 20.5489 38.0663 20.4622 38.1704 20.4622C38.2232 20.4622 38.268 20.4753 38.3141 20.5278C38.5092 20.7485 38.6938 20.9535 39.0023 21.3174V20.4779H39.3766V21.7732C39.3766 21.8678 39.3055 21.948 39.2132 21.9611L39.2119 21.9598Z" fill="#5D5C60"/>
<path d="M40.3548 20.8051V21.948H39.9751V20.8051H39.4979V20.4753H40.8307V20.8051H40.3535H40.3548Z" fill="#5D5C60"/>
<path d="M41.6124 21.973C41.1537 21.973 40.8452 21.6327 40.8452 21.215C40.8452 20.7972 41.1537 20.4543 41.6124 20.4543C42.0712 20.4543 42.3797 20.7972 42.3797 21.215C42.3797 21.6327 42.0712 21.973 41.6124 21.973ZM41.6124 20.7907C41.3633 20.7907 41.2249 20.9746 41.2249 21.215C41.2249 21.4554 41.3646 21.6367 41.6124 21.6367C41.8603 21.6367 42 21.4554 42 21.215C42 20.9746 41.8603 20.7907 41.6124 20.7907Z" fill="#5D5C60"/>
<path d="M43.0797 21.973C42.8846 21.973 42.6578 21.927 42.4719 21.8626L42.5405 21.5671C42.7119 21.6104 42.9175 21.6551 43.0863 21.6551C43.255 21.6551 43.3565 21.6262 43.3565 21.546C43.3565 21.4817 43.2075 21.4318 42.9307 21.3148C42.6565 21.2005 42.5273 21.0849 42.5273 20.8682C42.5273 20.5857 42.7171 20.4543 43.1548 20.4543C43.3367 20.4543 43.5476 20.4832 43.7111 20.5292L43.6557 20.834C43.4831 20.7985 43.3143 20.7762 43.1588 20.7762C42.9505 20.7762 42.9043 20.8038 42.9043 20.8563C42.9043 20.9286 43.0019 20.9601 43.2655 21.077C43.5687 21.2124 43.7375 21.2715 43.7375 21.5145C43.7375 21.8771 43.3895 21.9717 43.0783 21.9717L43.0797 21.973Z" fill="#5D5C60"/>
<path d="M44.7407 21.9479H44.5522C44.448 21.9479 44.3636 21.8612 44.3636 21.7587V20.6671C44.3636 20.5633 44.448 20.4766 44.5522 20.4766H44.7117C45.3352 20.4766 45.6925 20.8129 45.6925 21.2122C45.6925 21.6116 45.3642 21.9479 44.7407 21.9479ZM44.8053 20.8116H44.7433V21.6116H44.8053C45.0808 21.6116 45.3088 21.4986 45.3088 21.2109C45.3088 20.9232 45.0808 20.8102 44.8053 20.8102V20.8116Z" fill="#5D5C60"/>
<path d="M46.2277 20.7971V21.0428H46.7194C46.8104 21.0428 46.8842 21.1111 46.8842 21.2017C46.8842 21.2924 46.8117 21.3607 46.7194 21.3607H46.2277V21.6274H46.9554V21.9479H46.0365C45.9324 21.9479 45.848 21.8612 45.848 21.7587V20.6671C45.848 20.5633 45.9324 20.4766 46.0365 20.4766H46.9567V20.7971H46.2277Z" fill="#5D5C60"/>
<path d="M48.8154 21.9479V21.2004L48.5386 21.609C48.5162 21.6418 48.4701 21.6904 48.3923 21.6904C48.3145 21.6904 48.2657 21.6392 48.2433 21.6063L47.9691 21.1991V21.9466H47.6053V20.6447C47.6053 20.5436 47.6778 20.4595 47.7872 20.4595C47.8531 20.4595 47.9019 20.4857 47.9362 20.5344L48.3923 21.2083L48.8497 20.5344C48.884 20.4857 48.9341 20.4595 49.0026 20.4595C49.1015 20.4595 49.1793 20.5383 49.1793 20.6408V21.9466H48.8154V21.9479Z" fill="#5D5C60"/>
<path d="M49.8503 20.7972V21.0428H50.3433C50.4343 21.0428 50.5068 21.1111 50.5068 21.2018C50.5068 21.2924 50.4343 21.3607 50.3433 21.3607H49.8503V21.6274H50.578V21.948H49.6591C49.555 21.948 49.4706 21.8613 49.4706 21.7588V20.6671C49.4706 20.5633 49.555 20.4766 49.6591 20.4766H50.5793V20.7972H49.849H49.8503ZM50.1614 20.3768H49.9347L50.1364 20.0759H50.4976L50.1601 20.3768H50.1614Z" fill="#5D5C60"/>
<path d="M51.6444 21.9479L51.3663 21.4973L51.0921 21.9479H50.6729L51.1593 21.2057L50.6847 20.4766H51.104L51.3676 20.9101L51.6339 20.4766H52.0505L51.5785 21.2057L52.0623 21.9479H51.6458H51.6444Z" fill="#5D5C60"/>
<path d="M52.2311 21.9479V20.4766H52.6107V21.9479H52.2311Z" fill="#5D5C60"/>
<path d="M53.635 21.973C53.1301 21.973 52.8032 21.6354 52.8032 21.2124C52.8032 20.7893 53.1248 20.4543 53.635 20.4543C53.8038 20.4543 53.9567 20.4806 54.07 20.5227L53.9883 20.8366C53.9092 20.8104 53.7866 20.7907 53.6891 20.7907C53.3226 20.7907 53.1947 20.9982 53.1947 21.2124C53.1947 21.4265 53.3239 21.6367 53.6891 21.6367C53.7866 21.6367 53.9092 21.617 53.9883 21.592L54.07 21.8981C53.9593 21.9467 53.7906 21.973 53.635 21.973Z" fill="#5D5C60"/>
<path d="M54.9507 21.973C54.4919 21.973 54.1834 21.6327 54.1834 21.215C54.1834 20.7972 54.4919 20.4543 54.9507 20.4543C55.4094 20.4543 55.7179 20.7972 55.7179 21.215C55.7179 21.6327 55.4094 21.973 54.9507 21.973ZM54.9507 20.7907C54.7015 20.7907 54.5618 20.9746 54.5618 21.215C54.5618 21.4554 54.7015 21.6367 54.9507 21.6367C55.1998 21.6367 55.3382 21.4554 55.3382 21.215C55.3382 20.9746 55.1985 20.7907 54.9507 20.7907Z" fill="#5D5C60"/>
<path d="M18.7273 18.8397C18.7115 18.7017 18.697 18.4863 18.697 18.2262C18.697 17.6731 18.7273 16.3843 18.8051 14.3743C18.8815 12.3644 18.9277 11.2122 18.9277 10.9206C18.9277 10.491 18.8196 10.1074 18.7431 9.98391L18.6812 9.89195C18.9435 9.7238 19.9441 9.63184 21.7 9.63184C22.7322 9.63184 23.6405 9.84729 24.4262 10.2913C25.2119 10.7209 25.5968 11.3357 25.5968 12.1331C25.5968 12.7926 25.1038 13.4534 24.4881 13.7135V13.7897C24.8572 13.9592 25.2119 14.2509 25.5507 14.6489C25.8895 15.0325 26.0595 15.5238 26.0595 16.0914C26.0595 17.8715 24.9047 19.0683 22.255 19.0683C20.9763 19.0683 19.807 18.9921 18.7286 18.8384L18.7273 18.8397ZM22.8245 15.3097C22.3314 14.8801 21.8846 14.8341 21.5616 14.8341C21.5616 14.8801 21.5458 15.1416 21.5313 15.6316C21.5154 16.1229 21.5154 16.5065 21.5154 16.7666C21.5154 17.3039 21.6697 17.4576 22.0546 17.4576C22.8403 17.4576 23.2411 17.0898 23.2411 16.1071C23.2252 15.7853 23.0868 15.5094 22.8245 15.3097ZM21.6697 11.2884L21.5932 13.2065C21.6697 13.2222 21.7633 13.2222 21.9017 13.2222C23.0104 13.2222 23.133 12.5168 23.133 12.2251C23.133 11.5958 22.6399 11.2884 21.6697 11.2884Z" fill="#5D5C60"/>
<path d="M31.0768 16.1229H28.9057L28.6895 16.8757C28.4429 17.7966 28.2281 18.5795 28.2281 18.8397H26.2111L28.9993 10.6749C29.0454 10.5672 29.0612 10.445 29.0612 10.3071C29.0612 10.0614 29.0309 9.90772 28.9531 9.83152C29.3381 9.69358 29.723 9.63184 30.1382 9.63184C30.6313 9.63184 30.8778 9.6476 31.3247 9.76978C31.8019 9.89195 32.1104 10.2151 32.2791 10.7065L34.4503 17.9043C34.5729 18.3194 34.6968 18.6571 34.7588 18.7635L34.8049 18.841H31.7558L31.0782 16.1242L31.0768 16.1229ZM29.9682 12.1174L29.3064 14.5885H30.7539L30.0921 12.1174H29.9695H29.9682Z" fill="#5D5C60"/>
<path d="M39.3015 10.9508C39.7181 11.5183 39.9488 11.9637 40.1492 12.7007C40.3799 13.4219 40.4576 13.7897 40.5802 14.4808H40.7041L40.9348 13.7293L41.4437 12.0872L41.7825 10.9521C42.0132 10.0772 42.7686 9.63184 44.046 9.63184C44.477 9.63184 44.9701 9.73956 45.2008 9.81576L45.355 9.89195C45.355 10.0614 45.3708 10.4752 45.3708 10.6592C45.3708 11.3344 45.355 12.4852 45.3247 14.1116C45.3089 15.7235 45.2944 16.8586 45.2944 17.4879C45.2944 18.1946 45.3102 18.6387 45.3247 18.8384H42.5062C42.4904 18.5467 42.4759 18.2853 42.4759 18.0409C42.4759 15.7393 42.5524 13.9277 42.7224 12.5929H42.584L40.7213 18.8397H39.2119C39.088 18.1184 38.8269 17.0281 38.4117 15.5554C38.0109 14.0814 37.626 13.0843 37.2714 12.5785H37.1488C37.1791 12.9779 37.1949 13.6374 37.1949 14.5425C37.1949 15.0496 37.1949 15.8168 37.1791 16.8297C37.1633 17.8426 37.1633 18.5178 37.1633 18.841H35.2689C35.2531 18.749 35.2531 18.5953 35.2531 18.3799C35.2531 17.5667 35.2834 16.2319 35.3612 14.3441C35.439 12.4563 35.4838 11.3213 35.4838 10.9219C35.4838 10.2926 35.2834 9.90903 35.2373 9.89326C35.6064 9.72511 36.0533 9.63315 36.5622 9.63315C37.8409 9.63315 38.7333 10.1547 39.3028 10.9534L39.3015 10.9508Z" fill="#E3032E"/>
<path d="M48.7733 16.031C49.1424 15.4477 49.4508 14.8644 49.6974 14.2667C49.2202 13.2078 48.8352 12.5168 48.5109 12.1792C48.1879 11.8271 47.8637 11.6576 47.5407 11.6576C47.4629 11.6576 47.3245 11.6878 47.1241 11.7654C46.8473 11.5814 46.7089 11.2898 46.7089 10.9062C46.7089 10.2467 47.2322 9.61743 48.3409 9.61743C49.7119 9.61743 50.574 10.6001 51.4823 12.1503H51.5746C52.5751 10.4779 53.5309 9.6332 54.455 9.6332C55.0548 9.6332 55.6098 9.94061 55.6098 10.6776C55.6098 11.3226 55.2868 11.6747 54.6396 11.7207C54.5934 11.6747 54.5011 11.6589 54.393 11.6589C54.0701 11.6589 53.7458 11.8284 53.407 12.1805C52.7452 12.8557 52.3906 13.6085 52.3906 13.7149C53.3912 15.8786 54.223 16.9532 54.8861 16.9532L55.3949 16.877C55.5333 17.1989 55.5953 17.4905 55.5953 17.752C55.5953 18.4732 55.0258 19.0722 53.7168 19.0722C52.6239 19.0722 51.5917 18.0291 50.6057 15.9561H50.5292C49.6051 18.0278 48.6348 19.0722 47.633 19.0722C46.8473 19.0722 46.1855 18.5507 46.1855 17.8295C46.1855 17.2304 46.6166 16.6471 47.2942 16.6471C47.3719 16.8166 47.5407 16.8928 47.803 16.8928C48.0957 16.8928 48.4186 16.6011 48.7733 16.0336V16.031Z" fill="#E3032E"/>
<path d="M7.80942 3.17504C6.67571 5.16926 7.49831 7.76779 7.49831 7.76779C7.49831 7.76779 10.1573 7.13457 11.291 5.14036C12.4247 3.14745 11.6021 0.547607 11.6021 0.547607C11.6021 0.547607 8.94313 1.18082 7.80942 3.17372V3.17504Z" fill="url(#paint0_linear_510_1069)"/>
<path d="M4.86045 3.98945C6.86026 5.11925 7.49698 7.76901 7.49698 7.76901C7.49698 7.76901 4.88813 8.58877 2.88832 7.45897C0.888508 6.32918 0.251785 3.67942 0.251785 3.67942C0.251785 3.67942 2.86064 2.85966 4.86045 3.98945Z" fill="url(#paint1_linear_510_1069)"/>
<path d="M15.6162 14.1353C15.6162 18.242 12.2757 21.5723 8.15481 21.5723C4.0339 21.5723 0.692093 18.242 0.692093 14.1353C0.692093 10.0287 4.03258 6.69971 8.15349 6.69971C12.2744 6.69971 15.6149 10.03 15.6149 14.1353H15.6162Z" fill="url(#paint2_radial_510_1069)"/>
<path d="M14.1121 15.0009C12.2533 18.7831 8.94444 19.0275 8.94444 18.2813C8.94444 17.5351 10.6081 16.9925 10.6081 16.086C10.6081 15.6407 10.2522 15.3162 9.88437 15.3162C9.01431 15.3162 7.74614 16.4263 6.33032 16.9281C5.94275 17.0845 5.51959 17.1725 5.07665 17.1725C1.1403 17.1725 0.983428 10.1362 4.28701 7.77417C3.05179 8.48883 0.391525 10.2623 0.264972 14.3572C0.143691 18.2983 3.78211 21.9465 7.99134 21.9465C12.2006 21.9465 15.6043 17.8635 15.6043 14.6594C15.5977 14.1286 14.5761 13.8435 14.1121 14.9996V15.0009Z" fill="url(#paint3_radial_510_1069)"/>
<path d="M6.09171 10.1784C6.16553 10.4569 6.00075 10.742 5.72128 10.8168C5.44312 10.8917 5.15574 10.7262 5.08192 10.449C5.00678 10.1718 5.17288 9.88541 5.45103 9.81053C5.73051 9.73696 6.01657 9.90118 6.09171 10.1784Z" fill="white"/>
<path d="M10.6411 8.96437C10.7149 9.24288 10.5501 9.52796 10.2719 9.60284C9.99246 9.67772 9.7064 9.51219 9.63258 9.235C9.55744 8.95649 9.72354 8.67141 10.0017 8.59785C10.2812 8.52296 10.5672 8.68849 10.6424 8.96569L10.6411 8.96437Z" fill="white"/>
<path d="M9.13954 14.4611C10.674 14.0512 11.5849 12.4787 11.1736 10.9482L5.61581 12.4327C6.02711 13.9619 7.60376 14.871 9.13954 14.4611Z" fill="white"/>
<path d="M5.0081 31.6746H4.05499L3.96007 32.0043C3.85198 32.409 3.75706 32.7531 3.75706 32.8674H2.87119L4.09586 29.281C4.11563 29.2337 4.12222 29.1798 4.12222 29.1194C4.12222 29.0117 4.10904 28.9447 4.07476 28.9105C4.2435 28.8501 4.41356 28.8225 4.59548 28.8225C4.81168 28.8225 4.91977 28.8291 5.1162 28.8829C5.3258 28.9368 5.46158 29.0787 5.5354 29.2941L6.48851 32.4562C6.54256 32.6389 6.59661 32.786 6.62429 32.8333L6.64407 32.8674H5.30471L5.00678 31.6746H5.0081ZM4.52166 29.9155L4.23032 31.0006H4.86572L4.57439 29.9155H4.52034H4.52166Z" fill="white"/>
<path d="M7.03165 32.8674C7.02505 32.8201 7.01846 32.6993 7.01846 32.5167C7.01846 32.2539 7.03824 31.735 7.07251 30.9599C7.10679 30.1848 7.12656 29.6593 7.12656 29.3887C7.12656 29.1995 7.0791 29.038 7.04483 28.9841L7.01846 28.9368C7.18061 28.8632 7.43767 28.8225 7.78306 28.8225C7.99925 28.8225 8.14822 28.8764 8.22336 28.9368C8.25763 28.9631 8.284 29.0104 8.30509 29.0721C8.35255 29.1864 8.34596 29.2337 8.34596 29.3887C8.2985 30.3661 8.27214 31.2148 8.25763 31.9308H9.05519C9.23843 31.9308 9.40057 31.89 9.45462 31.8638L9.49549 31.8441C9.71827 31.9925 9.82637 32.1541 9.82637 32.3367C9.82637 32.694 9.59699 32.8688 9.13692 32.8688H7.03296L7.03165 32.8674Z" fill="white"/>
<path d="M10.6384 32.8676C10.6318 32.8203 10.6252 32.6995 10.6252 32.5169C10.6252 32.1188 10.6595 31.1953 10.7333 29.7397C10.7267 29.7397 10.6661 29.7462 10.5646 29.7528C10.4631 29.7594 10.3959 29.7594 10.3484 29.7594C9.97665 29.7594 9.74596 29.5636 9.74596 29.2129C9.74596 29.1051 9.80001 28.9909 9.9081 28.8752C10.0505 28.9291 10.1849 28.9567 10.3141 28.9567C10.4222 28.9567 10.7267 28.9501 11.2343 28.937C11.7418 28.9173 12.1004 28.9107 12.3166 28.9107C12.749 28.9107 12.9665 29.0854 12.9665 29.4362C12.9665 29.5715 12.8993 29.7121 12.8452 29.7659L12.8043 29.8132C12.6356 29.7462 12.4735 29.7121 12.3034 29.7121C12.2493 29.7121 12.1755 29.7121 12.0806 29.7186H11.9316C11.8842 30.7499 11.8644 31.6262 11.8644 32.3474C11.8644 32.6377 11.871 32.8059 11.8776 32.8663H10.6397L10.6384 32.8676Z" fill="white"/>
<path d="M15.0625 31.6746H14.1094L14.0145 32.0043C13.9064 32.409 13.8115 32.7531 13.8115 32.8674H12.9256L14.1503 29.281C14.1701 29.2337 14.1766 29.1798 14.1766 29.1194C14.1766 29.0117 14.1635 28.9447 14.1292 28.9105C14.2979 28.8501 14.468 28.8225 14.6499 28.8225C14.8661 28.8225 14.9742 28.8291 15.1706 28.8829C15.3802 28.9368 15.516 29.0787 15.5898 29.2941L16.5429 32.4562C16.597 32.6389 16.651 32.786 16.6787 32.8333L16.6985 32.8674H15.3591L15.0612 31.6746H15.0625ZM14.5761 29.9155L14.2847 31.0006H14.9202L14.6288 29.9155H14.5748H14.5761Z" fill="white"/>
<path d="M18.9066 30.3597C19.4484 30.5357 20.1576 30.8589 20.151 31.6209C20.151 32.5168 19.5486 32.9687 18.3516 32.9687C17.9588 32.9687 17.6002 32.8676 17.2825 32.6653C16.9648 32.4564 16.8026 32.2265 16.8026 31.9716C16.8026 31.655 17.0663 31.4659 17.4117 31.4659L17.4394 31.4934C17.5343 31.588 17.9258 32.0058 18.5019 32.0058C18.7247 32.0058 18.9277 31.8784 18.9277 31.6958C18.9277 31.2241 17.148 31.2176 17.148 29.9222C17.148 29.6253 17.2693 29.3692 17.5132 29.1537C17.7637 28.9317 18.142 28.824 18.6561 28.824C18.9066 28.824 19.1703 28.8516 19.4748 28.9317C19.7793 29.0066 19.9955 29.1813 19.9955 29.4243C19.9955 29.6937 19.8122 29.8552 19.6712 29.8763L19.5565 29.896C19.3667 29.7068 19.0701 29.6122 18.6706 29.6122C18.4202 29.6122 18.2303 29.7265 18.2303 29.896C18.2303 30.0851 18.5348 30.2257 18.9066 30.361V30.3597Z" fill="white"/>
<path d="M23.2424 29.4019C23.4256 29.6515 23.5271 29.8472 23.6141 30.1704C23.7156 30.487 23.7499 30.6486 23.804 30.952H23.858L23.9595 30.6223L24.1823 29.9011L24.3313 29.4019C24.4328 29.0183 24.7636 28.8225 25.3252 28.8225C25.5151 28.8225 25.7313 28.8698 25.8328 28.904L25.9 28.9381C25.9 29.0117 25.9066 29.1943 25.9066 29.2757C25.9066 29.5726 25.9 30.0784 25.8868 30.7918C25.8802 31.4999 25.8736 31.9991 25.8736 32.275C25.8736 32.585 25.8802 32.7807 25.8868 32.8688H24.649C24.6424 32.7413 24.6358 32.6257 24.6358 32.518C24.6358 31.5064 24.6701 30.7116 24.7439 30.1244H24.6832L23.8646 32.8688H23.2015C23.1475 32.5521 23.0328 32.074 22.8495 31.4263C22.6742 30.7786 22.5041 30.3412 22.3486 30.1178H22.2945C22.3077 30.2939 22.3143 30.5829 22.3143 30.9809C22.3143 31.203 22.3143 31.5406 22.3077 31.9859C22.3011 32.4313 22.3011 32.7282 22.3011 32.8688H21.4693C21.4627 32.828 21.4627 32.761 21.4627 32.6664C21.4627 32.3091 21.4759 31.7232 21.5102 30.8929C21.5444 30.064 21.5642 29.5648 21.5642 29.39C21.5642 29.1128 21.4759 28.9447 21.4561 28.9381C21.6183 28.8645 21.8147 28.8238 22.0375 28.8238C22.5991 28.8238 22.9906 29.0537 23.2411 29.4032L23.2424 29.4019Z" fill="white"/>
<path d="M30.158 30.8312C30.158 31.9229 29.549 32.9686 28.1898 32.9686C27.0798 32.9686 26.451 32.2815 26.451 30.9665C26.451 30.5829 26.5183 30.2387 26.6475 29.9208C26.9111 29.2941 27.5333 28.8225 28.3994 28.8225C29.4883 28.8225 30.158 29.5306 30.158 30.8312ZM28.9808 30.7773C28.9808 29.9418 28.758 29.5096 28.3783 29.5096C27.9723 29.5096 27.7087 29.9878 27.7087 30.8982C27.7087 31.8086 27.9051 32.2132 28.3032 32.2132C28.7435 32.2132 28.9795 31.6601 28.9795 30.7773H28.9808Z" fill="white"/>
<path d="M32.2422 29.3889C32.3846 29.5439 32.519 29.7396 32.6416 29.9617C32.8855 30.3991 33.0002 30.7236 33.1149 31.1282H33.1821V30.4477C33.1821 29.5978 33.1004 29.0933 32.9382 28.9383C33.0661 28.8647 33.2493 28.824 33.4932 28.824C33.8729 28.824 33.9744 29.0066 33.9744 29.4099C33.9744 30.0103 33.9137 31.1085 33.7911 32.6994L33.778 32.8676H32.7286C32.5731 32.3552 32.3635 31.8166 32.0998 31.257C31.8428 30.6908 31.5923 30.2927 31.3484 30.0707H31.2944C31.3075 30.2388 31.3141 30.5423 31.3141 30.9811C31.3141 31.2241 31.3141 31.567 31.3075 32.0189C31.3009 32.4708 31.3009 32.7533 31.3009 32.8689H30.4757C30.4691 32.7953 30.4625 32.6797 30.4625 32.5181C30.5298 30.5357 30.564 29.4913 30.564 29.3902C30.564 29.201 30.5166 29.0329 30.4823 28.979L30.4559 28.9383C30.5574 28.8647 30.7539 28.824 31.0439 28.824C31.5237 28.824 31.964 29.0736 32.2409 29.3902L32.2422 29.3889Z" fill="white"/>
<path d="M34.9143 32.8676C34.9077 32.8203 34.9011 32.6995 34.9011 32.5169C34.9011 32.1188 34.9354 31.1953 35.0092 29.7397C35.0026 29.7397 34.942 29.7462 34.8405 29.7528C34.739 29.7594 34.6718 29.7594 34.6243 29.7594C34.2525 29.7594 34.0219 29.5636 34.0219 29.2129C34.0219 29.1051 34.0759 28.9909 34.184 28.8752C34.3264 28.9291 34.4608 28.9567 34.59 28.9567C34.6981 28.9567 35.0026 28.9501 35.5102 28.937C36.0177 28.9173 36.3763 28.9107 36.5925 28.9107C37.0249 28.9107 37.2424 29.0854 37.2424 29.4362C37.2424 29.5715 37.1751 29.7121 37.1211 29.7659L37.0802 29.8132C36.9115 29.7462 36.7493 29.7121 36.5793 29.7121C36.5252 29.7121 36.4514 29.7121 36.3565 29.7186H36.2075C36.1601 30.7499 36.1403 31.6262 36.1403 32.3474C36.1403 32.6377 36.1469 32.8059 36.1535 32.8663H34.9156L34.9143 32.8676Z" fill="white"/>
<path d="M39.3384 31.6746H38.3853L38.2904 32.0043C38.1823 32.409 38.0874 32.7531 38.0874 32.8674H37.2015L38.4262 29.281C38.4459 29.2337 38.4539 29.1798 38.4539 29.1194C38.4539 29.0117 38.4407 28.9447 38.4064 28.9105C38.5751 28.8501 38.7452 28.8225 38.9271 28.8225C39.1433 28.8225 39.2514 28.8291 39.4478 28.8829C39.6574 28.9368 39.7932 29.0787 39.867 29.2941L40.8201 32.4562C40.8742 32.6389 40.9282 32.786 40.9559 32.8333L40.9757 32.8674H39.6363L39.3384 31.6746ZM38.852 29.9155L38.5606 31.0006H39.196L38.9047 29.9155H38.8507H38.852Z" fill="white"/>
<path d="M43.2431 29.3889C43.3855 29.5439 43.52 29.7396 43.6426 29.9617C43.8865 30.3991 44.0011 30.7236 44.1158 31.1282H44.1831V30.4477C44.1831 29.5978 44.1013 29.0933 43.9392 28.9383C44.0671 28.8647 44.2503 28.824 44.4942 28.824C44.8725 28.824 44.974 29.0066 44.974 29.4099C44.974 30.0103 44.9134 31.1085 44.7908 32.6994L44.7776 32.8676H43.7283C43.5727 32.3553 43.3631 31.8166 43.0994 31.257C42.8424 30.6908 42.5919 30.2927 42.348 30.0707H42.294C42.3072 30.2389 42.3138 30.5423 42.3138 30.9811C42.3138 31.2241 42.3138 31.567 42.3072 32.0189C42.3006 32.4709 42.3006 32.7533 42.3006 32.8689H41.4753C41.4687 32.7954 41.4622 32.6797 41.4622 32.5182C41.5294 30.5358 41.5637 29.4914 41.5637 29.3902C41.5637 29.201 41.5162 29.0329 41.4819 28.979L41.4556 28.9383C41.5571 28.8647 41.7535 28.824 42.0435 28.824C42.5234 28.824 42.9637 29.0736 43.2405 29.3902L43.2431 29.3889ZM43.8311 28.041L43.8443 28.0069C43.864 27.9937 44.0539 28.041 44.0736 28.2354C44.0736 28.5389 43.81 28.6742 43.5661 28.6742C43.5121 28.6742 43.4237 28.6466 43.2959 28.5862C43.168 28.5258 43.0797 28.4916 43.0322 28.4916C42.9307 28.4916 42.849 28.5323 42.7883 28.6125C42.5919 28.6125 42.5247 28.4772 42.5247 28.3629C42.5247 28.1264 42.7277 27.9583 43.0322 27.9583C43.106 27.9583 43.201 27.9845 43.3301 28.0463C43.458 28.1001 43.5397 28.1277 43.574 28.1277C43.7164 28.1277 43.8113 28.0739 43.8311 28.0397V28.041Z" fill="white"/>
<path d="M47.6277 31.6746H46.6746L46.5797 32.0043C46.4716 32.409 46.3766 32.7531 46.3766 32.8674H45.4908L46.7154 29.281C46.7352 29.2337 46.7431 29.1798 46.7431 29.1194C46.7431 29.0117 46.7299 28.9447 46.6957 28.9105C46.8644 28.8501 47.0345 28.8225 47.2164 28.8225C47.4326 28.8225 47.5407 28.8291 47.7371 28.8829C47.9467 28.9368 48.0825 29.0787 48.1563 29.2941L49.1094 32.4562C49.1635 32.6389 49.2175 32.786 49.2452 32.8333L49.265 32.8674H47.9256L47.6277 31.6746ZM47.1412 29.9155L46.8499 31.0006H47.4853L47.194 29.9155H47.1399H47.1412Z" fill="white"/>
<path d="M51.4704 30.3597C52.0122 30.5357 52.7215 30.8589 52.7149 31.6209C52.7149 32.5168 52.1124 32.9687 50.9154 32.9687C50.5239 32.9687 50.164 32.8676 49.8463 32.6653C49.5286 32.4564 49.3665 32.2265 49.3665 31.9716C49.3665 31.655 49.6301 31.4659 49.9755 31.4659L50.0019 31.4934C50.0968 31.588 50.4883 32.0058 51.0644 32.0058C51.2872 32.0058 51.4902 31.8784 51.4902 31.6958C51.4902 31.2241 49.7106 31.2176 49.7106 29.9222C49.7106 29.6253 49.8318 29.3692 50.0757 29.1537C50.3262 28.9317 50.7045 28.824 51.2186 28.824C51.4691 28.824 51.7328 28.8516 52.0373 28.9317C52.3418 29.0066 52.558 29.1813 52.558 29.4243C52.558 29.6937 52.3748 29.8552 52.2337 29.8763L52.119 29.896C51.9292 29.7068 51.6326 29.6122 51.2332 29.6122C50.9827 29.6122 50.7928 29.7265 50.7928 29.896C50.7928 30.0851 51.0974 30.2257 51.4691 30.361L51.4704 30.3597Z" fill="white"/>
</g>
<defs>
<linearGradient id="paint0_linear_510_1069" x1="8.76107" y1="1.33463" x2="10.3217" y2="6.99316" gradientUnits="userSpaceOnUse">
<stop stop-color="#70B02D"/>
<stop offset="0.08" stop-color="#6AAF2D"/>
<stop offset="0.17" stop-color="#5BAC2F"/>
<stop offset="0.28" stop-color="#41A832"/>
<stop offset="0.39" stop-color="#1DA236"/>
<stop offset="0.45" stop-color="#089F39"/>
<stop offset="0.54" stop-color="#089937"/>
<stop offset="0.65" stop-color="#098A34"/>
<stop offset="0.77" stop-color="#0B702E"/>
<stop offset="0.88" stop-color="#0E5227"/>
</linearGradient>
<linearGradient id="paint1_linear_510_1069" x1="3.08663" y1="2.89821" x2="4.64763" y2="8.55801" gradientUnits="userSpaceOnUse">
<stop stop-color="#70B02D"/>
<stop offset="0.08" stop-color="#6AAF2D"/>
<stop offset="0.17" stop-color="#5BAC2F"/>
<stop offset="0.28" stop-color="#41A832"/>
<stop offset="0.39" stop-color="#1DA236"/>
<stop offset="0.45" stop-color="#089F39"/>
<stop offset="0.54" stop-color="#089937"/>
<stop offset="0.65" stop-color="#098A34"/>
<stop offset="0.77" stop-color="#0B702E"/>
<stop offset="0.88" stop-color="#0E5227"/>
</linearGradient>
<radialGradient id="paint2_radial_510_1069" cx="0" cy="0" r="1" gradientUnits="userSpaceOnUse" gradientTransform="translate(9.78814 12.5313) scale(7.49567 7.46978)">
<stop stop-color="#E87976"/>
<stop offset="0.05" stop-color="#E66D6E"/>
<stop offset="0.29" stop-color="#E1374B"/>
<stop offset="0.47" stop-color="#DE1536"/>
<stop offset="0.56" stop-color="#DD092E"/>
<stop offset="0.83" stop-color="#DB0A2D"/>
<stop offset="0.93" stop-color="#D40D2A"/>
<stop offset="0.99" stop-color="#C81425"/>
<stop offset="1" stop-color="#C71525"/>
</radialGradient>
<radialGradient id="paint3_radial_510_1069" cx="0" cy="0" r="1" gradientUnits="userSpaceOnUse" gradientTransform="translate(7.93202 11.9185) scale(10.3102 11.713)">
<stop stop-color="#FCD928"/>
<stop offset="0.24" stop-color="#FBD624"/>
<stop offset="0.44" stop-color="#F9CE19"/>
<stop offset="0.64" stop-color="#F6C007"/>
<stop offset="0.7" stop-color="#F6BC01"/>
<stop offset="0.73" stop-color="#F5B801"/>
<stop offset="0.76" stop-color="#F4AE02"/>
<stop offset="0.78" stop-color="#F19D04"/>
<stop offset="0.8" stop-color="#EE8606"/>
<stop offset="0.82" stop-color="#EA670A"/>
<stop offset="0.84" stop-color="#E5410E"/>
<stop offset="0.86" stop-color="#DF1512"/>
<stop offset="0.87" stop-color="#DE0A14"/>
</radialGradient>
<clipPath id="clip0_510_1069">
<rect width="56" height="40" fill="white" transform="translate(0 0.548828)"/>
</clipPath>
</defs>
</svg>
