<svg width="215" height="172" viewBox="0 0 215 172" fill="none" xmlns="http://www.w3.org/2000/svg">
<path d="M23.8163 12.6254C23.8023 12.8469 23.8023 13.0546 23.7884 13.2623H23.6352L23.3566 12.5423L22.7019 13.7053L22.5486 13.6776C22.5069 13.4422 22.4511 13.2069 22.4093 12.9577C22.3815 12.9715 22.0193 13.7745 22.0054 13.8299C21.8939 14.176 21.7964 14.5222 21.6432 14.9791C21.5318 14.7575 21.4482 14.6052 21.3089 14.3699C21.1417 14.4806 20.8771 14.5499 20.8213 14.7022C20.4731 15.6021 19.5816 16.0451 19.094 16.8482C18.6065 17.6512 18.0075 18.3434 17.4642 19.0772C16.921 19.811 16.3359 20.6002 15.7927 21.3755C15.3887 21.9294 14.9847 22.4832 14.6225 23.0647C12.4634 26.609 10.3321 30.1811 8.50732 33.9193C6.9611 37.1037 6.06959 40.4542 5.58204 43.9432C5.49846 44.5386 5.40096 45.1339 5.33131 45.7292C5.25943 46.2162 5.26416 46.7113 5.34524 47.1968C5.45668 47.7091 5.31738 48.3044 5.16415 48.8306C4.77411 50.2012 4.6766 51.6134 4.66267 53.0257C4.62966 53.6941 4.55527 54.3599 4.43979 55.0194C4.32835 55.8916 4.18906 56.75 4.06369 57.6361C3.79902 57.6361 3.98011 57.0546 3.56221 57.1515C3.56221 56.3762 3.54828 55.6009 3.53435 54.8394H3.35326C3.35326 55.144 3.3254 55.4486 3.35326 55.7532C3.38112 56.0578 3.49256 56.6808 3.57614 57.1377C3.7277 57.554 3.78941 57.9975 3.75723 58.4391C3.0468 58.2868 2.89358 58.0792 2.85179 57.3315C2.81 56.5839 2.78214 55.5039 2.72642 54.5763C2.72168 54.433 2.64256 54.3018 2.51747 54.2302C2.46175 54.4102 2.3921 54.5902 2.33638 54.7563C1.87669 54.9917 1.70954 54.604 1.4588 54.2856C1.3195 55.227 2.09957 56.0439 1.63989 57.0131C1.16627 56.4593 0.971252 55.8501 0.776233 55.2409C0.678724 54.9501 0.636934 54.6732 0.344407 54.4517C0.0518792 54.2302 -0.0317001 53.8148 0.0100895 53.3856C0.163318 51.6134 0.288687 49.8274 0.400126 48.0414C0.427986 47.6537 0.232968 47.2107 0.344407 46.8645C1.02697 44.7324 1.13841 42.4895 1.68168 40.3296C2.36424 37.616 3.28361 34.9854 4.25871 32.3825C4.6376 31.4659 4.90881 30.5088 5.06664 29.5304C5.17808 28.7827 5.35917 28.0351 5.48454 27.412C5.69348 27.2321 5.93029 27.1351 5.98601 26.9828C6.47356 25.3491 7.35114 23.9231 8.22872 22.4832C9.10631 21.0433 9.6635 19.6034 10.3461 18.1496C11.0066 16.6874 11.8591 15.3187 12.8813 14.0791C13.0624 13.8714 13.132 13.5669 13.1878 13.3038C13.2301 12.9919 13.2488 12.6772 13.2435 12.3623L13.9818 12.6531C14.3718 11.947 14.7201 11.227 15.1519 10.5624C15.2912 10.3271 15.6394 10.2163 15.8484 10.0917C16.3916 9.46868 16.5588 8.63797 17.311 8.19492C17.4503 8.11185 17.5339 7.90417 17.5896 7.73803C17.6772 7.41696 17.9011 7.14892 18.2025 7.00423C18.3836 6.90732 18.4672 6.63041 18.5926 6.42274C18.6303 6.39615 18.6728 6.37732 18.7179 6.36736C19.3726 6.35351 19.9298 6.24275 19.9298 5.39819C19.9298 5.27358 20.0691 5.12129 20.1945 5.02437C22.7715 2.9199 25.5714 1.2031 28.831 0.344696C31.0877 -0.264493 33.3443 0.012411 35.5731 0.566219C37.4258 1.03696 39.2367 1.60461 40.964 2.42147C41.8567 2.81883 42.7787 3.14738 43.7221 3.40448C44.725 3.68139 45.3937 4.3598 46.0484 5.0936C46.7031 5.82739 47.3996 6.74118 48.2075 7.40574C49.6895 8.56154 50.8106 10.1128 51.4392 11.8777C51.7472 12.6658 52.096 13.4375 52.484 14.1899C53.8212 16.862 54.4481 19.728 54.8103 22.6631C55.3953 27.5782 55.1724 32.4932 54.6292 37.3944C54.462 38.8482 54.1695 40.3019 53.9605 41.7557C53.8491 42.6141 53.8352 43.4863 53.7098 44.3447C53.6478 44.7858 53.4961 45.2098 53.264 45.5908C52.7691 46.4306 52.4072 47.3412 52.1915 48.2906C51.5089 51.1289 50.5199 53.8702 49.503 56.6116C48.2354 60.0175 46.926 63.3957 45.6305 66.7878C45.5608 66.9678 45.533 67.1893 45.4076 67.2862C44.8783 67.7154 44.8643 68.3384 44.6832 68.8923C44.503 69.4707 44.2699 70.0314 43.9867 70.5675C43.5676 71.3354 43.2671 72.1614 43.0952 73.0181L44.126 73.1012C46.5549 73.2682 48.9618 73.6669 51.3139 74.2919C53.3337 74.8041 55.0889 75.8425 56.6072 77.2132C58.5992 79.0269 60.5494 80.8822 62.4021 82.8344C63.3631 83.8887 64.1911 85.0557 64.8676 86.3095C66.0656 88.4694 67.2636 90.6569 68.169 92.9413C69.7152 96.8042 71.1222 100.708 71.9022 104.821C72.0137 105.416 72.0694 106.011 72.139 106.62C72.1395 106.755 72.1303 106.889 72.1112 107.022L71.749 106.44C71.7131 106.505 71.6895 106.575 71.6794 106.648C71.8465 108.06 72.0415 109.473 72.2087 110.885C72.3062 111.715 72.3619 112.56 72.4594 113.391C72.7102 115.523 72.5848 117.641 72.348 119.759C72.3062 120.189 72.4176 120.632 72.4455 121.075C72.464 121.175 72.4688 121.278 72.4594 121.379C72.3062 122.501 72.153 123.622 71.9858 124.744C71.944 124.965 72.0973 125.394 71.554 125.27C71.5261 125.256 71.3868 125.574 71.359 125.754C71.1918 126.834 70.9968 127.928 70.8993 129.022C70.7739 130.503 70.551 131.943 70.0356 133.342C69.5202 134.74 69.5342 136.125 69.2973 137.523C69.2765 137.776 69.2765 138.031 69.2973 138.284H69.4506C69.4924 138.118 69.5063 137.966 69.562 137.8L69.8267 137.204C69.9268 136.992 70.0152 136.775 70.0914 136.554C70.2585 135.861 70.4117 135.169 70.5928 134.491C70.6207 134.38 70.7321 134.297 70.8018 134.2C70.4814 135.792 70.2028 137.398 69.8406 138.977C69.2416 141.621 68.573 144.238 67.9601 146.882C67.6954 147.976 67.5143 149.097 67.2218 150.191C67.0407 150.897 66.7342 151.562 66.4835 152.254C66.3581 152.6 66.2188 152.946 66.1074 153.293C65.2855 156.006 64.3801 158.706 63.0985 161.254C62.9732 161.489 62.8478 161.71 62.6946 162.015L62.3742 161.669C62.3463 161.697 62.3045 161.724 62.2906 161.752C61.8867 162.583 61.4966 163.427 61.0926 164.244C60.9744 164.51 60.8248 164.761 60.6469 164.992C59.9365 165.836 59.24 166.695 58.4878 167.498C57.9863 168.052 57.7495 168.702 57.5545 169.381C57.4291 169.768 57.3176 170.142 56.8162 170.225C56.5654 169.616 57.5962 169.215 57.053 168.536C56.476 168.86 56.0504 169.397 55.8689 170.031C55.6043 171.014 54.9356 171.527 54.0023 171.928C53.8491 171.499 53.0969 171.499 53.2919 170.751C54.0163 170.959 54.671 170.779 55.3117 170.544V170.35L55.0889 170.239L54.8242 170.184C54.8521 169.976 54.8938 169.782 54.9356 169.491L54.0023 169.616C53.6959 169.81 54.1834 170.419 53.4869 170.336L53.4451 169.768C52.6651 169.879 52.4283 170.544 51.9964 171.056L47.8453 170.613C47.8175 170.931 47.7757 171.277 47.7478 171.665C47.107 171.554 46.8981 170.917 46.327 170.558L46.5498 171.208L46.1041 171.07L45.9369 171.651L45.2683 170.585C45.3101 171.084 45.3379 171.444 45.3658 171.859C44.8504 171.859 44.725 171.568 44.6275 171.264C44.53 170.959 44.4464 170.599 44.3211 170.294C44.2151 170.067 44.0891 169.85 43.945 169.644L41.8555 169.99C41.549 168.965 41.1033 168.107 40.365 167.428C40.2535 167.332 40.2396 167.096 40.2396 166.93C40.2257 166.127 39.9889 165.379 39.7381 164.632C39.4658 163.89 39.2606 163.125 39.1252 162.347C38.8562 160.579 38.4321 158.836 37.8576 157.142C36.9243 154.372 36.2278 151.548 35.5174 148.71C34.7373 145.553 33.7761 142.424 33.01 139.254C32.3831 136.651 31.9374 134.006 31.4081 131.376C30.823 128.496 30.1683 125.616 29.6807 122.722C29.4022 121.102 28.9146 119.566 28.441 118.001C28.1485 117.032 28.0788 116.049 28.0788 115.038C28.0745 114.596 28.028 114.156 27.9395 113.723C27.4241 110.815 26.8948 107.922 26.3794 105.028C26.0311 103.09 25.7107 101.138 25.3764 99.1994C25.3486 98.9917 25.2789 98.7979 25.2232 98.5486C24.2481 98.7286 23.3287 98.9225 22.4929 99.4071C22.1725 99.587 21.9357 99.9609 21.4621 99.7393C21.4064 99.7116 21.1696 100.058 21.0164 100.238C20.8631 100.418 20.9885 100.252 20.9885 100.21C20.9241 99.9777 20.873 99.742 20.8353 99.504L20.1527 99.8086C20.0042 99.8835 19.86 99.9667 19.7209 100.058C19.5816 99.7255 19.4562 99.4347 19.3169 99.1301C18.8572 99.2963 18.8851 99.7116 18.7597 100.044C18.5508 100.612 18.1468 100.847 17.6871 100.612C17.5514 100.535 17.4291 100.437 17.3249 100.321C17.2274 100.196 17.1578 100.058 17.0603 99.9193C16.7677 99.4763 16.7677 99.4763 16.2245 99.6286C15.7787 99.1994 15.333 98.7979 14.9011 98.3687C14.7302 98.2046 14.5888 98.0126 14.4832 97.801C14.0932 97.0534 14.3022 96.4719 15.0962 96.0704C15.0962 95.9319 15.1101 95.7796 15.0962 95.6135C15.0822 95.4473 15.1101 94.9766 15.4305 94.7274C15.7509 94.4782 15.6951 94.3397 15.8066 94.132C16.8235 92.3737 18.0075 90.7261 19.2333 89.1062C20.4592 87.4863 21.4621 85.9634 22.5626 84.3989C22.7839 84.101 22.8607 83.72 22.7715 83.3605C21.7964 77.1024 20.8631 70.8444 19.8462 64.5864C19.6234 63.1603 19.1219 61.7897 18.7458 60.3913C18.704 60.2252 18.6204 60.0313 18.6622 59.879C18.8572 59.1037 18.6901 58.3561 18.5368 57.6084C18.3836 56.8608 18.2025 56.2239 18.0772 55.5316C17.9936 55.0886 17.8961 54.6317 17.9518 54.2025C18.0632 53.4272 17.91 52.6934 17.8125 51.9457C17.5757 50.3258 17.3946 48.706 17.1578 47.0999C16.8095 44.7324 16.4474 42.3649 16.0573 40.0112C15.9459 39.3189 15.5698 38.6405 15.5419 37.9482C15.5141 37.256 15.7927 36.6468 15.8902 35.9822C16.1827 33.8639 16.6981 31.801 17.7707 29.918C17.906 29.6666 18.0798 29.4377 18.2861 29.2396C18.6901 28.8658 19.0801 28.4643 19.5259 28.1735C20.2781 27.6388 21.2653 27.5487 22.1029 27.9382C23.1476 28.3812 24.1645 28.8935 25.1814 29.4058C25.3789 29.5323 25.5532 29.6915 25.6968 29.8765C28.3853 32.8394 30.0151 36.2868 30.5026 40.2465C30.6419 41.4234 30.7951 42.5864 30.8926 43.7771C30.9623 44.6355 30.8926 45.5077 30.9902 46.3661C31.2409 48.2906 31.5752 50.2151 31.826 52.1396C31.9513 53.1503 31.9652 54.1887 32.0906 55.1994C32.411 57.9407 32.7593 60.6821 33.0936 63.4234C33.0958 63.5048 33.1147 63.585 33.1493 63.6588C33.6647 64.1987 33.5393 64.9187 33.6647 65.5694C33.7901 66.2201 33.7901 66.9262 33.8597 67.6046C34.0129 69.0861 34.1662 70.5814 34.3473 72.2289C34.793 71.7997 35.1273 71.5228 35.1413 71.0106C35.1513 70.8009 35.1985 70.5948 35.2806 70.4014C35.4895 69.9168 35.2388 69.2384 35.9353 68.9892C36.2557 68.1861 36.59 67.4108 36.8964 66.6078C37.0079 66.2894 37.0775 65.9432 37.175 65.6248C37.2725 65.3063 37.2725 65.1956 37.3979 65.1264C38.0387 64.7802 38.2058 64.1433 38.4566 63.5619C38.7073 62.9804 38.9302 62.3435 39.1531 61.7343C38.6237 61.3882 38.6098 61.3051 38.9859 60.4328C39.1113 60.5574 39.2227 60.6682 39.4177 60.8343C39.4874 60.0036 40.0864 59.436 40.2675 58.6883C40.4486 57.9407 40.7689 57.1931 41.0057 56.4454C41.2426 55.6978 41.4794 54.9917 41.7022 54.2579C41.9251 53.5241 42.1062 52.7626 42.3152 52.015L42.1341 51.9734L41.2565 54.7978L41.1311 54.7702C41.2983 54.1194 41.4515 53.4549 41.6187 52.8041C41.914 51.6598 42.3539 50.5572 42.9281 49.5228C43.0748 49.2469 43.1692 48.9466 43.2067 48.6367C43.346 47.7229 43.3181 46.8092 43.8057 45.9646C43.9728 45.66 43.8753 45.2031 43.9032 44.8293C43.9108 44.5993 43.9482 44.3713 44.0146 44.1509C44.1957 43.694 44.5021 43.2786 44.6136 42.8079C44.8078 42.0216 44.9337 41.2203 44.9897 40.4127C45.0454 39.7343 44.9618 39.0559 44.9479 38.3636C44.9575 38.2369 44.9809 38.1115 45.0176 37.9898H45.4076C45.4633 37.4221 45.533 36.8545 45.6305 36.1207C45.4494 36.3976 45.3658 36.5222 45.1986 36.7991C45.1843 36.587 45.1843 36.3743 45.1986 36.1622C45.3101 35.6638 45.5748 35.2069 45.5051 34.6531C45.4494 34.1289 45.4355 33.6011 45.4633 33.0747C45.4633 32.8117 45.2683 32.4517 45.7001 32.2717C45.7419 32.2579 45.7558 32.1333 45.7558 32.0502C45.7698 31.4687 45.7419 30.8733 45.7837 30.2918C45.8187 29.9409 45.8839 29.5934 45.9787 29.2535L45.4494 28.9627C45.3937 27.2321 45.3797 25.5568 45.2962 23.8677C45.1847 21.957 44.9061 20.0603 44.2236 18.2327C43.8982 17.3429 43.4014 16.5245 42.7609 15.8236C42.6337 15.6895 42.5302 15.5349 42.4545 15.3667C41.145 12.5562 38.9302 10.604 36.3532 9.01179C35.879 8.7209 35.3856 8.46186 34.8766 8.23646C34.5869 8.1124 34.2725 8.0555 33.9572 8.07031C33.2329 8.12569 32.5224 8.2503 31.7981 8.37491C31.7145 8.38875 31.6449 8.48567 31.5474 8.5272C31.4498 8.56874 31.0319 8.85949 30.7673 8.85949C29.82 8.90103 29.0678 9.5379 28.1624 9.70405C28.0788 9.71789 28.0231 9.8425 27.9395 9.91172C27.6115 10.2115 27.2674 10.4934 26.9087 10.7563C26.4908 11.047 26.0729 11.3378 25.5018 11.3655C25.2093 11.3793 24.9167 11.5731 24.6381 11.6978L23.8163 12.6254ZM66.1353 151.313C66.0139 151.501 65.9113 151.7 65.8288 151.908C65.2298 153.694 64.6308 155.48 64.0458 157.266C63.9901 157.418 63.9622 157.585 63.9204 157.737C64.4768 156.582 64.9469 155.389 65.3273 154.165C65.6338 153.223 65.8567 152.254 66.1074 151.299C66.3581 150.344 66.6646 149.568 66.9293 148.71C66.98 148.458 67.0172 148.204 67.0407 147.948C67.0964 147.879 67.1939 147.81 67.2218 147.727C67.7372 145.913 68.2944 144.099 68.768 142.272C69.0188 141.33 69.172 140.375 69.0605 139.392C68.9545 139.627 68.8751 139.874 68.8237 140.126C68.2805 142.479 67.7233 144.833 67.18 147.187C67.1243 147.45 67.0964 147.699 67.0546 147.962L66.2467 150.551C66.1892 150.802 66.1518 151.057 66.1353 151.313ZM51.3417 162.68C52.47 162.292 53.1526 161.558 53.4033 160.492C53.8909 158.374 54.4899 156.325 55.7157 154.497C55.8454 154.27 55.8804 154.001 55.8132 153.749C55.7237 153.395 55.748 153.023 55.8829 152.683C56.1475 151.936 56.3286 151.16 56.649 150.44C57.4291 148.696 57.9027 146.882 58.2927 145.013C58.7524 142.756 59.3653 140.513 59.8111 138.243C60.1454 136.568 60.2986 134.865 60.5494 133.175C60.6887 132.165 61.0648 131.196 61.0926 130.157C61.1344 128.842 61.2459 127.527 61.3991 126.225C61.9145 121.615 62.2349 117.004 62.1374 112.366C62.0817 109.306 61.9424 106.26 61.2598 103.27C60.464 99.8345 59.2231 96.5163 57.5684 93.3982C57.4012 93.0936 57.2759 92.7752 57.1087 92.4706C56.7187 91.7368 56.3286 90.9892 55.8829 90.2831C55.4371 89.577 54.5456 88.857 54.1834 87.9155C54.1416 87.8048 54.0163 87.7217 53.9188 87.6248C52.9576 86.6695 51.885 85.8803 50.5895 85.3819C47.2463 84.1081 43.8196 83.8035 40.3232 84.6896C38.769 85.0763 37.3064 85.7632 36.0189 86.711C36.0606 87.0433 36.1024 87.3479 36.1581 87.6525C36.8268 91.5984 37.4815 95.5442 38.1501 99.4763C38.9163 103.962 39.7103 108.448 40.4625 112.934C40.8943 115.495 41.2983 118.07 41.6883 120.632C41.8694 121.864 41.8973 123.11 42.148 124.315C42.4962 125.934 42.8027 127.554 43.137 129.174C43.931 133.065 44.7807 136.941 45.7419 140.79C47.2603 146.896 48.9179 152.96 50.102 159.135C50.3194 160.376 50.7381 161.573 51.3417 162.68ZM61.4548 129.922H61.3573V130.628H61.4548V129.922ZM62.5135 161.281L62.6389 161.35C62.6946 161.281 62.7782 161.226 62.806 161.143C62.8245 161.047 62.8293 160.949 62.82 160.852H62.6946C62.6389 160.99 62.5692 161.129 62.5135 161.281Z" fill="white"/>
<path d="M140.075 89.0092C140.033 88.0539 139.852 87.2924 140.116 86.3232C140.214 86.6001 140.284 86.697 140.284 86.794C140.311 88.1369 140.298 89.4799 140.381 90.8091C140.409 91.1552 139.949 91.2106 140.116 91.5982C140.284 91.9859 140.158 92.2213 140.075 92.512C139.991 92.8028 139.754 93.0381 139.559 93.3566C139.42 92.872 139.058 92.4428 139.587 92.0136C139.629 91.9745 139.644 91.9157 139.629 91.8613C139.239 91.1967 139.615 90.546 139.629 89.8814C139.643 89.6876 139.629 89.4938 139.629 89.2169C139.253 89.383 139.086 89.563 139.072 89.9368C139.004 91.9269 139.153 93.9184 139.517 95.8764C139.726 97.0394 140.089 98.1609 140.451 99.2962C140.601 99.7166 140.812 100.113 141.078 100.473C141.537 101.124 142.039 101.262 142.707 100.819C143.267 100.469 143.768 100.029 144.184 99.5177C145.312 98.0362 146.496 96.5548 147.444 94.9626C150.09 90.4906 152.653 85.9909 155.216 81.4774C157.027 78.2653 158.783 75.0117 160.552 71.7858C160.719 71.4888 160.85 71.1726 160.942 70.8443C162.544 64.1709 165.539 58.1482 169.411 52.5271C169.843 51.8902 170.191 51.2118 170.581 50.5611C170.72 50.3396 170.832 50.0765 170.999 49.8965C172.977 47.7367 174.983 45.5907 177.435 43.9431C177.978 43.5693 178.507 43.1816 179.037 42.7939C179.845 42.1986 180.764 42.0048 181.711 41.8801C183.355 41.6725 184.999 41.8109 186.628 42.0463C186.73 42.046 186.83 42.0697 186.921 42.1155C187.506 42.6278 188.272 42.7801 188.941 43.1124C189.686 43.4441 190.299 44.0145 190.682 44.7323C190.745 44.8502 190.842 44.9467 190.961 45.0092C191.88 45.3414 192.549 46.0476 193.301 46.6152C194.053 47.1829 194.986 47.972 195.864 48.6228C196.155 48.8021 196.321 49.1284 196.296 49.4673C196.283 49.6447 196.191 49.8074 196.045 49.9104C195.718 50.0834 195.365 50.2048 195 50.2703C194.478 50.326 193.953 50.3537 193.426 50.3534C193.322 50.3751 193.214 50.3605 193.12 50.3119C192.298 49.855 191.365 49.675 190.501 49.315C189.913 49.0806 189.353 48.7835 188.829 48.4289C187.939 47.8189 186.963 47.343 185.932 47.0167C184.873 46.6706 183.856 46.809 183.048 47.6121C181.697 48.9412 180.332 50.2703 179.051 51.6687C177.901 52.9078 176.928 54.2958 176.153 55.7946C175.805 56.5007 175.359 57.1514 174.955 57.8437C174.551 58.5359 174.203 59.0897 174.022 59.8235C173.924 60.2527 173.632 60.6265 173.423 61.0142C173.214 61.4019 172.824 62.0664 172.545 62.6064C172.058 63.534 171.556 64.4755 171.138 65.4308C170.832 66.0954 170.637 66.8153 170.414 67.5076C169.648 69.8336 168.826 72.1457 168.506 74.5825C168.366 75.7316 168.324 76.8808 168.255 78.0438C168.253 78.2109 168.267 78.3777 168.297 78.5422C168.575 78.2792 168.77 78.1269 168.937 77.933C169.745 76.9916 170.567 76.0778 171.319 75.0948C172.476 73.5856 173.562 72.0211 174.677 70.4982C174.955 70.1105 175.289 69.7644 175.582 69.3905C175.874 69.0167 176.209 68.726 176.404 68.3383C176.822 67.4522 177.504 66.8015 178.089 66.0539C179.259 64.5724 180.346 63.0079 181.53 61.5265C182.714 60.045 184.065 58.3975 185.361 56.8468C186.183 55.8776 186.977 54.8946 187.492 53.7178C187.576 53.5101 187.659 53.2609 187.98 53.3855C188.161 52.9701 188.69 52.984 188.927 52.6932C189.164 52.4025 189.651 52.2087 190.167 52.264C190.125 52.001 190.097 51.8072 190.055 51.6133C190.013 51.4195 190.139 51.5303 190.18 51.5303L191.03 51.461L191.782 51.4333C191.908 51.4333 192.075 51.4887 192.159 51.4333C192.618 51.0734 193.036 51.2533 193.37 51.5579C193.705 51.8625 193.83 51.5856 194.053 51.5718C194.276 51.5579 194.109 51.821 194.164 52.0702L194.401 51.5164L194.527 52.5963L195.084 52.4302C195.028 53.0532 195.112 53.5655 195.516 54.0085C195.92 54.4516 195.836 54.8808 195.655 55.2961C195 56.833 194.708 58.439 194.373 60.0589C194.109 61.388 193.51 62.6479 192.966 63.9079C192.423 65.1678 192.047 66.6492 191.755 68.0614C191.462 69.4736 191.211 70.5259 190.919 71.7581C190.501 73.4333 190.403 75.1225 190.445 76.8531C190.455 77.3993 190.421 77.9455 190.348 78.4868C190.222 79.4837 190.375 80.4667 190.445 81.5189C191.016 81.3113 191.337 80.9928 191.657 80.6328C191.957 80.3031 192.278 79.9931 192.618 79.7052L193.134 79.2345C193.524 78.833 193.886 78.4176 194.304 78.0576C195.155 77.3428 195.897 76.5078 196.505 75.5794C196.881 75.0255 197.396 74.541 197.856 74.0425C199.816 71.8734 201.784 69.7044 203.762 67.5353C204.25 67.0092 204.793 66.5384 205.294 66.04C205.423 65.9484 205.54 65.8415 205.643 65.7216C205.963 65.2093 206.228 64.7109 206.91 64.5447C207.161 64.4894 207.342 64.1017 207.537 63.8663C208.136 63.1325 208.721 62.3849 209.348 61.6788C209.696 61.2773 210.086 60.945 210.253 60.405C210.421 59.8651 210.852 59.7543 211.368 59.6574C211.312 59.8097 211.284 60.0174 211.173 60.1004C210.769 60.4327 210.699 60.8758 210.643 61.3603C210.6 61.5557 210.525 61.7427 210.421 61.9141C210.281 62.1062 210.17 62.3157 210.086 62.5372C211.855 61.3188 212.858 59.3251 214.572 58.0375C214.544 58.4252 214.53 58.4252 214.14 58.8267C213.75 59.2282 213.638 59.2282 214.14 59.4912C214.042 59.6435 213.973 59.8374 213.833 59.9204C213.276 60.2389 213.039 60.8065 212.677 61.2773C212.315 61.748 211.841 62.2187 211.424 62.6895C211.312 62.7919 211.213 62.9082 211.131 63.0356C210.978 63.3264 210.852 63.6309 210.699 63.9217C210.546 64.2124 210.476 64.3232 210.365 64.517C210.713 64.7386 210.922 64.5586 211.089 64.3509C211.283 64.1002 211.45 63.8311 211.591 63.5479C211.8 63.1464 212.023 62.7725 212.552 62.4818C212.305 63.3068 211.872 64.0649 211.284 64.697C210.838 65.1955 210.476 65.7908 210.086 66.3446C209.891 66.6077 209.71 66.9123 209.487 67.1615L202.118 75.5378C201.492 76.2439 200.879 76.9777 200.307 77.7254C200.043 78.0576 199.904 78.4591 199.653 78.8053C199.402 79.1514 199.04 79.6498 198.636 79.9821C198.232 80.3144 197.842 80.5636 197.744 81.1036C197.733 81.1799 197.693 81.2492 197.633 81.2974C196.825 81.782 196.574 82.7235 195.906 83.3188C195.516 83.6649 195.098 83.9972 194.917 84.6064C194.736 85.2156 194.123 85.3402 193.733 85.7417C193.343 86.1432 192.549 86.0878 192.437 86.8355C192.047 86.7386 191.755 87.1816 191.337 86.9878C191.147 86.9168 190.937 86.9217 190.752 87.0016C189.874 87.3893 188.969 87.417 188.035 87.237C187.826 87.1955 187.617 87.2232 187.408 87.1678C187.199 87.1124 186.823 87.0155 186.656 86.8355C186.365 86.492 185.969 86.2533 185.528 86.1571C184.957 86.0463 184.622 85.7002 184.427 85.1464C183.815 83.2357 183.327 81.2974 183.355 79.276C183.383 77.2546 183.508 75.3301 183.592 73.3641C183.62 72.5888 183.661 71.8135 183.55 70.9966L183.146 71.5366L179.761 76.1055C178.633 77.6284 177.504 79.1514 176.348 80.6467C175.833 81.3113 175.248 81.9204 174.69 82.5435C174.426 82.8342 174.064 83.0142 173.966 83.4573C173.924 83.6234 173.687 83.7619 173.506 83.8726C171.445 85.1879 169.286 86.1848 166.778 86.434C164.8 86.6417 163.073 86.0325 161.318 85.3956C160.774 85.2018 160.496 84.731 160.315 84.2326C160.134 83.7342 159.994 83.2357 159.799 82.585C157.292 86.8355 155.342 91.2383 153.016 95.5857L153.67 95.1703C153.573 95.4334 153.545 95.5718 153.489 95.6964C152.279 98.0956 150.911 100.413 149.394 102.633C149.157 102.979 149.032 103.38 148.781 103.713C148.53 104.045 148.335 104.045 148.098 104.225L148.488 104.557C148.112 104.917 147.764 105.277 147.402 105.61C147.318 105.693 147.123 105.79 147.068 105.762C147.012 105.734 146.733 105.54 146.594 105.79C146.455 106.039 146.301 106.15 146.315 106.33C146.371 107.188 145.953 107.783 145.229 108.129C144.504 108.476 143.585 108.863 142.749 109.195C141.913 109.528 140.966 109.846 140.075 110.192C139.587 110.386 139.141 110.275 138.71 110.04C137.734 109.514 136.759 108.988 135.798 108.434C134.837 107.88 134.182 107.008 133.709 106.011C132.737 103.934 132.116 101.712 131.87 99.4346C131.271 94.0904 131.327 88.7184 131.382 83.3465C131.41 81.2559 131.494 79.1514 131.564 77.0469C131.577 76.6039 131.661 76.1608 131.717 75.6901C131.619 75.7455 131.55 75.7732 131.536 75.8147C130.867 77.3792 130.184 78.9437 129.53 80.5221C129.265 81.1451 129.056 81.8097 128.75 82.4189C127.217 85.594 125.662 88.76 124.083 91.9167C123.874 92.332 123.61 92.7335 123.373 93.1351C122.969 93.8273 122.579 94.5057 122.203 95.198C121.827 95.8902 121.645 96.3333 121.325 96.8733C121.005 97.4132 120.684 98.0086 120.503 98.6593C120.392 99.0469 120.113 99.3931 119.862 99.7254C119.612 100.058 118.971 100.57 118.999 101.262C119.013 101.387 118.818 101.498 118.72 101.622C118.386 102.029 118.074 102.455 117.787 102.896C118.358 102.757 118.623 102.259 119.068 101.927C119.044 102.047 119.001 102.164 118.943 102.273C118.33 102.993 117.689 103.699 117.076 104.419C115.925 105.8 114.503 106.935 112.897 107.756C111.881 108.268 110.836 108.559 109.694 108.503C109.067 108.462 108.426 108.559 107.799 108.586C107.172 108.614 106.629 108.78 106.142 108.614C105.47 108.366 104.85 107.995 104.317 107.52C103.765 107.071 103.281 106.544 102.882 105.956C101.426 103.906 100.476 101.544 100.11 99.0608C99.6641 95.9872 99.2044 92.9274 98.7587 89.9091C98.6472 90.186 98.5079 90.5183 98.3826 90.8644C98.0622 91.7505 97.7418 92.6366 97.4075 93.5227C97.1567 94.1873 96.9338 94.8795 96.5717 95.4749C96.1882 96.1615 95.889 96.8912 95.6802 97.6486C94.7747 100.625 93.8414 103.588 92.4902 106.399C91.6823 108.074 90.6933 109.68 89.7739 111.3C89.5945 111.56 89.3787 111.793 89.1331 111.992C88.7292 112.366 88.2834 112.698 87.9073 113.114C87.5312 113.529 87.3083 113.958 86.974 114.443C86.3332 114.221 85.7899 114.498 85.2606 114.886C84.7313 115.274 84.383 115.301 83.8955 114.941C83.4079 114.581 82.8925 114.678 82.5861 114.152C82.4886 113.958 82.0707 113.958 81.7921 113.861L80.803 113.474C80.3712 113.695 79.9812 113.321 79.5215 112.975C78.24 112.006 77.6549 110.691 77.3763 109.154C77.2171 108.274 77.0031 107.405 76.7355 106.551C76.2062 104.945 76.0251 103.284 75.8161 101.608C75.5793 99.6284 75.259 97.6486 75.0221 95.6687C74.8689 94.4365 74.6182 93.1904 74.7575 91.9859C74.9246 90.4076 74.2699 88.9123 74.5346 87.3754C74.0192 85.5479 74.3674 83.6649 74.1028 81.8097C73.9356 80.5636 74.0053 79.2899 73.9356 78.0299C73.8427 76.3224 73.7313 74.6195 73.6013 72.9211C73.4481 71.0381 73.7127 69.1967 73.9217 67.3415C74.1306 65.4862 74.2978 63.7279 74.4789 61.928C74.6182 60.4881 74.7714 59.0482 74.8828 57.6083C74.9246 56.9299 75.3425 56.5145 75.7744 56.0853C75.94 55.969 76.146 55.924 76.3455 55.9607C76.7316 56.0636 77.1424 56.0243 77.5017 55.8499C78.3653 55.4346 79.229 55.4484 80.1483 55.7115C80.7195 55.8638 81.2906 56.1407 81.9314 55.9192C82.1168 55.8977 82.3033 55.9528 82.4468 56.0715C82.9065 56.4038 83.3383 56.7776 83.784 57.1376C84.592 57.8021 84.9124 58.7021 84.9959 59.6989C85.0795 60.6958 85.0656 61.4849 85.0795 62.371C85.1074 64.7663 85.1631 67.1615 85.1352 69.5567C85.0656 74.2087 84.9124 78.8745 84.8566 83.5265C84.8009 86.6278 84.7731 89.7291 84.8566 92.8305C84.9263 95.6272 85.2606 98.3962 86.1103 101.082C86.2835 101.659 86.5072 102.22 86.779 102.757C87.0067 103.169 87.2981 103.543 87.6426 103.865C88.0187 104.239 88.5063 104.391 89.0217 104.114C89.5371 103.837 89.8435 103.491 89.7878 102.854C89.7829 102.489 89.854 102.126 89.9968 101.788C91.2087 98.3408 92.4624 94.9072 93.6325 91.4459C94.0364 90.2553 94.2036 88.9815 94.5379 87.777C94.7886 86.8355 95.109 85.9217 95.4294 84.9941C95.7498 84.0665 96.2791 82.7788 96.6413 81.6574C96.8224 81.1451 96.8363 80.5775 96.9756 80.0513C97.1126 79.4932 97.2942 78.9469 97.5189 78.4176C97.8731 77.6225 98.1393 76.7915 98.3129 75.9393C98.4522 75.2748 98.7308 74.6517 98.9398 74.001C99.2323 73.0457 99.5109 72.0904 99.8313 71.135C99.9288 70.8028 100.124 70.4843 100.249 70.1382C100.43 69.5705 100.611 68.989 100.751 68.4075C101.6 64.7109 102.436 61.0281 103.746 57.456C104.386 55.6977 105.041 53.9532 105.738 52.2225C106.058 51.4749 106.545 50.8103 106.894 50.0627C107.204 49.3714 107.633 48.7389 108.161 48.1936C108.579 47.8059 108.886 47.2936 109.192 46.7952C109.557 46.1535 110.085 45.6186 110.724 45.2445C111.253 44.9415 111.76 44.6039 112.243 44.2338C113.288 43.4585 114.402 43.0431 115.725 43.3754C115.986 43.4304 116.252 43.4582 116.519 43.4585C117.369 43.4862 118.079 43.7908 118.776 44.3031C119.208 44.6353 119.64 44.9122 119.862 45.4384C119.96 45.646 120.225 45.8122 120.447 45.9368C120.67 46.0614 121.088 46.4629 121.311 46.8367C122.036 48.0413 122.147 49.4258 122.467 50.7411C122.618 51.4084 122.734 52.0832 122.816 52.7625C122.983 53.8701 122.829 54.9639 122.662 56.0576C122.453 57.5114 122.258 58.979 122.049 60.4327C121.966 61.125 121.632 61.6372 121.074 62.0803C120.517 62.5233 120.016 63.0218 119.458 63.5202C119.222 63.3996 118.975 63.3021 118.72 63.2294C117.035 62.8279 116.617 61.5542 116.491 60.0727C116.45 59.5605 116.505 59.0343 116.505 58.5082C116.505 57.9821 116.505 57.6637 116.199 57.3175C116.101 57.1929 116.101 56.9853 116.101 56.8053C116.087 56.0992 115.99 55.7392 115.544 55.1162C115.043 55.2045 114.618 55.5379 114.416 56.0022C113.914 57.096 113.427 58.2036 112.953 59.3112C112.87 59.5051 112.828 59.7128 112.73 59.9066C111.365 62.6064 110.599 65.5 109.958 68.4352C109.031 72.6753 108.352 76.9652 107.925 81.2836C107.548 85.2018 107.632 89.1061 107.966 93.0243C108.133 95.0595 108.607 97.0255 109.067 98.9916C109.15 99.3792 109.276 99.7669 109.262 100.155C109.234 100.944 109.54 101.581 110.028 102.162C110.153 102.301 110.265 102.453 110.418 102.647C112.187 101.802 113.859 100.833 115.182 99.3515C115.697 98.7977 116.31 98.327 116.854 97.8009C117.072 97.614 117.26 97.3944 117.411 97.1502C118.999 94.2011 120.587 91.2659 122.133 88.3031C122.718 87.1539 123.192 85.9494 123.721 84.7726C123.743 84.6965 123.771 84.6225 123.805 84.551C124.459 83.4988 124.849 82.322 125.267 81.1728C125.448 80.6882 125.657 80.2175 126.089 79.8437C126.521 79.4698 126.521 79.1929 126.674 78.8468L131.09 68.7121C131.633 67.4799 132.218 66.2754 132.803 65.0708C133.388 63.8663 133.458 62.911 133.625 61.7895C134.935 52.8594 136.495 43.9846 138.556 35.1929C139.127 32.7977 140.033 30.4717 140.674 28.0903C141.398 25.3905 142.443 22.8015 143.334 20.1709C143.613 19.3402 143.961 18.551 144.073 17.6788C144.119 17.4491 144.213 17.2318 144.351 17.0419C144.713 16.4881 145.062 15.9204 145.466 15.4081C146.094 14.5888 146.535 13.6441 146.761 12.6391C146.843 12.2262 147.052 11.8488 147.36 11.5592C147.772 11.1898 148.091 10.7299 148.293 10.2162C148.416 9.93182 148.632 9.69728 148.906 9.55163C150.522 8.73476 152.249 8.69322 153.935 9.09473C155.62 9.49624 156.791 10.59 157.278 12.3345C157.766 14.079 158.518 15.9758 158.769 17.8864C159.019 19.7971 159.228 21.2923 159.312 22.9953C159.437 25.6397 159.535 28.298 159.479 30.9563C159.337 38.8011 157.277 46.4952 153.475 53.3717C152.723 54.7423 151.985 56.0853 151.079 57.3729C149.603 59.4774 148.164 61.6188 146.761 63.7971C145.438 65.8323 144.184 67.8953 142.93 69.972C142.695 70.3835 142.522 70.8264 142.415 71.2873C142.025 72.8657 141.663 74.4579 141.301 76.0501C141.287 76.0916 141.245 76.147 141.259 76.2024C141.412 76.8808 141.106 77.5177 140.952 78.1407C140.479 79.996 140.576 81.8928 140.423 83.7619C140.409 83.9418 140.437 84.1772 140.339 84.3018C140.089 84.6341 140.158 84.9802 140.158 85.3541C140.158 85.7279 140.284 86.074 139.796 86.2125C139.754 86.2125 139.726 86.2678 139.699 86.3094C139.462 86.8493 139.615 88.2339 140.075 89.0092ZM143.878 62.7864L143.989 62.8279L144.156 62.5926C145.995 59.3112 147.861 56.0438 149.672 52.7486C150.177 51.8218 150.602 50.8536 150.94 49.855C152.027 46.5875 153.071 43.3062 154.102 40.0249C154.659 38.2666 155.063 36.4667 155.648 34.7222C156.233 32.9777 156.108 31.427 156.401 29.7795C156.693 28.1319 156.54 26.3735 156.47 24.6706C156.442 23.8676 156.205 23.0645 155.955 22.303C155.802 21.8046 155.551 21.2508 154.924 21.2231C154.297 21.1954 153.963 21.68 153.754 22.1508C153.35 23.0368 153.016 23.9506 152.681 24.8644C152.347 25.7782 152.138 26.4428 151.873 27.2458C151.783 27.4839 151.713 27.7295 151.664 27.9796C151.581 28.4918 151.581 29.018 151.455 29.5302C151.26 30.2917 150.94 31.0255 150.759 31.787C149.798 35.8852 148.864 39.9695 147.917 44.0677C147.625 45.3276 147.458 46.6152 147.04 47.8336C146.622 49.052 146.12 50.4642 145.925 51.9041C145.521 54.7285 144.867 57.5252 144.309 60.3358C144.156 61.1527 144.017 61.9695 143.878 62.7864ZM138.696 86.5447L138.877 86.614C139.002 86.4201 139.267 86.1848 139.225 86.0602C138.96 85.4094 139.044 84.8002 139.211 84.1357C139.295 83.7895 139.058 83.3603 138.946 82.8896C138.542 84.1495 138.863 85.354 138.696 86.5447ZM139.169 89.0646C139.462 88.3585 139.211 87.7216 138.946 87.0985C138.779 87.7908 138.807 88.4554 139.169 89.0646ZM139.852 90.989C140.27 90.6291 140.214 90.2137 139.977 89.7845L139.852 90.989Z" fill="white"/>
<path d="M87.8933 42.7248C87.8515 42.6279 87.7958 42.5448 87.7122 42.3925C87.4754 42.7802 87.754 43.1401 87.6287 43.5555C86.7232 44.2478 85.581 44.6908 84.5919 45.3969L84.2576 44.9539C83.6169 45.4523 83.6169 45.4523 82.9204 44.9954V45.6046H82.6975C82.4465 45.534 82.1903 45.483 81.9313 45.4523C81.7803 45.4616 81.6394 45.5316 81.5413 45.6461C81.0259 46.2692 80.7055 46.2692 80.2737 45.6046L80.0508 45.3277L78.811 45.5215C78.2399 44.7739 77.9335 43.9432 77.7245 43.0709C77.1255 40.5234 76.9862 37.9759 77.7245 35.4284C77.8081 35.1376 77.7802 34.8053 77.8499 34.5007C78.0449 33.7393 78.1563 32.9362 78.4907 32.2301C78.6996 31.8148 79.2289 31.5379 79.6468 31.2471C80.0647 30.9564 80.8169 30.6933 81.207 30.0841C81.3184 29.918 81.6667 29.8349 81.9174 29.8211C82.8925 29.7657 83.8676 29.7795 84.8427 29.7103C85.3164 29.6508 85.7946 29.7859 86.166 30.0841C86.5143 30.3472 86.8347 30.7072 87.364 30.4856C87.4336 30.4579 87.5869 30.5825 87.6983 30.6518C87.8097 30.721 87.9769 30.8733 88.1023 30.8733C89.0495 30.8318 89.1609 31.6071 89.4256 32.2024C89.6323 32.6808 89.7775 33.1832 89.8574 33.6977C89.941 34.1823 89.9967 34.7084 89.8853 35.1653C89.6993 35.7658 89.4422 36.342 89.1192 36.8821C88.6414 37.7354 88.3741 38.6892 88.3391 39.665C88.2834 40.6895 88.158 41.7002 88.0744 42.7109L87.8933 42.7248Z" fill="white"/>
</svg>
