
<svg width="523" height="192" viewBox="0 0 523 192" fill="none" xmlns="http://www.w3.org/2000/svg">
<path d="M105.795 119.602C104.658 132.456 96.7201 144.302 80.0867 144.302H59.7951V92.5063H80.0867C100.374 92.5063 104.533 102.085 105.795 114.94V117.206C105.92 117.965 105.795 118.719 105.795 119.602ZM59.7951 50.2896H75.1701C94.1993 50.2896 95.8368 59.1105 95.9659 70.198V70.9563C95.8368 82.0438 86.2576 90.7438 75.1701 90.7438H59.7951V50.2896ZM117.641 117.336C117.641 104.102 100.374 91.1188 83.7409 91.1188C95.9659 91.1188 107.683 78.7688 107.683 70.5771C107.683 58.4813 94.1993 48.5229 77.8159 48.5229H47.9492V146.069H80.9659C96.7201 146.069 117.641 133.086 117.641 117.336Z" fill="#010303"/>
<path d="M182.927 49.7833C206.873 49.7833 214.686 75.6208 214.561 97.2958C214.561 118.721 206.873 144.179 183.177 144.304C159.236 144.304 151.423 118.721 151.423 97.0416C151.423 75.4916 159.235 49.9124 182.927 49.7833ZM183.056 146.067C206.998 146.067 226.406 124.137 226.406 97.0416C226.406 70.075 206.998 48.0166 183.056 48.0166C159.11 48.0166 139.702 70.075 139.702 97.0416C139.702 124.137 159.11 146.067 183.056 146.067Z" fill="#010303"/>
<path d="M251.61 95.0264H307.439V146.068H319.285V48.6472H307.439V93.2598H251.61V48.6472H239.764V146.068H251.61V95.0264Z" fill="#010303"/>
<path d="M369.192 62.1335L369.696 63.396L389.987 112.292H349.408L369.192 62.1335ZM348.775 113.804V113.934H390.617L403.975 146.067H415.821C402.967 115.317 388.35 79.4002 375.492 48.6501H372.596L368.183 59.8668V59.9918L334.408 146.067H336.175L348.775 113.804Z" fill="#010303"/>
<path d="M430.942 48.6497H442.788V146.066H430.942V48.6497Z" fill="#010303"/>
<path d="M136.782 48.8327C138.94 44.4493 134.798 39.4785 129.969 40.9993C127.919 41.6452 126.528 43.366 126.057 45.4493L122.603 69.2285L125.823 68.216L136.782 48.8327Z" fill="#010303"/>
<path d="M490.738 0H0V186.783H95.2876V181.358H5.42501V5.425H485.313V181.358H395.45V186.783H490.738V0Z" fill="#010303"/>
<path d="M128.134 177.379H126.317L122.359 187.233L118.388 177.379H116.567L122.359 191.4L128.134 177.379Z" fill="#010303"/>
<path d="M139.473 184.142H144.806V182.625H139.473V178.896H144.964V177.379H137.814V190.692H144.964V189.175H139.473V184.142Z" fill="#010303"/>
<path d="M167.69 184.512V183.983H162.411V185.5H165.853C165.782 187.671 163.557 189.454 161.494 189.454C158.615 189.454 156.319 186.808 156.319 184.017C156.319 181.033 158.649 178.617 161.636 178.617C163.257 178.617 164.865 179.479 165.819 180.787L166.986 179.675C165.678 178.033 163.628 177.096 161.565 177.096C157.732 177.096 154.661 180.242 154.661 184.071C154.661 187.762 157.661 190.975 161.386 190.975C165.111 190.975 167.69 188.167 167.69 184.512Z" fill="#010303"/>
<path d="M182.825 180.451L185.192 185.839H180.458L182.825 180.451ZM182.825 176.814L176.471 190.693H178.254L179.771 187.356H185.879L187.4 190.693H189.183L182.825 176.814Z" fill="#010303"/>
<path d="M210.337 191.239V177.381H208.678V187.214L198.683 176.743V190.693H200.345V180.768L210.337 191.239Z" fill="#010303"/>
<path d="M235.82 184.054C235.82 181.104 238.1 178.616 241.083 178.616C242.337 178.616 243.641 179.074 244.595 179.92V177.995C243.591 177.379 242.408 177.095 241.241 177.095C237.32 177.095 234.162 180.17 234.162 184.108C234.162 187.954 237.304 190.974 241.1 190.974C242.266 190.974 243.57 190.641 244.595 190.037V188.079C243.608 188.962 242.354 189.458 241.045 189.458C238.079 189.458 235.82 186.966 235.82 184.054Z" fill="#010303"/>
<path d="M261.16 189.421C258.28 189.421 255.847 187.071 255.847 184.037C255.847 181.104 258.035 178.65 261.16 178.65C264.285 178.65 266.476 181.104 266.476 184.037C266.476 187.071 264.039 189.421 261.16 189.421ZM268.135 184.037C268.135 180.221 264.972 177.096 261.16 177.096C257.347 177.096 254.185 180.221 254.185 184.037C254.185 187.992 257.31 190.975 261.16 190.975C265.01 190.975 268.135 187.992 268.135 184.037Z" fill="#010303"/>
<path d="M282.652 182.818L281.697 182.447C280.868 182.13 279.843 181.58 279.843 180.538C279.843 179.376 281.01 178.651 282.068 178.651C283.077 178.651 283.71 179.076 284.206 179.905L285.531 179.109C284.806 177.822 283.589 177.097 282.106 177.097C280.093 177.097 278.185 178.384 278.185 180.538C278.185 182.393 279.56 183.259 281.081 183.913L281.997 184.301C283.147 184.776 284.293 185.397 284.293 186.826C284.293 188.222 283.268 189.422 281.839 189.422C280.41 189.422 279.243 188.363 279.26 186.897L277.585 187.251C277.868 189.384 279.543 190.976 281.697 190.976C284.081 190.976 285.952 189.243 285.952 186.826C285.952 184.601 284.539 183.559 282.652 182.818Z" fill="#010303"/>
<path d="M307.143 176.814L302.572 187.301L297.997 176.814L295.276 190.693H296.989L298.543 181.901H298.581L302.572 190.976L306.56 181.901H306.597L308.147 190.693H309.864L307.143 176.814Z" fill="#010303"/>
<path d="M321.555 184.142H326.888V182.625H321.555V178.896H327.046V177.379H319.896V190.692H327.046V189.175H321.555V184.142Z" fill="#010303"/>
<path d="M341.225 178.898H344.383V177.381H336.404V178.898H339.567V190.694H341.225V178.898Z" fill="#010303"/>
<path d="M354.187 177.379H355.846V190.691H354.187V177.379Z" fill="#010303"/>
<path d="M373.067 178.615C374.321 178.615 375.626 179.073 376.58 179.923V177.998C375.576 177.378 374.392 177.098 373.226 177.098C369.305 177.098 366.146 180.169 366.146 184.107C366.146 187.957 369.288 190.973 373.084 190.973C374.251 190.973 375.555 190.64 376.58 190.04V188.078C375.592 188.961 374.338 189.457 373.03 189.457C370.067 189.457 367.805 186.965 367.805 184.053C367.805 181.107 370.084 178.615 373.067 178.615Z" fill="#010303"/>
<path d="M499.105 173.109C499.092 178.863 503.709 183.496 509.463 183.501C515.196 183.505 519.809 178.917 519.842 173.184C519.872 167.43 515.267 162.784 509.509 162.763C503.755 162.746 499.117 167.355 499.105 173.109ZM509.492 160.121C516.709 160.134 522.509 165.955 522.484 173.167C522.463 180.384 516.63 186.18 509.421 186.142C502.226 186.109 496.459 180.317 496.459 173.13C496.463 165.913 502.28 160.109 509.492 160.121Z" fill="#1D1D1B"/>
<path d="M507.317 172.126C508.188 172.059 508.988 172.059 509.767 171.922C510.454 171.797 510.767 171.276 510.8 170.501C510.842 169.547 510.604 168.918 509.946 168.78C509.092 168.597 508.2 168.589 507.317 168.501V172.126ZM516.058 179.639C514.833 179.639 513.733 179.655 512.633 179.622C512.458 179.614 512.225 179.405 512.133 179.23C511.625 178.255 511.163 177.259 510.663 176.276C509.863 174.693 509.179 174.334 507.317 174.534V179.589H503.812V165.959C506.254 166.03 508.688 165.955 511.088 166.209C513.663 166.48 514.754 168.218 514.154 170.997C513.967 171.868 513.383 172.476 512.613 172.897C512.388 173.022 512.15 173.126 511.833 173.28C513.163 173.809 513.725 174.93 514.279 176.051C514.858 177.214 515.433 178.372 516.058 179.639Z" fill="#1D1D1B"/>
</svg>
