<svg width="242" height="363" viewBox="0 0 242 363" fill="none" xmlns="http://www.w3.org/2000/svg">
<path d="M234.12 49.45C221.34 20.68 192.82 1.52 160.71 0H45.7103V2C71.2003 2 73.8903 16.45 73.8903 46.16V157.27C73.3703 157.4 72.8903 157.51 72.3303 157.65C70.0803 158.23 39.4103 166.65 19.5403 192.65C-11.2797 233.09 -4.51969 300.81 31.9203 334.36C50.9203 351.88 82.4103 363.69 111.92 361.75C129.19 360.61 170.92 345.3 170.92 362.6H172.25V302.52C172.25 281.52 173.91 281.02 189.06 281.02V278.26L132.35 278.33C106.85 278.33 113.25 264.1 113.25 234.8L113.44 166.74L113.9 166.86C124.63 169.73 153.17 175.73 184.4 162.76C193.52 158.97 212.24 150.91 225.84 131.09C240.17 110.31 247.19 78.9 234.12 49.45ZM132.42 281.08C147.57 281.08 148.9 281.6 149.17 302.58V347.08C137.86 354.322 125.043 358.882 111.7 360.41C70.7603 364.41 34.9203 312.41 30.1303 267.68C26.4603 233.47 39.3003 186.79 73.9203 170.92V234.87C73.9203 264.18 71.2303 279.03 45.7403 279.03V281.03L132.42 281.08ZM209.42 81.08C208.95 91.16 206.92 131.83 173.42 151.4C149.33 165.47 122.94 159.18 114.33 156.66L113.83 156.51L113.35 156.36L113.3 46.22C113.39 44.06 114.65 22.68 132.53 11.48C139.842 7.00559 148.371 4.93524 156.92 5.56C163.83 5.75 174.18 7.11998 184.03 13.45C211.96 31.34 209.8 72.51 209.41 81.02L209.42 81.08Z" fill="url(#paint0_linear_19_98)"/>
<defs>
<linearGradient id="paint0_linear_19_98" x1="0.0303111" y1="181.32" x2="241.02" y2="181.32" gradientUnits="userSpaceOnUse">
<stop stop-color="#F0DFA6"/>
<stop offset="1" stop-color="#856931"/>
</linearGradient>
</defs>
</svg>
