<svg width="25" height="39" viewBox="0 0 25 39" fill="none" xmlns="http://www.w3.org/2000/svg">
<path d="M24.2839 5.31867C22.9583 2.22427 20.0001 0.163486 16.6695 0H4.74125V0.215113C7.38517 0.215113 7.66419 1.7693 7.66419 4.96481V16.9154C7.61026 16.9294 7.56046 16.9412 7.50238 16.9563C7.269 17.0187 4.08779 17.9243 2.0268 20.7208C-1.16997 25.0704 -0.468799 32.3541 3.3109 35.9626C5.28165 37.847 8.54792 39.1172 11.6088 38.9086C13.4001 38.786 17.7285 37.1393 17.7285 39H17.8665V32.538C17.8665 30.2793 18.0387 30.2255 19.6101 30.2255V29.9287L13.7279 29.9362C11.0829 29.9362 11.7468 28.4057 11.7468 25.2543L11.7665 17.934L11.8142 17.9469C12.9271 18.2556 15.8874 18.9009 19.1267 17.5059C20.0727 17.0983 22.0144 16.2314 23.425 14.0996C24.9114 11.8646 25.6395 8.48621 24.2839 5.31867ZM13.7352 30.232C15.3066 30.232 15.4445 30.2879 15.4725 32.5445V37.3307C14.2994 38.1097 12.97 38.6001 11.586 38.7645C7.33954 39.1947 3.62207 33.6017 3.12524 28.7907C2.74457 25.1112 4.07638 20.0905 7.6673 18.3836V25.2618C7.6673 28.4143 7.38829 30.0115 4.74436 30.0115V30.2266L13.7352 30.232ZM21.7219 8.72068C21.6731 9.80485 21.4626 14.1792 17.9878 16.2841C15.4891 17.7974 12.7518 17.1208 11.8588 16.8498L11.8069 16.8337L11.7571 16.8175L11.7519 4.97126C11.7613 4.73894 11.892 2.43938 13.7466 1.23475C14.5049 0.753497 15.3897 0.530817 16.2764 0.598014C16.9931 0.61845 18.0667 0.765801 19.0883 1.44663C21.9853 3.37082 21.7613 7.79892 21.7209 8.71423L21.7219 8.72068Z" fill="url(#paint0_linear_20_217)"/>
<defs>
<linearGradient id="paint0_linear_20_217" x1="0.00314399" y1="19.5022" x2="24.9996" y2="19.5022" gradientUnits="userSpaceOnUse">
<stop stop-color="#F0DFA6"/>
<stop offset="1" stop-color="#856931"/>
</linearGradient>
</defs>
</svg>
