<?xml version="1.0" encoding="utf-8"?>
<!-- Generator: Adobe Illustrator 16.0.0, SVG Export Plug-In . SVG Version: 6.00 Build 0)  -->
<!DOCTYPE svg PUBLIC "-//W3C//DTD SVG 1.1//EN" "http://www.w3.org/Graphics/SVG/1.1/DTD/svg11.dtd">
<svg version="1.1" id="Capa_1" xmlns="http://www.w3.org/2000/svg" xmlns:xlink="http://www.w3.org/1999/xlink" x="0px" y="0px"
	 width="260.979px" height="49.332px" viewBox="0 0 260.979 49.332" enable-background="new 0 0 260.979 49.332"
	 xml:space="preserve">
<g>
	<g>
		<g>
			<g>
				<polygon fill="#004D7C" points="42.172,24.396 30.07,36.495 30.07,36.5 42.172,48.602 42.176,48.602 66.371,24.396 				"/>
				<polygon fill="#15385C" points="54.273,36.5 42.176,48.602 66.371,48.602 				"/>
			</g>
			<g>
				<polygon fill="#E43848" points="24.203,36.5 36.299,24.399 36.299,24.396 24.203,12.292 24.198,12.292 0,36.5 				"/>
				<polygon fill="#A41736" points="12.098,24.396 24.198,12.292 0,12.292 				"/>
			</g>
		</g>
		<path fill="#004D7C" d="M85.539,35.068c-1.842-1.052-3.281-2.505-4.318-4.36c-1.035-1.854-1.554-3.924-1.554-6.204
			c0-2.337,0.501-4.435,1.511-6.29c1.008-1.855,2.418-3.302,4.232-4.34c1.809-1.037,3.855-1.556,6.135-1.556
			c3.448,0,6.311,1.315,8.591,3.946c0.294,0.321,0.438,0.701,0.438,1.139c0,0.643-0.32,1.184-0.965,1.623
			c-0.291,0.202-0.627,0.307-1.007,0.307c-0.675,0-1.241-0.264-1.712-0.79c-0.729-0.791-1.528-1.366-2.388-1.731
			c-0.862-0.365-1.851-0.547-2.958-0.547c-2.251,0-4.077,0.751-5.479,2.258c-1.404,1.506-2.105,3.5-2.105,5.981
			c0,1.578,0.329,2.988,0.986,4.232c0.658,1.242,1.578,2.21,2.763,2.916c1.183,0.698,2.534,1.05,4.054,1.05
			c1.988,0,3.596-0.51,4.822-1.535c0.557-0.406,1.094-0.613,1.621-0.613c0.41,0,0.789,0.133,1.141,0.394
			c0.553,0.469,0.834,0.995,0.834,1.582c0,0.436-0.176,0.833-0.527,1.183c-2.104,1.958-4.733,2.937-7.891,2.937
			C89.453,36.647,87.381,36.121,85.539,35.068z"/>
		<path fill="#004D7C" d="M110.383,35.091c-1.84-1.036-3.273-2.477-4.293-4.318c-1.025-1.839-1.537-3.93-1.537-6.267
			c0-2.369,0.51-4.473,1.537-6.313c1.02-1.841,2.453-3.282,4.293-4.319c1.842-1.037,3.934-1.554,6.268-1.554
			c2.309,0,4.379,0.517,6.203,1.554c1.826,1.038,3.258,2.479,4.295,4.319c1.038,1.84,1.557,3.944,1.557,6.313
			c0,2.337-0.51,4.426-1.533,6.267s-2.445,3.282-4.273,4.318c-1.83,1.038-3.912,1.558-6.248,1.558
			C114.316,36.647,112.225,36.128,110.383,35.091z M120.662,31.651c1.184-0.705,2.104-1.674,2.763-2.916
			c0.657-1.244,0.983-2.651,0.983-4.232c0-1.576-0.326-2.995-0.983-4.25c-0.658-1.256-1.579-2.237-2.763-2.938
			c-1.182-0.701-2.518-1.052-4.012-1.052c-1.49,0-2.824,0.351-4.01,1.052c-1.184,0.701-2.113,1.682-2.785,2.938
			c-0.67,1.256-1.008,2.674-1.008,4.25c0,1.578,0.338,2.988,1.008,4.232c0.672,1.242,1.602,2.21,2.785,2.916
			c1.186,0.698,2.52,1.05,4.01,1.05S119.48,32.349,120.662,31.651z"/>
		<path fill="#004D7C" d="M138.941,35.091c-1.843-1.036-3.273-2.477-4.297-4.318c-1.023-1.839-1.532-3.93-1.532-6.267
			c0-2.369,0.507-4.473,1.532-6.313c1.023-1.841,2.454-3.282,4.297-4.319c1.842-1.037,3.928-1.554,6.27-1.554
			c2.306,0,4.372,0.517,6.202,1.554c1.825,1.038,3.256,2.479,4.294,4.319c1.035,1.84,1.557,3.944,1.557,6.313
			c0,2.337-0.512,4.426-1.535,6.267c-1.021,1.841-2.445,3.282-4.271,4.318c-1.831,1.038-3.91,1.558-6.246,1.558
			C142.869,36.647,140.783,36.128,138.941,35.091z M149.221,31.651c1.184-0.705,2.104-1.674,2.762-2.916
			c0.656-1.244,0.984-2.651,0.984-4.232c0-1.576-0.328-2.995-0.984-4.25c-0.658-1.256-1.578-2.237-2.762-2.938
			c-1.186-0.701-2.521-1.052-4.01-1.052c-1.49,0-2.829,0.351-4.014,1.052c-1.184,0.701-2.111,1.682-2.783,2.938
			c-0.676,1.256-1.008,2.674-1.008,4.25c0,1.578,0.332,2.988,1.008,4.232c0.672,1.242,1.6,2.21,2.783,2.916
			c1.185,0.698,2.523,1.05,4.014,1.05C146.699,32.701,148.035,32.349,149.221,31.651z"/>
		<path fill="#004D7C" d="M177.023,12.932c0.879,0.469,1.318,1.053,1.318,1.755c0,0.204-0.018,0.351-0.043,0.437
			c-0.264,0.934-0.85,1.404-1.756,1.404c-0.145,0-0.365-0.028-0.656-0.088c-1.17-0.203-2.12-0.307-2.85-0.307
			c-2.105,0-3.799,0.481-5.086,1.446c-1.285,0.965-1.93,2.264-1.93,3.901v12.8c0,0.702-0.182,1.242-0.547,1.624
			s-0.912,0.567-1.645,0.567c-0.703,0-1.242-0.182-1.621-0.545c-0.381-0.368-0.568-0.914-0.568-1.646V14.685
			c0-0.701,0.188-1.24,0.568-1.622c0.379-0.379,0.918-0.569,1.621-0.569c1.462,0,2.191,0.729,2.191,2.19v0.835
			c0.879-1.021,1.959-1.827,3.246-2.412c1.283-0.584,2.658-0.878,4.12-0.878C174.936,12.229,176.15,12.465,177.023,12.932z"/>
		<path fill="#004D7C" d="M203.742,0.614c0.41,0.411,0.614,0.95,0.614,1.622V24.46c0,2.279-0.534,4.348-1.601,6.205
			c-1.068,1.854-2.514,3.314-4.34,4.383c-1.826,1.067-3.865,1.601-6.114,1.601c-2.251,0-4.303-0.536-6.161-1.601
			c-1.855-1.067-3.311-2.529-4.357-4.383c-1.055-1.857-1.578-3.926-1.578-6.205c0-2.28,0.486-4.346,1.469-6.202
			c0.977-1.857,2.318-3.311,4.03-4.362c1.712-1.051,3.616-1.576,5.722-1.576c1.691,0,3.273,0.35,4.734,1.051
			c1.461,0.704,2.7,1.682,3.725,2.937V2.237c0-0.672,0.209-1.213,0.639-1.624C200.943,0.206,201.48,0,202.121,0
			C202.793,0,203.333,0.206,203.742,0.614z M196.27,31.629c1.184-0.717,2.111-1.704,2.783-2.96c0.672-1.255,1.008-2.657,1.008-4.208
			c0-1.548-0.336-2.942-1.008-4.186c-0.672-1.24-1.6-2.219-2.783-2.937c-1.184-0.717-2.504-1.074-3.968-1.074
			c-1.462,0-2.784,0.357-3.968,1.074c-1.182,0.718-2.119,1.695-2.803,2.937c-0.691,1.244-1.033,2.637-1.033,4.186
			c0,1.551,0.342,2.953,1.033,4.208c0.684,1.256,1.621,2.244,2.803,2.96c1.184,0.716,2.506,1.072,3.968,1.072
			C193.766,32.701,195.086,32.345,196.27,31.629z"/>
		<path fill="#004D7C" d="M230.906,25.491c-0.379,0.365-0.861,0.547-1.445,0.547h-16.658c0.321,2.048,1.25,3.699,2.783,4.953
			c1.537,1.258,3.414,1.885,5.633,1.885c0.875,0,1.794-0.161,2.74-0.48c0.949-0.322,1.73-0.717,2.35-1.186
			c0.406-0.32,0.889-0.483,1.443-0.483s0.992,0.147,1.318,0.438c0.523,0.439,0.783,0.937,0.783,1.493
			c0,0.526-0.232,0.964-0.699,1.315c-0.992,0.791-2.227,1.432-3.703,1.93c-1.478,0.497-2.887,0.746-4.232,0.746
			c-2.396,0-4.545-0.52-6.439-1.558c-1.906-1.036-3.387-2.477-4.453-4.318c-1.065-1.839-1.602-3.93-1.602-6.267
			c0-2.338,0.504-4.436,1.513-6.291c1.011-1.857,2.413-3.304,4.21-4.342c1.796-1.037,3.836-1.554,6.115-1.554
			c2.25,0,4.192,0.497,5.828,1.489c1.641,0.995,2.893,2.383,3.771,4.166c0.876,1.784,1.316,3.828,1.316,6.135
			C231.479,24.666,231.284,25.126,230.906,25.491z M215.368,17.842c-1.327,1.169-2.166,2.733-2.521,4.69h14.598
			c-0.264-1.958-0.994-3.521-2.189-4.69c-1.203-1.168-2.762-1.752-4.693-1.752C218.426,16.09,216.699,16.674,215.368,17.842z"/>
		<path fill="#004D7C" d="M254.598,34.632c0,0.525-0.183,0.964-0.548,1.313c-0.366,0.353-0.843,0.525-1.427,0.525
			c-0.699,0-1.227-0.23-1.576-0.7l-6.969-8.328l-6.621,8.328c-0.438,0.47-0.964,0.7-1.576,0.7c-0.582,0-1.047-0.172-1.383-0.525
			c-0.334-0.349-0.5-0.788-0.5-1.313c0-0.586,0.201-1.126,0.611-1.622l6.797-8.503l-7.236-8.55c-0.438-0.526-0.654-1.08-0.654-1.665
			c0-0.496,0.166-0.92,0.502-1.271c0.336-0.352,0.812-0.526,1.426-0.526c0.699,0,1.254,0.25,1.666,0.746l7.189,8.591l6.445-8.591
			c0.377-0.496,0.92-0.746,1.621-0.746c0.578,0,1.043,0.183,1.379,0.547c0.338,0.367,0.504,0.811,0.504,1.338
			c0,0.642-0.206,1.227-0.611,1.753l-6.621,8.637l6.971,8.328C254.391,33.537,254.598,34.045,254.598,34.632z"/>
		<g>
			<g>
				<path fill="#004D7C" d="M166.764,45.919c0-0.317,0.059-0.632,0.172-0.948c0.111-0.314,0.279-0.602,0.502-0.852
					c0.221-0.249,0.492-0.453,0.807-0.605c0.318-0.156,0.68-0.234,1.082-0.234c0.481,0,0.895,0.11,1.238,0.321
					c0.346,0.216,0.602,0.492,0.775,0.835l-0.656,0.439c-0.074-0.16-0.164-0.293-0.267-0.403c-0.104-0.107-0.22-0.197-0.346-0.261
					c-0.124-0.064-0.253-0.11-0.39-0.139c-0.131-0.025-0.264-0.039-0.385-0.039c-0.279,0-0.523,0.054-0.729,0.166
					c-0.213,0.113-0.387,0.261-0.527,0.444c-0.142,0.183-0.249,0.39-0.318,0.618c-0.074,0.229-0.111,0.458-0.111,0.688
					c0,0.257,0.043,0.503,0.127,0.738c0.086,0.232,0.205,0.438,0.354,0.617c0.152,0.179,0.336,0.321,0.541,0.428
					c0.211,0.107,0.436,0.16,0.686,0.16c0.13,0,0.264-0.018,0.399-0.047c0.136-0.033,0.269-0.087,0.394-0.16
					c0.127-0.07,0.244-0.16,0.354-0.27c0.105-0.11,0.193-0.243,0.261-0.395l0.694,0.395c-0.084,0.196-0.204,0.373-0.357,0.523
					c-0.152,0.152-0.329,0.279-0.521,0.385c-0.193,0.105-0.398,0.186-0.617,0.238c-0.213,0.056-0.428,0.082-0.637,0.082
					c-0.371,0-0.712-0.08-1.019-0.24c-0.31-0.156-0.575-0.365-0.798-0.621c-0.225-0.255-0.395-0.545-0.52-0.873
					C166.826,46.588,166.764,46.256,166.764,45.919z"/>
				<path fill="#004D7C" d="M174.66,47.887c0.279,0,0.51-0.053,0.693-0.166c0.182-0.105,0.332-0.25,0.443-0.424
					c0.111-0.176,0.193-0.377,0.238-0.604c0.048-0.227,0.07-0.459,0.07-0.698v-2.683h0.843v2.683c0,0.362-0.04,0.706-0.125,1.026
					c-0.087,0.318-0.222,0.602-0.405,0.839c-0.184,0.242-0.421,0.432-0.711,0.572c-0.29,0.137-0.643,0.211-1.049,0.211
					c-0.422,0-0.779-0.078-1.064-0.224c-0.295-0.147-0.531-0.343-0.705-0.587c-0.181-0.248-0.312-0.529-0.395-0.846
					c-0.076-0.318-0.117-0.65-0.117-0.992v-2.683h0.836v2.683c0,0.242,0.025,0.478,0.07,0.706c0.045,0.226,0.127,0.429,0.238,0.604
					c0.111,0.175,0.262,0.319,0.447,0.425C174.156,47.834,174.391,47.887,174.66,47.887z"/>
				<path fill="#004D7C" d="M178.417,48.602v-5.29h2.304c0.236,0,0.455,0.048,0.659,0.148c0.201,0.1,0.374,0.232,0.515,0.392
					c0.146,0.16,0.26,0.346,0.341,0.552c0.081,0.205,0.124,0.414,0.124,0.629c0,0.18-0.026,0.352-0.075,0.515
					c-0.049,0.167-0.118,0.312-0.208,0.454c-0.088,0.141-0.199,0.261-0.328,0.361c-0.131,0.102-0.271,0.178-0.426,0.231l1.248,2.007
					h-0.951l-1.146-1.838h-1.223v1.838H178.417z M179.251,46.023h1.46c0.119,0,0.229-0.024,0.324-0.075
					c0.098-0.057,0.18-0.127,0.25-0.219c0.069-0.092,0.125-0.197,0.164-0.317c0.041-0.119,0.059-0.246,0.059-0.38
					c0-0.135-0.023-0.258-0.068-0.381c-0.049-0.119-0.111-0.223-0.188-0.312c-0.08-0.088-0.166-0.159-0.27-0.213
					c-0.1-0.054-0.205-0.078-0.316-0.078h-1.415V46.023L179.251,46.023z"/>
				<path fill="#004D7C" d="M183.686,48.602v-5.29h2.303c0.238,0,0.457,0.048,0.658,0.148c0.201,0.1,0.373,0.232,0.519,0.392
					c0.142,0.163,0.257,0.346,0.341,0.552c0.08,0.205,0.121,0.414,0.121,0.629c0,0.18-0.024,0.352-0.074,0.515
					c-0.052,0.167-0.121,0.312-0.21,0.454c-0.089,0.141-0.198,0.261-0.327,0.361c-0.127,0.102-0.27,0.178-0.425,0.231l1.245,2.007
					h-0.945l-1.148-1.838h-1.225v1.838H183.686z M184.518,46.023h1.463c0.117,0,0.227-0.024,0.322-0.075
					c0.098-0.057,0.18-0.127,0.251-0.219c0.069-0.092,0.124-0.197,0.163-0.317c0.041-0.119,0.061-0.246,0.061-0.38
					c0-0.135-0.025-0.258-0.072-0.381c-0.046-0.119-0.107-0.223-0.184-0.312c-0.078-0.088-0.167-0.159-0.271-0.213
					c-0.1-0.054-0.208-0.078-0.317-0.078h-1.416V46.023z"/>
				<path fill="#004D7C" d="M192.582,47.866v0.735h-3.631v-5.29h3.562v0.739h-2.727v1.503h2.361v0.694h-2.361v1.615h2.795V47.866z"
					/>
				<path fill="#004D7C" d="M194.582,44.875v3.727h-0.836v-5.29h0.654l3.025,3.817v-3.81h0.841v5.283h-0.691L194.582,44.875z"/>
				<path fill="#004D7C" d="M199.479,45.919c0-0.317,0.057-0.632,0.173-0.948c0.116-0.314,0.282-0.602,0.501-0.852
					c0.222-0.249,0.494-0.453,0.809-0.605c0.316-0.156,0.682-0.234,1.082-0.234c0.482,0,0.894,0.11,1.237,0.321
					c0.342,0.216,0.603,0.492,0.775,0.835l-0.654,0.439c-0.077-0.16-0.167-0.293-0.27-0.403c-0.106-0.107-0.218-0.197-0.345-0.261
					c-0.125-0.064-0.252-0.11-0.389-0.139c-0.131-0.025-0.264-0.039-0.387-0.039c-0.277,0-0.522,0.054-0.73,0.166
					c-0.209,0.113-0.385,0.261-0.525,0.444s-0.25,0.39-0.322,0.618c-0.072,0.229-0.105,0.458-0.105,0.688
					c0,0.257,0.046,0.503,0.13,0.738c0.083,0.232,0.2,0.438,0.351,0.617c0.152,0.179,0.33,0.321,0.539,0.428s0.438,0.16,0.688,0.16
					c0.129,0,0.262-0.018,0.398-0.047c0.135-0.033,0.269-0.087,0.394-0.16c0.124-0.07,0.245-0.16,0.353-0.27
					c0.105-0.11,0.193-0.243,0.264-0.395l0.693,0.395c-0.085,0.196-0.205,0.373-0.359,0.523c-0.155,0.152-0.326,0.279-0.521,0.385
					c-0.192,0.105-0.398,0.186-0.615,0.238c-0.216,0.056-0.428,0.082-0.635,0.082c-0.373,0-0.715-0.08-1.023-0.24
					c-0.309-0.156-0.572-0.365-0.797-0.621c-0.221-0.255-0.394-0.545-0.52-0.873C199.542,46.588,199.479,46.256,199.479,45.919z"/>
				<path fill="#004D7C" d="M205.492,43.312l1.461,2.654l1.474-2.654h0.916l-1.976,3.396v1.894h-0.836v-1.906l-1.96-3.384H205.492
					L205.492,43.312z"/>
				<path fill="#004D7C" d="M216.215,47.866v0.735h-3.627v-5.29h3.561v0.739h-2.729v1.503h2.359v0.694h-2.359v1.615h2.795V47.866z"
					/>
				<path fill="#004D7C" d="M217.879,43.312l1.469,2.088l1.467-2.088h0.914l-1.937,2.684l1.878,2.608h-0.918l-1.406-2.009
					l-1.408,2.009h-0.926l1.887-2.608l-1.945-2.684H217.879z"/>
				<path fill="#004D7C" d="M222.117,45.919c0-0.317,0.057-0.632,0.174-0.948c0.111-0.314,0.277-0.602,0.501-0.852
					c0.222-0.249,0.489-0.453,0.81-0.605c0.318-0.156,0.678-0.234,1.08-0.234c0.48,0,0.894,0.11,1.236,0.321
					c0.343,0.216,0.602,0.492,0.776,0.835l-0.657,0.439c-0.074-0.16-0.164-0.293-0.27-0.403c-0.101-0.107-0.217-0.197-0.342-0.261
					c-0.123-0.064-0.254-0.11-0.387-0.139c-0.135-0.025-0.265-0.039-0.387-0.039c-0.281,0-0.523,0.054-0.732,0.166
					c-0.209,0.113-0.385,0.261-0.522,0.444c-0.146,0.183-0.251,0.39-0.323,0.618c-0.072,0.229-0.106,0.458-0.106,0.688
					c0,0.257,0.042,0.503,0.126,0.738c0.084,0.232,0.204,0.438,0.354,0.617c0.15,0.179,0.332,0.321,0.541,0.428
					c0.207,0.107,0.436,0.16,0.686,0.16c0.127,0,0.26-0.018,0.4-0.047c0.131-0.033,0.266-0.087,0.393-0.16
					c0.127-0.07,0.243-0.16,0.35-0.27c0.109-0.11,0.195-0.243,0.267-0.395l0.692,0.395c-0.086,0.196-0.205,0.373-0.358,0.523
					c-0.156,0.152-0.327,0.279-0.521,0.385c-0.195,0.105-0.398,0.186-0.616,0.238c-0.216,0.056-0.429,0.082-0.638,0.082
					c-0.37,0-0.713-0.08-1.023-0.24c-0.305-0.156-0.572-0.365-0.795-0.621c-0.227-0.255-0.396-0.545-0.52-0.873
					C222.182,46.588,222.117,46.256,222.117,45.919z"/>
				<path fill="#004D7C" d="M232.219,43.312v5.29h-0.84V46.27h-2.671v2.332h-0.833v-5.29h0.833v2.215h2.671v-2.215H232.219z"/>
				<path fill="#004D7C" d="M235.279,43.312h0.73l2.086,5.29h-0.879l-0.559-1.436h-2.044l-0.55,1.436h-0.887L235.279,43.312z
					 M236.493,46.547l-0.849-2.273l-0.881,2.273H236.493z"/>
				<path fill="#004D7C" d="M239.895,44.875v3.727h-0.836v-5.29h0.655l3.026,3.817v-3.81h0.84v5.283h-0.691L239.895,44.875z"/>
				<path fill="#004D7C" d="M248.846,47.946c-0.449,0.462-0.965,0.696-1.543,0.696c-0.355,0-0.684-0.078-0.984-0.224
					c-0.305-0.147-0.566-0.343-0.791-0.593c-0.225-0.246-0.398-0.536-0.526-0.864c-0.128-0.329-0.188-0.668-0.188-1.029
					c0-0.355,0.061-0.695,0.188-1.019c0.128-0.324,0.302-0.609,0.526-0.849c0.225-0.244,0.49-0.437,0.796-0.58
					c0.308-0.142,0.644-0.21,1.009-0.21c0.506,0,0.934,0.104,1.273,0.315c0.344,0.211,0.602,0.492,0.775,0.838l-0.643,0.464
					c-0.141-0.29-0.342-0.504-0.594-0.648c-0.254-0.145-0.535-0.217-0.838-0.217c-0.246,0-0.474,0.055-0.676,0.159
					c-0.207,0.111-0.377,0.25-0.521,0.426c-0.145,0.18-0.254,0.383-0.33,0.616s-0.116,0.475-0.116,0.73
					c0,0.267,0.042,0.518,0.128,0.751c0.088,0.235,0.207,0.439,0.357,0.612c0.152,0.174,0.334,0.311,0.542,0.415
					c0.208,0.1,0.435,0.149,0.679,0.149c0.268,0,0.523-0.061,0.771-0.186c0.246-0.125,0.48-0.319,0.705-0.588v-0.565h-1.111v-0.621
					h1.811v2.676h-0.699V47.946L248.846,47.946z"/>
				<path fill="#004D7C" d="M254.549,47.866v0.735h-3.629v-5.29h3.561v0.739h-2.727v1.503h2.364v0.694h-2.364v1.615h2.795V47.866z"
					/>
			</g>
			<path fill="#004D7C" d="M161.881,49.332v-6.743h0.699v6.743H161.881z"/>
			<g>
				<path fill="#004D7C" d="M79.667,45.919c0-0.317,0.056-0.632,0.171-0.948c0.113-0.314,0.281-0.602,0.5-0.852
					c0.223-0.249,0.491-0.453,0.812-0.605c0.314-0.156,0.678-0.234,1.08-0.234c0.48,0,0.893,0.11,1.236,0.321
					c0.342,0.216,0.602,0.492,0.775,0.835l-0.655,0.439c-0.076-0.16-0.164-0.293-0.272-0.403c-0.104-0.107-0.215-0.197-0.341-0.261
					c-0.124-0.064-0.253-0.11-0.388-0.139c-0.133-0.025-0.264-0.039-0.389-0.039c-0.277,0-0.52,0.054-0.729,0.166
					c-0.206,0.113-0.385,0.261-0.524,0.444c-0.143,0.183-0.25,0.39-0.32,0.618c-0.074,0.229-0.11,0.458-0.11,0.688
					c0,0.257,0.044,0.503,0.128,0.738c0.084,0.232,0.203,0.438,0.354,0.617c0.154,0.179,0.334,0.321,0.542,0.428
					s0.438,0.16,0.685,0.16c0.129,0,0.26-0.018,0.399-0.047c0.138-0.033,0.267-0.087,0.394-0.16c0.128-0.07,0.245-0.16,0.352-0.27
					c0.107-0.11,0.193-0.243,0.262-0.395l0.695,0.395c-0.085,0.196-0.205,0.373-0.355,0.523c-0.156,0.152-0.33,0.279-0.524,0.385
					c-0.193,0.105-0.397,0.186-0.614,0.238c-0.217,0.056-0.429,0.082-0.635,0.082c-0.375,0-0.715-0.08-1.023-0.24
					c-0.307-0.156-0.57-0.365-0.799-0.621c-0.221-0.255-0.396-0.545-0.52-0.873C79.729,46.588,79.667,46.256,79.667,45.919z"/>
				<path fill="#004D7C" d="M89.052,47.866v0.735h-3.628v-5.29h3.562v0.739h-2.729v1.503h2.364v0.694h-2.364v1.615h2.794V47.866z"/>
				<path fill="#004D7C" d="M91.051,44.875v3.727h-0.836v-5.29h0.658l3.022,3.817v-3.81h0.845v5.283h-0.694L91.051,44.875z"/>
				<path fill="#004D7C" d="M100.096,44.051h-1.762v4.551h-0.84v-4.551h-1.768v-0.739h4.369V44.051z"/>
				<path fill="#004D7C" d="M101.076,48.602v-5.29h2.305c0.238,0,0.459,0.048,0.66,0.148c0.199,0.1,0.373,0.232,0.519,0.392
					c0.142,0.163,0.255,0.346,0.339,0.552c0.08,0.205,0.121,0.414,0.121,0.629c0,0.18-0.022,0.352-0.074,0.515
					c-0.051,0.167-0.121,0.312-0.207,0.454c-0.09,0.141-0.201,0.261-0.33,0.361c-0.129,0.102-0.27,0.178-0.426,0.231l1.246,2.007
					h-0.945l-1.148-1.838h-1.223v1.838H101.076z M101.912,46.023h1.462c0.118,0,0.228-0.024,0.323-0.075
					c0.1-0.057,0.182-0.127,0.252-0.219c0.068-0.092,0.123-0.197,0.164-0.317c0.039-0.119,0.058-0.246,0.058-0.38
					c0-0.135-0.024-0.258-0.069-0.381c-0.047-0.119-0.111-0.223-0.188-0.312c-0.076-0.088-0.165-0.159-0.269-0.213
					c-0.101-0.054-0.205-0.078-0.316-0.078h-1.416V46.023L101.912,46.023z"/>
				<path fill="#004D7C" d="M108.494,48.643c-0.379,0-0.721-0.078-1.033-0.23c-0.311-0.149-0.574-0.352-0.799-0.602
					c-0.224-0.25-0.396-0.541-0.519-0.863c-0.12-0.322-0.183-0.653-0.183-0.991c0-0.353,0.066-0.692,0.193-1.014
					c0.131-0.323,0.307-0.609,0.533-0.857c0.225-0.25,0.494-0.445,0.808-0.592c0.308-0.147,0.647-0.219,1.015-0.219
					c0.379,0,0.721,0.078,1.031,0.234c0.312,0.156,0.578,0.361,0.799,0.614s0.391,0.539,0.516,0.863
					c0.122,0.317,0.182,0.646,0.182,0.979c0,0.352-0.065,0.691-0.191,1.015c-0.127,0.323-0.305,0.606-0.531,0.852
					c-0.231,0.244-0.5,0.441-0.809,0.587C109.195,48.568,108.859,48.643,108.494,48.643z M106.811,45.957
					c0,0.249,0.039,0.49,0.119,0.722c0.078,0.235,0.194,0.441,0.342,0.62c0.145,0.176,0.32,0.323,0.531,0.426
					c0.208,0.109,0.441,0.162,0.699,0.162c0.27,0,0.508-0.055,0.713-0.166s0.384-0.259,0.525-0.445
					c0.145-0.185,0.256-0.389,0.328-0.617c0.074-0.23,0.111-0.462,0.111-0.701c0-0.255-0.041-0.497-0.121-0.727
					c-0.076-0.23-0.189-0.436-0.336-0.61c-0.148-0.178-0.325-0.318-0.529-0.426c-0.205-0.107-0.437-0.161-0.691-0.161
					c-0.266,0-0.506,0.054-0.714,0.168c-0.21,0.111-0.386,0.259-0.53,0.436c-0.145,0.18-0.254,0.383-0.332,0.616
					C106.85,45.485,106.811,45.719,106.811,45.957z"/>
				<path fill="#004D7C" d="M114.152,45.919c0-0.317,0.056-0.632,0.17-0.948c0.114-0.314,0.283-0.602,0.504-0.852
					c0.221-0.249,0.49-0.453,0.807-0.605c0.32-0.156,0.679-0.234,1.084-0.234c0.48,0,0.895,0.11,1.236,0.321
					c0.342,0.216,0.6,0.492,0.773,0.835l-0.654,0.439c-0.074-0.16-0.164-0.293-0.27-0.403c-0.104-0.107-0.215-0.197-0.342-0.261
					c-0.125-0.064-0.254-0.11-0.389-0.139c-0.133-0.025-0.26-0.039-0.387-0.039c-0.279,0-0.521,0.054-0.73,0.166
					c-0.209,0.113-0.385,0.261-0.525,0.444c-0.143,0.183-0.247,0.39-0.32,0.618c-0.072,0.229-0.108,0.458-0.108,0.688
					c0,0.257,0.042,0.503,0.125,0.738c0.087,0.232,0.205,0.438,0.354,0.617c0.152,0.179,0.334,0.321,0.541,0.428
					c0.209,0.107,0.438,0.16,0.686,0.16c0.13,0,0.262-0.018,0.399-0.047c0.136-0.033,0.269-0.087,0.393-0.16
					c0.128-0.07,0.247-0.16,0.353-0.27c0.107-0.11,0.195-0.243,0.266-0.395l0.691,0.395c-0.085,0.196-0.203,0.373-0.357,0.523
					c-0.152,0.152-0.328,0.279-0.52,0.385c-0.195,0.105-0.4,0.186-0.617,0.238c-0.213,0.056-0.426,0.082-0.637,0.082
					c-0.373,0-0.712-0.08-1.02-0.24c-0.307-0.156-0.575-0.365-0.797-0.621c-0.223-0.255-0.398-0.545-0.521-0.873
					C114.213,46.588,114.152,46.256,114.152,45.919z"/>
				<path fill="#004D7C" d="M121.451,43.312h0.731l2.087,5.29h-0.879l-0.559-1.436h-2.045l-0.549,1.436h-0.889L121.451,43.312z
					 M122.666,46.547l-0.85-2.273l-0.881,2.273H122.666z"/>
				<path fill="#004D7C" d="M129.678,48.602v-3.807l-1.571,2.885h-0.462l-1.58-2.885v3.807h-0.836v-5.29h0.896l1.753,3.236
					l1.749-3.236h0.896v5.29H129.678z"/>
				<path fill="#004D7C" d="M136.221,47.24c0,0.211-0.047,0.403-0.13,0.574c-0.088,0.165-0.207,0.312-0.353,0.426
					c-0.148,0.118-0.316,0.207-0.52,0.269c-0.199,0.062-0.408,0.094-0.631,0.094h-2.527V43.31h2.727c0.186,0,0.351,0.04,0.502,0.12
					c0.146,0.08,0.275,0.184,0.379,0.309c0.104,0.127,0.184,0.273,0.242,0.431c0.055,0.165,0.085,0.326,0.085,0.489
					c0,0.259-0.063,0.502-0.197,0.727c-0.13,0.226-0.319,0.394-0.562,0.501c0.301,0.092,0.539,0.254,0.721,0.49
					C136.131,46.612,136.221,46.903,136.221,47.24z M132.896,44.033v1.558h1.537c0.104,0,0.197-0.018,0.285-0.059
					c0.088-0.039,0.164-0.091,0.23-0.159c0.068-0.069,0.119-0.15,0.156-0.241c0.037-0.098,0.057-0.203,0.057-0.316
					c0-0.227-0.062-0.416-0.193-0.562c-0.13-0.146-0.295-0.222-0.494-0.222H132.896z M135.362,47.083
					c0-0.11-0.017-0.212-0.054-0.312c-0.04-0.103-0.09-0.189-0.151-0.262c-0.062-0.075-0.138-0.133-0.226-0.181
					c-0.093-0.044-0.186-0.066-0.293-0.066h-1.742v1.618h1.691c0.107,0,0.211-0.023,0.307-0.064c0.092-0.042,0.174-0.1,0.243-0.172
					s0.127-0.156,0.166-0.252C135.342,47.296,135.362,47.193,135.362,47.083z"/>
				<path fill="#004D7C" d="M137.475,48.602v-5.29h0.834v5.29H137.475z"/>
				<path fill="#004D7C" d="M141.363,43.312h0.729l2.087,5.29h-0.875l-0.559-1.436h-2.043l-0.551,1.436h-0.89L141.363,43.312z
					 M142.578,46.547l-0.85-2.273l-0.877,2.273H142.578z"/>
				<path fill="#004D7C" d="M145.143,48.602v-5.29h2.306c0.239,0,0.456,0.048,0.657,0.148c0.205,0.1,0.373,0.232,0.518,0.392
					c0.143,0.16,0.258,0.346,0.343,0.552c0.081,0.205,0.122,0.414,0.122,0.629c0,0.18-0.025,0.352-0.076,0.515
					c-0.047,0.167-0.118,0.312-0.207,0.454c-0.094,0.141-0.199,0.261-0.328,0.361c-0.131,0.102-0.271,0.178-0.426,0.231l1.246,2.007
					h-0.947l-1.146-1.838h-1.224v1.838H145.143z M145.977,46.023h1.463c0.121,0,0.227-0.024,0.322-0.075
					c0.098-0.057,0.182-0.127,0.248-0.219c0.07-0.092,0.125-0.197,0.166-0.317c0.041-0.119,0.062-0.246,0.062-0.38
					c0-0.135-0.026-0.258-0.074-0.381c-0.049-0.119-0.109-0.223-0.184-0.312c-0.078-0.088-0.17-0.159-0.27-0.213
					c-0.102-0.054-0.209-0.078-0.316-0.078h-1.418V46.023L145.977,46.023z"/>
				<path fill="#004D7C" d="M150.407,48.602v-5.29h0.833v5.29H150.407z"/>
				<path fill="#004D7C" d="M154.994,48.643c-0.381,0-0.721-0.078-1.029-0.23c-0.314-0.149-0.578-0.352-0.803-0.602
					c-0.223-0.25-0.395-0.541-0.516-0.863c-0.123-0.322-0.188-0.653-0.188-0.991c0-0.353,0.068-0.692,0.197-1.014
					c0.129-0.323,0.309-0.609,0.531-0.857c0.227-0.25,0.496-0.445,0.807-0.592c0.309-0.147,0.646-0.219,1.017-0.219
					c0.376,0,0.724,0.078,1.033,0.234c0.308,0.156,0.577,0.361,0.796,0.614c0.221,0.253,0.393,0.539,0.512,0.863
					c0.125,0.317,0.186,0.646,0.186,0.979c0,0.352-0.064,0.691-0.189,1.015c-0.127,0.323-0.304,0.606-0.533,0.852
					c-0.229,0.244-0.497,0.441-0.809,0.587C155.694,48.568,155.357,48.643,154.994,48.643z M153.311,45.957
					c0,0.249,0.04,0.49,0.116,0.722c0.081,0.235,0.196,0.441,0.343,0.62c0.146,0.176,0.322,0.323,0.533,0.426
					c0.208,0.109,0.443,0.162,0.701,0.162c0.267,0,0.504-0.055,0.711-0.166c0.203-0.111,0.383-0.259,0.526-0.445
					c0.144-0.185,0.253-0.389,0.327-0.617c0.075-0.23,0.11-0.462,0.11-0.701c0-0.255-0.038-0.497-0.118-0.727
					c-0.079-0.23-0.193-0.436-0.34-0.61c-0.145-0.178-0.324-0.318-0.527-0.426c-0.205-0.107-0.438-0.161-0.689-0.161
					c-0.27,0-0.506,0.054-0.721,0.168c-0.203,0.111-0.383,0.259-0.525,0.436c-0.143,0.18-0.255,0.383-0.332,0.616
					C153.348,45.485,153.311,45.719,153.311,45.957z"/>
			</g>
		</g>
		<path id="XMLID_17_" fill="#004F7D" d="M258.871,36.74c-0.303,0-0.58-0.052-0.838-0.153c-0.254-0.103-0.475-0.241-0.664-0.425
			c-0.186-0.179-0.332-0.39-0.436-0.637c-0.104-0.246-0.158-0.511-0.158-0.803c0-0.285,0.055-0.549,0.158-0.794
			s0.25-0.457,0.436-0.635c0.189-0.179,0.41-0.32,0.664-0.422c0.258-0.102,0.539-0.153,0.838-0.153s0.578,0.051,0.835,0.153
			c0.259,0.102,0.481,0.243,0.671,0.422c0.191,0.178,0.338,0.389,0.441,0.635c0.108,0.242,0.16,0.509,0.16,0.794
			c0,0.292-0.052,0.557-0.16,0.803c-0.104,0.245-0.25,0.458-0.441,0.637c-0.189,0.18-0.412,0.32-0.671,0.425
			C259.449,36.688,259.17,36.74,258.871,36.74 M258.871,36.467c0.253,0,0.488-0.043,0.704-0.13c0.22-0.085,0.407-0.205,0.569-0.354
			c0.164-0.152,0.291-0.337,0.385-0.549c0.092-0.214,0.139-0.446,0.139-0.699c0-0.246-0.047-0.473-0.137-0.686
			c-0.088-0.213-0.217-0.396-0.375-0.551c-0.16-0.156-0.348-0.276-0.57-0.368c-0.215-0.089-0.458-0.134-0.715-0.134
			c-0.262,0-0.5,0.045-0.717,0.134c-0.217,0.092-0.405,0.212-0.563,0.368c-0.159,0.156-0.282,0.336-0.368,0.548
			c-0.092,0.21-0.136,0.434-0.136,0.675c0,0.245,0.044,0.475,0.136,0.685c0.086,0.214,0.209,0.399,0.368,0.556
			c0.158,0.157,0.347,0.281,0.563,0.371C258.371,36.421,258.609,36.467,258.871,36.467 M257.968,33.496h1.084
			c0.114,0,0.212,0.023,0.313,0.07c0.094,0.048,0.176,0.113,0.246,0.191c0.069,0.079,0.123,0.165,0.163,0.259
			c0.038,0.099,0.057,0.196,0.057,0.297c0,0.15-0.04,0.295-0.12,0.429c-0.084,0.133-0.191,0.225-0.324,0.276l0.574,0.925h-0.596
			l-0.512-0.823h-0.359v0.823h-0.526V33.496L257.968,33.496z M259.006,34.662c0.097,0,0.17-0.03,0.225-0.092
			c0.053-0.061,0.076-0.148,0.076-0.258c0-0.12-0.028-0.208-0.09-0.265c-0.061-0.058-0.135-0.085-0.221-0.085h-0.502v0.698h0.512
			V34.662z"/>
	</g>
</g>
</svg>
