<svg width="220" height="88" viewBox="0 0 220 88" fill="none" xmlns="http://www.w3.org/2000/svg">
<path d="M67.258 1.88922C67.0233 1.46682 66.6948 1.25562 66.2724 1.25562C65.4745 1.25562 64.7236 1.86575 64.0196 3.08602L52.826 22.5164C52.2628 23.4551 51.4649 24.2529 50.4324 24.91C49.3999 25.5671 48.4143 25.8956 47.4756 25.8956H23.8212C22.8825 25.8956 21.8969 26.2241 20.8644 26.8812C19.8319 27.5383 19.034 28.3361 18.4708 29.2748L0.94113 59.6876C0.565663 60.2978 0.37793 60.861 0.37793 61.3772C0.37793 62.5036 1.035 63.0668 2.34913 63.0668H49.658C50.5967 63.0668 51.5823 62.7383 52.6148 62.0812C53.6473 61.4242 54.4452 60.6263 55.0084 59.6876L76.1988 22.9388C76.762 21.9532 77.0436 20.8738 77.0436 19.7004C77.0436 18.9026 76.9028 18.2689 76.6212 17.7996L67.258 1.88922ZM33.3252 56.3084C32.762 57.2471 31.9641 58.0449 30.9316 58.702C29.8991 59.3591 28.9135 59.6876 27.9748 59.6876C26.6607 59.6876 26.0036 59.1244 26.0036 57.998C26.0036 57.4817 26.1913 56.9185 26.5668 56.3084L40.154 32.654C40.7172 31.7154 41.5151 30.9175 42.5476 30.2604C43.5801 29.6034 44.5657 29.2748 45.5044 29.2748C46.8185 29.2748 47.4756 29.838 47.4756 30.9644C47.4756 31.4807 47.2879 32.0439 46.9124 32.654L33.3252 56.3084ZM77.092 63.0668C77.9837 63.0668 78.9459 62.7383 79.9784 62.0812C81.0579 61.4242 81.8557 60.6263 82.372 59.6876L99.972 29.2748C100.301 28.6647 100.465 28.1015 100.465 27.5852C100.465 26.4588 99.8077 25.8956 98.4936 25.8956H81.5976C80.7059 25.8956 79.7203 26.2241 78.6408 26.8812C77.6083 27.5383 76.8339 28.3361 76.3176 29.2748L58.7176 59.6876C58.3891 60.2978 58.2248 60.861 58.2248 61.3772C58.2248 62.5036 58.8819 63.0668 60.196 63.0668H77.092ZM111.57 25.8956C110.631 25.8956 109.646 26.2241 108.613 26.8812C107.58 27.5383 106.806 28.3361 106.29 29.2748L85.029 66.0236C84.4658 66.9623 84.1842 68.0183 84.1842 69.1916C84.1842 69.9895 84.3485 70.6466 84.677 71.1628L93.9698 87.0028C94.2514 87.4722 94.6034 87.7068 95.0258 87.7068C95.8237 87.7068 96.5746 87.0967 97.2786 85.8764L108.472 66.446C108.988 65.5074 109.763 64.7095 110.795 64.0524C111.875 63.3954 112.86 63.0668 113.752 63.0668H137.407C138.345 63.0668 139.331 62.7383 140.363 62.0812C141.443 61.4242 142.241 60.6263 142.757 59.6876L160.356 29.2748C160.685 28.6647 160.849 28.1015 160.849 27.5852C160.849 26.4588 160.192 25.8956 158.878 25.8956H111.57ZM121.074 56.3084C120.511 57.2471 119.713 58.0449 118.68 58.702C117.648 59.3591 116.662 59.6876 115.723 59.6876C114.409 59.6876 113.752 59.1244 113.752 57.998C113.752 57.4817 113.94 56.9185 114.315 56.3084L127.973 32.654C128.489 31.7154 129.264 30.9175 130.296 30.2604C131.376 29.6034 132.385 29.2748 133.323 29.2748C134.591 29.2748 135.224 29.838 135.224 30.9644C135.224 31.4807 135.06 32.0439 134.731 32.654L121.074 56.3084ZM169.472 25.8956C168.58 25.8956 167.594 26.2241 166.515 26.8812C165.482 27.5383 164.708 28.3361 164.192 29.2748L146.592 59.6876C146.263 60.2978 146.099 60.861 146.099 61.3772C146.099 62.5036 146.756 63.0668 148.07 63.0668H195.379C196.271 63.0668 197.233 62.7383 198.265 62.0812C199.345 61.4242 200.143 60.6263 200.659 59.6876L218.259 29.2748C218.587 28.6647 218.752 28.1015 218.752 27.5852C218.752 26.4588 218.095 25.8956 216.781 25.8956H169.472ZM178.976 56.3084C178.459 57.2471 177.662 58.0449 176.582 58.702C175.55 59.3591 174.564 59.6876 173.625 59.6876C172.358 59.6876 171.725 59.1244 171.725 57.998C171.725 57.4817 171.889 56.9185 172.217 56.3084L185.875 32.654C186.391 31.7154 187.166 30.9175 188.198 30.2604C189.278 29.6034 190.287 29.2748 191.225 29.2748C192.493 29.2748 193.126 29.838 193.126 30.9644C193.126 31.4807 192.962 32.0439 192.633 32.654L178.976 56.3084Z" fill="white"/>
</svg>
