<svg width="180" height="183" viewBox="0 0 180 183" fill="none" xmlns="http://www.w3.org/2000/svg">
<path d="M179.514 91.4873C179.517 109.585 174.255 127.277 164.394 142.325C154.532 157.374 140.515 169.104 124.114 176.031C107.714 182.959 89.6661 184.772 72.2541 181.243C54.8421 177.714 38.8477 169.001 26.2937 156.205C13.7397 143.409 5.18992 127.105 1.72561 109.355C-1.7387 91.6058 0.0380631 73.2076 6.8312 56.4874C13.6243 39.7672 25.1287 25.4761 39.8895 15.4214C54.6502 5.3667 72.0044 1.7494e-07 89.7572 0C113.56 -2.34559e-07 136.388 9.6384 153.221 26.7952C170.053 43.9521 179.511 67.2222 179.514 91.4873" fill="#0B0146"/>
<path d="M32.1864 91.9835V98.5738C32.1483 99.258 32.2114 99.9442 32.3737 100.609C32.52 100.92 32.7607 101.174 33.0601 101.335C33.4931 101.555 33.9741 101.66 34.4578 101.64H35.1442V102.212H24.2241V101.64H24.9729C25.48 101.666 25.9845 101.551 26.4331 101.309C26.7219 101.142 26.9431 100.876 27.0571 100.558C27.2105 99.9093 27.2652 99.2399 27.2194 98.5738V84.5791C27.2591 83.8961 27.2045 83.2109 27.0571 82.5435C26.91 82.2365 26.6691 81.9865 26.3707 81.831C25.9398 81.604 25.4572 81.4986 24.9729 81.5257H24.2241V80.9404H35.1442V81.5257H34.4578C33.9469 81.5014 33.4388 81.6155 32.9852 81.8564C32.6963 82.0232 32.4751 82.2893 32.3612 82.6071C32.203 83.2555 32.1441 83.925 32.1864 84.5918V90.6095H39.5622V84.5918C39.6024 83.9088 39.5478 83.2235 39.4 82.5562C39.2519 82.2425 39.0062 81.9875 38.7011 81.831C38.268 81.6102 37.7871 81.5051 37.3033 81.5257H36.6169V80.9532H47.5245V81.5257H46.8506C46.3396 81.5002 45.8311 81.6144 45.3779 81.8564C45.0938 82.0289 44.8742 82.293 44.7539 82.6071C44.5964 83.2556 44.5375 83.925 44.5792 84.5918V98.5865C44.5376 99.2701 44.5965 99.9562 44.7539 100.622C44.901 100.929 45.1419 101.179 45.4404 101.335C45.8717 101.56 46.3539 101.666 46.8381 101.64H47.5245V102.225H36.6169V101.64H37.3033C37.8103 101.664 38.3144 101.55 38.7635 101.309C39.0523 101.142 39.2735 100.876 39.3875 100.558C39.551 99.9153 39.61 99.2491 39.5622 98.5865V91.9835H32.1864Z" fill="white"/>
<path d="M64.3732 96.1563H56.9974L56.1737 98.2301C55.9223 98.7691 55.7741 99.352 55.7369 99.9476C55.7328 100.205 55.7966 100.459 55.9218 100.683C56.0469 100.907 56.2288 101.092 56.4483 101.22C57.1019 101.474 57.7956 101.603 58.495 101.602V102.187H51.4937V101.602C52.1978 101.516 52.8508 101.183 53.3407 100.66C54.0919 99.6832 54.6975 98.5985 55.1378 97.4413L62.6259 80.4568H62.913L70.4011 97.912C70.8109 99.0486 71.4058 100.107 72.1608 101.042C72.5831 101.388 73.1044 101.584 73.6459 101.602V102.187H63.5744V101.602H63.9863C64.5766 101.655 65.1697 101.536 65.696 101.258C65.8063 101.175 65.8947 101.065 65.9535 100.938C66.0122 100.812 66.0396 100.673 66.033 100.533C66.0284 100.335 65.9991 100.138 65.9457 99.9476C65.9457 99.8585 65.7709 99.4642 65.4839 98.7771L64.3732 96.1563ZM63.849 94.9986L60.729 87.6704L57.534 94.9986H63.849Z" fill="white"/>
<path d="M97.0834 94.7443L96.2972 102.225H77.7642V101.64H78.4506C78.9493 101.661 79.4445 101.547 79.8858 101.309C80.1746 101.142 80.3958 100.876 80.5098 100.558C80.6637 99.9094 80.7185 99.2399 80.672 98.5738V84.5791C80.7174 83.8961 80.6627 83.21 80.5098 82.5435C80.3627 82.2365 80.1218 81.9865 79.8234 81.831C79.3904 81.6102 78.9094 81.5051 78.4256 81.5257H77.7642V80.9404H88.884V81.5257H87.9854C87.4783 81.5 86.9739 81.6142 86.5252 81.8564C86.2324 82.0217 86.0068 82.2878 85.8887 82.6071C85.7306 83.2555 85.6717 83.925 85.714 84.5918V98.1539C85.6759 98.8508 85.739 99.5496 85.9012 100.228C85.9678 100.385 86.0669 100.525 86.1919 100.639C86.3169 100.754 86.4647 100.839 86.6251 100.889C87.2363 101.018 87.8614 101.065 88.4846 101.029H90.2318C91.1831 101.086 92.1339 100.907 93.0024 100.508C93.7771 100.034 94.4179 99.3631 94.8619 98.561C95.5458 97.368 96.0625 96.0833 96.397 94.7443H97.0834Z" fill="white"/>
<path d="M121.269 94.7443L120.483 102.225H101.937V101.64H102.636C103.143 101.666 103.648 101.551 104.096 101.309C104.385 101.142 104.606 100.876 104.72 100.558C104.856 99.9065 104.898 99.238 104.845 98.5738V84.5791C104.884 83.8961 104.83 83.211 104.683 82.5435C104.532 82.2391 104.292 81.99 103.997 81.831C103.564 81.6102 103.083 81.5051 102.599 81.5257H101.9V80.9404H113.032V81.5257H112.134C111.627 81.5 111.122 81.6142 110.673 81.8564C110.381 82.0217 110.155 82.2878 110.037 82.6071C109.879 83.2555 109.82 83.925 109.862 84.5918V98.1539C109.824 98.8508 109.887 99.5496 110.049 100.228C110.116 100.385 110.215 100.525 110.34 100.639C110.465 100.754 110.613 100.839 110.773 100.889C111.384 101.018 112.01 101.065 112.633 101.029H114.38C115.344 101.093 116.308 100.913 117.188 100.508C117.973 100.058 118.631 99.4098 119.098 98.6247C119.781 97.4316 120.298 96.1469 120.633 94.8079L121.269 94.7443Z" fill="white"/>
<path d="M136.109 100.507C135.642 101.187 135.01 101.731 134.274 102.085C133.565 102.399 132.8 102.56 132.028 102.556C131.238 102.568 130.453 102.421 129.719 102.123C129.042 101.827 128.43 101.394 127.922 100.851C127.413 100.315 127.018 99.6787 126.761 98.9808C126.199 97.4552 126.199 95.7736 126.761 94.248C127.021 93.5555 127.416 92.9237 127.922 92.3905C128.428 91.844 129.04 91.4108 129.719 91.1183C130.453 90.8209 131.238 90.6739 132.028 90.6857C132.741 90.676 133.449 90.81 134.112 91.0801C134.786 91.3729 135.371 91.8427 135.809 92.4414L134.973 93.1539C134.675 92.6531 134.242 92.2509 133.725 91.9961C133.208 91.7527 132.646 91.6268 132.077 91.6272C131.415 91.6258 130.758 91.7554 130.143 92.0089C129.592 92.2518 129.095 92.6068 128.683 93.0521C128.269 93.5076 127.95 94.0444 127.747 94.6297C127.31 95.8892 127.31 97.2633 127.747 98.5228C127.95 99.1043 128.269 99.6369 128.683 100.088C129.088 100.541 129.587 100.897 130.143 101.131C130.754 101.396 131.413 101.526 132.077 101.513C132.684 101.516 133.283 101.372 133.825 101.093C134.122 100.954 134.399 100.774 134.648 100.558C134.915 100.333 135.147 100.067 135.335 99.7696L136.109 100.507Z" fill="white"/>
<path d="M141.362 91.0039H142.411L147.041 102.225H145.893L144.645 99.2353H138.816L137.568 102.225H136.495L141.362 91.0039ZM141.837 92.1489L139.341 98.2939H144.333L141.837 92.1489Z" fill="white"/>
<path d="M148.626 91.0039H155.215V91.9581H149.662V95.9529H154.829V96.8944H149.662V102.225H148.638L148.626 91.0039Z" fill="white"/>
<path d="M157.263 91.0037H163.989V91.9578H158.286V95.9527H163.628V96.8942H158.286V101.271H164.239V102.225H157.263V91.0037ZM161.082 88.0266H162.33L160.258 90.3294H159.484L161.082 88.0266Z" fill="white"/>
<path d="M179.514 91.4618C179.522 109.56 174.264 127.255 164.406 142.307C154.548 157.359 140.532 169.093 124.132 176.024C107.731 182.955 89.683 184.773 72.2694 181.246C54.8557 177.72 38.859 169.009 26.3025 156.214C13.746 143.419 5.19377 127.115 1.72744 109.365C-1.73889 91.6145 0.0364076 73.2149 6.82881 56.4933C13.6212 39.7716 25.1256 25.479 39.8869 15.4232C54.6482 5.36735 72.0033 1.57456e-06 89.7572 0C113.56 -2.34559e-07 136.388 9.6384 153.221 26.7952C170.053 43.9521 179.511 67.2222 179.514 91.4873V91.4618ZM178.266 91.4873C178.254 73.6398 173.052 56.1966 163.317 41.3622C153.583 26.5278 139.753 14.968 123.576 8.1439C107.399 1.31978 89.6004 -0.462427 72.4299 3.02253C55.2593 6.50749 39.4876 15.1032 27.1079 27.7233C14.7282 40.3433 6.29621 56.4213 2.87763 73.9253C-0.540947 91.4292 1.20731 109.573 7.90145 126.065C14.5956 142.556 25.9351 156.654 40.487 166.578C55.0388 176.501 72.1498 181.804 89.6573 181.817V181.817C101.29 181.827 112.811 179.5 123.561 174.969C134.311 170.437 144.08 163.791 152.309 155.409C160.538 147.027 167.066 137.075 171.52 126.12C175.974 115.165 178.266 103.422 178.266 91.5636V91.4873ZM41.6213 121.64H38.5636C39.0629 122.556 39.5995 123.459 40.1486 124.349C45.4346 132.89 52.7563 139.927 61.431 144.804C70.1057 149.681 79.8508 152.239 89.7572 152.239C99.6635 152.239 109.409 149.681 118.083 144.804C126.758 139.927 134.08 132.89 139.366 124.349C139.915 123.459 140.439 122.556 140.951 121.64H41.6213ZM137.906 63.1162H140.951C140.451 62.2001 139.915 61.2968 139.366 60.419C134.08 51.878 126.758 44.841 118.083 39.9641C109.409 35.0873 99.6635 32.5296 89.7572 32.5296C79.8508 32.5296 70.1057 35.0873 61.431 39.9641C52.7563 44.841 45.4346 51.878 40.1486 60.419C39.5995 61.2968 39.0753 62.2001 38.5636 63.1162H137.906ZM11.2446 68.0906H168.332V66.2968H11.2446V68.0906ZM11.2446 116.703H168.332V114.897H11.2446V116.703Z" fill="white"/>
<path d="M80.1349 131.805C79.2613 132.123 78.5374 132.416 77.8011 132.632C76.8048 132.91 75.881 133.408 75.0957 134.092C74.3104 134.776 73.683 135.629 73.2583 136.589C72.8839 137.352 72.5345 138.141 72.0977 138.879C71.6018 139.712 70.9167 140.412 70.1 140.919C69.2834 141.426 68.3591 141.725 67.4052 141.792C67.2305 141.78 67.0602 141.731 66.9054 141.648C66.7506 141.564 66.6147 141.449 66.5066 141.309C66.0585 140.7 65.7773 139.981 65.6918 139.226C65.6063 138.47 65.7195 137.705 66.0199 137.008C66.9199 135.009 68.3215 133.286 70.0833 132.015C71.845 130.744 73.9045 129.969 76.0539 129.769C76.8485 129.711 77.6442 129.867 78.3608 130.222C79.0773 130.577 79.6892 131.119 80.1349 131.792" fill="#0B0146"/>
<path d="M111.759 119.069C111.395 119.55 111.003 120.009 110.586 120.443C109.666 121.284 108.959 122.338 108.525 123.516C108.09 124.694 107.941 125.962 108.09 127.212C108.196 128.167 108.196 129.132 108.09 130.087C107.942 130.886 107.633 131.645 107.182 132.315C106.73 132.985 106.147 133.552 105.469 133.98C105.298 134.058 105.113 134.099 104.926 134.099C104.739 134.099 104.554 134.058 104.383 133.98C103.662 133.692 103.04 133.193 102.596 132.545C102.152 131.898 101.905 131.131 101.887 130.341C101.72 128.167 102.133 125.986 103.082 124.031C104.031 122.076 105.481 120.419 107.279 119.235C107.934 118.76 108.709 118.487 109.513 118.448C110.316 118.41 111.113 118.608 111.809 119.018" fill="#0B0146"/>
<path d="M106.168 134.731C106.792 134.184 107.229 133.815 107.641 133.459C108.388 132.806 108.947 131.957 109.257 131.004C109.567 130.052 109.617 129.031 109.4 128.052C108.701 124.515 110.411 122.034 112.745 119.808C112.908 119.736 113.085 119.707 113.261 119.723C113.438 119.738 113.608 119.798 113.756 119.897C114.425 120.429 114.954 121.123 115.294 121.916C115.634 122.709 115.774 123.576 115.703 124.438C115.713 126.342 115.248 128.217 114.35 129.886C113.453 131.556 112.153 132.965 110.573 133.98C109.937 134.425 109.214 134.725 108.455 134.861C107.695 134.997 106.915 134.966 106.168 134.769" fill="#0B0146"/>
<path d="M67.9166 142.924C68.7653 142.67 69.4392 142.492 70.1131 142.275C70.9512 142.051 71.7176 141.608 72.3369 140.99C72.9561 140.372 73.407 139.601 73.645 138.751C74.6809 135.227 77.389 133.764 80.5091 132.924C80.6863 132.929 80.8597 132.978 81.0142 133.066C81.1686 133.155 81.2994 133.281 81.3952 133.433C81.6731 134.063 81.8168 134.746 81.8168 135.437C81.8168 136.128 81.6731 136.811 81.3952 137.441C80.5716 139.413 79.2139 141.106 77.4811 142.32C75.7484 143.534 73.7121 144.221 71.6107 144.298C70.9276 144.343 70.2427 144.244 69.5986 144.008C68.9545 143.772 68.365 143.403 67.8667 142.924" fill="#0B0146"/>
<path d="M65.1342 53.9051C64.2606 54.2105 63.5367 54.5031 62.8129 54.7194C61.8161 54.9996 60.8917 55.4991 60.1047 56.1826C59.3177 56.8662 58.6872 57.7173 58.2576 58.6761C57.8832 59.4521 57.5338 60.2409 57.097 60.9661C56.5992 61.8117 55.9053 62.5197 55.0761 63.0277C54.247 63.5358 53.3081 63.8283 52.342 63.8796C52.1683 63.8693 51.9987 63.8221 51.8439 63.741C51.6892 63.66 51.5528 63.5468 51.4435 63.4088C50.995 62.8005 50.7146 62.0808 50.6312 61.3246C50.5478 60.5685 50.6645 59.8033 50.9692 59.1086C51.8734 57.1018 53.2827 55.3749 55.0539 54.1034C56.8251 52.8319 58.895 52.0611 61.0532 51.8695C61.8488 51.8138 62.6448 51.9726 63.3612 52.3299C64.0776 52.6872 64.6891 53.2305 65.1342 53.9051" fill="#0B0146"/>
<path d="M86.5497 40.9284C86.4124 41.8189 86.3376 42.5696 86.1753 43.2947C85.8927 44.4715 85.8962 45.7008 86.1855 46.8759C86.4748 48.051 87.0411 49.1363 87.8352 50.0376C88.6541 50.9402 89.2122 52.056 89.4479 53.2617C89.6835 54.4674 89.5876 55.716 89.1706 56.8696C89.1102 57.1352 88.9618 57.3715 88.7503 57.5384C88.5388 57.7053 88.2773 57.7926 88.0099 57.7856C87.1174 57.8551 86.225 57.6496 85.4484 57.1959C84.6718 56.7422 84.0468 56.0612 83.6543 55.2411C82.6599 53.6307 82.0415 51.809 81.8468 49.9164C81.6521 48.0239 81.8862 46.111 82.5311 44.3253C82.7867 43.406 83.3057 42.5855 84.0217 41.969C84.7377 41.3524 85.618 40.9679 86.5497 40.8647" fill="#0B0146"/>
<path d="M126.873 49.9993C126.509 50.485 126.118 50.9481 125.7 51.386C124.778 52.2243 124.069 53.278 123.634 54.4569C123.199 55.6357 123.052 56.9045 123.204 58.1544C123.282 59.1266 123.244 60.1048 123.091 61.0678C122.934 61.853 122.62 62.5969 122.17 63.2535C121.719 63.91 121.14 64.4652 120.471 64.8845C120.299 64.9598 120.114 64.9986 119.928 64.9986C119.741 64.9986 119.556 64.9598 119.385 64.8845C118.662 64.5941 118.04 64.0926 117.596 63.4431C117.152 62.7935 116.906 62.0247 116.889 61.2332C116.743 59.0694 117.17 56.9055 118.125 54.9674C119.08 53.0294 120.528 51.3883 122.318 50.2155C122.972 49.7445 123.745 49.4739 124.546 49.4356C125.346 49.3973 126.14 49.5929 126.835 49.9993" fill="#0B0146"/>
<path d="M90.3185 57.251C90.4808 56.4368 90.5806 55.8261 90.7179 55.2281C90.9659 54.357 90.9809 53.4341 90.7615 52.555C90.5421 51.6759 90.0961 50.8726 89.4699 50.2282C86.9738 47.6837 86.8116 44.6812 87.5354 41.4115C87.7102 40.6227 88.0471 40.4828 88.7211 40.5718C89.4093 40.669 90.07 40.9116 90.661 41.284C91.252 41.6565 91.7602 42.1505 92.1531 42.7347C93.3711 44.3597 94.1242 46.2966 94.329 48.331C94.5339 50.3654 94.1825 52.4179 93.3138 54.2612C93.0432 54.9428 92.6375 55.5602 92.1221 56.0746C91.6067 56.5891 90.9927 56.9896 90.3185 57.251" fill="#0B0146"/>
<path d="M121.282 65.6734C121.906 65.1136 122.343 64.7574 122.755 64.4012C123.508 63.7496 124.071 62.8992 124.381 61.9432C124.692 60.9871 124.738 59.9624 124.515 58.9814C123.816 55.4573 125.538 52.9637 127.872 50.75C128.034 50.68 128.21 50.6505 128.386 50.6637C128.562 50.677 128.732 50.7327 128.883 50.8263C129.551 51.362 130.078 52.0589 130.415 52.8541C130.753 53.6493 130.891 54.5177 130.817 55.381C130.83 57.2836 130.367 59.1582 129.471 60.8277C128.576 62.4973 127.278 63.9066 125.7 64.9228C125.06 65.3638 124.335 65.6621 123.574 65.798C122.813 65.9339 122.032 65.9045 121.282 65.7116" fill="#0B0146"/>
<path d="M52.9156 65.0118C53.7642 64.7573 54.4382 64.5792 55.1121 64.3629C55.9548 64.1424 56.7263 63.7012 57.3502 63.0831C57.9741 62.4649 58.4287 61.6913 58.6689 60.8388C59.7048 57.3274 62.413 55.8516 65.533 55.0247C65.7112 55.0246 65.8863 55.0715 66.0415 55.1606C66.1968 55.2498 66.3268 55.3782 66.4191 55.5336C66.697 56.1636 66.8408 56.8465 66.8408 57.5373C66.8408 58.2282 66.697 58.9111 66.4191 59.5411C65.593 61.5117 64.2347 63.2024 62.5025 64.4164C60.7702 65.6305 58.7353 66.3179 56.6347 66.3985C55.9521 66.4375 55.2688 66.3359 54.6255 66.0998C53.9823 65.8637 53.3923 65.498 52.8906 65.0245" fill="#0B0146"/>
</svg>
