<svg width="168" height="64" viewBox="0 0 168 64" fill="none" xmlns="http://www.w3.org/2000/svg">
<g clip-path="url(#clip0_4_39)">
<path d="M48.6326 44.8373C46.7277 43.8339 45.228 42.4373 44.1378 40.6558C43.0475 38.8742 42.5002 36.8593 42.5002 34.6109C42.5002 32.3624 43.0475 30.3475 44.1378 28.5659C45.228 26.7844 46.7277 25.3919 48.6326 24.3845C50.5374 23.3811 52.6804 22.8773 55.0615 22.8773C57.0666 22.8773 58.8796 23.2254 60.5004 23.9135C62.1212 24.6056 63.4788 25.5967 64.5816 26.895L61.1437 30.0075C59.5772 28.2383 57.6389 27.3496 55.3247 27.3496C53.8918 27.3496 52.6136 27.6567 51.4899 28.2752C50.3662 28.8895 49.4889 29.7495 48.8623 30.8512C48.2357 31.9529 47.9182 33.2061 47.9182 34.6109C47.9182 36.0156 48.2315 37.2688 48.8623 38.3705C49.4889 39.4722 50.3662 40.3322 51.4899 40.9466C52.6136 41.5609 53.8918 41.8721 55.3247 41.8721C57.6389 41.8721 59.5772 40.9752 61.1437 39.1814L64.5816 42.294C63.4788 43.6127 62.1128 44.6161 60.4837 45.3082C58.8503 46.0004 57.0332 46.3444 55.0281 46.3444C52.6679 46.3444 50.5374 45.8407 48.6326 44.8373Z" fill="white"/>
<path d="M79.8832 30.1878C81.3578 31.4737 82.0972 33.4109 82.0972 36.0033V45.9513H77.2724V43.7806C76.3033 45.4025 74.4945 46.2093 71.8502 46.2093C70.4842 46.2093 69.2979 45.984 68.2953 45.5294C67.2927 45.0748 66.5283 44.4482 65.9978 43.6496C65.4672 42.851 65.2041 41.9418 65.2041 40.9261C65.2041 39.3043 65.8265 38.0306 67.0713 37.1009C68.3162 36.1713 70.2378 35.7085 72.8402 35.7085H76.9382C76.9382 34.6068 76.5957 33.759 75.9148 33.1652C75.2339 32.5713 74.2062 32.2724 72.8402 32.2724C71.892 32.2724 70.9604 32.4198 70.0456 32.7106C69.1308 33.0014 68.3538 33.3945 67.7146 33.8942L65.8641 30.3639C66.8332 29.6922 67.9945 29.1762 69.3522 28.8076C70.7056 28.439 72.1009 28.2547 73.5337 28.2547C76.2865 28.2547 78.4045 28.8977 79.8791 30.1837L79.8832 30.1878ZM75.4887 42.2121C76.1696 41.8107 76.6542 41.2251 76.9424 40.4469V38.6654H73.4042C71.2904 38.6654 70.2294 39.3452 70.2294 40.7049C70.2294 41.352 70.4884 41.8681 71.0064 42.2448C71.5244 42.6216 72.2345 42.81 73.1368 42.81C74.0391 42.81 74.7994 42.6093 75.4845 42.2121H75.4887Z" fill="white"/>
<path d="M100.461 29.3769C101.814 30.1222 102.879 31.1707 103.648 32.5222C104.421 33.8737 104.805 35.4463 104.805 37.2361C104.805 39.0258 104.421 40.6025 103.648 41.95C102.875 43.3015 101.814 44.3499 100.461 45.0953C99.1073 45.8407 97.6035 46.2133 95.9493 46.2133C93.5014 46.2133 91.6424 45.4557 90.3642 43.9445V45.9553H85.4391V21.9108H90.5939V30.368C91.8931 28.9632 93.6768 28.2629 95.9493 28.2629C97.6035 28.2629 99.1073 28.6356 100.461 29.3809V29.3769ZM98.3136 40.75C99.1616 39.8736 99.5877 38.7022 99.5877 37.232C99.5877 35.7617 99.1616 34.5904 98.3136 33.714C97.4656 32.8375 96.3795 32.3993 95.0595 32.3993C93.7395 32.3993 92.6534 32.8375 91.8054 33.714C90.9574 34.5904 90.5313 35.7617 90.5313 37.232C90.5313 38.7022 90.9574 39.8736 91.8054 40.75C92.6534 41.6264 93.7395 42.0605 95.0595 42.0605C96.3795 42.0605 97.4656 41.6223 98.3136 40.75Z" fill="white"/>
<path d="M114.342 28.91C115.386 28.4758 116.594 28.2629 117.96 28.2629V32.9276C117.387 32.8826 117.003 32.8621 116.803 32.8621C115.328 32.8621 114.167 33.2675 113.331 34.0785C112.492 34.8894 112.074 36.1057 112.074 37.7234V45.9553H106.919V28.5209H111.844V30.8226C112.462 29.9789 113.294 29.3441 114.338 28.91H114.342Z" fill="white"/>
<path d="M136.87 38.6654H123.419C123.662 39.7466 124.234 40.5985 125.136 41.2251C126.039 41.8517 127.162 42.167 128.507 42.167C129.435 42.167 130.254 42.0319 130.968 41.7616C131.682 41.4913 132.351 41.0653 132.969 40.4797L135.713 43.3957C134.038 45.2755 131.59 46.2134 128.374 46.2134C126.369 46.2134 124.593 45.8284 123.052 45.0625C121.51 44.2967 120.32 43.2318 119.484 41.8721C118.645 40.5125 118.227 38.9644 118.227 37.2361C118.227 35.5078 118.641 33.9884 119.468 32.6164C120.295 31.2444 121.431 30.1755 122.872 29.4096C124.313 28.6438 125.93 28.2588 127.714 28.2588C129.497 28.2588 131.031 28.6274 132.442 29.3605C133.85 30.0936 134.961 31.1502 135.763 32.5181C136.57 33.8901 136.971 35.4832 136.971 37.2975C136.971 37.363 136.937 37.8176 136.87 38.6572V38.6654ZM124.806 33.0587C124.013 33.7058 123.528 34.5945 123.353 35.7166H132.112C131.937 34.615 131.452 33.7344 130.659 33.0751C129.865 32.4157 128.896 32.0881 127.751 32.0881C126.607 32.0881 125.604 32.4116 124.811 33.0587H124.806Z" fill="white"/>
<path d="M146.508 28.91C147.552 28.4758 148.759 28.2629 150.125 28.2629V32.9276C149.553 32.8826 149.169 32.8621 148.968 32.8621C147.493 32.8621 146.332 33.2675 145.497 34.0785C144.657 34.8894 144.239 36.1057 144.239 37.7234V45.9553H139.084V28.5209H144.01V30.8226C144.628 29.9789 145.459 29.3441 146.503 28.91H146.508Z" fill="white"/>
<path d="M165.297 30.1878C166.772 31.4737 167.511 33.4109 167.511 36.0033V45.9513H162.686V43.7806C161.717 45.4025 159.908 46.2093 157.264 46.2093C155.898 46.2093 154.712 45.984 153.709 45.5294C152.707 45.0748 151.942 44.4482 151.412 43.6496C150.881 42.851 150.618 41.9418 150.618 40.9261C150.618 39.3043 151.241 38.0306 152.485 37.1009C153.73 36.1713 155.652 35.7085 158.254 35.7085H162.352C162.352 34.6068 162.01 33.759 161.329 33.1652C160.648 32.5713 159.62 32.2724 158.254 32.2724C157.306 32.2724 156.374 32.4198 155.46 32.7106C154.545 33.0014 153.768 33.3945 153.129 33.8942L151.278 30.3639C152.247 29.6922 153.409 29.1762 154.766 28.8076C156.12 28.439 157.515 28.2547 158.948 28.2547C161.701 28.2547 163.818 28.8977 165.293 30.1837L165.297 30.1878ZM160.903 42.2121C161.584 41.8107 162.068 41.2251 162.356 40.4469V38.6654H158.818C156.704 38.6654 155.643 39.3452 155.643 40.7049C155.643 41.352 155.902 41.8681 156.42 42.2448C156.938 42.6216 157.649 42.81 158.551 42.81C159.453 42.81 160.213 42.6093 160.899 42.2121H160.903Z" fill="white"/>
<path d="M12.9998 0V18.1511H11.7758V15.141C11.262 16.1362 10.5352 16.902 9.60363 17.4385C8.67208 17.975 7.61521 18.2453 6.4372 18.2453C5.2592 18.2453 4.12296 17.9669 3.14546 17.414C2.16379 16.8611 1.39516 16.0952 0.839572 15.1164C0.283986 14.1376 0.00410461 13.0195 0.00410461 11.7663C0.00410461 10.5131 0.283986 9.39093 0.839572 8.40392C1.39516 7.41691 2.16797 6.65105 3.14546 6.10635C4.12714 5.56166 5.22578 5.28726 6.4372 5.28726C7.64863 5.28726 8.64702 5.55756 9.57021 6.09407C10.4934 6.63058 11.2203 7.38414 11.755 8.34248V0H13.004H12.9998ZM9.19425 16.4638C9.98376 16.0092 10.6062 15.3703 11.0657 14.5553C11.521 13.7403 11.7508 12.8106 11.7508 11.7663C11.7508 10.722 11.521 9.79228 11.0657 8.97728C10.6062 8.16228 9.98376 7.52748 9.19425 7.06879C8.40473 6.61419 7.51078 6.38485 6.5124 6.38485C5.51401 6.38485 4.62006 6.61419 3.83055 7.06879C3.04103 7.52748 2.41861 8.16228 1.9591 8.97728C1.49959 9.79228 1.27402 10.722 1.27402 11.7663C1.27402 12.8106 1.50377 13.7403 1.9591 14.5553C2.41443 15.3703 3.04103 16.0051 3.83055 16.4638C4.62006 16.9225 5.51401 17.1478 6.5124 17.1478C7.51078 17.1478 8.40473 16.9184 9.19425 16.4638Z" fill="white"/>
<path d="M20.3353 6.02855C21.1833 5.533 22.2151 5.28317 23.4265 5.28317V6.48315L23.1257 6.45857C21.6762 6.45857 20.5483 6.90089 19.7337 7.7896C18.9192 8.67832 18.5098 9.91516 18.5098 11.496V18.1512H17.2608V5.38146H18.4597V8.17048C18.8607 7.24081 19.4831 6.5282 20.3311 6.02855H20.3353Z" fill="white"/>
<path d="M23.6646 17.7457C23.2636 17.3648 23.0673 16.8775 23.0673 16.2918C23.0673 15.7062 23.2636 15.1983 23.6521 14.8256C24.0406 14.4529 24.5293 14.2646 25.11 14.2646C25.6906 14.2646 26.1794 14.4529 26.5679 14.8256C26.9564 15.2024 27.1527 15.6898 27.1527 16.2918C27.1527 16.8939 26.9522 17.3648 26.5553 17.7457C26.1543 18.1307 25.6739 18.3191 25.11 18.3191C24.546 18.3191 24.0615 18.1266 23.6646 17.7457Z" fill="#FF9B4D"/>
<path d="M46.406 1.02795V18.1511H43.1603V10.812H34.1288V18.1511H30.8872V1.02795H34.1288V8.09675H43.1603V1.02795H46.406Z" fill="white"/>
<path d="M62.6977 5.08658V18.1471H59.7276V16.4843C59.2305 17.0699 58.6039 17.5245 57.8561 17.8399C57.1084 18.1593 56.3022 18.315 55.4375 18.315C53.6579 18.315 52.2543 17.8317 51.2309 16.8611C50.2074 15.8904 49.6978 14.4529 49.6978 12.5444V5.08658H52.8183V12.1308C52.8183 13.3062 53.0898 14.1826 53.6287 14.7601C54.1675 15.3417 54.9403 15.6283 55.9346 15.6283C57.0499 15.6283 57.9355 15.2884 58.5913 14.6127C59.2472 13.9369 59.5772 12.9622 59.5772 11.6885V5.08658H62.6977Z" fill="white"/>
<path d="M79.0143 5.08657V16.1648C79.0143 20.7641 76.6207 23.0616 71.8293 23.0616C70.5469 23.0616 69.3355 22.9019 68.1867 22.5865C67.0379 22.2671 66.0897 21.8084 65.3419 21.2064L66.7372 18.9047C67.3178 19.3757 68.0572 19.7566 68.947 20.0433C69.8367 20.3299 70.739 20.4692 71.6539 20.4692C73.1159 20.4692 74.1895 20.1415 74.8746 19.4904C75.5555 18.8392 75.8981 17.844 75.8981 16.5048V15.8208C75.3675 16.3901 74.7159 16.8242 73.9514 17.1191C73.187 17.414 72.3473 17.5614 71.4325 17.5614C70.1667 17.5614 69.0263 17.2952 68.0029 16.7669C66.9794 16.2386 66.1732 15.4891 65.5842 14.5307C64.9952 13.5683 64.6986 12.4666 64.6986 11.2298C64.6986 9.99295 64.9952 8.89536 65.5842 7.94112C66.1732 6.98687 66.9836 6.24969 68.0029 5.72956C69.0263 5.20944 70.1667 4.94733 71.4325 4.94733C72.3974 4.94733 73.2747 5.10295 74.0642 5.41421C74.8537 5.72547 75.5137 6.19645 76.0484 6.83125V5.09476H79.0185L79.0143 5.08657ZM74.8078 13.9287C75.5639 13.2366 75.944 12.3356 75.944 11.2257C75.944 10.1158 75.5639 9.24348 74.8078 8.55954C74.0517 7.87559 73.0825 7.53157 71.9003 7.53157C70.7182 7.53157 69.724 7.87559 68.9679 8.55954C68.2118 9.24348 67.8316 10.1322 67.8316 11.2257C67.8316 12.3192 68.2118 13.2366 68.9679 13.9287C69.724 14.6208 70.7014 14.969 71.9003 14.969C73.0992 14.969 74.0517 14.6208 74.8078 13.9287Z" fill="white"/>
<path d="M84.4532 17.4631C83.3713 16.8938 82.5275 16.0993 81.9218 15.0795C81.3161 14.0598 81.0111 12.9089 81.0111 11.6189C81.0111 10.3288 81.3161 9.18206 81.9218 8.17047C82.5275 7.15889 83.3713 6.36846 84.4532 5.79919C85.5352 5.22992 86.7466 4.94324 88.0959 4.94324C89.4452 4.94324 90.6816 5.22992 91.7636 5.79919C92.8455 6.36846 93.6893 7.16299 94.295 8.17047C94.9008 9.18206 95.2057 10.3329 95.2057 11.6189C95.2057 12.9048 94.9008 14.0598 94.295 15.0795C93.6893 16.0993 92.8455 16.8938 91.7636 17.4631C90.6816 18.0324 89.4577 18.3191 88.0959 18.3191C86.7341 18.3191 85.5352 18.0324 84.4532 17.4631ZM90.9406 14.5758C91.6884 13.8263 92.0643 12.8393 92.0643 11.6148C92.0643 10.3902 91.6884 9.40321 90.9406 8.65374C90.1929 7.90427 89.2446 7.52748 88.0959 7.52748C86.9471 7.52748 86.003 7.90427 85.2636 8.65374C84.5243 9.40321 84.1525 10.3902 84.1525 11.6148C84.1525 12.8393 84.5243 13.8263 85.2636 14.5758C86.003 15.3253 86.9471 15.7021 88.0959 15.7021C89.2446 15.7021 90.1929 15.3253 90.9406 14.5758Z" fill="white"/>
<path d="M43.7325 61.7761C43.1895 61.4854 42.7634 61.084 42.4543 60.5721C42.1452 60.0601 41.9906 59.4827 41.9906 58.8397C41.9906 58.1967 42.1452 57.6192 42.4585 57.1073C42.7718 56.5954 43.1978 56.194 43.7451 55.9032C44.2923 55.6125 44.898 55.4691 45.5748 55.4691C46.122 55.4691 46.6233 55.5633 47.0744 55.7517C47.5256 55.9401 47.9099 56.2104 48.219 56.5667L47.417 57.308C46.9324 56.796 46.3392 56.538 45.6291 56.538C45.1696 56.538 44.7602 56.6363 44.3967 56.8329C44.0333 57.0295 43.7493 57.3039 43.5446 57.652C43.3399 58.0001 43.2396 58.3974 43.2396 58.8397C43.2396 59.282 43.3399 59.6793 43.5446 60.0274C43.7493 60.3755 44.0333 60.6499 44.3967 60.8465C44.7602 61.0431 45.1696 61.1413 45.6291 61.1413C46.335 61.1413 46.9324 60.8833 47.417 60.3632L48.219 61.1127C47.9057 61.469 47.5214 61.7393 47.0661 61.9277C46.6107 62.1161 46.1095 62.2103 45.5622 62.2103C44.8855 62.2103 44.2756 62.0669 43.7325 61.7761Z" fill="white"/>
<path d="M49.1631 56.0916C49.0169 55.9565 48.9417 55.7886 48.9417 55.592C48.9417 55.3954 49.0169 55.2234 49.1631 55.0923C49.3093 54.9572 49.4931 54.8917 49.7061 54.8917C49.9192 54.8917 50.103 54.9572 50.2492 55.0842C50.3954 55.2111 50.4706 55.3749 50.4706 55.5674C50.4706 55.7722 50.3996 55.9483 50.2576 56.0875C50.1155 56.2268 49.9317 56.2964 49.7103 56.2964C49.4889 56.2964 49.3135 56.2309 49.1673 56.0957L49.1631 56.0916ZM49.1046 57.1155H50.2993V62.1161H49.1046V57.1155Z" fill="white"/>
<path d="M54.627 57.0582V58.1721C54.5268 58.1517 54.4307 58.1435 54.3513 58.1435C53.8877 58.1435 53.5242 58.2745 53.2611 58.5407C52.9979 58.8069 52.8684 59.1878 52.8684 59.6875V62.112H51.6737V57.1114H52.8099V57.8404C53.1524 57.3162 53.7582 57.0541 54.627 57.0541V57.0582Z" fill="white"/>
<path d="M60.4335 57.1155V62.1161H59.2973V61.4772C59.1052 61.7024 58.867 61.8745 58.583 61.9973C58.2948 62.1202 57.9856 62.1816 57.6556 62.1816C56.9747 62.1816 56.4358 61.9973 56.0473 61.6246C55.6547 61.2519 55.4583 60.7032 55.4583 59.9701V57.1114H56.6531V59.8103C56.6531 60.2608 56.7575 60.5967 56.9622 60.8178C57.171 61.039 57.4635 61.1496 57.8478 61.1496C58.2739 61.1496 58.6122 61.0185 58.867 60.7605C59.1177 60.5025 59.243 60.1298 59.243 59.6424V57.1155H60.4377H60.4335Z" fill="white"/>
<path d="M60.137 63.7092L60.4795 62.8369C60.6591 62.9679 60.8889 63.0335 61.1771 63.0335C61.3985 63.0335 61.5698 62.9679 61.6867 62.8328C61.8037 62.6976 61.8622 62.5011 61.8622 62.2389V57.1155H63.0569V62.2103C63.0569 62.7673 62.9024 63.2014 62.5891 63.5208C62.2758 63.8403 61.8413 64 61.2815 64C60.7803 64 60.396 63.9017 60.137 63.7092ZM61.9123 56.0916C61.7661 55.9565 61.6909 55.7886 61.6909 55.592C61.6909 55.3954 61.7619 55.2234 61.9123 55.0923C62.0585 54.9572 62.2423 54.8917 62.4554 54.8917C62.6684 54.8917 62.8522 54.9572 62.9984 55.0842C63.1446 55.2111 63.2198 55.3749 63.2198 55.5674C63.2198 55.7722 63.1488 55.9483 63.0068 56.0875C62.8648 56.2268 62.681 56.2964 62.4554 56.2964C62.2298 56.2964 62.0585 56.2309 61.9123 56.0957V56.0916Z" fill="white"/>
<path d="M68.1115 57.5865C68.5083 57.9387 68.7088 58.4711 68.7088 59.1837V62.1161H67.581V61.5059C67.4348 61.7229 67.2259 61.8908 66.9544 62.0055C66.6828 62.1202 66.357 62.1775 65.9769 62.1775C65.5967 62.1775 65.2584 62.112 64.9743 61.985C64.6861 61.8581 64.4647 61.6779 64.3101 61.4526C64.1556 61.2233 64.0762 60.9653 64.0762 60.6786C64.0762 60.2281 64.2475 59.8677 64.5858 59.5974C64.9284 59.3271 65.4631 59.1919 66.1941 59.1919H67.5141V59.1182C67.5141 58.7701 67.4055 58.4998 67.1925 58.3114C66.9794 58.123 66.662 58.0288 66.24 58.0288C65.9518 58.0288 65.6719 58.0738 65.3962 58.1599C65.1205 58.2459 64.8866 58.3687 64.6944 58.5244L64.2266 57.6725C64.4939 57.4718 64.8156 57.3203 65.1915 57.2138C65.5675 57.1073 65.9643 57.0541 66.3863 57.0541C67.1382 57.0541 67.7105 57.2302 68.1115 57.5824V57.5865ZM67.0212 61.125C67.2551 60.9898 67.4181 60.7973 67.5141 60.5475V59.966H66.2818C65.5926 59.966 65.25 60.1871 65.25 60.6294C65.25 60.8424 65.3377 61.0103 65.509 61.1332C65.6803 61.2601 65.9184 61.3216 66.2275 61.3216C66.5366 61.3216 66.7915 61.256 67.0254 61.1209L67.0212 61.125Z" fill="white"/>
<path d="M74.4861 57.611C74.8746 57.9796 75.0709 58.5243 75.0709 59.2492V62.1161H73.8762V59.4008C73.8762 58.9626 73.7718 58.6349 73.5629 58.4138C73.3541 58.1926 73.0533 58.082 72.6648 58.082C72.2262 58.082 71.8795 58.2131 71.6246 58.4711C71.3698 58.7291 71.2445 59.1018 71.2445 59.5892V62.1161H70.0498V57.1155H71.186V57.7626C71.3824 57.5332 71.633 57.3571 71.9296 57.2384C72.2304 57.1196 72.5645 57.0623 72.9405 57.0623C73.5838 57.0623 74.0976 57.2465 74.4861 57.6151V57.611Z" fill="white"/>
<path d="M77.3434 61.854C76.9298 61.6369 76.6082 61.3297 76.3743 60.9407C76.1403 60.5516 76.0275 60.1093 76.0275 59.6137C76.0275 59.1182 76.1445 58.68 76.3743 58.295C76.604 57.91 76.9298 57.607 77.3434 57.3858C77.757 57.1687 78.2207 57.0582 78.7386 57.0582C79.2566 57.0582 79.7287 57.1687 80.1422 57.3858C80.5558 57.6029 80.8774 57.9059 81.1114 58.295C81.3453 58.6841 81.4581 59.1223 81.4581 59.6137C81.4581 60.1052 81.3411 60.5475 81.1114 60.9407C80.8774 61.3297 80.5558 61.6369 80.1422 61.854C79.7287 62.071 79.2608 62.1816 78.7386 62.1816C78.2165 62.1816 77.757 62.071 77.3434 61.854ZM79.8289 60.7482C80.1172 60.4615 80.2592 60.0847 80.2592 59.6137C80.2592 59.1428 80.1172 58.766 79.8289 58.4793C79.5407 58.1926 79.1773 58.0493 78.7386 58.0493C78.3 58.0493 77.9366 58.1926 77.6525 58.4793C77.3685 58.766 77.2264 59.1428 77.2264 59.6137C77.2264 60.0847 77.3685 60.4615 77.6525 60.7482C77.9366 61.0349 78.2958 61.1782 78.7386 61.1782C79.1814 61.1782 79.5407 61.0349 79.8289 60.7482Z" fill="white"/>
<path d="M86.2411 61.7761C85.6981 61.4854 85.272 61.084 84.9629 60.5721C84.6537 60.0601 84.4992 59.4827 84.4992 58.8397C84.4992 58.1967 84.6537 57.6192 84.967 57.1073C85.2803 56.5954 85.7064 56.194 86.2537 55.9032C86.8009 55.6125 87.4066 55.4691 88.0833 55.4691C88.6306 55.4691 89.1319 55.5633 89.583 55.7517C90.0342 55.9401 90.4185 56.2104 90.7276 56.5667L89.9256 57.308C89.441 56.796 88.8478 56.538 88.1377 56.538C87.6781 56.538 87.2688 56.6363 86.9053 56.8329C86.5419 57.0295 86.2578 57.3039 86.0532 57.652C85.8485 58.0001 85.7482 58.3974 85.7482 58.8397C85.7482 59.282 85.8485 59.6793 86.0532 60.0274C86.2578 60.3755 86.5419 60.6499 86.9053 60.8465C87.2688 61.0431 87.6781 61.1413 88.1377 61.1413C88.8436 61.1413 89.441 60.8833 89.9256 60.3632L90.7276 61.1127C90.4143 61.469 90.03 61.7393 89.5747 61.9277C89.1193 62.1161 88.618 62.2103 88.0708 62.2103C87.3941 62.2103 86.7842 62.0669 86.2411 61.7761Z" fill="white"/>
<path d="M95.2391 57.5865C95.636 57.9387 95.8365 58.4711 95.8365 59.1837V62.1161H94.7086V61.5059C94.5624 61.7229 94.3535 61.8908 94.082 62.0055C93.8105 62.1202 93.4846 62.1775 93.1045 62.1775C92.7244 62.1775 92.386 62.112 92.1019 61.985C91.8137 61.8581 91.5923 61.6779 91.4377 61.4526C91.2832 61.2233 91.2038 60.9653 91.2038 60.6786C91.2038 60.2281 91.3751 59.8677 91.7135 59.5974C92.056 59.3271 92.5907 59.1919 93.3217 59.1919H94.6418V59.1182C94.6418 58.7701 94.5332 58.4998 94.3201 58.3114C94.1071 58.123 93.7896 58.0288 93.3677 58.0288C93.0794 58.0288 92.7996 58.0738 92.5239 58.1599C92.2482 58.2459 92.0142 58.3687 91.8221 58.5244L91.3542 57.6725C91.6215 57.4718 91.9432 57.3203 92.3192 57.2138C92.6951 57.1073 93.092 57.0541 93.5139 57.0541C94.2658 57.0541 94.8381 57.2302 95.2391 57.5824V57.5865ZM94.1488 61.125C94.3828 60.9898 94.5457 60.7973 94.6418 60.5475V59.966H93.4094C92.7202 59.966 92.3776 60.1871 92.3776 60.6294C92.3776 60.8424 92.4654 61.0103 92.6366 61.1332C92.8079 61.2601 93.046 61.3216 93.3551 61.3216C93.6643 61.3216 93.9191 61.256 94.153 61.1209L94.1488 61.125Z" fill="white"/>
<path d="M100.127 57.0582V58.1721C100.026 58.1517 99.9345 58.1435 99.8509 58.1435C99.3872 58.1435 99.0238 58.2745 98.7606 58.5407C98.4975 58.8069 98.368 59.1878 98.368 59.6875V62.112H97.1732V57.1114H98.3095V57.8404C98.652 57.3162 99.2577 57.0541 100.122 57.0541L100.127 57.0582Z" fill="white"/>
<path d="M105.896 55.1661V62.1161H104.751V61.469C104.555 61.7065 104.308 61.8826 104.02 62.0014C103.732 62.1202 103.41 62.1775 103.059 62.1775C102.57 62.1775 102.128 62.071 101.735 61.8581C101.342 61.6451 101.037 61.3461 100.812 60.953C100.59 60.5639 100.478 60.1134 100.478 59.6097C100.478 59.1059 100.59 58.6595 100.812 58.2704C101.033 57.8814 101.342 57.5824 101.735 57.3694C102.128 57.1565 102.566 57.05 103.059 57.05C103.397 57.05 103.707 57.1073 103.986 57.2179C104.266 57.3285 104.504 57.5005 104.701 57.7216V55.1538H105.896V55.1661ZM103.974 60.9857C104.204 60.8588 104.383 60.6745 104.517 60.4369C104.651 60.1994 104.718 59.925 104.718 59.6138C104.718 59.3025 104.651 59.0281 104.517 58.7906C104.383 58.553 104.204 58.3687 103.974 58.2418C103.744 58.1148 103.485 58.0493 103.201 58.0493C102.917 58.0493 102.658 58.1148 102.428 58.2418C102.199 58.3687 102.019 58.553 101.885 58.7906C101.752 59.0281 101.685 59.3025 101.685 59.6138C101.685 59.925 101.752 60.1994 101.885 60.4369C102.019 60.6745 102.199 60.8588 102.428 60.9857C102.658 61.1127 102.917 61.1782 103.201 61.1782C103.485 61.1782 103.744 61.1127 103.974 60.9857Z" fill="white"/>
<path d="M108.36 55.1497H109.764L108.101 56.4316H107.069L108.36 55.1497ZM107.27 57.1155H108.465V62.1161H107.27V57.1155Z" fill="white"/>
<path d="M113.515 57.5865C113.912 57.9387 114.112 58.4711 114.112 59.1837V62.1161H112.984V61.5059C112.838 61.7229 112.629 61.8908 112.358 62.0055C112.086 62.1202 111.761 62.1775 111.38 62.1775C111 62.1775 110.662 62.112 110.378 61.985C110.09 61.8581 109.868 61.6779 109.714 61.4526C109.559 61.2233 109.48 60.9653 109.48 60.6786C109.48 60.2281 109.651 59.8677 109.989 59.5974C110.328 59.3271 110.867 59.1919 111.598 59.1919H112.918V59.1182C112.918 58.7701 112.809 58.4998 112.596 58.3114C112.383 58.123 112.065 58.0288 111.644 58.0288C111.355 58.0288 111.075 58.0738 110.8 58.1599C110.524 58.2459 110.29 58.3687 110.098 58.5244L109.63 57.6725C109.897 57.4718 110.219 57.3203 110.595 57.2138C110.971 57.1073 111.368 57.0541 111.79 57.0541C112.542 57.0541 113.114 57.2302 113.515 57.5824V57.5865ZM112.425 61.125C112.659 60.9898 112.822 60.7973 112.918 60.5475V59.966H111.685C110.996 59.966 110.654 60.1871 110.654 60.6294C110.654 60.8424 110.741 61.0103 110.913 61.1332C111.084 61.2601 111.322 61.3216 111.627 61.3216C111.932 61.3216 112.191 61.256 112.425 61.1209V61.125Z" fill="white"/>
<path d="M116.414 61.854C115.992 61.6369 115.666 61.3297 115.428 60.9407C115.194 60.5516 115.073 60.1093 115.073 59.6137C115.073 59.1182 115.19 58.68 115.428 58.295C115.662 57.9059 115.992 57.607 116.406 57.3858C116.823 57.1687 117.3 57.0582 117.834 57.0582C118.336 57.0582 118.778 57.1565 119.159 57.3571C119.539 57.5578 119.823 57.8445 120.015 58.2172L119.096 58.7414C118.95 58.5121 118.766 58.336 118.549 58.2213C118.327 58.1066 118.089 58.0493 117.826 58.0493C117.379 58.0493 117.011 58.1926 116.719 58.4752C116.427 58.7578 116.28 59.1387 116.28 59.6137C116.28 60.0888 116.427 60.4656 116.715 60.7523C117.003 61.0349 117.375 61.1782 117.826 61.1782C118.085 61.1782 118.327 61.1209 118.549 61.0062C118.77 60.8915 118.95 60.7154 119.096 60.4861L120.015 61.0103C119.819 61.383 119.53 61.6738 119.15 61.8785C118.77 62.0833 118.331 62.1816 117.839 62.1816C117.308 62.1816 116.836 62.071 116.414 61.854Z" fill="white"/>
<path d="M121.677 61.854C121.264 61.6369 120.938 61.3297 120.708 60.9407C120.474 60.5516 120.362 60.1093 120.362 59.6137C120.362 59.1182 120.479 58.68 120.708 58.295C120.942 57.9059 121.264 57.607 121.677 57.3858C122.091 57.1687 122.555 57.0582 123.073 57.0582C123.591 57.0582 124.063 57.1687 124.476 57.3858C124.89 57.6029 125.212 57.9059 125.445 58.295C125.679 58.6841 125.792 59.1223 125.792 59.6137C125.792 60.1052 125.675 60.5475 125.445 60.9407C125.212 61.3297 124.89 61.6369 124.476 61.854C124.063 62.071 123.595 62.1816 123.073 62.1816C122.551 62.1816 122.091 62.071 121.677 61.854ZM124.163 60.7482C124.451 60.4615 124.593 60.0847 124.593 59.6137C124.593 59.1428 124.451 58.766 124.163 58.4793C123.875 58.1926 123.516 58.0493 123.073 58.0493C122.63 58.0493 122.271 58.1926 121.987 58.4793C121.703 58.766 121.561 59.1428 121.561 59.6137C121.561 60.0847 121.703 60.4615 121.987 60.7482C122.271 61.0349 122.63 61.1782 123.073 61.1782C123.516 61.1782 123.875 61.0349 124.163 60.7482Z" fill="white"/>
<path d="M133.575 55.8418C134.005 56.0302 134.335 56.2964 134.565 56.6486C134.794 57.0008 134.907 57.4145 134.907 57.8937C134.907 58.3728 134.794 58.7824 134.565 59.1346C134.335 59.4868 134.005 59.7571 133.575 59.9455C133.144 60.1339 132.639 60.2281 132.062 60.2281H130.554V62.1202H129.314V55.5633H132.067C132.647 55.5633 133.153 55.6575 133.579 55.8459L133.575 55.8418ZM133.236 58.8561C133.516 58.6308 133.658 58.3114 133.658 57.8896C133.658 57.4677 133.52 57.1483 133.236 56.923C132.952 56.6978 132.547 56.5872 132.004 56.5872H130.55V59.1919H132.004C132.547 59.1919 132.956 59.0813 133.236 58.8561Z" fill="white"/>
<path d="M140.601 59.9905H136.599C136.67 60.3591 136.854 60.6499 137.146 60.867C137.443 61.084 137.81 61.1905 138.249 61.1905C138.809 61.1905 139.272 61.0103 139.636 60.6458L140.275 61.3666C140.045 61.6369 139.757 61.8376 139.406 61.9768C139.055 62.1161 138.663 62.1816 138.22 62.1816C137.66 62.1816 137.167 62.071 136.741 61.854C136.315 61.6369 135.985 61.3297 135.751 60.9407C135.517 60.5516 135.404 60.1093 135.404 59.6137C135.404 59.1182 135.517 58.6882 135.743 58.2991C135.968 57.91 136.281 57.6029 136.683 57.3858C137.084 57.1687 137.535 57.0582 138.04 57.0582C138.546 57.0582 138.98 57.1646 139.373 57.3817C139.765 57.5988 140.07 57.9018 140.292 58.2909C140.513 58.68 140.622 59.1305 140.622 59.6424C140.622 59.7243 140.613 59.839 140.601 59.9905ZM137.071 58.3278C136.808 58.5489 136.645 58.8438 136.591 59.2124H139.485C139.435 58.852 139.277 58.5571 139.018 58.3319C138.754 58.1066 138.433 57.996 138.044 57.996C137.656 57.996 137.338 58.1066 137.075 58.3278H137.071Z" fill="white"/>
<path d="M146.57 55.1661V62.1161H145.426V61.469C145.229 61.7065 144.983 61.8826 144.695 62.0014C144.406 62.1202 144.085 62.1775 143.734 62.1775C143.245 62.1775 142.802 62.071 142.41 61.8581C142.017 61.6451 141.712 61.3461 141.486 60.953C141.265 60.5639 141.152 60.1134 141.152 59.6097C141.152 59.1059 141.265 58.6595 141.486 58.2704C141.708 57.8814 142.017 57.5824 142.41 57.3694C142.802 57.1565 143.241 57.05 143.734 57.05C144.072 57.05 144.381 57.1073 144.661 57.2179C144.941 57.3285 145.179 57.5005 145.376 57.7216V55.1538H146.57V55.1661ZM144.649 60.9857C144.878 60.8588 145.058 60.6745 145.192 60.4369C145.325 60.1994 145.392 59.925 145.392 59.6138C145.392 59.3025 145.325 59.0281 145.192 58.7906C145.058 58.553 144.878 58.3687 144.649 58.2418C144.419 58.1148 144.16 58.0493 143.876 58.0493C143.592 58.0493 143.333 58.1148 143.103 58.2418C142.873 58.3687 142.694 58.553 142.56 58.7906C142.426 59.0281 142.36 59.3025 142.36 59.6138C142.36 59.925 142.426 60.1994 142.56 60.4369C142.694 60.6745 142.873 60.8588 143.103 60.9857C143.333 61.1127 143.592 61.1782 143.876 61.1782C144.16 61.1782 144.419 61.1127 144.649 60.9857Z" fill="white"/>
<path d="M148.003 56.0916C147.857 55.9565 147.782 55.7886 147.782 55.592C147.782 55.3954 147.857 55.2234 148.003 55.0923C148.149 54.9572 148.333 54.8917 148.546 54.8917C148.759 54.8917 148.943 54.9572 149.089 55.0842C149.235 55.2111 149.311 55.3749 149.311 55.5674C149.311 55.7722 149.24 55.9483 149.098 56.0875C148.956 56.2268 148.772 56.2964 148.55 56.2964C148.329 56.2964 148.153 56.2309 148.007 56.0957L148.003 56.0916ZM147.945 57.1155H149.139V62.1161H147.945V57.1155Z" fill="white"/>
<path d="M154.19 57.5865C154.587 57.9387 154.787 58.4711 154.787 59.1837V62.1161H153.659V61.5059C153.513 61.7229 153.304 61.8908 153.033 62.0055C152.761 62.1202 152.435 62.1775 152.055 62.1775C151.675 62.1775 151.337 62.112 151.053 61.985C150.764 61.8581 150.543 61.6779 150.388 61.4526C150.234 61.2233 150.154 60.9653 150.154 60.6786C150.154 60.2281 150.326 59.8677 150.664 59.5974C151.002 59.3271 151.541 59.1919 152.272 59.1919H153.592V59.1182C153.592 58.7701 153.484 58.4998 153.271 58.3114C153.058 58.123 152.74 58.0288 152.318 58.0288C152.03 58.0288 151.75 58.0738 151.474 58.1599C151.199 58.2459 150.965 58.3687 150.773 58.5244L150.305 57.6725C150.572 57.4718 150.894 57.3203 151.27 57.2138C151.646 57.1073 152.043 57.0541 152.464 57.0541C153.216 57.0541 153.789 57.2302 154.19 57.5824V57.5865ZM153.099 61.125C153.333 60.9898 153.496 60.7973 153.592 60.5475V59.966H152.36C151.671 59.966 151.328 60.1871 151.328 60.6294C151.328 60.8424 151.416 61.0103 151.587 61.1332C151.759 61.2601 151.997 61.3216 152.302 61.3216C152.607 61.3216 152.866 61.256 153.099 61.1209V61.125Z" fill="white"/>
<path d="M159.19 61.8458C159.048 61.9564 158.881 62.0424 158.68 62.0997C158.48 62.157 158.267 62.1857 158.045 62.1857C157.486 62.1857 157.051 62.0424 156.746 61.7557C156.441 61.469 156.287 61.0513 156.287 60.5025V58.0943H155.447V57.1565H156.287V56.0138H157.481V57.1565H158.847V58.0943H157.481V60.4738C157.481 60.7154 157.544 60.9038 157.661 61.0308C157.778 61.1577 157.958 61.2233 158.187 61.2233C158.455 61.2233 158.676 61.1536 158.856 61.0185L159.19 61.854V61.8458Z" fill="white"/>
<path d="M162.937 57.0582V58.1721C162.837 58.1517 162.741 58.1435 162.661 58.1435C162.198 58.1435 161.834 58.2745 161.571 58.5407C161.308 58.8069 161.178 59.1878 161.178 59.6875V62.112H159.984V57.1114H161.12V57.8404C161.462 57.3162 162.068 57.0541 162.937 57.0541V57.0582Z" fill="white"/>
<path d="M167.403 57.5865C167.799 57.9387 168 58.4711 168 59.1837V62.1161H166.872V61.5059C166.726 61.7229 166.517 61.8908 166.246 62.0055C165.974 62.1202 165.648 62.1775 165.268 62.1775C164.888 62.1775 164.55 62.112 164.265 61.985C163.977 61.8581 163.756 61.6779 163.601 61.4526C163.447 61.2233 163.367 60.9653 163.367 60.6786C163.367 60.2281 163.539 59.8677 163.877 59.5974C164.215 59.3271 164.754 59.1919 165.485 59.1919H166.805V59.1182C166.805 58.7701 166.697 58.4998 166.484 58.3114C166.271 58.123 165.953 58.0288 165.531 58.0288C165.243 58.0288 164.963 58.0738 164.687 58.1599C164.412 58.2459 164.178 58.3687 163.986 58.5244L163.518 57.6725C163.785 57.4718 164.107 57.3203 164.483 57.2138C164.859 57.1073 165.255 57.0541 165.677 57.0541C166.429 57.0541 167.002 57.2302 167.403 57.5824V57.5865ZM166.312 61.125C166.546 60.9898 166.709 60.7973 166.805 60.5475V59.966H165.573C164.884 59.966 164.541 60.1871 164.541 60.6294C164.541 60.8424 164.629 61.0103 164.8 61.1332C164.971 61.2601 165.21 61.3216 165.514 61.3216C165.819 61.3216 166.078 61.256 166.312 61.1209V61.125Z" fill="white"/>
</g>
<defs>
<clipPath id="clip0_4_39">
<rect width="168" height="64" fill="white"/>
</clipPath>
</defs>
</svg>
