<svg width="122" height="94" viewBox="0 0 122 94" fill="none" xmlns="http://www.w3.org/2000/svg">
<g clip-path="url(#clip0_222_2020)">
<path d="M27.0438 68.2658C30.4391 74.8919 30.5454 76.9578 29.8564 77.4937C28.9266 78.2181 27.2351 75.6252 22.6674 74.4459C17.834 73.1961 14.5503 74.7614 11.6049 72.105C11.0859 71.6361 10.6981 71.2871 10.4784 70.7142C8.78523 66.3021 20.7368 58.5426 21.417 58.1054C22.7506 57.6083 24.0843 57.1095 25.418 56.6124C26.7233 58.5073 28.0304 60.4005 29.3357 62.2954L30.1274 64.6592L35.8783 63.9118C37.7681 62.6391 39.6561 61.3682 41.5459 60.0955C44.4913 60.8694 47.4349 61.6432 50.3803 62.4188C54.2697 61.4088 58.1591 60.4005 62.0485 59.3904C63.7577 60.2612 65.4651 61.132 67.1742 62.0028C69.8628 61.7119 72.5496 61.4229 75.2382 61.132C78.5041 61.5639 81.9525 62.1509 85.5533 62.937C93.9183 64.7615 101.238 67.2522 107.432 69.8434C107.181 70.1695 101.113 77.7422 91.6796 76.4995C84.0195 75.4912 80.0875 69.4521 79.5527 68.5989C79.0497 69.3692 76.2601 73.8148 77.677 79.3622C78.6476 83.1626 81.0705 85.4383 82.0535 86.2685C80.3939 86.0729 77.8772 85.8226 74.8025 85.708C67.2096 85.4259 66.8643 86.3672 61.6748 86.1434C52.7005 85.7556 49.059 82.7343 42.2349 85.0857C41.6167 85.299 41.1191 85.5053 40.7967 85.6463C36.213 79.854 31.6293 74.0599 27.0438 68.2675V68.2658Z" fill="#F35919"/>
<path d="M33.3349 41.7261C42.3439 41.7261 49.647 34.4576 49.647 25.4914C49.647 16.5252 42.3439 9.25662 33.3349 9.25662C24.326 9.25662 17.0228 16.5252 17.0228 25.4914C17.0228 34.4576 24.326 41.7261 33.3349 41.7261Z" fill="#F35919"/>
<path d="M33.3349 39.4257C41.0674 39.4257 47.3357 33.1871 47.3357 25.4914C47.3357 17.7956 41.0674 11.557 33.3349 11.557C25.6025 11.557 19.3341 17.7956 19.3341 25.4914C19.3341 33.1871 25.6025 39.4257 33.3349 39.4257Z" fill="#F5C912"/>
<path d="M37.7291 92.9158C37.1854 92.9158 36.5885 92.8788 35.9314 92.8065H35.9013C34.6827 92.8065 33.6449 92.7183 32.7309 92.5368L32.6158 92.5139L32.5042 92.4821C31.9534 92.3217 30.1522 91.599 30.03 89.029C30.0123 88.7117 29.9875 88.0542 29.9875 86.1064V85.9953C29.9999 85.745 29.9839 84.4124 29.6421 77.4549L29.6368 77.3438V77.2716C29.5588 77.2751 29.4791 77.2786 29.3977 77.2821L29.2985 77.2874L29.1993 77.2839C28.2323 77.2557 26.5284 76.7692 25.9918 73.8307L25.9493 73.5963V73.3583C25.9493 72.9617 25.9528 72.1931 25.9617 71.0526V71.0332C25.9794 69.824 26.0024 68.9938 26.0308 68.4967L26.0662 67.8709L26.3797 67.328C27.2581 65.8068 28.4041 65.4877 29.2117 65.4877H29.2932C29.4331 65.493 29.697 65.493 30.1557 65.4666L30.5525 65.4436L30.9386 65.5371C31.1511 65.5882 31.3034 65.6111 31.4044 65.6217C32.0012 65.5776 33.1826 65.5388 36.089 65.5882C37.3288 65.5476 39.4081 65.6023 42.4421 65.7574C43.2107 65.7821 43.9227 66.0906 44.4576 66.6335C45.0704 67.254 45.3733 68.0807 45.3609 69.0872V69.1189C45.3609 69.3534 45.3503 69.609 45.3255 69.8945C45.3591 71.0227 45.2723 72.2918 45.0634 73.7637L45.0545 74.0176C44.9234 75.6234 43.9157 77.2451 41.955 77.2451H41.7797L41.6327 77.2257L41.6256 78.0806C41.5034 79.7341 41.4502 81.6202 41.4644 83.6844C41.6114 85.6551 41.6663 87.654 41.6327 89.6248C41.622 91.0631 40.7931 92.2459 39.4648 92.7148L39.185 92.8135L38.8892 92.8488C38.5296 92.8911 38.1418 92.9123 37.7255 92.9123L37.7291 92.9158ZM36.2236 87.5165L36.3246 87.5289C36.3051 86.3478 36.2502 85.1651 36.1616 83.9928L36.1546 83.8148C36.1368 81.6132 36.1935 79.5878 36.3228 77.7933V77.1975C35.9562 77.1817 35.5541 77.1623 35.1184 77.1429C35.0671 77.1429 35.0157 77.1429 34.9626 77.1429C34.9626 77.1958 34.959 77.2504 34.9573 77.305C35.3221 84.7314 35.3168 85.8014 35.3026 86.1575C35.3026 86.7163 35.3044 87.1587 35.3079 87.5095C35.5453 87.5183 35.7932 87.5201 36.0571 87.5183H36.2236V87.5165ZM35.0317 71.8547C35.0883 71.8547 35.1432 71.8547 35.1999 71.8547L35.3115 71.8582C35.6445 71.8741 35.9597 71.8882 36.2537 71.9023C36.236 71.6943 36.2183 71.5198 36.2006 71.3717C35.8765 71.3928 35.4939 71.4175 35.0423 71.4475C35.0387 71.6026 35.0352 71.7366 35.0317 71.8547Z" fill="#F35919"/>
<path d="M51.8273 92.5703C49.0413 92.5703 46.7406 91.7013 44.9784 89.9844C43.9493 89.103 43.1807 87.8462 42.6316 86.1469L42.5909 86.0076C42.0436 83.9311 41.7336 82.3958 41.6415 81.3241C41.5725 80.8164 41.53 80.2188 41.5122 79.5014C41.406 76.0288 41.7815 73.1944 42.6582 70.8464L42.7184 70.686L42.7981 70.5344C43.1328 69.9016 43.6624 69.1418 44.4647 68.1406L44.5993 67.9732L44.7587 67.8286C46.397 66.355 48.3099 65.5635 50.4458 65.4789H50.5521C51.7016 65.4771 52.929 65.6763 54.2042 66.0712L54.3246 66.1082L54.4415 66.1558C56.2622 66.9138 57.4524 67.64 58.1892 68.442L58.2034 68.4561C59.785 70.2048 60.7432 71.8318 61.1258 73.4235C61.9104 75.4718 62.2859 77.4725 62.2434 79.3763C62.3709 80.938 62.1601 82.8259 61.5987 85.1369L61.5526 85.3272L61.4782 85.5088C60.6192 87.6153 59.7709 89.0307 58.8091 89.9632C58.1627 90.6119 57.3249 91.3364 56.2924 91.6325C55.3253 92.1084 54.0731 92.4099 52.4844 92.5527L52.3445 92.5615C52.1709 92.5685 51.9991 92.5703 51.8309 92.5703H51.8273ZM47.7094 84.5904C48.0424 85.5916 48.3648 85.9125 48.4569 85.9865L48.5614 86.0711L48.657 86.1663C49.1635 86.6722 50.0668 87.3332 52.0735 87.2768C52.6704 87.2204 53.0937 87.1428 53.3859 87.0706C51.8999 87.3297 48.7845 87.2222 47.1887 82.424C47.3056 82.9828 47.4739 83.6897 47.7077 84.5886L47.7094 84.5904ZM54.7656 86.4906C54.7656 86.4906 54.7532 86.4994 54.7479 86.503H54.7515C54.7515 86.503 54.7603 86.4959 54.7656 86.4906ZM47.5713 72.8665C47.1321 74.1198 46.8823 75.6763 46.8221 77.5113C46.9904 76.1452 47.403 74.9377 48.0584 73.8995L48.0867 73.8554C49.2291 72.1244 50.584 71.652 51.5191 71.5621C52.3516 71.481 53.5701 71.6343 54.8666 72.7131C54.6966 72.4963 54.5 72.2636 54.275 72.0133C54.2254 71.9693 53.8376 71.6414 52.511 71.0808C51.8149 70.8746 51.1756 70.7671 50.607 70.76C49.8065 70.8023 49.1228 71.0756 48.4728 71.6167C47.9539 72.276 47.6953 72.662 47.5731 72.8647L47.5713 72.8665Z" fill="#F35919"/>
<path d="M66.1983 92.6655H65.9397L65.6865 92.6161C62.6188 92.0168 62.1601 90.2505 62.1601 89.2511V89.1365C62.2717 86.6528 62.3231 84.4512 62.316 82.5932C62.3 82.1808 62.2841 81.7965 62.2682 81.4387C61.3118 79.5102 60.5413 78.0207 59.9728 77.0054C58.7206 75.0681 57.8899 73.5311 57.4365 72.3095L57.3391 72.0451L57.2984 71.7666C57.1354 70.6296 57.6119 69.5367 58.6072 68.7664C58.8959 68.5408 59.4591 68.1353 61.1647 67.0759C62.1088 66.392 63.2334 66.0042 64.5104 65.9178C65.6776 65.8314 66.7438 66.3479 67.369 67.3086L67.4275 67.402L68.4193 69.0731C68.6779 68.6747 68.9896 68.1988 69.3545 67.6435L69.6485 67.1976L70.0913 66.8997C71.6534 65.8508 73.5202 66.4555 76.8623 68.1124L77.0111 68.1865L77.4078 68.4561C79.1506 69.7835 79.5527 71.9164 78.4298 73.7955C76.8588 76.7903 75.4436 79.6037 74.2162 82.1702C74.2162 83.0057 74.2375 83.7249 74.2765 84.3137L74.2818 84.4212C74.3402 86.8132 74.388 88.4261 74.4217 89.2141C74.4624 90.0196 74.1861 91.2024 72.6382 92.1702L72.0767 92.5209L71.4143 92.5685C70.8759 92.6073 69.9779 92.6338 68.669 92.6514C67.4381 92.6602 66.6198 92.6637 66.1948 92.6637L66.1983 92.6655ZM63.1821 72.0609C63.4956 72.6285 63.9171 73.3336 64.4821 74.2062L64.5689 74.349C65.2437 75.5476 66.1292 77.2645 67.2805 79.5984L67.5213 80.0884L67.5479 80.6331C67.5745 81.1637 67.6011 81.763 67.6258 82.4311V82.5227C67.6347 83.9576 67.6081 85.5811 67.5479 87.3702C67.8596 87.3685 68.2156 87.3667 68.6159 87.3632C68.7682 87.3614 68.9117 87.3597 69.0463 87.3561C69.025 86.5946 69.0002 85.6763 68.9737 84.6028C68.9205 83.7637 68.8975 82.7378 68.9064 81.5515L68.9117 80.9698L69.1614 80.4427C70.3534 77.9291 71.726 75.1792 73.2492 72.2548C73.0863 72.1808 72.9392 72.1173 72.8064 72.0609C72.5549 72.4505 72.3619 72.7519 72.2308 72.9635C71.742 73.9523 71.2921 74.8549 70.8847 75.6675L68.6885 80.0408L66.2143 75.8173C65.8512 75.1986 65.5341 74.6416 65.2702 74.1603L63.7949 71.6749C63.5664 71.8177 63.3627 71.9464 63.1838 72.0592L63.1821 72.0609ZM61.8856 72.9264C61.8856 72.9264 61.8821 72.93 61.8803 72.9317C61.8821 72.9317 61.8838 72.9282 61.8856 72.9264Z" fill="#F35919"/>
<path d="M83.8441 92.8294C81.214 92.8294 78.6582 92.4152 77.406 90.559C76.7011 89.7147 76.2176 88.6042 75.9679 87.2521L75.9625 87.2239C75.7093 85.7732 75.6437 85.1721 75.6225 84.8337C75.502 83.6015 75.9253 82.2319 77.0961 81.488C77.0642 81.4528 77.0305 81.4175 77.0004 81.3822L76.8676 81.2324L76.7578 81.065C75.7199 79.4838 75.1407 77.8233 75.0345 76.1276C74.9565 75.5741 74.9282 74.9589 74.9459 74.2538C75.0026 69.8558 77.7053 66.7992 82.5582 65.6481L82.6007 65.6375C85.0945 65.0893 87.5192 65.4824 89.8093 66.8062L89.8801 66.8485C91.4653 67.8321 92.6962 69.3322 93.5393 71.3082L93.75 71.8036V72.3412C93.75 73.6192 93.1195 74.7579 92.0462 75.4454C91.7628 75.6745 91.4883 75.8843 91.2244 76.0747C91.7912 76.4202 92.2339 76.808 92.5722 77.2539C93.5906 78.3327 94.1698 79.7235 94.2495 81.2959L94.2761 81.8652C94.4071 84.2837 94.1131 86.4025 93.4047 88.1652C91.9612 91.7418 88.2418 92.6531 85.3761 92.7906C84.8678 92.8153 84.3542 92.8294 83.8423 92.8294H83.8441ZM81.6213 87.3156C81.8799 87.3949 82.5228 87.5324 83.8618 87.5377C83.0949 87.4231 82.018 87.0406 81.2069 85.879L81.1254 85.8931C81.1467 86.02 81.1697 86.1575 81.1962 86.3056C81.322 86.9807 81.492 87.1763 81.4938 87.1781L81.6213 87.3138V87.3156ZM88.6917 83.4887L88.7289 84.1638L88.6014 84.5975C88.0612 86.4466 87.0304 87.1517 86.1802 87.4073C87.2022 87.2539 88.1834 86.9155 88.4738 86.1963C88.8918 85.1545 89.0601 83.7884 88.9697 82.1385L88.9432 81.5497C88.9219 81.1425 88.8015 80.9698 88.6722 80.8464L88.4473 80.6278L88.4048 80.5608C88.2028 80.4462 87.6007 80.1624 86.1643 79.8346L86.0598 79.8081C85.8632 79.7552 85.6506 79.6971 85.431 79.6354C88.0966 80.5767 88.6332 82.3747 88.6899 83.4869L88.6917 83.4887ZM83.729 79.2123C84.0743 79.2687 84.3949 79.3357 84.6942 79.4133C82.9603 78.8492 81.0191 77.9009 80.819 75.916L80.7977 75.768L80.7924 75.6322C80.7765 75.2479 80.8031 74.8654 80.8721 74.4917C81.1413 72.4205 82.6751 71.0262 84.8129 70.9204L85.0857 70.9063L85.3566 70.9487C86.166 71.0756 86.9436 71.4404 87.7176 72.0574C87.7512 72.0363 87.7866 72.0133 87.8238 71.9887C87.6042 71.7331 87.3651 71.5233 87.1047 71.3576C85.9942 70.7248 84.9316 70.5467 83.7697 70.7971C80.711 71.5286 80.2753 72.9282 80.2611 74.3331V74.3789C80.2451 74.9271 80.2753 75.2585 80.3054 75.4401L80.3284 75.5864L80.3355 75.7345C80.3709 76.4766 80.6171 77.2134 81.0882 77.9837C81.4761 78.3504 82.2377 78.821 83.7307 79.2106L83.729 79.2123Z" fill="#F35919"/>
<path d="M42.412 73.5751V73.806C42.3695 74.3366 42.2189 74.6028 41.9604 74.6028C41.7018 74.5693 41.5512 74.5464 41.5087 74.5393C40.168 74.6081 39.2204 74.6416 38.6714 74.6416C37.9842 74.6239 36.8223 74.5781 35.1876 74.5005C33.5103 74.4917 31.5408 74.5393 29.279 74.6416C28.9868 74.6327 28.7636 74.2044 28.6078 73.3583C28.6078 72.9652 28.6113 72.2037 28.6202 71.0738C28.6379 69.9104 28.6592 69.1013 28.6839 68.6465C28.8823 68.3045 29.0577 68.1336 29.2135 68.1336C29.4969 68.1424 29.8635 68.1336 30.3098 68.1071C30.7314 68.2094 31.1104 68.2658 31.4451 68.2746C32.1589 68.2058 33.7157 68.1935 36.1156 68.2358C37.2598 68.1935 39.3355 68.2481 42.3465 68.4033C42.5962 68.4033 42.7166 68.6254 42.7078 69.0713V69.1224C42.7078 69.3199 42.6954 69.5543 42.6688 69.8293C42.7113 70.8728 42.6263 72.1226 42.4102 73.5786L42.412 73.5751ZM37.8708 68.6447C38.3101 68.6712 38.558 69.0907 38.6182 69.9033C38.8839 70.7671 39.0185 72.5404 39.0185 75.218C38.9919 75.6022 38.9795 75.9759 38.9795 76.3355V77.8885C38.8503 79.6424 38.7953 81.6114 38.8113 83.7936C38.9583 85.7274 39.0132 87.6628 38.9795 89.5966C38.9795 89.9227 38.8467 90.1307 38.5793 90.2258C37.9257 90.3034 37.0915 90.2823 36.0767 90.1624C34.9679 90.1712 34.0257 90.0989 33.2517 89.9438C32.8992 89.8416 32.7097 89.4908 32.6849 88.8915C32.6584 88.4631 32.646 87.5342 32.646 86.1063C32.6725 85.4982 32.5556 82.5721 32.2971 77.3244C32.3661 75.3466 32.3998 74.111 32.3998 73.6139C32.3661 72.9634 32.3484 72.5228 32.3484 72.2918C32.3821 71.9146 32.3998 71.0209 32.3998 69.609C32.4866 69.0872 32.7133 68.8263 33.0834 68.8263C33.4625 68.8598 33.737 68.8774 33.9088 68.8774C36.0589 68.7241 37.3784 68.6465 37.869 68.6465L37.8708 68.6447Z" fill="white"/>
<path d="M50.5521 68.1177C51.4377 68.1177 52.3923 68.2763 53.416 68.5936C54.8347 69.1842 55.7716 69.7271 56.2286 70.2242C57.5534 71.6872 58.3362 73.0093 58.5753 74.1903C59.3068 76.0394 59.6415 77.7933 59.5813 79.4538C59.7106 80.7371 59.5211 82.424 59.0146 84.5129C58.3097 86.2421 57.6171 87.4319 56.937 88.0824C56.2658 88.7593 55.7415 89.1048 55.3625 89.1224C54.7089 89.5243 53.6675 89.7905 52.2417 89.9191C49.9375 90.0055 48.1132 89.3762 46.7725 88.0313C46.1012 87.4831 45.5646 86.5841 45.1608 85.3361C44.6454 83.3759 44.3531 81.9428 44.284 81.035C44.2238 80.6155 44.1849 80.0814 44.1671 79.4309C44.0715 76.325 44.3992 73.769 45.1484 71.7666C45.3981 71.2959 45.8621 70.6366 46.5422 69.7888C47.7112 68.7364 49.0484 68.1794 50.5539 68.1195L50.5521 68.1177ZM53.4798 75.0382C52.2843 73.8237 51.2269 73.9136 50.3059 75.3079C49.4026 76.7375 49.1671 78.7099 49.5957 81.2271C50.3272 83.7091 51.4695 84.7826 53.0264 84.4494C54.213 83.8589 54.7284 81.8688 54.5743 78.479C54.2821 76.6652 53.9172 75.5176 53.478 75.0382H53.4798Z" fill="white"/>
<path d="M64.8965 80.7635C63.7789 78.4949 62.8969 76.7886 62.2522 75.641C61.0921 73.8519 60.3181 72.4364 59.9303 71.3911C59.9037 71.2113 60.0082 71.0315 60.2402 70.8517C60.6015 70.5697 61.4091 70.0391 62.6649 69.2599C63.2157 68.8404 63.8941 68.606 64.7035 68.5531C64.9018 68.5355 65.0471 68.6007 65.1427 68.7452L67.5798 72.8542C67.8384 73.3248 68.1483 73.8677 68.5079 74.4847C68.9294 73.6456 69.3934 72.7131 69.9017 71.6855C70.1674 71.2483 70.7271 70.3846 71.579 69.0925C71.9492 68.8439 73.3165 69.3058 75.6809 70.4798L75.7978 70.5573C76.4939 71.0879 76.6019 71.7348 76.1202 72.4963C74.4004 75.775 72.8826 78.7998 71.5666 81.5726C71.5577 82.7272 71.579 83.7002 71.6304 84.4864C71.6906 86.9084 71.7384 88.5213 71.7721 89.3269C71.7809 89.4978 71.6003 89.6988 71.2301 89.9297C70.7483 89.9632 69.884 89.9897 68.6371 90.0073C67.4328 90.0161 66.6198 90.0196 66.1983 90.0196C65.2773 89.8398 64.8186 89.5825 64.8186 89.2493C64.9302 86.6898 64.9815 84.4529 64.9727 82.5351C64.9461 81.8758 64.9213 81.2853 64.8947 80.7635H64.8965Z" fill="white"/>
<path d="M83.1746 68.2217C85.006 67.8198 86.7735 68.1106 88.4756 69.0942C89.5932 69.787 90.4664 70.8711 91.0951 72.343C91.0951 72.7625 90.9021 73.0745 90.5142 73.2807C89.0441 74.4882 87.9815 75.0311 87.3279 74.9112C86.8462 74.8936 86.5415 74.735 86.4122 74.4353C85.8703 73.9224 85.3797 73.6315 84.9422 73.5628C84.0655 73.6051 83.5837 74.051 83.497 74.8971C83.4544 75.1034 83.4367 75.3132 83.4456 75.5264L83.458 75.6163C83.4846 76.1222 84.5844 76.6687 86.7594 77.2592C88.8582 77.7387 90.1139 78.3027 90.5266 78.9532C91.189 79.5948 91.545 80.4215 91.5981 81.4316L91.6247 81.9974C91.7363 84.0439 91.5078 85.7714 90.941 87.1834C90.2007 89.0148 88.3056 90.0037 85.2521 90.1483C81.9667 90.3016 80.0663 89.9138 79.5509 88.9796C79.0868 88.4825 78.7645 87.7474 78.5838 86.7709C78.3943 85.6833 78.2916 84.9659 78.2739 84.6133C78.2048 84.0651 78.3518 83.7408 78.7131 83.6368L82.1438 83.0198C82.6078 82.9264 82.9125 83.1485 83.0595 83.6879C83.3606 84.5534 83.8423 84.9676 84.5047 84.9324L85.2911 84.8936C85.6011 84.876 85.8543 84.5305 86.0527 83.8536L86.0403 83.6227C85.9978 82.6902 85.0467 82.082 83.1888 81.8C81.2547 81.3117 79.852 80.5855 78.9841 79.6177C78.1765 78.3856 77.7408 77.1323 77.6805 75.8561C77.6115 75.4277 77.5867 74.9095 77.6026 74.3031C77.6363 71.1196 79.4942 69.0907 83.1746 68.2182V68.2217Z" fill="white"/>
<path d="M12.9917 72.4558L12.3948 72.2848C10.381 71.7101 9.71862 69.4944 9.43524 68.5478C8.83483 66.5401 8.11575 64.4618 7.42146 62.4523L7.40552 62.4047C7.0513 61.3805 6.68467 60.3211 6.33576 59.2741L6.29857 59.1613L6.27023 59.0449C5.79911 57.0478 5.10305 55.0048 4.43002 53.0305L4.41939 53.0005C4.24759 52.4999 4.07756 51.9993 3.91108 51.4987L3.8668 51.3682L3.83669 51.2343C3.52143 49.8188 3.04145 48.2905 2.44635 46.8169C1.41378 44.2556 2.40207 42.5211 3.08573 41.7155L3.22211 41.5534L3.38328 41.4159C5.34747 39.7307 9.16249 36.8169 12.6357 36.2387C14.189 35.9796 15.6254 36.5419 16.8988 37.418C16.9502 37.24 16.9998 37.0654 17.0458 36.898L17.2247 36.2793L17.6515 35.8086C19.4634 33.8097 22.3875 32.9601 24.7361 32.2779C25.2426 32.1298 25.7208 31.9923 26.1175 31.8601L26.261 31.816C28.335 31.2502 30.2655 31.8002 31.5567 33.3249C32.9364 34.9378 33.9265 37.2505 34.3551 38.7418C34.9555 40.8289 36.0129 43.2315 37.0348 45.5548C37.1677 45.8544 37.2969 46.1506 37.4262 46.4449L37.4528 46.5084C38.6182 49.3781 39.6561 52.0205 40.6214 54.5835C41.2767 56.1029 42.5696 59.1771 40.9278 61.8864L40.462 62.6585L39.6189 63.0023C37.4989 63.8713 35.2336 64.7756 32.9346 65.4383C31.1724 65.9443 29.4367 65.4154 28.4041 64.0564L28.3031 63.9242L28.2199 63.7796C27.1112 61.8582 26.0697 59.7923 24.9008 57.187C24.35 57.8621 23.7053 58.4227 22.8941 58.6906L22.2193 58.9057L21.9448 58.9145C22.0563 59.2582 22.1697 59.602 22.2848 59.9422C22.5912 60.8623 22.8746 61.7155 23.1155 62.5898C23.9337 65.567 23.6628 67.6664 22.3096 68.8298C21.1566 69.8223 19.6015 70.4762 18.2289 71.0526L17.9739 71.1602C16.7447 71.6784 15.3172 72.0697 13.608 72.3553L12.9899 72.4575L12.9917 72.4558ZM11.5854 57.6682C11.9166 58.6554 12.2673 59.6707 12.6073 60.6525L12.6144 60.6719C13.2821 62.6004 13.9693 64.5869 14.5698 66.5612C15.0356 66.4308 15.4553 66.288 15.8326 66.1276L16.0912 66.0183C16.7022 65.7609 17.4638 65.4419 18.0465 65.1281C18.0111 64.8514 17.9438 64.4847 17.8198 64.0299C17.6161 63.2913 17.3522 62.4999 17.0741 61.6608C16.4153 59.6848 15.7352 57.64 15.5386 55.4789L15.3508 53.3795L18.5867 52.2179L19.6334 52.7308C20.2126 53.0146 20.6447 53.1874 20.9582 53.2931C20.9883 53.2473 21.0202 53.1962 21.0557 53.1433C22.1343 50.8394 22.6585 49.743 23.4945 49.1966L24.0683 48.4245L24.9876 48.7559C25.7456 48.7418 26.78 49.0203 27.6549 50.3247C27.9365 50.746 28.4324 51.578 29.465 53.9401C30.5064 56.318 31.4168 58.2129 32.3378 59.9069C33.6236 59.4944 34.9254 58.9991 36.1935 58.4914C36.1138 58.1318 35.9332 57.566 35.5506 56.6793L35.5028 56.563C34.5499 54.0335 33.528 51.4246 32.3767 48.5919C32.2545 48.3134 32.1305 48.0332 32.0066 47.7494C30.9102 45.2586 29.7785 42.685 29.0771 40.2472C28.8061 39.3076 28.2252 37.9979 27.584 37.1307C27.1678 37.2629 26.7321 37.3898 26.2752 37.522C24.9752 37.901 23.0978 38.4457 22.1148 39.1367C21.2416 42.1932 21.0185 42.8454 20.5969 43.4324L20.0638 44.1675L19.0454 44.4954C17.6887 44.9378 16.5605 44.2327 16.0203 43.8943L15.8751 43.8044L15.597 43.5752L15.4819 43.4536C14.235 42.1351 13.5921 41.7649 13.3494 41.6626C11.9485 41.9729 9.82666 43.2139 7.63223 44.9977C8.27869 46.63 8.80649 48.3187 9.16603 49.9034C9.31304 50.3423 9.46535 50.7901 9.61767 51.236L9.6283 51.2695C10.3314 53.3302 11.0576 55.4595 11.5854 57.6665V57.6682Z" fill="#F35919"/>
<path d="M48.641 63.1785C47.6156 63.1785 46.0074 62.9899 44.1601 62.0927C42.3305 61.2025 40.8303 59.9598 39.7057 58.398C39.038 57.4814 38.2463 56.0007 37.5431 54.349C36.9622 52.9847 36.4769 51.2766 36.0554 49.1278L35.8641 48.153C35.4071 45.835 34.9342 43.4377 34.6491 41.051C34.5676 40.3723 34.4826 39.7254 34.4047 39.1296V39.112C34.2417 37.8816 34.1018 36.8169 34.0646 36.0184C33.9442 33.4977 35.4461 31.3771 37.7185 30.8624L37.7911 30.8465C39.9377 30.4235 42.1233 30.0445 44.2876 29.7219L44.4187 29.706C45.7098 29.5756 46.6928 29.6073 47.5111 29.803C47.9326 29.9035 48.3169 30.0551 48.6588 30.249C49.2503 29.6179 50.0845 29.1702 51.0834 29.0027C53.1503 28.659 55.2899 28.6273 57.3586 28.5955C58.1201 28.585 58.8375 28.5726 59.5441 28.5479C60.6706 28.5039 63.3733 28.867 64.0074 33.2051C64.6609 37.6806 65.3694 44.8532 65.2153 50.337C65.1409 52.9988 64.7778 56.8468 62.509 59.5032C60.4864 61.8706 57.1283 62.3395 54.6771 62.6814L54.6275 62.6885C54.3317 62.729 54.0448 62.7696 53.7702 62.8119C52.89 62.9476 51.9743 62.9917 51.087 63.034C50.5238 63.0604 49.9464 63.0886 49.4416 63.1397C49.1812 63.1662 48.9138 63.1785 48.6428 63.1785H48.641ZM39.8491 38.421C39.9288 39.0362 40.0156 39.7007 40.1006 40.4023C40.3628 42.5863 40.8144 44.8814 41.2519 47.1007L41.4449 48.079C41.7921 49.8541 42.1693 51.2061 42.5997 52.2161C43.2373 53.7127 43.8377 54.758 44.1583 55.1987C44.7569 56.0289 45.5664 56.6917 46.5724 57.18C47.7307 57.744 48.5808 57.7317 48.8925 57.7C49.5408 57.6347 50.189 57.6048 50.816 57.5748C51.5652 57.5396 52.3321 57.5025 52.9236 57.4109C53.2407 57.3615 53.5736 57.3157 53.9137 57.2681C55.4936 57.0478 57.6561 56.7463 58.3256 55.9619C59.6061 54.4636 59.6965 51.2413 59.7266 50.1837C59.87 45.07 59.2005 38.3046 58.5806 34.0406C58.1998 34.0477 57.8208 34.0547 57.4471 34.06C56.0851 34.0811 54.693 34.1005 53.3948 34.2186C53.4815 34.8726 53.5666 35.5319 53.6498 36.1788C53.8588 37.7952 54.0731 39.4575 54.3122 41.0369C54.399 41.6098 54.5053 42.2214 54.6204 42.8701C55.1057 45.6341 55.6547 48.7664 54.9587 51.088C54.4681 52.722 52.867 53.6615 51.5864 53.8413L51.3721 53.8731C49.1706 54.2062 47.2135 52.8895 46.521 50.5962C45.8798 48.4774 45.6531 45.9619 45.5752 44.2239C45.5416 43.4853 45.5132 42.745 45.4831 42.0011C45.3928 39.7289 45.3007 37.3933 45.0899 35.1335C45.0704 35.1335 45.0527 35.137 45.0332 35.1388C43.2161 35.4102 41.3812 35.7222 39.5711 36.0695C39.6207 36.6583 39.7322 37.5097 39.8474 38.3998L39.672 38.4245C39.672 38.4245 39.672 38.428 39.672 38.4298V38.4457L39.8491 38.4227V38.421Z" fill="#F35919"/>
<path d="M85.8402 64.7174L85.4558 64.7103C82.9833 64.6628 80.7552 64.6046 78.536 64.3578C76.8694 64.1727 75.9873 62.893 75.3551 61.5727C74.7635 62.6938 73.8797 63.3407 72.7143 63.4993C72.2591 63.5699 71.8482 63.5364 70.2205 63.4006H70.1975C69.5457 63.3442 68.7257 63.2772 67.7392 63.2032L67.6754 63.1979C66.6446 63.0957 66.1381 63.0516 65.1002 62.9758L64.9089 62.9547C63.3167 62.7202 62.1194 61.6132 61.7085 59.9968L61.6748 59.8628L61.6305 59.5561L61.6217 59.2106C61.5508 56.6917 61.4782 54.0864 61.6128 51.4705L61.6199 51.3718C61.8803 48.4439 62.1282 45.7275 62.3815 43.0675C62.6224 39.26 63.1271 35.4649 63.6372 31.9306L63.6585 31.7861L63.6957 31.6451C63.9082 30.8289 64.599 29.3623 66.8554 28.7295C69.1862 28.0755 71.7189 28.3999 73.7539 28.6625L73.784 28.666C74.0851 28.7048 74.3809 28.7436 74.6696 28.7771C76.5293 28.9957 77.8825 29.7061 78.6936 30.8906L78.7698 31.0034L78.8353 31.1233C79.1931 31.7825 79.5367 32.4577 79.8626 33.1469C80.3125 31.0316 82.0358 29.9758 83.6935 30.0216C85.9925 30.0762 88.3605 30.9329 90.4504 31.6874C90.6771 31.7684 90.8985 31.8495 91.1181 31.9271C93.6845 32.8437 95.0164 33.8026 95.569 35.1335C95.9037 35.9391 95.909 36.8081 95.5885 37.6013L95.1882 38.7718C93.8935 42.9935 92.8875 47.4356 91.9151 51.7314C91.7416 52.4964 91.5698 53.2614 91.3944 54.0229C91.2102 54.8937 91.1164 55.3361 90.9286 56.214L90.8843 56.3938C90.6683 57.1465 90.4327 57.9097 90.2255 58.5849C89.9244 59.5614 89.618 60.5609 89.3753 61.4687C88.952 63.0604 87.7973 64.2097 86.2068 64.6222L85.8402 64.7174ZM80.2239 59.0308C81.5204 59.1366 82.8682 59.1877 84.3028 59.2212C84.5154 58.4791 84.7456 57.7282 84.9723 56.9949L84.9794 56.9737C85.1813 56.3162 85.3903 55.6358 85.5798 54.9836C85.7534 54.1675 85.8472 53.7268 86.0261 52.8754L86.035 52.8331C86.2103 52.0663 86.3839 51.2977 86.5575 50.5309C87.5422 46.1823 88.5588 41.6873 89.8943 37.3087C89.7154 37.2364 89.5064 37.1553 89.262 37.069C89.0353 36.9879 88.805 36.905 88.5712 36.8204C87.4537 36.4168 86.2387 35.9761 85.137 35.7152C85.006 37.009 84.7916 38.005 84.6836 38.5038C84.6677 38.5779 84.6553 38.6378 84.6446 38.6854C84.441 39.7025 84.2515 40.5715 84.0991 41.2713L84.0921 41.3031C83.9628 41.8971 83.8494 42.41 83.7998 42.7027L83.7555 42.96L82.6999 45.694L79.5934 45.1652L79.0178 44.6752C78.3394 44.0987 77.8488 43.2332 77.1439 41.37L77.0854 41.1973C76.3363 38.7118 75.394 36.3727 74.28 34.2398C74.2127 34.2257 74.1277 34.2134 74.0232 34.201C73.7061 34.164 73.3785 34.1217 73.0473 34.0794C71.6552 33.9014 70.1036 33.7004 68.901 33.8714C68.4653 36.9667 68.0562 40.2296 67.8543 43.4501L67.8472 43.5347C67.5975 46.1559 67.3495 48.8581 67.0892 51.7948C66.9935 53.7162 67.0201 55.6975 67.0679 57.6488C67.3991 57.6788 67.7445 57.7105 68.182 57.7546C69.1508 57.8269 69.9602 57.8939 70.6084 57.9485L70.6491 57.952C70.6704 57.952 70.6899 57.9556 70.7111 57.9573C70.7838 57.4479 70.8493 56.8997 70.9148 56.3656C71.1203 54.6698 71.3328 52.923 71.7862 51.5269C72.0997 50.5627 72.8276 49.8364 73.7203 49.5385L75.0699 48.4703L75.9997 49.6848L76.269 49.7677L76.7968 50.434C77.4113 51.2114 77.8488 52.1773 78.0968 53.3055C78.5431 54.8408 79.1789 56.593 79.937 58.3786C79.9919 58.5073 80.1035 58.7699 80.2204 59.0273L80.2239 59.0308Z" fill="#F35919"/>
<path d="M105.062 70.6084C104.706 70.6084 104.338 70.5556 103.968 70.4533C103.702 70.3793 102.22 69.995 99.7914 69.4133C98.1974 69.0308 96.5449 68.65 94.9473 68.2816L94.896 68.2693C93.6792 67.989 92.4607 67.707 91.251 67.4232C88.7377 66.8309 87.165 65.9407 86.3024 64.6222L86.2121 64.4847L86.1395 64.3384C85.8154 63.6756 85.5143 62.5792 85.9252 61.1144L86.0828 60.5521C86.809 57.9485 87.5599 55.2568 88.8086 52.6938L89.1965 51.3136C89.827 49.4222 90.5106 47.3633 90.6523 46.8645C90.6895 46.7287 90.7462 46.482 90.8046 46.2193C90.8861 45.8579 90.9747 45.4613 91.0916 45.0065C91.421 43.7198 91.9045 42.4083 92.3703 41.1409C92.5829 40.5645 92.7812 40.0268 92.9459 39.5386C93.0735 39.1631 93.1496 38.555 93.2152 38.0191C93.2594 37.6577 93.3055 37.2858 93.3728 36.9297C93.5782 35.8351 94.4656 34.5765 96.343 34.3262C97.0461 34.2327 97.8785 34.2698 99.0422 34.4478C100.927 34.7369 103.275 35.2428 106.024 35.9567L106.121 35.9814C106.986 36.1947 108.291 36.5155 109.878 37.106C110.183 37.2188 110.517 37.3387 110.87 37.4638C113.279 38.3223 116.53 39.4786 118.51 41.5763C119.325 42.1633 119.846 43.0464 119.97 44.0811C120.067 44.9025 119.915 45.7945 119.502 46.8081C119.46 46.9121 119.421 47.0214 119.382 47.1254C119.276 47.4127 119.157 47.7405 118.982 48.0719C118.682 48.6378 118.401 49.1119 118.215 49.4257C118.151 49.5332 118.075 49.6637 118.032 49.736C117.96 49.9193 117.898 50.0903 117.841 50.2436C117.761 50.464 117.687 50.6702 117.593 50.8712C117.03 52.0663 115.673 53.3037 112.402 52.4558L112.191 52.4012L111.993 52.3131C111.947 52.2937 111.92 52.2831 111.906 52.2796C112.12 53.1556 111.971 54.0018 111.642 54.661C111.507 54.9307 111.33 55.2603 111.132 55.5688C110.884 56.3621 110.65 56.9896 110.402 57.5202C109.968 58.4491 109.467 59.1419 108.874 59.639C108.771 59.7236 108.667 59.8029 108.56 59.8752C110.131 60.8887 110.776 62.6303 110.168 64.4089C109.453 66.5101 108.743 67.982 107.871 69.1736C107.218 70.0849 106.201 70.6084 105.071 70.6102H105.066L105.062 70.6084ZM91.4352 61.7948C91.6938 61.8865 92.0462 61.994 92.5173 62.105C93.7129 62.3871 94.9172 62.6638 96.1198 62.9423L96.1907 62.9582C97.7989 63.3301 99.4619 63.7126 101.079 64.1004C102.333 64.4019 103.348 64.6522 104.088 64.839C104.217 64.5764 104.336 64.3084 104.444 64.0546C103.582 63.7726 102.7 63.5011 101.844 63.2367C100.739 62.8965 99.5948 62.5439 98.4577 62.1597L97.3543 61.786L96.8584 60.7336C96.327 59.6002 96.3642 58.2394 96.9735 56.5683L97.0125 56.4625C98.0326 53.658 99.8321 53.3478 100.558 53.3443H100.581C101.828 53.3443 103.201 53.8167 104.788 54.3631C105.075 54.4618 105.367 54.5623 105.652 54.6575C105.734 54.4354 105.819 54.178 105.909 53.8854C104.412 53.309 103.172 52.8454 101.998 52.4259L101.789 52.3501C99.7134 51.5956 99.2388 49.4997 99.8463 47.8199L100.808 45.1581C101.192 44.0935 102.351 43.0147 103.819 43.0076C104.898 43.0076 105.953 43.4694 106.883 43.8749C107.12 43.9789 107.345 44.0776 107.503 44.1358C109.274 44.8074 111.089 45.6746 113.325 46.9226C113.374 46.8363 113.429 46.7464 113.486 46.6494C113.665 46.348 113.881 45.9813 114.111 45.5495C114.136 45.4913 114.187 45.3503 114.223 45.2551L114.228 45.2392C114.246 45.1934 114.262 45.1476 114.279 45.1C113.1 44.0652 110.581 43.168 109.019 42.611C108.64 42.4753 108.282 42.3484 107.955 42.2267C106.665 41.7473 105.588 41.4829 104.802 41.289L104.657 41.2519C102.223 40.6209 100.153 40.1661 98.4931 39.8964C98.4134 40.3512 98.3054 40.8254 98.1478 41.2907C97.9583 41.8513 97.7386 42.4453 97.5261 43.0217C97.1063 44.1604 96.6724 45.3397 96.4103 46.3603C96.3146 46.7323 96.2349 47.0866 96.1659 47.3986L95.9923 47.3616C95.9923 47.3616 95.9905 47.3739 95.9888 47.3792L96.1606 47.418C96.0826 47.767 96.0153 48.0684 95.9374 48.3434C95.7975 48.8422 95.4291 49.9704 94.4284 52.9706L93.9573 54.6557L93.8457 54.8814C92.7901 56.9966 92.0958 59.431 91.4352 61.7983V61.7948Z" fill="#F35919"/>
<path d="M26.4789 34.1552C27.5292 33.8678 28.3634 34.0864 28.962 34.7986C29.9733 35.9814 30.8288 37.8393 31.2291 39.2283C31.9659 41.7878 33.2765 44.6593 34.4384 47.3175C35.5311 50.0092 36.5956 52.7132 37.6175 55.4313C38.2552 56.9085 39.0238 58.8457 38.1276 60.3335C36.004 61.206 33.8521 62.0645 31.7161 62.6832C31.036 62.8806 30.4834 62.7308 30.138 62.2742C28.7548 59.8734 27.5752 57.3774 26.47 54.8514C25.4056 52.4171 24.7432 51.2219 24.5023 51.2924C24.4385 51.3118 23.9019 52.2972 22.9862 54.2644C22.384 55.2462 21.9129 55.798 21.5463 55.9196C21.4365 55.9566 21.3816 55.9742 21.2718 56.0113C20.4393 56.0377 19.3359 55.694 17.9261 54.9995C17.8676 55.0206 17.8375 55.0312 17.7773 55.0523C18.0288 57.7846 19.2934 60.6367 19.993 63.1715C20.4801 64.936 20.4553 66.2897 20.0479 66.6423C19.1641 67.4073 17.6817 68.0031 16.4366 68.5302C15.3881 68.9744 14.1412 69.3058 12.6818 69.5473C12.285 69.4327 11.9273 68.7787 11.5872 67.6453C10.6503 64.5252 9.48132 61.3735 8.42927 58.2376C7.80051 55.5847 6.84587 52.9988 5.97979 50.4181C5.60962 48.7594 5.06057 47.076 4.44422 45.5547C4.07936 44.654 4.09353 43.8555 4.63019 43.2174C6.93797 41.2325 10.0605 39.0679 12.5472 38.6537C14.0048 38.4122 15.7919 40.0885 16.9555 41.3207C17.3416 41.5622 17.5807 41.6697 17.6781 41.638C17.7437 41.6168 17.7773 41.6062 17.8428 41.5851C18.0412 41.3083 18.4468 39.8981 19.1641 37.3581C20.7918 35.5548 24.3128 34.8726 26.4789 34.1534V34.1552Z" fill="#F5C912"/>
<path d="M44.2309 32.121C46.1065 31.9324 47.0948 32.1739 47.171 32.7732C47.6315 36.4168 47.7023 40.1925 47.8688 43.8643C47.9538 45.7592 48.1876 47.8886 48.7066 49.6055C49.0077 50.6067 49.6966 51.1021 50.5362 50.9752C50.6265 50.9628 50.6708 50.9558 50.7611 50.9417C51.2251 50.8764 51.7653 50.5221 51.8893 50.1061C52.5393 47.9292 51.5758 44.1234 51.1543 41.192C50.7451 38.3364 50.3838 35.3415 49.9942 32.5934C49.9074 31.9888 50.2669 31.527 51.0887 31.3895C53.6781 30.9576 56.5934 31.0651 59.2183 30.9664C60.2455 30.9276 60.66 31.8883 60.8654 33.3003C61.5544 38.0402 62.1902 44.9642 62.0468 50.0603C61.9777 52.507 61.6412 55.634 59.9887 57.5766C58.4425 59.3957 55.2403 59.6072 52.9095 59.9704C51.6413 60.1678 50.104 60.1431 48.7261 60.2806C47.7484 60.3776 46.4041 60.2154 44.9217 59.4909C43.503 58.7981 42.3482 57.8427 41.4839 56.6406C41.0287 56.0148 40.3362 54.8003 39.6118 53.0975C39.0486 51.7701 38.6271 50.1414 38.2835 48.391C37.7681 45.7592 37.2137 43.0905 36.8967 40.4658C36.6469 38.3963 36.3724 36.6406 36.3228 35.5989C36.2626 34.3649 36.8949 33.4413 37.846 33.2245C39.9643 32.8049 42.0932 32.4365 44.2291 32.1175L44.2309 32.121Z" fill="#F5C912"/>
<path d="M67.5302 60.3405C66.4746 60.2365 65.945 60.1907 64.8859 60.1114C64.4006 60.0391 64.0889 59.7306 63.9507 59.1824C63.8799 56.5947 63.8037 54.0053 63.9348 51.4176C64.1827 48.6254 64.4378 45.8333 64.7035 43.0429C64.9355 39.3482 65.4172 35.6764 65.945 32.0135C66.0548 31.5904 66.4781 31.2502 67.1937 31.0493C69.2907 30.4587 71.8181 30.9294 73.9594 31.1797C75.0026 31.3031 75.7004 31.6257 76.0387 32.1228C77.4131 34.6664 78.5041 37.3827 79.333 40.1502C79.7988 41.3912 80.1548 42.1263 80.4223 42.3554C80.4789 42.3642 80.5073 42.3695 80.564 42.3801C80.6242 42.225 80.6543 42.1474 80.7145 41.994C80.842 41.259 81.1874 39.8488 81.5806 37.8798C81.6727 37.4162 82.057 35.8774 82.1243 33.8661C82.1527 33.0447 82.5016 32.4312 83.2543 32.4471C85.3336 32.4947 87.7618 33.4589 89.8394 34.2028C92.0214 34.9837 92.9761 35.7117 92.6785 36.3357C92.4979 36.8627 92.4075 37.1271 92.2269 37.6542C90.6523 42.7732 89.5294 48.0367 88.3322 53.2526C88.1444 54.141 88.0488 54.5852 87.8593 55.4754C87.3633 57.1958 86.7665 58.9762 86.3272 60.6261C86.1661 61.2307 85.7817 61.6696 85.1175 61.8441C82.8717 61.8018 80.6171 61.7525 78.4351 61.5092C77.9692 61.4581 77.5495 60.5856 77.0075 59.3023C76.2902 57.6048 75.5694 55.6781 75.0309 53.792C74.8751 53.0287 74.6112 52.4118 74.241 51.9411C74.179 51.9217 74.0515 52.024 74.0001 52.1826C73.4564 53.8607 73.2881 56.5101 72.9605 58.6236C72.7639 59.8981 72.4291 60.5979 71.9049 60.6596C71.6764 60.7001 70.2223 60.545 67.5302 60.3423V60.3405Z" fill="#F5C912"/>
<path d="M108.615 39.3923C110.914 40.2489 114.754 41.3894 116.436 43.4324C117.108 43.7409 117.102 44.4795 116.669 45.5389C116.518 45.9073 116.399 46.2969 116.259 46.563C115.756 47.5096 115.324 48.1513 115.223 48.398C115.014 48.9075 114.89 49.3094 114.804 49.4927C114.625 49.8717 113.952 49.8946 112.786 49.5914C112.604 49.5086 112.42 49.4451 112.237 49.401C110.252 48.2694 108.273 47.2382 106.206 46.4537C105.42 46.1541 104.18 45.4966 103.505 45.5001C103.334 45.5001 103.112 45.7063 103.063 45.8456C102.675 46.9156 102.482 47.4515 102.094 48.5232C101.894 49.0749 101.995 49.4239 102.397 49.5703C102.475 49.5985 102.514 49.6126 102.592 49.6408C104.354 50.2718 106.1 50.9417 107.843 51.6238C107.896 51.6467 107.923 51.6573 107.978 51.6802C108.792 52.2055 109.095 52.7714 108.856 53.2508C108.576 53.8096 108.348 54.1269 108.305 54.1569C108.082 54.9096 107.846 55.6094 107.577 56.1858C107.064 57.2822 106.5 57.7511 106.015 57.5448C104.063 57.0636 101.513 55.8914 100.218 55.8985C99.949 55.8985 99.5045 56.4854 99.237 57.2187C99.2211 57.2628 99.2122 57.2857 99.1963 57.3298C98.8474 58.2852 98.7783 58.9797 98.9802 59.4151C101.012 60.1043 103.077 60.6878 105.114 61.3612C105.517 61.4863 105.95 61.6485 106.405 61.8512C107.211 62.209 107.436 62.7467 107.216 63.3883C106.706 64.8778 106.102 66.3338 105.275 67.4584C105.037 67.7969 104.687 67.8022 104.341 67.7052C104.03 67.6188 102.521 67.2275 100.062 66.6388C97.2409 65.9619 94.3469 65.3132 91.5007 64.6416C89.7668 64.2326 88.6722 63.7021 88.217 63.0023C88.0541 62.6638 88.0399 62.2302 88.1869 61.7119C88.9609 58.955 89.7225 56.0835 91.0172 53.4941C91.1872 52.8877 91.2722 52.5845 91.444 51.9764C92.2995 49.4134 92.8043 47.8833 92.9459 47.3827C93.0664 46.9597 93.1939 46.2739 93.4047 45.4525C93.8492 43.725 94.6675 41.7578 95.213 40.1537C95.5407 39.1878 95.5885 37.975 95.7443 37.1536C95.8382 36.6583 96.8442 36.6459 98.3054 36.8698C100.386 37.1888 102.863 37.7635 105.046 38.3311C105.838 38.5267 107.113 38.8317 108.624 39.394L108.615 39.3923Z" fill="#F5C912"/>
<path d="M92.0391 28.1443C90.9304 28.1443 89.7969 27.8235 88.7873 27.1695L88.7767 27.1624C83.8866 23.9578 77.8081 23.1099 72.098 24.8392C69.2323 25.6958 66.2904 24.4901 65.2454 22.0329L65.2242 21.98C64.8027 20.9277 64.39 19.8577 63.9968 18.7983C63.5434 17.6331 63.6249 16.3199 64.2288 15.0948C65.017 13.4942 66.6305 12.2127 68.5451 11.6645C78.1659 8.88998 88.3959 10.4588 96.6104 15.9709C98.2487 17.0708 99.2884 18.696 99.4602 20.4288C99.5948 21.7914 99.1502 23.1029 98.2381 24.0353C97.4907 24.8215 96.7397 25.6324 96.0083 26.4432L95.9675 26.4873C94.9349 27.5784 93.511 28.1425 92.0427 28.1425L92.0391 28.1443ZM91.6938 22.7415C91.8638 22.8508 92.0462 22.8578 92.1171 22.8402C92.7547 22.1351 93.4047 21.4318 94.0547 20.7408C93.9732 20.6298 93.8404 20.4923 93.6385 20.3565C86.7346 15.7223 78.1251 14.4073 70.0169 16.7447C69.5316 16.884 69.2411 17.1237 69.0977 17.2823C69.4129 18.1232 69.7406 18.971 70.0736 19.8083C70.178 19.8295 70.3552 19.8365 70.5588 19.7748C77.7744 17.5908 85.4789 18.6696 91.692 22.7397L91.6938 22.7415Z" fill="#F35919"/>
<path d="M90.2397 24.9537C84.8466 21.4195 77.925 20.3125 71.3257 22.3079C69.8557 22.7486 68.2333 22.2709 67.6931 21.0017C67.2769 19.9599 66.8713 18.9111 66.4799 17.857C65.9698 16.579 67.2114 14.7986 69.2783 14.2064C78.242 11.6204 87.7052 13.1875 95.1227 18.1655C96.8389 19.3165 97.2941 21.2291 96.3217 22.2039C95.5478 23.02 94.7826 23.845 94.0299 24.6787C93.0806 25.6835 91.444 25.7381 90.2397 24.9555V24.9537Z" fill="#F5C912"/>
<path d="M34.7111 20.1221C36.2857 20.3618 37.6069 21.3613 38.1188 22.7556C38.8166 24.6646 37.7114 26.5367 36.5619 27.4885C36.438 27.5908 34.7926 28.9075 32.6229 28.4686C30.6464 28.0685 28.6237 26.2916 28.753 24.1341C28.8575 22.3925 30.3081 21.3014 30.5915 21.0951C30.7792 21.9148 30.9669 22.7327 31.1547 23.5524C32.4618 23.2174 33.7689 22.8825 35.0777 22.5458C34.9555 21.7368 34.8351 20.9277 34.7129 20.1203L34.7111 20.1221Z" fill="#F35919"/>
<path d="M29.9414 18.6185C30.2885 20.3301 30.6357 22.0417 30.9828 23.7533C31.1971 23.9084 32.1996 24.5941 33.4323 24.2627C34.5162 23.9719 35.0919 23.0764 35.2495 22.812C34.9395 21.0299 34.6278 19.2478 34.3179 17.4657C33.7564 17.7565 33.0639 18.0526 32.251 18.2712C31.3813 18.5074 30.595 18.5956 29.9414 18.6167V18.6185Z" fill="#F35919"/>
<path d="M30.0955 18.8089C35.0363 18.8089 39.0415 14.8226 39.0415 9.9053C39.0415 4.98801 35.0363 1.00175 30.0955 1.00175C25.1548 1.00175 21.1495 4.98801 21.1495 9.9053C21.1495 14.8226 25.1548 18.8089 30.0955 18.8089Z" fill="#ED1C24"/>
<path d="M25.3046 8.1461C24.1605 9.14557 24.0117 10.4941 23.661 10.4042C23.2891 10.3072 23.1686 8.71018 23.615 7.33877C24.6511 4.15881 28.8664 1.82319 31.2043 2.85086C31.7338 3.08354 32.5982 3.67935 32.6601 4.48844C32.7168 5.21821 32.0951 5.80872 31.8224 6.05903C29.782 7.94339 27.2989 6.40453 25.3029 8.1461H25.3046Z" fill="white"/>
<path d="M7.43033 45.4948C8.764 43.5311 10.8114 42.0892 13.105 41.4635C13.7639 41.2837 13.4841 40.263 12.8217 40.4428C10.2535 41.1426 8.00064 42.7661 6.51112 44.959C6.34994 45.1952 6.46507 45.5442 6.7024 45.6817C6.96453 45.8333 7.26739 45.7293 7.42856 45.4913L7.43033 45.4948Z" fill="white"/>
<path d="M21.8349 38.1848C22.5186 38.1848 22.5204 37.1271 21.8349 37.1271C21.1495 37.1271 21.1495 38.1848 21.8349 38.1848Z" fill="white"/>
<path d="M23.877 37.2311C24.5607 37.2311 24.5625 36.1735 23.877 36.1735C23.1916 36.1735 23.1916 37.2311 23.877 37.2311Z" fill="white"/>
<path d="M18.5105 53.4747C19.536 54.0352 20.8024 54.5482 21.8721 53.7867C22.3132 53.4729 22.6461 53.0552 22.9277 52.5969C23.2094 52.1385 23.4431 51.6503 23.8151 51.2589C24.2844 50.7654 23.5352 50.0145 23.0641 50.5116C22.4159 51.1937 22.1343 52.1544 21.4364 52.789C20.7386 53.4236 19.784 52.967 19.0454 52.5634C18.445 52.2355 17.9083 53.1486 18.5088 53.4765L18.5105 53.4747Z" fill="white"/>
<path d="M38.5509 35.9179C40.5984 35.1529 42.7432 34.6646 44.9235 34.4919C45.2104 34.4689 45.4548 34.2645 45.4548 33.963C45.4548 33.6951 45.2104 33.4113 44.9235 33.4342C42.6476 33.614 40.4071 34.0988 38.2693 34.8973C38.0001 34.9978 37.8177 35.2551 37.8974 35.5477C37.9682 35.8051 38.2817 36.0184 38.5509 35.9179Z" fill="white"/>
<path d="M46.1738 47.1888C46.165 48.6713 46.3049 50.2436 47.1515 51.5128C47.9981 52.7819 49.3831 53.5135 50.8727 53.205C51.1543 53.1468 51.3172 52.8172 51.2446 52.5545C51.1649 52.2637 50.8727 52.1262 50.5911 52.1844C49.5089 52.4082 48.4905 51.6943 47.9556 50.7989C47.3074 49.713 47.2294 48.4209 47.2365 47.1888C47.2401 46.5084 46.1774 46.5066 46.1738 47.1888Z" fill="white"/>
<path d="M52.5482 52.826C53.2318 52.826 53.2336 51.7684 52.5482 51.7684C51.8628 51.7684 51.8628 52.826 52.5482 52.826Z" fill="white"/>
<path d="M53.7986 52.0169C54.4823 52.0169 54.484 50.9593 53.7986 50.9593C53.1132 50.9593 53.1132 52.0169 53.7986 52.0169Z" fill="white"/>
<path d="M52.7253 34.0688C54.5584 33.436 56.489 33.2033 58.4213 33.3778C58.7082 33.4043 58.9526 33.1169 58.9526 32.849C58.9526 32.5423 58.7082 32.3466 58.4213 32.3202C56.4075 32.1386 54.3548 32.3907 52.4437 33.05C52.1727 33.1434 51.9938 33.4131 52.0718 33.7004C52.1444 33.963 52.4526 34.164 52.7253 34.0706V34.0688Z" fill="white"/>
<path d="M70.2967 16.6477C73.2811 15.8898 76.3805 15.5672 79.4765 15.6659C82.5707 15.7664 85.6418 16.2934 88.5642 17.2224C90.1989 17.7424 91.7788 18.3946 93.2878 19.1667C93.8847 19.4716 94.4213 18.6379 93.8244 18.3329C91.0367 16.9069 88.001 15.8792 84.8696 15.2904C81.7382 14.7017 78.5272 14.5325 75.3533 14.8145C73.5503 14.9749 71.7614 15.2711 70.0151 15.7153C69.358 15.8827 69.6361 16.8152 70.2985 16.646L70.2967 16.6477Z" fill="white"/>
<path d="M70.0505 21.3454C70.7342 21.3454 70.7359 20.2878 70.0505 20.2878C69.3651 20.2878 69.3651 21.3454 70.0505 21.3454Z" fill="white"/>
<path d="M71.9881 20.91C72.6718 20.91 72.6736 19.8524 71.9881 19.8524C71.3027 19.8524 71.3027 20.91 71.9881 20.91Z" fill="white"/>
<path d="M68.4034 34.157C70.6899 33.5999 73.1004 33.7744 75.2931 34.6205C75.5605 34.7246 75.8758 34.5077 75.9466 34.2504C76.0299 33.9507 75.8439 33.7039 75.5747 33.5999C73.2102 32.6886 70.5801 32.5388 68.12 33.1363C67.4558 33.2985 67.7374 34.3174 68.4034 34.157Z" fill="white"/>
<path d="M75.2081 50.7442C76.3132 53.168 77.4184 55.59 78.5254 58.0137C78.6441 58.2746 79.0231 58.3363 79.2516 58.2041C79.5208 58.0472 79.5615 57.7423 79.4428 57.4814C78.3376 55.0576 77.2325 52.6356 76.1255 50.2119C76.0068 49.951 75.6278 49.8893 75.3993 50.0215C75.1301 50.1784 75.0894 50.4834 75.2081 50.7442Z" fill="white"/>
<path d="M75.2329 37.3422C76.54 39.5756 77.8488 41.8072 79.1559 44.0406C79.4995 44.6276 80.4187 44.097 80.0734 43.5065C78.7663 41.2731 77.4574 39.0415 76.1503 36.8081C75.8067 36.2211 74.8875 36.7517 75.2329 37.3422Z" fill="white"/>
<path d="M85.1565 35.4191C86.7328 35.7187 88.2861 36.1294 89.804 36.6477C90.075 36.7411 90.3849 36.5419 90.4575 36.2775C90.5372 35.9867 90.3583 35.7205 90.0856 35.6271C88.5677 35.1088 87.0144 34.6981 85.4381 34.3984C85.1565 34.3456 84.8643 34.4778 84.7846 34.7686C84.7137 35.0277 84.8731 35.3644 85.1565 35.4191Z" fill="white"/>
<path d="M66.8412 59.0467C67.5249 59.0467 67.5266 57.989 66.8412 57.989C66.1558 57.989 66.1558 59.0467 66.8412 59.0467Z" fill="white"/>
<path d="M68.9258 59.1295C69.6095 59.1295 69.6113 58.0719 68.9258 58.0719C68.2404 58.0719 68.2404 59.1295 68.9258 59.1295Z" fill="white"/>
<path d="M98.9962 39.9211C103.137 40.3106 107.22 41.3013 111.084 42.8296C112.17 43.2579 113.234 43.7356 114.281 44.2521C114.538 44.379 114.857 44.3209 115.007 44.0617C115.145 43.8273 115.074 43.4659 114.816 43.339C110.98 41.4476 106.881 40.0938 102.664 39.3552C101.449 39.142 100.225 38.9798 98.9962 38.8634C98.7092 38.837 98.4648 39.1261 98.4648 39.3923C98.4648 39.7007 98.7092 39.8946 98.9962 39.9211Z" fill="white"/>
<path d="M96.4989 41.7085C95.6806 44.9501 94.6976 48.1477 93.5552 51.2889C93.4578 51.5569 93.665 51.8689 93.9272 51.9394C94.223 52.0205 94.4833 51.8389 94.5807 51.5692C95.7249 48.428 96.7061 45.2287 97.5243 41.9888C97.6908 41.3277 96.6671 41.0475 96.4989 41.7067V41.7085Z" fill="white"/>
<path d="M101.431 51.5198C102.115 51.5198 102.117 50.4622 101.431 50.4622C100.746 50.4622 100.746 51.5198 101.431 51.5198Z" fill="white"/>
<path d="M103.369 51.8301C104.053 51.8301 104.055 50.7724 103.369 50.7724C102.684 50.7724 102.684 51.8301 103.369 51.8301Z" fill="white"/>
<path d="M23.2678 11.8884C23.3917 13.1681 23.9302 14.3844 24.8494 15.2975C25.7686 16.2106 27.0367 16.7676 28.3474 16.8734C28.6343 16.8963 28.8787 16.6143 28.8787 16.3446C28.8787 16.0396 28.6343 15.8387 28.3474 15.8157C26.2645 15.6483 24.5306 13.9578 24.3304 11.8884C24.3021 11.6046 24.1055 11.3596 23.7991 11.3596C23.5334 11.3596 23.2394 11.6028 23.2678 11.8884Z" fill="white"/>
<path d="M30.3683 25.8457C31.1387 26.6495 32.2191 27.1342 33.3367 27.1624C34.4543 27.1906 35.5542 26.7447 36.3618 25.9814C36.6098 25.747 36.2343 25.3733 35.9863 25.6077C35.2779 26.2793 34.3179 26.6565 33.3367 26.6336C32.3555 26.6107 31.4186 26.1753 30.7438 25.472C30.5064 25.2252 30.131 25.5989 30.3683 25.8457Z" fill="white"/>
</g>
<defs>
<clipPath id="clip0_222_2020">
<rect width="118" height="91.9158" fill="white" transform="translate(2 1)"/>
</clipPath>
</defs>
</svg>
