<svg width="242" height="43" viewBox="0 0 242 43" fill="none" xmlns="http://www.w3.org/2000/svg">
<path d="M21.1509 33.9204C13.4834 33.9204 7.45386 26.7858 9.13929 18.7383C10.1363 14.0299 13.887 10.2584 18.516 9.2735C26.4683 7.59194 33.4712 13.6936 33.4712 21.4528C33.4474 28.3232 27.9638 33.9204 21.1509 33.9204ZM21.1509 42.9048C34.2308 42.9048 44.5333 30.8936 41.8983 17.1528C40.2841 8.79306 33.6373 2.04278 25.4001 0.43328C11.8692 -2.25722 0 8.1925 0 21.4528C0 33.2959 9.47162 42.9048 21.1509 42.9048Z" fill="white"/>
<path d="M158.407 42.9036C145.327 42.9036 135.025 30.8685 137.66 17.1277C139.274 8.7679 145.92 2.04164 154.181 0.408121C167.736 -2.23434 179.558 8.19136 179.558 21.4277C179.582 33.2947 170.11 42.9036 158.407 42.9036ZM158.407 33.9193C166.074 33.9193 172.104 26.8087 170.419 18.7372C169.445 14.0528 165.718 10.2813 161.089 9.27237C153.137 7.56678 146.11 13.6685 146.11 21.4517C146.134 28.3221 151.618 33.9193 158.407 33.9193Z" fill="white"/>
<path d="M46.9536 1.29693V41.8707H55.8318V8.76788H65.517V41.8707H74.3952V8.7919H77.8135C81.2556 8.7919 84.0567 11.6265 84.0567 15.1338V41.8947H92.9349V15.326C92.9349 7.42263 86.6205 1.03268 78.8343 1.03268H55.903C52.8645 1.00866 49.8972 1.10475 46.9536 1.29693Z" fill="white"/>
<path d="M183.806 1.29693V41.8707H192.684V8.7919H202.559C206.001 8.7919 208.802 11.6265 208.802 15.1338V41.8947H217.657V15.326C217.657 7.42263 211.342 1.03268 203.556 1.03268H192.66C189.693 1.00866 186.749 1.10475 183.806 1.29693Z" fill="white"/>
<path d="M99.7715 1.29694V41.8707H108.626V8.79191H118.81C121.73 8.79191 124.483 10.6657 125.172 13.5483C126.169 17.7282 123.059 21.4517 119.095 21.4517H111.451L125.148 41.8707H136.02L126.145 27.169C132.198 24.7187 135.973 17.7042 133.338 10.3053C131.344 4.56397 125.646 1.00867 119.617 1.00867H108.626C105.659 1.00867 102.691 1.10476 99.7715 1.29694Z" fill="white"/>
<path d="M239.614 40.6938C238.095 42.2313 236.267 43.024 234.107 43.024C231.947 43.024 230.119 42.2553 228.624 40.6938C227.128 39.1564 226.368 37.3067 226.368 35.0966C226.368 32.9346 227.128 31.0849 228.647 29.5475C230.167 28.01 231.971 27.2413 234.131 27.2413C236.291 27.2413 238.119 28.01 239.638 29.5475C241.157 31.0849 241.917 32.9346 241.917 35.0966C241.893 37.2827 241.134 39.1324 239.614 40.6938ZM229.407 30.3162C228.101 31.6374 227.46 33.2229 227.46 35.1207C227.46 36.9944 228.101 38.6039 229.383 39.9492C230.689 41.2704 232.256 41.943 234.107 41.943C235.959 41.943 237.549 41.2704 238.831 39.9492C240.137 38.6279 240.778 37.0184 240.778 35.1207C240.778 33.2469 240.137 31.6614 238.831 30.3162C237.525 28.995 235.959 28.3223 234.107 28.3223C232.279 28.3223 230.713 28.995 229.407 30.3162ZM233.965 30.7486C235.033 30.7486 235.793 30.8447 236.291 31.0609C237.169 31.4212 237.62 32.1659 237.62 33.2469C237.62 34.0156 237.336 34.5922 236.79 34.9525C236.505 35.1447 236.077 35.2888 235.555 35.3609C236.22 35.457 236.718 35.7452 237.027 36.2017C237.336 36.6581 237.478 37.1145 237.478 37.5469V38.1715C237.478 38.3637 237.478 38.5799 237.502 38.8201C237.525 39.0603 237.549 39.2045 237.573 39.2765L237.62 39.3966H236.22C236.22 39.3726 236.196 39.3246 236.196 39.3006C236.196 39.2765 236.172 39.2285 236.172 39.2045L236.149 38.9162V38.2436C236.149 37.2587 235.888 36.586 235.342 36.2737C235.033 36.0816 234.463 35.9855 233.68 35.9855H232.493V39.3966H230.997V30.7486H233.965ZM235.603 32.1179C235.223 31.9017 234.606 31.7816 233.775 31.7816H232.493V34.9045H233.846C234.487 34.9045 234.962 34.8324 235.27 34.7123C235.864 34.4721 236.149 34.0156 236.149 33.367C236.172 32.7424 235.982 32.3341 235.603 32.1179Z" fill="white"/>
</svg>
