<svg width="243" height="86" viewBox="0 0 243 86" fill="none" xmlns="http://www.w3.org/2000/svg">
<g clip-path="url(#clip0_104_130)">
<path fill-rule="evenodd" clip-rule="evenodd" d="M45.8064 36.7339L15.4843 67.0114C12.14 70.3508 12.14 75.9166 15.4843 79.256L21.5041 85.2669L52.0492 54.9894C55.3936 51.65 55.3936 46.0842 52.0492 42.7448L45.8064 36.7339Z" fill="#D16232"/>
<path fill-rule="evenodd" clip-rule="evenodd" d="M33.7667 0.00012207L3.22164 30.5002C-0.122707 33.8397 -0.122707 39.4053 3.22164 42.7449L9.24145 48.7558L39.7864 18.2556C43.1308 14.9162 43.1308 9.35052 39.7864 6.01109L33.7667 0.00012207Z" fill="#DE9A3E"/>
<path fill-rule="evenodd" clip-rule="evenodd" d="M27.5239 18.2558C24.1795 14.9164 24.1795 9.57333 27.5239 6.23389L21.5041 12.2449L3.22164 30.5005C-0.122707 33.8399 -0.122707 39.4056 3.22164 42.745L27.7469 67.2341C31.0912 70.5736 31.0912 75.9166 27.7469 79.256L33.7667 73.2451L52.049 54.9896C55.3934 51.6502 55.3934 46.0844 52.049 42.745L27.5239 18.2558Z" fill="#D67736"/>
<path fill-rule="evenodd" clip-rule="evenodd" d="M27.5239 18.2558C24.1796 14.9164 24.1796 9.57333 27.5239 6.23389L21.5041 12.2449L15.4843 18.2558C12.14 21.5953 12.14 27.1609 15.4843 30.5005L40.0095 54.9896C43.3538 58.329 43.3538 63.6721 40.0095 67.0115L46.0293 61.0005L52.0492 54.9896C55.3936 51.6502 55.3936 46.0844 52.0492 42.745L27.5239 18.2558Z" fill="#DC893D"/>
<path d="M68.5479 48.5334L69.8856 45.4166C71.4463 46.5297 73.6759 47.1976 75.9054 47.1976C78.358 47.1976 79.4727 46.3072 79.4727 45.1939C79.4727 41.8545 68.9937 44.0809 68.9937 37.402C68.9937 34.2852 71.4463 31.8363 76.5742 31.8363C78.8038 31.8363 81.2564 32.2815 82.817 33.3946L81.4793 36.5115C79.9187 35.6209 78.135 35.1757 76.5742 35.1757C74.1218 35.1757 73.2299 36.0663 73.2299 37.1794C73.2299 40.5188 83.7089 38.2924 83.7089 44.7487C83.7089 47.643 81.2564 50.3145 76.1284 50.3145C73.0071 50.537 70.1086 49.8691 68.5479 48.5334Z" fill="#D67736"/>
<path d="M112.248 52.3179C111.133 53.6536 109.349 54.5442 107.342 54.5442C104.667 54.5442 102.883 53.6536 99.9849 50.5369C95.0799 49.869 91.5127 46.3069 91.5127 41.4091C91.5127 36.066 95.7487 32.0587 101.323 32.0587C106.897 32.0587 111.133 36.066 111.133 41.4091C111.133 45.639 108.457 48.9784 104.667 50.0915C105.559 50.9821 106.228 51.4273 107.12 51.4273C108.234 51.4273 109.126 50.9821 110.018 50.0915L112.248 52.3179ZM101.546 46.9748C104.667 46.9748 107.12 44.7485 107.12 41.1864C107.12 37.6245 104.89 35.6207 101.546 35.6207C98.4242 35.6207 95.9717 37.847 95.9717 41.4091C95.9717 44.9712 98.4242 46.9748 101.546 46.9748Z" fill="#D67736"/>
<path d="M120.943 42.2997V32.2815H125.179V42.2997C125.179 45.6391 126.74 47.1976 129.192 47.1976C131.645 47.1976 133.205 45.8618 133.205 42.2997V32.5042H137.219V42.2997C137.219 47.6428 134.097 50.537 128.969 50.537C123.841 50.537 120.943 47.6428 120.943 42.2997Z" fill="#D67736"/>
<path d="M147.697 32.2815H155.946C161.744 32.2815 165.98 35.8436 165.98 41.1866C165.98 46.5297 161.967 50.0918 155.946 50.0918H147.697V32.2815ZM155.724 46.9749C159.291 46.9749 161.744 44.7487 161.744 41.4093C161.744 38.0698 159.514 35.8436 155.724 35.8436H151.933V46.9749H155.724Z" fill="#D67736"/>
<path d="M189.168 46.9749V50.3145H175.344V32.2815H188.945V35.6209H179.58V39.6282H187.83V42.9676H179.58V47.1976H189.168V46.9749Z" fill="#D67736"/>
<path d="M210.572 50.3145L207.004 45.4166H206.781H203.214V50.3145H198.977V32.2815H206.781C211.687 32.2815 214.584 34.7303 214.584 38.7376C214.584 41.4093 213.246 43.413 210.795 44.3034L214.807 50.0918H210.572V50.3145ZM206.558 35.6209H203.214V41.8545H206.558C209.011 41.8545 210.349 40.7414 210.349 38.7376C210.349 36.9567 209.011 35.6209 206.558 35.6209Z" fill="#D67736"/>
<path d="M236.211 46.5297H227.962L226.401 50.3145H222.165L230.19 32.2815H234.204L242.231 50.3145H237.771L236.211 46.5297ZM234.873 43.413L231.974 36.5115L229.077 43.413H234.873Z" fill="#D67736"/>
</g>
<defs>
<clipPath id="clip0_104_130">
<rect width="243" height="86" fill="white" transform="translate(0 0.00012207)"/>
</clipPath>
</defs>
</svg>
