<svg width="190" height="28" viewBox="0 0 190 28" fill="none" xmlns="http://www.w3.org/2000/svg">
<g clip-path="url(#clip0_1152_9976)">
<path d="M60.6165 27.0774C59.2632 27.0774 58.0162 26.823 56.8776 26.3142C55.739 25.8054 54.8303 24.9851 54.1536 23.8535C53.477 22.7218 53.1387 21.2195 53.1387 19.3465V9.25799C53.1387 7.38503 53.477 5.88272 54.1536 4.75105C54.8303 3.61937 55.7433 2.79913 56.8949 2.29032C58.0444 1.78151 59.2979 1.5271 60.6512 1.5271C62.2084 1.5271 63.5552 1.79905 64.6959 2.34076C65.8345 2.88467 66.7259 3.62376 67.37 4.55805C68.012 5.49453 68.3351 6.57576 68.3351 7.79954C68.3351 8.58469 68.1876 9.10008 67.8949 9.34133C67.6021 9.58477 67.151 9.7054 66.5416 9.7054C65.9994 9.7054 65.5721 9.6067 65.2555 9.41151C64.9389 9.21632 64.7697 8.90928 64.748 8.49258C64.7263 8.19211 64.6678 7.83463 64.5788 7.41793C64.4877 7.00123 64.3142 6.59111 64.054 6.18757C63.7937 5.78402 63.4055 5.44847 62.8872 5.1831C62.3689 4.91773 61.6575 4.78394 60.7553 4.78394C59.4476 4.78394 58.4434 5.14801 57.7429 5.87614C57.0424 6.60427 56.6933 7.73155 56.6933 9.2558V19.3443C56.6933 20.8686 57.0489 21.9959 57.7603 22.724C58.4716 23.4521 59.504 23.8162 60.8573 23.8162C61.7139 23.8162 62.3971 23.6824 62.9046 23.417C63.412 23.1517 63.7894 22.8161 64.0388 22.4126C64.2861 22.009 64.4552 21.5814 64.5463 21.1296C64.6352 20.6778 64.7046 20.2698 64.7502 19.8992C64.7719 19.4606 64.9475 19.1491 65.275 18.9627C65.6025 18.7785 66.0145 18.6864 66.5112 18.6864C67.1423 18.6864 67.6042 18.8136 67.8992 19.068C68.192 19.3224 68.3394 19.8312 68.3394 20.5922C68.3394 21.8402 68.0185 22.9543 67.3744 23.9368C66.7324 24.9193 65.8345 25.687 64.6851 26.2418C63.5357 26.7967 62.1802 27.073 60.6252 27.073L60.6165 27.0774Z" fill="#0F2137"/>
<path d="M72.1215 26.869C71.8049 26.869 71.4665 26.7989 71.1065 26.6607C70.7444 26.5225 70.4516 26.3427 70.226 26.1234C70.0005 25.9041 69.8877 25.6431 69.8877 25.3426C69.8877 25.2724 69.8985 25.1693 69.9224 25.0312L76.6564 2.56663C76.7908 2.14993 77.0793 1.8385 77.5195 1.63015C77.9598 1.4218 78.4282 1.31873 78.9249 1.31873C79.4215 1.31873 79.9225 1.4218 80.3628 1.63015C80.803 1.8385 81.0893 2.14993 81.2259 2.56663L87.9252 25.0312C87.9707 25.1693 87.9924 25.2746 87.9924 25.3426C87.9924 25.6189 87.8731 25.8755 87.6368 26.1058C87.4004 26.3383 87.1054 26.5225 86.7562 26.6607C86.4071 26.7989 86.0622 26.869 85.7239 26.869C85.4311 26.869 85.1774 26.812 84.9627 26.6958C84.748 26.5795 84.5962 26.3844 84.5051 26.1058L83.1171 21.1844H74.724L73.3707 26.1058C73.3035 26.3822 73.1517 26.5795 72.9131 26.6958C72.6767 26.812 72.41 26.869 72.1172 26.869H72.1215ZM75.5395 18.2368H82.3081L78.9249 6.34764L75.5416 18.2368H75.5395Z" fill="#0F2137"/>
<path d="M97.9085 27.0774C96.5552 27.0774 95.3082 26.823 94.1696 26.3142C93.031 25.8054 92.1223 24.9851 91.4456 23.8535C90.769 22.7218 90.4307 21.2195 90.4307 19.3465V9.25799C90.4307 7.38503 90.769 5.88272 91.4456 4.75105C92.1223 3.61937 93.0353 2.79913 94.1869 2.29032C95.3364 1.78151 96.5899 1.5271 97.9432 1.5271C99.5004 1.5271 100.847 1.79905 101.988 2.34076C103.127 2.88467 104.018 3.62376 104.662 4.55805C105.304 5.49453 105.627 6.57576 105.627 7.79954C105.627 8.58469 105.48 9.10008 105.187 9.34133C104.894 9.58477 104.443 9.7054 103.834 9.7054C103.291 9.7054 102.864 9.6067 102.547 9.41151C102.231 9.21632 102.062 8.90928 102.04 8.49258C102.018 8.19211 101.96 7.83463 101.871 7.41793C101.78 7.00123 101.606 6.59111 101.346 6.18757C101.086 5.78402 100.698 5.44847 100.179 5.1831C99.6609 4.91773 98.9495 4.78394 98.0473 4.78394C96.7396 4.78394 95.7354 5.14801 95.0349 5.87614C94.3344 6.60427 93.9852 7.73155 93.9852 9.2558V19.3443C93.9852 20.8686 94.3409 21.9959 95.0523 22.724C95.7636 23.4521 96.7959 23.8162 98.1493 23.8162C99.0059 23.8162 99.6891 23.6824 100.197 23.417C100.704 23.1517 101.081 22.8161 101.331 22.4126C101.578 22.009 101.747 21.5814 101.838 21.1296C101.927 20.6778 101.997 20.2698 102.042 19.8992C102.064 19.4606 102.24 19.1491 102.567 18.9627C102.894 18.7785 103.307 18.6864 103.803 18.6864C104.434 18.6864 104.896 18.8136 105.191 19.068C105.484 19.3224 105.631 19.8312 105.631 20.5922C105.631 21.8402 105.31 22.9543 104.666 23.9368C104.024 24.9193 103.127 25.687 101.977 26.2418C100.828 26.7967 99.4722 27.073 97.9172 27.073L97.9085 27.0774Z" fill="#0F2137"/>
<path d="M109.413 26.869C109.097 26.869 108.759 26.7989 108.399 26.6607C108.036 26.5225 107.744 26.3427 107.518 26.1234C107.292 25.9041 107.18 25.6431 107.18 25.3426C107.18 25.2724 107.191 25.1693 107.214 25.0312L113.948 2.56663C114.083 2.14993 114.371 1.8385 114.812 1.63015C115.252 1.4218 115.72 1.31873 116.217 1.31873C116.714 1.31873 117.214 1.4218 117.655 1.63015C118.095 1.8385 118.381 2.14993 118.518 2.56663L125.217 25.0312C125.263 25.1693 125.284 25.2746 125.284 25.3426C125.284 25.6189 125.165 25.8755 124.929 26.1058C124.692 26.3383 124.397 26.5225 124.048 26.6607C123.699 26.7989 123.354 26.869 123.016 26.869C122.723 26.869 122.469 26.812 122.255 26.6958C122.04 26.5795 121.888 26.3844 121.797 26.1058L120.409 21.1844H112.016L110.663 26.1058C110.595 26.3822 110.444 26.5795 110.205 26.6958C109.969 26.812 109.702 26.869 109.409 26.869H109.413ZM112.831 18.2368H119.6L116.217 6.34764L112.834 18.2368H112.831Z" fill="#0F2137"/>
<path d="M135.267 27.0774C133.846 27.0774 132.565 26.823 131.426 26.3142C130.287 25.8054 129.383 24.9851 128.719 23.8535C128.054 22.7218 127.722 21.2195 127.722 19.3465V9.25799C127.722 7.38503 128.054 5.88272 128.719 4.75105C129.385 3.61937 130.287 2.79913 131.426 2.29032C132.565 1.78151 133.857 1.5271 135.301 1.5271C136.746 1.5271 138.008 1.78151 139.16 2.29032C140.309 2.79913 141.224 3.61937 141.901 4.75105C142.578 5.88272 142.916 7.38503 142.916 9.25799V19.3465C142.916 21.2173 142.578 22.7218 141.901 23.8535C141.224 24.9851 140.311 25.8076 139.16 26.3142C138.008 26.823 136.711 27.0774 135.269 27.0774H135.267ZM135.267 23.8184C136.529 23.8184 137.522 23.4543 138.244 22.7262C138.967 21.9981 139.327 20.8708 139.327 19.3465V9.25799C139.327 7.73374 138.971 6.60646 138.26 5.87833C137.548 5.1502 136.562 4.78614 135.299 4.78614C134.037 4.78614 133.048 5.1502 132.339 5.87833C131.628 6.60646 131.272 7.73374 131.272 9.25799V19.3465C131.272 20.8708 131.621 21.9981 132.322 22.7262C133.02 23.4543 134.002 23.8184 135.267 23.8184Z" fill="#0F2137"/>
<path d="M32.8844 25.6957L25.7644 2.01613C25.6494 1.57311 25.374 1.22221 24.9598 1.00289C24.6106 0.816474 24.2202 0.722168 23.8017 0.722168C23.4091 0.722168 23.0404 0.809894 22.7021 0.980961C22.3031 1.18492 22.0168 1.53802 21.878 2.00078L14.7233 25.6803C14.6799 25.8141 14.6582 25.9611 14.6582 26.1212C14.6582 26.4633 14.784 26.7835 15.0247 27.0489C15.2242 27.2704 15.4758 27.4414 15.7664 27.5555C16.3975 27.8077 17.0135 27.7616 17.4646 27.4985C17.753 27.3318 17.9677 27.0554 18.0892 26.6826L19.5336 21.7458H28.0698L29.5207 26.7023C29.6356 27.0554 29.8503 27.3318 30.1388 27.4985C30.3925 27.6476 30.6679 27.7222 30.9607 27.7222C31.2752 27.7222 31.5788 27.6564 31.8607 27.5292C32.1427 27.3998 32.3856 27.2265 32.5786 27.0138C32.8172 26.7484 32.9451 26.4282 32.9451 26.0861C32.9451 25.9523 32.9234 25.8185 32.8844 25.6957ZM27.122 18.5109H20.4488L23.7995 7.2205L27.122 18.5109Z" fill="#0F2137"/>
<path d="M15.2398 4.34091H10.1346V26.1914C10.1346 26.7068 9.90252 27.1366 9.48395 27.402C9.14779 27.6147 8.77911 27.7222 8.38873 27.7222C7.97016 27.7222 7.59063 27.6103 7.26315 27.3932C6.8641 27.1278 6.64289 26.7024 6.64289 26.1914V4.34091H1.50511C1.03016 4.34091 0.633276 4.13914 0.355675 3.75314C0.119281 3.42636 0 3.05133 0 2.63682C0 2.22231 0.119281 1.84728 0.357844 1.51831C0.633276 1.13451 1.03016 0.930542 1.50511 0.930542H15.2398C15.7451 0.930542 16.1615 1.15205 16.4109 1.55559C16.6105 1.87579 16.7102 2.22889 16.7102 2.60173C16.7102 2.99431 16.6126 3.36056 16.4174 3.68954C16.1702 4.11063 15.7516 4.34091 15.2398 4.34091Z" fill="#0F2137"/>
<path d="M50.6515 2.42628V26.1914C50.6515 26.7068 50.4216 27.1366 50.003 27.402C49.6668 27.6147 49.2981 27.7222 48.9078 27.7222C48.4263 27.7222 47.973 27.5204 47.5978 27.1366C47.2877 26.8208 47.0361 26.4545 46.8475 26.0444L38.4934 9.45536V26.1914C38.4934 26.7068 38.2635 27.1366 37.845 27.402C37.5088 27.6147 37.1401 27.7222 36.7476 27.7222C36.329 27.7222 35.9517 27.6103 35.622 27.3932C35.223 27.1278 35.0039 26.7024 35.0039 26.1914V2.42628C35.0039 1.6828 35.416 1.34066 35.6632 1.20249C35.982 1.02265 36.3485 0.930542 36.7476 0.930542C37.1466 0.930542 37.5175 1.04897 37.8298 1.27706C38.0835 1.46567 38.3221 1.70692 38.5411 2.0008C38.7472 2.27714 38.9293 2.58857 39.0833 2.92632L47.1619 19.1382V2.42628C47.1619 1.90869 47.3896 1.48322 47.8017 1.231C48.1249 1.03143 48.4979 0.930542 48.9078 0.930542C49.2895 0.930542 49.6517 1.02923 49.9856 1.22443C50.4151 1.47664 50.6515 1.90211 50.6515 2.42628Z" fill="#0F2137"/>
<path d="M187.887 6.82349C186.48 5.97913 184.419 6.2752 182.088 7.65689C181.899 7.76875 181.713 7.88718 181.526 8.00999C181.63 8.24466 181.73 8.47933 181.828 8.71619C182.038 8.57583 182.251 8.43985 182.463 8.31265C183.433 7.73804 184.387 7.35204 185.222 7.19414C184.658 7.51215 184.046 7.95078 183.398 8.50784C182.99 8.85655 182.583 9.24036 182.186 9.6439C182.283 9.90708 182.374 10.1724 182.463 10.4378C182.921 9.95752 183.4 9.49915 183.877 9.08903C185.241 7.92007 186.417 7.30599 187.141 7.3652L183.359 13.9337C183.431 14.3395 183.489 14.7386 183.535 15.129L187.783 7.7512C188.187 8.36748 188.234 9.71189 187.896 11.4971C187.523 13.4775 186.734 15.708 185.888 17.1796C185.194 18.3858 184.281 19.3684 183.292 19.9912C183.211 20.3356 183.114 20.6755 183.005 21.0089C183.092 20.9694 183.179 20.9277 183.264 20.8817C184.519 20.2171 185.68 19.0394 186.53 17.5634C187.417 16.0238 188.241 13.6991 188.629 11.6397C188.79 10.7887 188.868 10.0299 188.865 9.37414C189.139 10.1966 189.271 11.2339 189.251 12.3766C189.215 14.5083 188.638 16.9011 187.814 18.3332C186.766 20.1535 184.884 21.169 182.951 21.1755C182.864 21.4321 182.771 21.6865 182.669 21.9366C183.294 21.9629 183.925 21.8949 184.547 21.7282C186.202 21.2896 187.59 20.2193 188.456 18.717C189.353 17.1599 189.956 14.675 189.995 12.3897C190.043 9.6417 189.293 7.66347 187.885 6.81911L187.887 6.82349Z" fill="#0F2137"/>
<path d="M158.907 21.18C156.974 21.1712 155.092 20.1558 154.044 18.3376C153.22 16.9077 152.643 14.5128 152.607 12.381C152.587 11.2384 152.722 10.201 152.993 9.37858C152.99 10.0343 153.069 10.7932 153.229 11.6441C153.617 13.7035 154.441 16.0282 155.328 17.5678C156.179 19.0438 157.339 20.2238 158.595 20.8861C158.681 20.9322 158.768 20.9738 158.853 21.0133C158.744 20.6777 158.649 20.34 158.566 19.9957C157.575 19.3706 156.664 18.3881 155.97 17.184C155.122 15.7124 154.335 13.482 153.962 11.5016C153.626 9.71633 153.674 8.37192 154.075 7.75564L158.323 15.1334C158.369 14.7431 158.428 14.3439 158.499 13.9382L154.717 7.36965C155.441 7.31043 156.614 7.92452 157.981 9.09347C158.458 9.5014 158.937 9.95977 159.395 10.4423C159.484 10.1769 159.575 9.91152 159.672 9.64834C159.276 9.2448 158.868 8.861 158.46 8.51228C157.809 7.95522 157.198 7.51439 156.636 7.19858C157.473 7.35649 158.425 7.74248 159.395 8.31709C159.607 8.4421 159.82 8.57808 160.03 8.72063C160.128 8.48377 160.228 8.24691 160.332 8.01444C160.145 7.89162 159.959 7.77319 159.77 7.66134C157.439 6.28184 155.38 5.98576 153.971 6.82794C152.563 7.6723 151.813 9.64834 151.861 12.3986C151.9 14.6838 152.505 17.1687 153.4 18.7258C154.266 20.2281 155.654 21.2984 157.308 21.737C157.931 21.9015 158.562 21.9695 159.187 21.9454C159.085 21.6954 158.991 21.441 158.905 21.1844L158.907 21.18Z" fill="#0F2137"/>
<path d="M177.9 7.44195C175.888 3.8035 173.413 1.79895 170.93 1.79895C168.449 1.79895 165.972 3.8035 163.96 7.44195C162.285 10.4685 161.203 14.1969 161.203 16.9427C161.203 19.5921 162.214 22.0835 164.051 23.9565C165.888 25.8294 168.33 26.8624 170.928 26.8624C173.526 26.8624 175.968 25.8316 177.805 23.9565C179.642 22.0835 180.652 19.5921 180.652 16.9427C180.652 14.1969 179.57 10.4685 177.896 7.44195H177.9ZM170.364 3.09949V25.654C169.234 25.4434 168.176 24.6056 167.334 23.2415C166.302 21.5681 165.734 19.3311 165.734 16.9449C165.734 14.3526 166.384 10.8106 167.388 7.92006C168.295 5.31678 169.371 3.59076 170.364 3.09949ZM171.496 25.654V3.09949C172.489 3.59076 173.565 5.31459 174.472 7.92006C175.478 10.8085 176.126 14.3526 176.126 16.9449C176.126 19.3333 175.558 21.5681 174.526 23.2415C173.684 24.6056 172.624 25.4434 171.496 25.654ZM162.337 16.9449C162.337 14.4228 163.387 10.8326 164.946 8.01217C165.784 6.49889 166.742 5.24441 167.718 4.38249C167.219 5.24002 166.751 6.29712 166.319 7.53626C165.274 10.5387 164.597 14.2342 164.597 16.9471C164.597 19.5504 165.228 22.0045 166.373 23.86C166.566 24.1736 166.772 24.4653 166.987 24.7328C164.226 23.2744 162.335 20.3312 162.335 16.9471L162.337 16.9449ZM174.873 24.7306C175.087 24.4631 175.293 24.1714 175.487 23.8578C176.632 22.0023 177.263 19.5482 177.263 16.9449C177.263 14.232 176.588 10.5365 175.541 7.53407C175.109 6.29493 174.641 5.23783 174.142 4.3803C175.12 5.24221 176.079 6.4967 176.914 8.00998C178.475 10.8326 179.523 14.4228 179.523 16.9427C179.523 20.3268 177.631 23.2678 174.871 24.7284L174.873 24.7306Z" fill="#0F2137"/>
</g>
<defs>
<clipPath id="clip0_1152_9976">
<rect width="190" height="27" fill="white" transform="translate(0 0.722168)"/>
</clipPath>
</defs>
</svg>
