<svg width="234" height="83" viewBox="0 0 234 83" fill="none" xmlns="http://www.w3.org/2000/svg">
<g clip-path="url(#clip0_104_120)">
<path d="M0 17.755V53.2749L30.7361 71.0416L61.4721 53.2749V17.755L30.7361 0.00012207L0 17.755ZM2.7296 20.7178L28.04 35.4942L17.8914 41.4198L2.7296 32.5532V20.7178ZM2.7296 35.7174L15.2328 42.9999L2.7296 50.2606V35.7174ZM4.19407 52.5697L17.8914 44.5722L28.04 50.4364L14.3901 58.4478L4.19407 52.5697ZM29.3762 67.111L17.1078 60.0654L29.3762 52.8994V67.111ZM29.3762 48.1254L20.5993 42.9999L29.3762 37.8742V48.1254ZM29.3762 33.1259L4.25328 18.4464L29.3762 3.94062V33.1259ZM47.0821 58.4557L33.442 50.4938L43.5906 44.6294L57.2782 52.6269L47.0821 58.4557ZM58.7998 50.2468L46.2848 42.9999L58.7525 35.7292L58.7998 50.2468ZM58.7998 32.5392L43.5906 41.4158L33.442 35.4902L58.7525 20.7257L58.7998 32.5392ZM32.1078 3.94062L57.2189 18.4464L32.1078 33.1161V3.94062ZM32.1078 37.8664L40.8847 42.992L32.1078 48.082V37.8664ZM32.1078 52.8541L44.3643 60.0201L32.1078 67.0557V52.8541Z" fill="white"/>
<path d="M91.5174 53.1247H83.3148L70.4248 19.1239H79.6813L87.5326 43.221H87.73L95.5595 19.104H104.638L91.5174 53.1247Z" fill="white"/>
<path d="M107.405 53.1227V19.114H115.608V53.1227H107.405Z" fill="white"/>
<path d="M149.17 43.225C149.23 44.8591 148.849 46.4791 148.069 47.9162C147.358 49.1584 146.352 50.2058 145.14 50.9658C143.87 51.7629 142.466 52.323 140.995 52.619C139.425 52.963 137.823 53.1358 136.215 53.1345H122.676V19.1259H136.209C137.567 19.1322 138.92 19.2699 140.251 19.5367C141.567 19.7887 142.831 20.2607 143.989 20.9332C145.21 21.6172 146.213 22.6311 146.884 23.8588C147.556 25.0866 147.869 26.4786 147.787 27.8758C147.858 29.5739 147.313 31.2401 146.251 32.567C145.18 33.8059 143.778 34.7131 142.209 35.1821V35.2868C143.155 35.4392 144.071 35.7356 144.927 36.1658C145.755 36.5843 146.501 37.1483 147.13 37.8308C147.769 38.5114 148.274 39.3069 148.618 40.1754C149.006 41.1443 149.193 42.1818 149.169 43.225H149.17ZM139.867 28.9523C139.899 28.4511 139.792 27.9505 139.558 27.5059C139.325 27.0612 138.973 26.6897 138.542 26.4321C137.329 25.8299 135.98 25.5575 134.628 25.6419H130.59V32.6775H135.007C136.249 32.746 137.48 32.4174 138.522 31.7393C138.963 31.4278 139.316 31.0091 139.55 30.5229C139.784 30.0366 139.89 29.4989 139.859 28.9603L139.867 28.9523ZM140.968 42.4508C141.027 41.8668 140.914 41.2784 140.643 40.7576C140.372 40.2369 139.956 39.8066 139.444 39.5195C138.117 38.9208 136.669 38.6394 135.215 38.698H130.655V46.4841H135.26C135.927 46.4804 136.593 46.4257 137.251 46.3202C137.902 46.2171 138.534 46.0173 139.126 45.7276C139.732 45.4385 140.234 44.9691 140.563 44.3835C140.893 43.798 141.033 43.1252 140.966 42.4567L140.968 42.4508Z" fill="white"/>
<path d="M190.03 35.9662C190.071 38.5072 189.605 41.0311 188.657 43.3889C187.782 45.5417 186.465 47.4869 184.792 49.0992C183.108 50.7124 181.114 51.9651 178.931 52.781C176.566 53.6557 174.06 54.0928 171.538 54.0707C169.026 54.094 166.532 53.6568 164.179 52.781C161.994 51.9674 160 50.7143 158.319 49.0992C156.645 47.4869 155.328 45.5417 154.452 43.3889C153.502 41.0474 153.028 38.5404 153.057 36.0136C153.021 33.4861 153.495 30.9776 154.452 28.6384C155.328 26.5207 156.647 24.6154 158.32 23.0505C160.017 21.4958 162.011 20.2992 164.18 19.5327C166.538 18.6803 169.031 18.2555 171.538 18.2785C174.057 18.2565 176.56 18.6812 178.931 19.5327C181.102 20.3009 183.097 21.4971 184.798 23.0505C186.471 24.6173 187.789 26.5247 188.663 28.6443C189.606 30.9711 190.073 33.4636 190.036 35.9741L190.03 35.9662ZM181.24 35.9662C181.255 34.5582 181.012 33.1593 180.526 31.8382C180.085 30.6198 179.408 29.5002 178.534 28.5435C177.668 27.6197 176.618 26.8853 175.454 26.3865C174.204 25.8487 172.853 25.5795 171.492 25.5966C170.139 25.5794 168.797 25.8485 167.556 26.3865C166.38 26.8946 165.322 27.6418 164.451 28.5805C163.579 29.5195 162.913 30.6295 162.492 31.8401C161.561 34.557 161.561 37.5078 162.492 40.2247C162.936 41.4525 163.613 42.5832 164.484 43.5549C165.347 44.4875 166.398 45.2278 167.565 45.7276C168.813 46.2465 170.152 46.5136 171.503 46.5136C172.853 46.5136 174.192 46.2465 175.441 45.7276C176.605 45.2183 177.65 44.4716 178.511 43.5351C179.402 42.5712 180.091 41.439 180.538 40.205C181.023 38.845 181.261 37.4098 181.245 35.9662H181.24Z" fill="white"/>
<path d="M221.667 35.0992L232.522 53.4526V19.0212L221.667 35.0992Z" fill="white"/>
<path d="M223.203 19.0212H213.543L207.296 29.6101L200.967 19.0212H190.944L202.028 35.0992L190.944 53.2868V53.4507H200.634L207.066 41.078L213.078 53.4507H223.203L212.347 35.0972L223.203 19.0212Z" fill="white"/>
<path d="M75.4946 77.0716H82.8493V74.7402H78.3826V72.9868H82.6953V70.6554H78.3826V69.0369H82.8301V66.7055H75.4946V77.0716ZM89.0031 77.0716H91.7178V76.8404C91.737 76.0697 91.8141 74.2392 91.8718 73.0639L91.9873 70.9637C91.9873 70.771 91.9873 70.559 91.9873 70.3471C91.9873 69.9232 91.9681 69.5957 91.9103 68.902H92.0451C92.2569 69.9617 92.2761 70.0388 92.9307 71.8885C93.2003 72.6785 93.7586 74.4126 94.0282 75.2797L94.471 76.7055L94.6058 77.0716H97.2049L97.3205 76.7055L97.7633 75.2797C98.0521 74.3355 98.4564 73.1409 98.88 71.8885C99.5153 70.0195 99.5346 69.8847 99.7271 68.902H99.8811C99.8234 69.5957 99.8041 69.9232 99.8041 70.3471C99.8041 70.5783 99.8041 70.771 99.8041 70.9637L99.9196 73.0639C99.9582 73.9695 100.054 76.0311 100.074 76.8404V77.0716H102.904L102.885 76.5513C102.865 76.1467 102.827 75.7036 102.808 75.2989C102.788 74.6438 102.769 74.4511 102.75 73.9887C102.711 73.3721 102.615 72.1968 102.538 71.06C102.48 70.2508 102.442 69.9232 102.423 69.5379L102.192 67.0523L102.153 66.6669H99.4961C98.2446 66.6669 98.0328 66.8596 97.436 68.5359C97.282 68.9598 96.9739 70.0003 96.7044 70.8866C96.3 72.2546 96.1268 73.218 96.0113 74.9328C95.8572 72.8905 95.6839 72.0619 94.9523 69.7113C94.7598 69.114 94.6443 68.7864 94.5673 68.5359L94.394 68.112C93.9512 66.8982 93.6624 66.6669 92.5072 66.6669H89.754L89.7155 67.0523L89.4844 69.5379C89.4074 70.3664 89.3111 71.7151 89.2149 73.0253C89.1379 74.3355 89.0801 75.4916 89.0223 76.5513L89.0031 77.0716ZM112.256 77.0716V73.7768C112.699 73.796 112.949 73.8153 113.2 73.8153C116.145 73.8153 117.782 72.5051 117.782 70.193C117.782 68.9791 117.301 67.9964 116.415 67.4184C115.529 66.8211 114.451 66.5899 112.564 66.5899C111.64 66.5899 110.62 66.6284 109.638 66.6862L109.368 66.7055V77.0716H112.256ZM112.256 68.8635C112.583 68.8249 112.776 68.7864 112.988 68.7864C114.278 68.7864 114.913 69.2681 114.913 70.2122C114.913 71.1371 114.239 71.6188 112.93 71.6188C112.757 71.6188 112.603 71.6188 112.256 71.561V68.8635ZM123.879 77.0716H126.767V73.2951C127.075 73.3143 127.23 73.3143 127.384 73.3143C127.48 73.3143 127.576 73.3143 127.73 73.3143C128.038 73.796 128.288 74.1621 128.674 74.7016C129.078 75.2797 129.713 76.1275 130.002 76.4935L130.329 76.8982C130.349 76.9367 130.406 76.9752 130.483 77.0716H134.026L133.91 76.9752C133.005 76.0697 132.101 74.9907 130.618 73.0446L130.426 72.7941C130.907 72.5244 131.119 72.4088 131.35 72.1775C131.966 71.6188 132.293 70.8481 132.293 69.9425C132.293 68.7671 131.735 67.7652 130.791 67.245C129.963 66.7825 128.905 66.5899 127.249 66.5899C126.459 66.5899 125.42 66.6284 124.13 66.6862L123.879 66.7055V77.0716ZM126.767 68.7864C127.095 68.7864 127.326 68.7864 127.576 68.7864C128.808 68.7864 129.424 69.2103 129.424 70.0388C129.424 70.8288 128.808 71.2142 127.518 71.2142C127.364 71.2142 127.133 71.2142 126.902 71.2142L126.767 71.1949V68.7864ZM139.143 77.0716H146.498V74.7402H142.031V72.9868H146.344V70.6554H142.031V69.0369H146.478V66.7055H139.143V77.0716ZM152.592 76.4743C153.631 77.033 154.748 77.3028 156.077 77.3028C158.772 77.3028 160.312 76.1082 160.312 74.0465C160.312 73.0831 159.966 72.351 159.273 71.8115C158.791 71.4068 158.194 71.0985 156.904 70.6169C155.826 70.2315 155.614 70.0773 155.614 69.6535C155.614 69.1332 156.192 68.8249 157.174 68.8249C158.117 68.8249 158.791 69.0176 159.735 69.5379L159.985 69.6727V67.245C158.907 66.7055 157.963 66.4935 156.789 66.4935C154.228 66.4935 152.611 67.7074 152.611 69.6342C152.611 71.0985 153.323 71.8885 155.383 72.7556L156.558 73.2565C157.078 73.4878 157.309 73.7575 157.309 74.1621C157.309 74.7016 156.77 74.9714 155.73 74.9714C154.69 74.9714 153.497 74.6053 152.592 73.9695V76.4743ZM165.056 77.0716H167.925L168.021 76.8211C168.213 76.2431 168.348 75.8577 168.541 75.376L168.637 75.1448H172.622L172.68 75.3567L172.853 75.8577L173.161 76.8211L173.258 77.0716H176.281L176.126 76.5899C175.664 75.2411 174.971 73.2951 174.355 71.6959C173.758 70.0774 173.142 68.5552 172.507 67.033L172.353 66.6669H169.33L169.176 67.0138C168.29 68.9984 167.848 70.0195 167.174 71.6188C166.346 73.6034 165.691 75.3182 165.21 76.6477L165.056 77.0716ZM169.446 72.8134C169.523 72.6207 169.58 72.4666 169.6 72.3895L170.1 71.0215L170.351 70.27L170.601 69.5957C170.639 69.4993 170.678 69.3837 170.736 69.2103C170.851 69.5571 170.87 69.6149 171.063 70.193C171.101 70.3664 171.198 70.6554 171.332 71.0407C171.506 71.6188 171.66 72.0812 171.775 72.4473L171.891 72.8134H169.446ZM181.925 77.0716H184.813V73.2951C185.121 73.3143 185.275 73.3143 185.429 73.3143C185.525 73.3143 185.621 73.3143 185.775 73.3143C186.083 73.796 186.334 74.1621 186.719 74.7016C187.123 75.2797 187.758 76.1275 188.047 76.4935L188.374 76.8982C188.394 76.9367 188.451 76.9752 188.528 77.0716H192.071L191.956 76.9752C191.051 76.0697 190.146 74.9907 188.663 73.0446L188.471 72.7941C188.952 72.5244 189.164 72.4088 189.395 72.1775C190.011 71.6188 190.338 70.8481 190.338 69.9425C190.338 68.7671 189.78 67.7652 188.837 67.245C188.009 66.7825 186.95 66.5899 185.294 66.5899C184.505 66.5899 183.465 66.6284 182.175 66.6862L181.925 66.7055V77.0716ZM184.813 68.7864C185.14 68.7864 185.371 68.7864 185.621 68.7864C186.853 68.7864 187.47 69.2103 187.47 70.0388C187.47 70.8288 186.853 71.2142 185.563 71.2142C185.409 71.2142 185.178 71.2142 184.947 71.2142L184.813 71.1949V68.7864ZM197.188 77.0716H200.076V66.6669H197.188V77.0716ZM205.488 77.0716H208.356L208.453 76.8211C208.645 76.2431 208.78 75.8577 208.972 75.376L209.069 75.1448H213.054L213.112 75.3567L213.285 75.8577L213.593 76.8211L213.689 77.0716H216.712L216.558 76.5899C216.096 75.2411 215.403 73.2951 214.787 71.6959C214.19 70.0774 213.574 68.5552 212.939 67.033L212.785 66.6669H209.762L209.608 67.0138C208.722 68.9984 208.279 70.0195 207.605 71.6188C206.778 73.6034 206.123 75.3182 205.642 76.6477L205.488 77.0716ZM209.877 72.8134C209.954 72.6207 210.012 72.4666 210.031 72.3895L210.532 71.0215L210.782 70.27L211.032 69.5957C211.071 69.4993 211.109 69.3837 211.167 69.2103C211.283 69.5571 211.302 69.6149 211.495 70.193C211.533 70.3664 211.629 70.6554 211.764 71.0407C211.937 71.6188 212.091 72.0812 212.207 72.4473L212.322 72.8134H209.877ZM222.356 77.0716H229.788V74.6246H225.244V66.6669H222.356V77.0716Z" fill="white"/>
</g>
<defs>
<clipPath id="clip0_104_120">
<rect width="234" height="83" fill="white" transform="translate(0 0.00012207)"/>
</clipPath>
</defs>
</svg>
