<svg width="70" height="40" viewBox="0 0 70 40" fill="none" xmlns="http://www.w3.org/2000/svg">
<g clip-path="url(#clip0_21_83)">
<path d="M19.9539 14.5273C19.9539 15.3504 20.0452 16.0178 20.2049 16.5072C20.3874 16.9967 20.6155 17.5306 20.9349 18.109C21.049 18.287 21.0946 18.465 21.0946 18.6207C21.0946 18.8432 20.9578 19.0656 20.6612 19.2881L19.2239 20.2225C19.0185 20.356 18.8132 20.4227 18.6307 20.4227C18.4026 20.4227 18.1744 20.3115 17.9463 20.1112C17.6269 19.7775 17.3531 19.4216 17.125 19.0656C16.8968 18.6874 16.6687 18.2647 16.4177 17.7531C14.6382 19.7998 12.4024 20.8231 9.71033 20.8231C7.79393 20.8231 6.26538 20.2892 5.14748 19.2214C4.02958 18.1535 3.45923 16.7297 3.45923 14.95C3.45923 13.059 4.14366 11.5239 5.53532 10.3671C6.92699 9.21024 8.77495 8.63182 11.1248 8.63182C11.9005 8.63182 12.699 8.69856 13.5431 8.80979C14.3872 8.92103 15.2542 9.099 16.1668 9.29923V7.6752C16.1668 5.98443 15.8017 4.80534 15.0945 4.11569C14.3644 3.42603 13.1325 3.09233 11.3758 3.09233C10.5773 3.09233 9.75596 3.18131 8.91183 3.38154C8.0677 3.58176 7.24639 3.82648 6.44789 4.13793C6.08287 4.29366 5.8091 4.38265 5.6494 4.42714C5.4897 4.47164 5.37562 4.49388 5.28437 4.49388C4.96497 4.49388 4.80527 4.27142 4.80527 3.80423V2.71413C4.80527 2.35818 4.8509 2.09121 4.96497 1.93548C5.07904 1.77976 5.28437 1.62403 5.60377 1.4683C6.40227 1.06785 7.36046 0.734149 8.47836 0.467186C9.59626 0.177976 10.7826 0.0444939 12.0374 0.0444939C14.7523 0.0444939 16.7371 0.645161 18.0147 1.8465C19.2695 3.04783 19.9083 4.87208 19.9083 7.31925V14.5273H19.9539ZM10.6913 17.9088C11.4442 17.9088 12.2199 17.7753 13.0412 17.5084C13.8625 17.2414 14.5926 16.752 15.2086 16.0845C15.5736 15.6619 15.8474 15.1947 15.9842 14.6607C16.1211 14.1268 16.2124 13.4817 16.2124 12.7253V11.7909C15.5508 11.6352 14.8435 11.5017 14.1135 11.4127C13.3834 11.3237 12.6762 11.2792 11.9689 11.2792C10.4404 11.2792 9.32249 11.5684 8.56962 12.1691C7.81675 12.7698 7.45172 13.6151 7.45172 14.7275C7.45172 15.7731 7.72549 16.5517 8.29585 17.0857C8.84339 17.6418 9.64189 17.9088 10.6913 17.9088ZM29.0112 20.3115C28.6005 20.3115 28.3267 20.2447 28.1442 20.089C27.9617 19.9555 27.802 19.6441 27.6651 19.2214L22.3038 2.02447C22.1669 1.57953 22.0985 1.29032 22.0985 1.13459C22.0985 0.778643 22.281 0.578421 22.646 0.578421H24.8818C25.3153 0.578421 25.6119 0.645162 25.7716 0.80089C25.9541 0.934372 26.091 1.24583 26.2278 1.66852L30.0606 16.396L33.6196 1.66852C33.7337 1.22358 33.8706 0.934372 34.0531 0.80089C34.2356 0.667409 34.555 0.578421 34.9657 0.578421H36.7908C37.2243 0.578421 37.5209 0.645162 37.7034 0.80089C37.8859 0.934372 38.0456 1.24583 38.1369 1.66852L41.7415 16.574L45.6884 1.66852C45.8253 1.22358 45.985 0.934372 46.1447 0.80089C46.3272 0.667409 46.6238 0.578421 47.0344 0.578421H49.1561C49.5212 0.578421 49.7265 0.756396 49.7265 1.13459C49.7265 1.24583 49.7037 1.35706 49.6809 1.49055C49.6581 1.62403 49.6124 1.802 49.5212 2.04672L44.0229 19.2436C43.8861 19.6886 43.7264 19.9778 43.5438 20.1112C43.3613 20.2447 43.0647 20.3337 42.6769 20.3337H40.7149C40.2814 20.3337 39.9848 20.267 39.8023 20.1112C39.6198 19.9555 39.4601 19.6663 39.3688 19.2214L35.8326 4.87208L32.3192 19.1991C32.2052 19.6441 32.0683 19.9333 31.8858 20.089C31.7033 20.2447 31.3839 20.3115 30.9732 20.3115H29.0112ZM58.3275 20.9121C57.1411 20.9121 55.9548 20.7787 54.8141 20.5117C53.6734 20.2447 52.7836 19.9555 52.1904 19.6218C51.8254 19.4216 51.5745 19.1991 51.4832 18.9989C51.3919 18.7987 51.3463 18.5762 51.3463 18.376V17.2414C51.3463 16.7742 51.5288 16.5517 51.871 16.5517C52.0079 16.5517 52.1448 16.574 52.2817 16.6185C52.4186 16.663 52.6239 16.752 52.8521 16.8409C53.6277 17.1747 54.4719 17.4416 55.3616 17.6196C56.2742 17.7976 57.1639 17.8866 58.0765 17.8866C59.5138 17.8866 60.6317 17.6418 61.4074 17.1524C62.1831 16.663 62.5937 15.9511 62.5937 15.0389C62.5937 14.416 62.3884 13.9043 61.9777 13.4817C61.5671 13.059 60.7914 12.6808 59.6735 12.3248L56.3654 11.3237C54.7 10.812 53.468 10.0556 52.7152 9.05451C51.9623 8.07564 51.5745 6.98554 51.5745 5.8287C51.5745 4.89433 51.7798 4.07119 52.1904 3.35929C52.6011 2.64739 53.1486 2.02447 53.8331 1.53504C54.5175 1.02336 55.2932 0.645162 56.2057 0.378198C57.1183 0.111235 58.0765 0 59.0803 0C59.5823 0 60.107 0.0222469 60.6089 0.0889878C61.1336 0.155729 61.6127 0.244716 62.0918 0.333704C62.5481 0.444939 62.9816 0.556174 63.3922 0.689656C63.8029 0.823137 64.1223 0.956619 64.3504 1.0901C64.6698 1.26808 64.898 1.44605 65.0349 1.64627C65.1717 1.82425 65.2402 2.06897 65.2402 2.38042V3.42603C65.2402 3.89322 65.0577 4.13793 64.7155 4.13793C64.5329 4.13793 64.2364 4.04895 63.8485 3.87097C62.5481 3.29255 61.088 3.00334 59.4682 3.00334C58.1678 3.00334 57.1411 3.20356 56.4339 3.62625C55.7266 4.04895 55.3616 4.69411 55.3616 5.60623C55.3616 6.22915 55.5898 6.76307 56.046 7.18577C56.5023 7.60846 57.3465 8.03115 58.5556 8.40935L61.7952 9.41046C63.4379 9.92214 64.6242 10.634 65.3314 11.5462C66.0387 12.4583 66.3809 13.5039 66.3809 14.6607C66.3809 15.6174 66.1756 16.485 65.7877 17.2414C65.3771 17.9978 64.8295 18.6652 64.1223 19.1991C63.415 19.7553 62.5709 20.1557 61.5899 20.445C60.5633 20.7564 59.491 20.9121 58.3275 20.9121Z" fill="#252F3E"/>
<path fill-rule="evenodd" clip-rule="evenodd" d="M62.6395 31.7239C55.1336 37.1299 44.2284 39.9998 34.8517 39.9998C21.7107 39.9998 9.87012 35.2612 0.926936 27.3858C0.219695 26.7629 0.858494 25.9175 1.70262 26.4069C11.3759 31.8797 23.3077 35.1945 35.6502 35.1945C43.9774 35.1945 53.1259 33.5037 61.5444 30.0332C62.7992 29.477 63.8714 30.8341 62.6395 31.7239Z" fill="#FF9900"/>
<path fill-rule="evenodd" clip-rule="evenodd" d="M65.7651 28.2535C64.8069 27.0522 59.4227 27.6751 56.9816 27.9643C56.2515 28.0533 56.1375 27.4304 56.7991 26.9632C61.0881 24.0266 68.1377 24.872 68.9591 25.8509C69.7804 26.852 68.7309 33.7263 64.7156 37.0188C64.0996 37.5305 63.5065 37.2635 63.7802 36.5961C64.6928 34.3937 66.7233 29.4326 65.7651 28.2535Z" fill="#FF9900"/>
</g>
<defs>
<clipPath id="clip0_21_83">
<rect width="70" height="40" fill="white"/>
</clipPath>
</defs>
</svg>
