<svg width="42" height="24" viewBox="0 0 42 24" fill="none" xmlns="http://www.w3.org/2000/svg">
<g clip-path="url(#clip0)">
<path d="M11.9724 8.71636C11.9724 9.21024 12.0272 9.61069 12.123 9.90434C12.2325 10.198 12.3694 10.5184 12.561 10.8654C12.6295 10.9722 12.6569 11.079 12.6569 11.1724C12.6569 11.3059 12.5747 11.4394 12.3968 11.5729L11.5344 12.1335C11.4112 12.2136 11.288 12.2536 11.1785 12.2536C11.0416 12.2536 10.9047 12.1869 10.7678 12.0667C10.5762 11.8665 10.4119 11.653 10.2751 11.4394C10.1382 11.2125 10.0013 10.9588 9.85071 10.6518C8.78301 11.8799 7.44153 12.4939 5.82628 12.4939C4.67645 12.4939 3.75931 12.1735 3.08857 11.5328C2.41784 10.8921 2.07562 10.0378 2.07562 8.96997C2.07562 7.83538 2.48628 6.91435 3.32128 6.22025C4.15628 5.52614 5.26505 5.17909 6.67497 5.17909C7.14038 5.17909 7.61948 5.21914 8.12596 5.28588C8.63243 5.35262 9.1526 5.4594 9.70014 5.57954V4.60512C9.70014 3.59066 9.48112 2.88321 9.05678 2.46941C8.61875 2.05562 7.87956 1.8554 6.82555 1.8554C6.34645 1.8554 5.85366 1.90879 5.34718 2.02892C4.84071 2.14906 4.34792 2.29589 3.86882 2.48276C3.6498 2.5762 3.48554 2.62959 3.38972 2.65629C3.2939 2.68298 3.22546 2.69633 3.17071 2.69633C2.97907 2.69633 2.88325 2.56285 2.88325 2.28254V1.62848C2.88325 1.41491 2.91062 1.25473 2.97907 1.16129C3.04751 1.06785 3.17071 0.974417 3.36235 0.880979C3.84144 0.640712 4.41636 0.44049 5.0871 0.280312C5.75784 0.106785 6.46964 0.0266963 7.22251 0.0266963C8.85145 0.0266963 10.0424 0.387097 10.8089 1.1079C11.5618 1.8287 11.9451 2.92325 11.9451 4.39155V8.71636H11.9724ZM6.41489 10.7453C6.86661 10.7453 7.33202 10.6652 7.82481 10.505C8.3176 10.3448 8.75563 10.0512 9.12522 9.65073C9.34424 9.39711 9.5085 9.1168 9.59063 8.79645C9.67276 8.47609 9.72752 8.08899 9.72752 7.63515V7.07453C9.33055 6.98109 8.9062 6.90101 8.46817 6.84761C8.03014 6.79422 7.60579 6.76752 7.18145 6.76752C6.26432 6.76752 5.59358 6.94105 5.14186 7.30145C4.69013 7.66185 4.47112 8.16908 4.47112 8.83649C4.47112 9.46385 4.63538 9.93104 4.97759 10.2514C5.30612 10.5851 5.78522 10.7453 6.41489 10.7453ZM17.4068 12.1869C17.1604 12.1869 16.9961 12.1468 16.8866 12.0534C16.7771 11.9733 16.6813 11.7864 16.5992 11.5328L13.3824 1.21468C13.3002 0.94772 13.2592 0.774194 13.2592 0.680757C13.2592 0.467186 13.3687 0.347052 13.5877 0.347052H14.9292C15.1892 0.347052 15.3672 0.387097 15.463 0.480534C15.5725 0.560623 15.6547 0.747498 15.7368 1.00111L18.0365 9.8376L20.1719 1.00111C20.2403 0.73415 20.3224 0.560623 20.432 0.480534C20.5415 0.400445 20.7331 0.347052 20.9795 0.347052H22.0746C22.3347 0.347052 22.5126 0.387097 22.6221 0.480534C22.7316 0.560623 22.8275 0.747498 22.8822 1.00111L25.045 9.94439L27.4131 1.00111C27.4952 0.73415 27.5911 0.560623 27.6869 0.480534C27.7964 0.400445 27.9743 0.347052 28.2207 0.347052H29.4938C29.7128 0.347052 29.836 0.453838 29.836 0.680757C29.836 0.747498 29.8223 0.814239 29.8086 0.894328C29.7949 0.974417 29.7675 1.0812 29.7128 1.22803L26.4138 11.5462C26.3317 11.8131 26.2359 11.9867 26.1264 12.0667C26.0169 12.1468 25.8389 12.2002 25.6062 12.2002H24.429C24.1689 12.2002 23.991 12.1602 23.8815 12.0667C23.772 11.9733 23.6761 11.7998 23.6214 11.5328L21.4997 2.92325L19.3916 11.5195C19.3232 11.7864 19.2411 11.96 19.1315 12.0534C19.022 12.1468 18.8304 12.1869 18.584 12.1869H17.4068ZM34.9966 12.5473C34.2848 12.5473 33.573 12.4672 32.8885 12.307C32.2041 12.1468 31.6702 11.9733 31.3143 11.7731C31.0953 11.653 30.9448 11.5195 30.89 11.3993C30.8352 11.2792 30.8079 11.1457 30.8079 11.0256V10.3448C30.8079 10.0645 30.9174 9.93104 31.1227 9.93104C31.2048 9.93104 31.287 9.94439 31.3691 9.97109C31.4512 9.99778 31.5744 10.0512 31.7113 10.1046C32.1767 10.3048 32.6832 10.465 33.2171 10.5718C33.7646 10.6785 34.2985 10.7319 34.846 10.7319C35.7084 10.7319 36.3791 10.5851 36.8445 10.2914C37.3099 9.99778 37.5563 9.57064 37.5563 9.02336C37.5563 8.64962 37.4331 8.34261 37.1867 8.08899C36.9403 7.83538 36.4749 7.60846 35.8042 7.39489L33.8194 6.79422C32.8201 6.48721 32.0809 6.03337 31.6292 5.43271C31.1775 4.84539 30.9448 4.19133 30.9448 3.49722C30.9448 2.9366 31.068 2.44272 31.3143 2.01557C31.5607 1.58843 31.8893 1.21468 32.2999 0.921024C32.7106 0.614016 33.176 0.387097 33.7235 0.226919C34.2711 0.0667408 34.846 0 35.4483 0C35.7494 0 36.0643 0.0133482 36.3654 0.0533927C36.6803 0.0934372 36.9677 0.14683 37.2552 0.200223C37.5289 0.266963 37.789 0.333704 38.0354 0.413793C38.2818 0.493882 38.4735 0.573971 38.6103 0.65406C38.802 0.760846 38.9389 0.867631 39.021 0.987765C39.1031 1.09455 39.1442 1.24138 39.1442 1.42825V2.05562C39.1442 2.33593 39.0347 2.48276 38.8294 2.48276C38.7198 2.48276 38.5419 2.42937 38.3092 2.32258C37.5289 1.97553 36.6529 1.802 35.681 1.802C34.9007 1.802 34.2848 1.92214 33.8604 2.17575C33.4361 2.42937 33.2171 2.81646 33.2171 3.36374C33.2171 3.73749 33.3539 4.05785 33.6277 4.31146C33.9015 4.56508 34.408 4.81869 35.1334 5.04561L37.0772 5.64628C38.0628 5.95329 38.7746 6.38043 39.1989 6.9277C39.6233 7.47498 39.8286 8.10234 39.8286 8.79645C39.8286 9.37042 39.7054 9.891 39.4727 10.3448C39.2263 10.7987 38.8978 11.1991 38.4735 11.5195C38.0491 11.8532 37.5426 12.0934 36.954 12.267C36.338 12.4538 35.6947 12.5473 34.9966 12.5473Z" fill="#252F3E"/>
<path fill-rule="evenodd" clip-rule="evenodd" d="M37.5836 19.0343C33.0801 22.2779 26.537 23.9998 20.911 23.9998C13.0264 23.9998 5.92202 21.1566 0.556113 16.4314C0.131768 16.0576 0.515047 15.5504 1.02152 15.8441C6.82547 19.1277 13.9846 21.1166 21.3901 21.1166C26.3864 21.1166 31.8755 20.1021 36.9266 18.0198C37.6794 17.6861 38.3228 18.5003 37.5836 19.0343Z" fill="#FF9900"/>
<path fill-rule="evenodd" clip-rule="evenodd" d="M39.459 16.9521C38.884 16.2313 35.6535 16.605 34.1889 16.7785C33.7508 16.8319 33.6824 16.4582 34.0794 16.1779C36.6528 14.4159 40.8826 14.9231 41.3753 15.5105C41.8681 16.1111 41.2385 20.2357 38.8293 22.2112C38.4597 22.5182 38.1038 22.3581 38.268 21.9576C38.8156 20.6362 40.0339 17.6595 39.459 16.9521Z" fill="#FF9900"/>
</g>
<defs>
<clipPath id="clip0">
<rect width="42" height="24" fill="white"/>
</clipPath>
</defs>
</svg>
