<svg width="70" height="58" viewBox="0 0 70 58" fill="none" xmlns="http://www.w3.org/2000/svg">
<path fill-rule="evenodd" clip-rule="evenodd" d="M14.5392 0.00756836C10.5451 0.00756836 7.58967 3.64286 7.72201 7.58524C7.84902 11.3728 7.684 16.2782 6.49646 20.2786C5.30469 24.2902 3.29055 26.8324 0 27.1587V30.8426C3.29055 31.1696 5.30469 33.7105 6.49633 37.7226C7.684 41.723 7.84889 46.6285 7.72187 50.416C7.58953 54.3578 10.545 57.9937 14.5398 57.9937H55.4661C59.4602 57.9937 62.4151 54.3584 62.2828 50.416C62.1558 46.6285 62.3208 41.723 63.5083 37.7226C64.7001 33.7105 66.7093 31.1686 70 30.8426V27.1587C66.7094 26.8317 64.7002 24.2908 63.5083 20.2786C62.3206 16.2788 62.1558 11.3728 62.2828 7.58524C62.4151 3.64343 59.4602 0.00756836 55.4661 0.00756836H14.5387H14.5392ZM47.4577 35.7018C47.4577 41.1303 43.5638 44.4226 37.1018 44.4226H26.1017C25.787 44.4226 25.4852 44.2926 25.2627 44.0612C25.0402 43.8298 24.9152 43.516 24.9152 43.1888V14.8126C24.9152 14.4854 25.0402 14.1716 25.2627 13.9402C25.4852 13.7088 25.787 13.5789 26.1017 13.5789H37.0392C42.4274 13.5789 45.9636 16.6139 45.9636 21.2737C45.9636 24.5443 43.5847 27.4723 40.5541 27.9853V28.1559C44.6797 28.6264 47.4577 31.5978 47.4577 35.7018ZM35.9023 17.4898H29.6302V26.7025H34.9129C38.9967 26.7025 41.2485 24.9924 41.2485 21.9359C41.248 19.0715 39.3121 17.4898 35.9023 17.4898ZM29.6302 30.3578V40.5103H36.1331C40.3851 40.5103 42.6372 38.7362 42.6372 35.402C42.6372 32.0678 40.3219 30.3572 35.8597 30.3572H29.6302V30.3578Z" fill="#7952B3"/>
</svg>
