<svg width="42" height="35" viewBox="0 0 42 35" fill="none" xmlns="http://www.w3.org/2000/svg">
<g clip-path="url(#clip0)">
<path fill-rule="evenodd" clip-rule="evenodd" d="M8.72353 0.0045166C6.32707 0.0045166 4.5538 2.19823 4.63321 4.57725C4.70941 6.86285 4.6104 9.82303 3.89788 12.2371C3.18281 14.6579 1.97433 16.1919 0 16.3888V18.6119C1.97433 18.8092 3.18281 20.3425 3.8978 22.7636C4.6104 25.1776 4.70933 28.1378 4.63312 30.4234C4.55372 32.8021 6.32699 34.9962 8.72386 34.9962H33.2797C35.6761 34.9962 37.4491 32.8024 37.3697 30.4234C37.2935 28.1378 37.3925 25.1776 38.105 22.7636C38.8201 20.3425 40.0256 18.8086 42 18.6119V16.3888C40.0257 16.1915 38.8201 14.6582 38.105 12.2371C37.3924 9.82337 37.2935 6.86285 37.3697 4.57725C37.4491 2.19857 35.6761 0.0045166 33.2797 0.0045166H8.7232H8.72353ZM28.4746 21.5442C28.4746 24.82 26.1383 26.8067 22.2611 26.8067H15.661C15.4722 26.8067 15.2911 26.7282 15.1576 26.5886C15.0241 26.449 14.9491 26.2596 14.9491 26.0622V8.93859C14.9491 8.74114 15.0241 8.55177 15.1576 8.41215C15.2911 8.27253 15.4722 8.19409 15.661 8.19409H22.2235C25.4564 8.19409 27.5782 10.0256 27.5782 12.8375C27.5782 14.8112 26.1508 16.5781 24.3324 16.8876V16.9906C26.8078 17.2745 28.4746 19.0676 28.4746 21.5442ZM21.5414 10.5542H17.7781V16.1135H20.9477C23.398 16.1135 24.7491 15.0816 24.7491 13.2371C24.7488 11.5086 23.5873 10.5542 21.5414 10.5542ZM17.7781 18.3193V24.4458H21.6799C24.231 24.4458 25.5823 23.3752 25.5823 21.3632C25.5823 19.3512 24.1931 18.319 21.5158 18.319H17.7781V18.3193Z" fill="#7952B3"/>
</g>
<defs>
<clipPath id="clip0">
<rect width="42" height="35" fill="white"/>
</clipPath>
</defs>
</svg>
