<svg width="53" height="53" viewBox="0 0 53 53" fill="none" xmlns="http://www.w3.org/2000/svg">
<path d="M23.411 6.625H29.978V36.7174C27.1748 37.2927 24.3215 37.5895 21.4599 37.6035C13.4403 37.5952 9.2666 34.0127 9.2666 27.1327C9.2666 20.5077 13.6938 16.2014 20.5556 16.2014C21.518 16.1827 22.4785 16.2941 23.411 16.5327V6.625V6.625ZM23.411 21.7664C22.697 21.5309 21.9482 21.4189 21.1966 21.4352C17.8841 21.4352 15.9578 23.4608 15.9578 27.0101C15.9578 30.4667 17.7913 32.3747 21.1552 32.3747C21.9101 32.3745 22.6641 32.3192 23.411 32.2091V21.7747V21.7664Z" fill="#44B78B"/>
<path d="M40.4124 16.6602V31.7321C40.4124 36.9211 40.0232 39.4154 38.8837 41.5669C37.7208 43.7545 35.8191 45.4583 33.5175 46.375L27.4258 43.5047C29.6389 42.7469 31.4924 41.1955 32.6281 39.1504C33.5655 37.2937 33.862 35.1423 33.862 29.4829V16.6602H40.4124ZM33.8553 6.65808H40.4207V13.3295H33.8553V6.65808Z" fill="#44B78B"/>
</svg>
