<svg width="54" height="53" viewBox="0 0 54 53" fill="none" xmlns="http://www.w3.org/2000/svg">
<path fill-rule="evenodd" clip-rule="evenodd" d="M27 26.5C27 22.8411 30.0221 19.875 33.75 19.875C37.4779 19.875 40.5 22.8411 40.5 26.5C40.5 30.1589 37.4779 33.125 33.75 33.125C30.0221 33.125 27 30.1589 27 26.5Z" fill="#1ABCFE"/>
<path fill-rule="evenodd" clip-rule="evenodd" d="M13.5 39.75C13.5 36.0911 16.5221 33.125 20.25 33.125H27V39.75C27 43.4089 23.9779 46.375 20.25 46.375C16.5221 46.375 13.5 43.4089 13.5 39.75Z" fill="#0ACF83"/>
<path fill-rule="evenodd" clip-rule="evenodd" d="M27 6.625V19.875H33.75C37.4779 19.875 40.5 16.9089 40.5 13.25C40.5 9.59111 37.4779 6.625 33.75 6.625H27Z" fill="#FF7262"/>
<path fill-rule="evenodd" clip-rule="evenodd" d="M13.5 13.25C13.5 16.9089 16.5221 19.875 20.25 19.875H27V6.625H20.25C16.5221 6.625 13.5 9.59111 13.5 13.25Z" fill="#F24E1E"/>
<path fill-rule="evenodd" clip-rule="evenodd" d="M13.5 26.5C13.5 30.1589 16.5221 33.125 20.25 33.125H27V19.875H20.25C16.5221 19.875 13.5 22.8411 13.5 26.5Z" fill="#A259FF"/>
</svg>
