<svg width="35" height="33" viewBox="0 0 35 33" fill="none" xmlns="http://www.w3.org/2000/svg">
<path d="M17.4323 0C7.80596 0 0 7.56436 0 16.8958C0 24.3609 4.99488 30.6941 11.9213 32.9282C12.7925 33.0846 13.1124 32.5617 13.1124 32.1154C13.1124 31.7125 13.0962 30.3815 13.0888 28.9697C8.23895 29.9918 7.2156 26.9762 7.2156 26.9762C6.42264 25.0233 5.28008 24.5041 5.28008 24.5041C3.69852 23.4554 5.3993 23.4769 5.3993 23.4769C7.14984 23.5961 8.0716 25.2181 8.0716 25.2181C9.62637 27.8011 12.1496 27.0543 13.1444 26.6227C13.3008 25.5305 13.7527 24.7853 14.2512 24.3634C10.3793 23.936 6.30889 22.4873 6.30889 16.0134C6.30889 14.1688 6.98988 12.6615 8.1051 11.4783C7.92408 11.0527 7.32744 9.33431 8.27394 7.00702C8.27394 7.00702 9.73779 6.55291 13.0691 8.73894C14.4595 8.36446 15.9508 8.17683 17.4323 8.17047C18.9138 8.17683 20.4062 8.36446 21.7994 8.73894C25.1267 6.55291 26.5885 7.00702 26.5885 7.00702C27.5373 9.33431 26.9404 11.0527 26.7594 11.4783C27.8771 12.6615 28.5534 14.1687 28.5534 16.0134C28.5534 22.5027 24.4754 23.9317 20.5937 24.3499C21.2189 24.8742 21.776 25.9025 21.776 27.4787C21.776 29.7393 21.7558 31.5588 21.7558 32.1154C21.7558 32.565 22.0695 33.0919 22.9533 32.9259C29.8759 30.6893 34.8645 24.3583 34.8645 16.8958C34.8645 7.56436 27.0596 0 17.4323 0Z" fill="#161614"/>
<path d="M6.52904 24.0685C6.49075 24.1524 6.35431 24.1775 6.2303 24.12C6.10384 24.0649 6.03275 23.9504 6.07376 23.8661C6.11136 23.7797 6.2478 23.7556 6.374 23.8137C6.50073 23.8687 6.57292 23.9842 6.52904 24.0685ZM7.38654 24.81C7.30341 24.8847 7.14085 24.85 7.03052 24.732C6.9165 24.6142 6.89517 24.4567 6.97952 24.3808C7.06525 24.3062 7.22288 24.3411 7.33718 24.459C7.4512 24.5781 7.47335 24.7346 7.3864 24.8101L7.38654 24.81ZM7.97484 25.7588C7.86792 25.8307 7.6932 25.7633 7.58532 25.613C7.47855 25.4629 7.47855 25.2827 7.58765 25.2105C7.69593 25.1382 7.86792 25.2032 7.9773 25.3522C8.08394 25.505 8.08394 25.6852 7.9747 25.7589L7.97484 25.7588ZM8.9696 26.8577C8.87404 26.9597 8.6706 26.9324 8.52157 26.793C8.36927 26.6568 8.32675 26.4635 8.42259 26.3613C8.51925 26.259 8.72392 26.2878 8.87403 26.426C9.02538 26.5619 9.07159 26.7567 8.96974 26.8577H8.9696ZM10.2553 27.2287C10.2133 27.361 10.0173 27.4211 9.81985 27.3649C9.62271 27.307 9.49364 27.152 9.53343 27.0183C9.57445 26.8851 9.77132 26.8224 9.97025 26.8826C10.1671 26.9402 10.2965 27.0941 10.2554 27.2287H10.2553ZM11.7187 27.386C11.7237 27.5254 11.5562 27.641 11.3489 27.6435C11.1404 27.6478 10.9718 27.5351 10.9697 27.3981C10.9697 27.2573 11.1333 27.1429 11.3417 27.1395C11.5489 27.1356 11.7187 27.2475 11.7187 27.386ZM13.1562 27.3326C13.1811 27.4686 13.037 27.6082 12.8312 27.6453C12.6289 27.6811 12.4416 27.5972 12.4157 27.4625C12.3906 27.3231 12.5374 27.1835 12.7393 27.1474C12.9455 27.1126 13.13 27.1944 13.1562 27.3326Z" fill="#161614"/>
</svg>
