<svg width="58" height="55" viewBox="0 0 58 55" fill="none" xmlns="http://www.w3.org/2000/svg">
<path d="M28.8878 0C12.9356 0 0 12.6073 0 28.1596C0 40.6014 8.27723 51.1568 19.7553 54.8803C21.199 55.1409 21.7292 54.2695 21.7292 53.5256C21.7292 52.8542 21.7022 50.6358 21.69 48.2829C13.6531 49.9863 11.9573 44.9604 11.9573 44.9604C10.6432 41.7055 8.74984 40.8402 8.74984 40.8402C6.12897 39.0924 8.94741 39.1281 8.94741 39.1281C11.8483 39.3269 13.3758 42.0301 13.3758 42.0301C15.9523 46.3352 20.1337 45.0905 21.7822 44.3712C22.0414 42.5509 22.7901 41.3088 23.6162 40.6056C17.1999 39.8934 10.4547 37.4788 10.4547 26.6889C10.4547 23.6147 11.5832 21.1025 13.4313 19.1305C13.1313 18.4212 12.1426 15.5572 13.7111 11.6784C13.7111 11.6784 16.1369 10.9215 21.6573 14.5649C23.9615 13.9408 26.4328 13.628 28.8878 13.6174C31.3429 13.628 33.816 13.9408 36.1247 14.5649C41.6386 10.9215 44.061 11.6784 44.061 11.6784C45.6333 15.5572 44.6441 18.4212 44.3442 19.1305C46.1963 21.1025 47.3171 23.6145 47.3171 26.6889C47.3171 37.5045 40.5592 39.8861 34.1267 40.5831C35.1627 41.457 36.086 43.1708 36.086 45.7978C36.086 49.5656 36.0524 52.5981 36.0524 53.5256C36.0524 54.275 36.5724 55.1531 38.0369 54.8766C49.5087 51.1488 57.7755 40.5972 57.7755 28.1596C57.7755 12.6073 44.8417 0 28.8878 0Z" fill="#161614"/>
<path d="M10.8196 40.1141C10.7562 40.2539 10.5301 40.2959 10.3246 40.2C10.115 40.1081 9.9972 39.9173 10.0652 39.7769C10.1275 39.6329 10.3536 39.5927 10.5627 39.6894C10.7727 39.7811 10.8923 39.9736 10.8196 40.1141ZM12.2406 41.35C12.1029 41.4745 11.8335 41.4167 11.6507 41.2199C11.4617 41.0236 11.4264 40.7612 11.5661 40.6346C11.7082 40.5103 11.9694 40.5684 12.1588 40.7649C12.3478 40.9635 12.3845 41.2243 12.2404 41.3502L12.2406 41.35ZM13.2155 42.9313C13.0383 43.0512 12.7488 42.9388 12.57 42.6883C12.3931 42.4381 12.3931 42.1378 12.5739 42.0174C12.7533 41.897 13.0383 42.0052 13.2196 42.2537C13.3963 42.5083 13.3963 42.8087 13.2153 42.9315L13.2155 42.9313ZM14.864 44.7628C14.7056 44.9328 14.3685 44.8873 14.1215 44.655C13.8692 44.428 13.7987 44.1057 13.9575 43.9355C14.1177 43.765 14.4569 43.8129 14.7056 44.0432C14.9564 44.2698 15.033 44.5945 14.8642 44.7628H14.864ZM16.9946 45.3812C16.925 45.6016 16.6001 45.7018 16.273 45.6082C15.9463 45.5117 15.7324 45.2533 15.7983 45.0304C15.8663 44.8085 16.1925 44.704 16.5222 44.8043C16.8484 44.9004 17.0628 45.1568 16.9948 45.3812H16.9946ZM19.4197 45.6433C19.4279 45.8756 19.1503 46.0682 18.8069 46.0724C18.4613 46.0797 18.182 45.8918 18.1784 45.6634C18.1784 45.4289 18.4496 45.238 18.7948 45.2325C19.1383 45.2259 19.4197 45.4125 19.4197 45.6433ZM21.8018 45.5543C21.843 45.7809 21.6042 46.0137 21.2632 46.0755C20.9279 46.1351 20.6175 45.9953 20.5747 45.7707C20.533 45.5384 20.7764 45.3058 21.111 45.2456C21.4526 45.1877 21.7583 45.324 21.8018 45.5543Z" fill="#161614"/>
</svg>
