<svg width="53" height="42" viewBox="0 0 53 42" fill="none" xmlns="http://www.w3.org/2000/svg">
<g clip-path="url(#clip0_114_217)">
<path d="M35.2475 11.5845L39.8546 7.04746L40.1616 5.13707C31.7663 -2.38072 18.4208 -1.52828 10.8526 6.91575C8.75059 9.26103 7.19102 12.1849 6.35938 15.2042L8.00941 14.9753L17.2233 13.4788L17.9347 12.7625C22.0333 8.32969 28.9633 7.73333 33.6956 11.505L35.2475 11.5845V11.5845Z" fill="#EA4335"/>
<path d="M46.4174 15.0707C45.3585 11.2304 43.1843 7.77795 40.1615 5.13708L33.6955 11.5048C35.0431 12.5891 36.123 13.9607 36.8539 15.516C37.5848 17.0713 37.9474 18.7697 37.9146 20.4832V21.6135C41.0925 21.6135 43.6695 24.1509 43.6695 27.2807C43.6695 30.4107 41.0927 32.8844 37.9146 32.8844H26.389L25.2573 34.0943V40.8917L26.389 41.9582H37.9144C46.1812 42.0216 52.9351 35.5371 52.9995 27.3961C53.0187 24.9666 52.4279 22.57 51.2795 20.4197C50.1312 18.2694 48.4609 16.4319 46.4174 15.0707" fill="#4285F4"/>
<path d="M14.8793 41.9585H26.3888V32.8844H14.8793C14.0646 32.8843 13.2595 32.7106 12.5194 32.3751L10.8865 32.8685L6.24714 37.4055L5.84302 38.9498C8.44478 40.8844 11.6192 41.9723 14.8793 41.9585Z" fill="#34A853"/>
<path d="M14.8794 12.5235C6.61264 12.5723 -0.0490018 19.2115 0.000271588 27.3528C0.0138626 29.5962 0.547246 31.807 1.55979 33.8167C2.57232 35.8264 4.0373 37.582 5.84311 38.9497L12.5195 32.3753C9.62308 31.0863 8.33576 27.7296 9.64441 24.8772C10.9528 22.0249 14.3618 20.7572 17.258 22.0457C18.5343 22.6136 19.5565 23.6203 20.133 24.8772L26.8094 18.3024C25.4081 16.4983 23.6021 15.0379 21.5325 14.0354C19.4628 13.0329 17.1858 12.5154 14.8794 12.5235" fill="#FBBC05"/>
</g>
<defs>
<clipPath id="clip0_114_217">
<rect width="53" height="42" fill="white"/>
</clipPath>
</defs>
</svg>
