<svg width="35" height="39" viewBox="0 0 35 39" fill="none" xmlns="http://www.w3.org/2000/svg">
<g clip-path="url(#clip0)">
<path fill-rule="evenodd" clip-rule="evenodd" d="M20.8599 4.46622L28.9463 9.09024C29.1798 8.8456 29.4477 8.63563 29.7417 8.46684C31.4187 7.51198 33.5578 8.07891 34.532 9.7399C35.4961 11.4009 34.9237 13.5193 33.2465 14.484C32.9546 14.6505 32.6401 14.7745 32.3126 14.8523V24.1037C32.6365 24.1817 32.9476 24.3049 33.2365 24.4696C34.9237 25.4343 35.4961 27.5529 34.522 29.2139C33.5578 30.8747 31.4087 31.4416 29.7316 30.4869C29.4067 30.3023 29.114 30.067 28.8648 29.79L20.8277 34.3856C20.9454 34.7385 21.0052 35.1079 21.0047 35.4796C21.0047 37.3892 19.4382 38.9508 17.4999 38.9508C15.5617 38.9508 13.9952 37.3991 13.9952 35.4796C13.9952 35.1384 14.0446 34.8088 14.1369 34.4976L6.05276 29.8749C5.82186 30.1147 5.55772 30.3207 5.26826 30.4869C3.58115 31.4416 1.44205 30.8747 0.477912 29.2139C-0.486091 27.5529 0.08635 25.4343 1.76334 24.4696C2.05224 24.3048 2.36334 24.1816 2.68729 24.1036V14.8523C2.35976 14.7745 2.04524 14.6505 1.75336 14.484C0.0762328 13.5293 -0.496208 11.4009 0.467932 9.7399C1.43207 8.07891 3.58102 7.51198 5.25815 8.46684C5.5506 8.63473 5.81719 8.84335 6.04975 9.08631L14.1384 4.46108C14.0431 4.14056 13.9948 3.80812 13.9952 3.47399C13.9952 1.55465 15.5617 0.00292969 17.4999 0.00292969C19.4382 0.00292969 21.0047 1.55451 21.0047 3.47399C21.0047 3.819 20.9541 4.15195 20.8599 4.46622ZM20.0175 5.89093L28.1231 10.5258C27.9941 10.9726 27.957 11.4406 28.0143 11.9019C28.0715 12.3632 28.2218 12.8084 28.4563 13.211C28.9497 14.061 29.7535 14.6246 30.6456 14.8442V24.1071C30.6001 24.1181 30.5548 24.1301 30.5098 24.1429L19.9233 5.98369C19.9553 5.95335 19.9867 5.92248 20.0175 5.89107V5.89093ZM15.0788 5.98572L4.49238 24.1446C4.44661 24.1315 4.40057 24.1193 4.3543 24.1081V14.8442C5.24639 14.6246 6.05016 14.061 6.54358 13.211C6.77851 12.8076 6.92898 12.3615 6.98599 11.8993C7.043 11.437 7.00538 10.9682 6.87539 10.5206L14.9787 5.88714C15.0114 5.92059 15.0447 5.95349 15.0788 5.98558V5.98572ZM18.4793 6.80829L29.0632 24.9631C28.8208 25.1922 28.613 25.4548 28.4462 25.7427C28.2798 26.0288 28.1555 26.3369 28.0768 26.6577H6.92338C6.84459 26.3369 6.72012 26.0288 6.55369 25.7427C6.38635 25.4568 6.17894 25.1958 5.93764 24.9676L16.5236 6.8091C16.841 6.89961 17.1697 6.94537 17.4999 6.94505C17.84 6.94505 18.1685 6.89739 18.4793 6.80829ZM20.0919 33.1412L28.1449 28.5364C28.1207 28.4613 28.0992 28.3853 28.0802 28.3087H6.91887C6.90766 28.3538 6.89549 28.3985 6.8825 28.443L14.9749 33.0704C15.3017 32.7339 15.6938 32.4663 16.1278 32.2838C16.5617 32.1013 17.0285 32.0077 17.4999 32.0086C17.9879 32.0077 18.4706 32.1081 18.917 32.3031C19.3634 32.4982 19.7636 32.7837 20.0919 33.1412Z" fill="#E535AB"/>
</g>
<defs>
<clipPath id="clip0">
<rect width="35" height="39" fill="white"/>
</clipPath>
</defs>
</svg>
