<svg width="58" height="65" viewBox="0 0 58 65" fill="none" xmlns="http://www.w3.org/2000/svg">
<path fill-rule="evenodd" clip-rule="evenodd" d="M34.5678 7.44383L47.9681 15.1505C48.3549 14.7428 48.7989 14.3928 49.2862 14.1115C52.0652 12.5201 55.61 13.465 57.2243 16.2333C58.822 19.0016 57.8734 22.5322 55.0941 24.1402C54.6105 24.4176 54.0893 24.6243 53.5465 24.754V40.173C54.0833 40.3029 54.5989 40.5082 55.0776 40.7828C57.8734 42.3907 58.822 45.9216 57.2077 48.6899C55.61 51.458 52.0487 52.4028 49.2695 50.8116C48.731 50.5039 48.246 50.1117 47.833 49.6501L34.5143 57.3094C34.7094 57.8977 34.8085 58.5133 34.8077 59.1328C34.8077 62.3155 32.2118 64.9182 28.9998 64.9182C25.7878 64.9182 23.1919 62.332 23.1919 59.1328C23.1919 58.5641 23.2739 58.0149 23.4268 57.496L10.0302 49.7916C9.64756 50.1912 9.20984 50.5347 8.73017 50.8116C5.93439 52.4028 2.3896 51.458 0.791877 48.6899C-0.805615 45.9216 0.143002 42.3907 2.92202 40.7828C3.40076 40.5082 3.9163 40.3028 4.45313 40.1728V24.754C3.91037 24.6243 3.38916 24.4176 2.90548 24.1402C0.126236 22.5489 -0.822381 19.0016 0.775338 16.2333C2.37306 13.465 5.93417 12.5201 8.71341 14.1115C9.19805 14.3913 9.63982 14.739 10.0252 15.144L23.4293 7.43525C23.2713 6.90106 23.1913 6.34699 23.1919 5.7901C23.1919 2.5912 25.7878 0.00500488 28.9998 0.00500488C32.2118 0.00500488 34.8077 2.59098 34.8077 5.7901C34.8077 6.36511 34.7239 6.92004 34.5678 7.44383ZM33.1717 9.81835L46.6039 17.5431C46.3901 18.2878 46.3287 19.0678 46.4236 19.8366C46.5184 20.6054 46.7675 21.3474 47.1561 22.0184C47.9737 23.4352 49.3057 24.3744 50.784 24.7404V40.1787C50.7086 40.1969 50.6336 40.217 50.559 40.2382L33.0156 9.97293C33.0686 9.92238 33.1208 9.87093 33.1717 9.81857V9.81835ZM24.9876 9.97632L7.44443 40.2412C7.36858 40.2193 7.29228 40.199 7.2156 40.1802V24.7404C8.69392 24.3744 10.0259 23.4352 10.8435 22.0184C11.2329 21.3461 11.4822 20.6026 11.5767 19.8322C11.6712 19.0618 11.6088 18.2804 11.3934 17.5345L24.8218 9.81203C24.8759 9.86777 24.9312 9.9226 24.9876 9.97609V9.97632ZM30.6227 11.3473L48.1618 41.6054C47.76 41.9872 47.4157 42.4248 47.1393 42.9045C46.8637 43.3814 46.6575 43.8949 46.5271 44.4296H11.4729C11.3424 43.8949 11.1361 43.3814 10.8603 42.9045C10.583 42.4281 10.2393 41.9932 9.83942 41.6128L27.3819 11.3486C27.9079 11.4995 28.4525 11.5757 28.9998 11.5752C29.5633 11.5752 30.1077 11.4958 30.6227 11.3473ZM33.295 55.2355L46.64 47.5608C46.6 47.4355 46.5642 47.3089 46.5328 47.1813H11.4655C11.4469 47.2564 11.4267 47.3309 11.4052 47.4051L24.8154 55.1175C25.357 54.5566 26.0069 54.1106 26.726 53.8065C27.4451 53.5023 28.2186 53.3463 28.9998 53.3477C29.8084 53.3463 30.6083 53.5136 31.348 53.8387C32.0878 54.1638 32.751 54.6396 33.295 55.2355Z" fill="#E535AB"/>
</svg>
