<svg width="47" height="47" viewBox="0 0 47 47" fill="none" xmlns="http://www.w3.org/2000/svg">
<circle cx="23.5" cy="23.5" r="23.5" fill="#0769AD"/>
<path d="M34.4846 19.2449C36.5585 19.2449 38.4575 18.5532 39.9258 17.4059C38.4016 19.4143 35.8762 20.7274 33.0187 20.7274C28.3637 20.7274 24.5901 17.2428 24.5901 12.9442C24.5901 10.5609 25.7502 8.4277 27.5775 7C26.6186 8.26337 26.056 9.80187 26.056 11.4617C26.056 15.7602 29.8296 19.2449 34.4846 19.2449Z" fill="#78CFF5"/>
<path d="M39.8455 24.5867C37.6095 26.3407 34.7148 27.3987 31.5529 27.3987C24.4692 27.3987 18.7267 22.0887 18.7267 15.5386C18.7267 12.9981 19.5906 10.6442 21.0615 8.71425C18.2881 10.8897 16.528 14.136 16.528 17.7624C16.528 24.3125 22.2704 29.6224 29.3541 29.6224C33.6903 29.6224 37.524 27.6327 39.8455 24.5867Z" fill="#78CFF5"/>
<path d="M40 31.3706C36.8137 34.4112 32.3996 36.2937 27.5218 36.2937C17.807 36.2937 9.93169 28.8266 9.93169 19.6155C9.93169 16.6967 10.7224 13.9531 12.1119 11.5667C8.95231 14.5818 7 18.7356 7 23.3218C7 32.5329 14.8754 40 24.5901 40C31.2265 40 37.0045 36.5154 40 31.3706Z" fill="#78CFF5"/>
</svg>
