<svg width="53" height="53" viewBox="0 0 53 53" fill="none" xmlns="http://www.w3.org/2000/svg">
<rect x="3.3125" y="3.3125" width="46.375" height="46.375" fill="#FFCA28"/>
<path d="M31.4688 41.8827L34.8832 39.6234C35.1507 40.4641 36.8452 42.4607 38.9856 42.4607C41.126 42.4607 42.1197 41.2916 42.1197 40.5166C42.1197 38.4046 39.9341 37.6599 38.8844 37.3023C38.7133 37.244 38.5723 37.196 38.476 37.154C38.4266 37.1325 38.3518 37.1039 38.2559 37.0672C37.0884 36.6212 32.781 34.9755 32.781 30.2053C32.781 24.9511 37.8517 24.3469 38.9983 24.3469C39.7485 24.3469 43.3555 24.4389 45.1519 27.8147L41.8394 30.1265C41.1132 28.6553 39.9067 28.1693 39.1639 28.1693C37.3293 28.1693 36.9471 29.5143 36.9471 30.1265C36.9471 31.8444 38.9404 32.6144 40.6234 33.2645C41.0637 33.4346 41.4828 33.5965 41.8394 33.765C43.674 34.632 46.375 36.0506 46.375 40.5166C46.375 42.7536 44.4988 46.3751 39.7755 46.3751C33.4308 46.3751 31.749 42.5658 31.4688 41.8827Z" fill="#3E3E3E"/>
<path d="M14.9062 42.3314L18.465 40.0732C18.7438 40.9135 19.8274 42.4627 21.3996 42.4627C22.9718 42.4627 23.7765 40.8478 23.7765 40.0732V24.8438H28.1533V40.0732C28.2241 42.1738 27.0591 46.3751 21.9175 46.3751C17.1902 46.3751 15.2249 43.5655 14.9062 42.3314Z" fill="#3E3E3E"/>
</svg>
