<svg width="58" height="48" viewBox="0 0 58 48" fill="none" xmlns="http://www.w3.org/2000/svg">
<path d="M57.7939 22.4175C57.3801 21.9177 52.0697 13.8379 51.1732 12.5052C50.2076 11.1724 49.7939 11.4223 49.1732 11.5056C48.5525 11.5889 41.8628 13.005 41.1042 13.0883C40.3456 13.2548 39.8628 13.588 40.3456 14.421C40.7594 15.1707 45.1732 22.6674 46.1387 24.4166L28.5525 29.4977L14.6215 1.26012C14.0697 0.260558 13.9318 -0.0726284 12.6904 0.0106683C11.449 0.093965 1.7249 1.09353 1.03525 1.09353C0.345591 1.17682 -0.41303 1.51001 0.276625 3.50913C0.96628 5.50825 12.0008 34.1623 12.2766 34.9953C12.5525 35.8283 13.3801 37.161 15.2421 36.6612C17.1732 36.0781 23.7939 33.9957 27.449 32.8296C29.3801 36.9944 33.2421 45.4907 34.0008 46.7401C34.9663 48.4061 35.6559 48.0729 37.1042 47.5731C38.2766 47.1566 55.1732 39.8265 55.9318 39.41C56.6904 38.9935 57.1732 38.7436 56.6214 37.8274C56.2076 37.161 51.7938 29.9142 49.449 26.1658C51.0352 25.6661 56.7594 23.8335 57.3801 23.5836C58.0697 23.3337 58.2076 22.9173 57.7939 22.4175ZM25.8628 30.3307C25.6559 30.414 15.7939 33.2461 15.3111 33.4127C14.7594 33.5792 14.7594 33.4959 14.7594 33.2461C14.6214 32.9962 3.03525 4.00891 2.82835 3.67572C2.69042 3.34254 2.69042 3.00935 2.82835 3.00935C2.96628 3.00935 12.1387 2.00979 12.4146 2.00979C12.7594 2.00979 12.6904 2.09309 12.8283 2.34298C12.8283 2.34298 25.7249 29.2478 25.9318 29.6643C26.2077 30.0808 26.0697 30.2474 25.8628 30.3307ZM53.587 36.5779C53.7249 36.9111 53.9318 37.0777 53.3801 37.2443C52.8973 37.4942 36.7594 44.0746 36.4145 44.2412C36.0697 44.4078 35.8628 44.4911 35.449 43.7414C35.0352 42.9918 29.7939 32.0799 29.7939 32.0799L46.9663 26.6656C47.3801 26.499 47.518 26.4157 47.7939 26.9155C48.0697 27.4986 53.449 36.328 53.587 36.5779ZM54.6904 21.9177C54.2766 22.001 48.0007 23.9168 48.0007 23.9168L42.8283 15.4206C42.6904 15.1707 42.5525 14.9208 42.8973 14.8375C43.2421 14.7542 49.1042 13.5047 49.3801 13.4214C49.6559 13.3381 49.8628 13.2548 50.2076 13.8379C50.5525 14.3377 54.9663 21.168 55.1732 21.4179C55.3801 21.6678 55.1042 21.8344 54.6904 21.9177Z" fill="#FB503B"/>
</svg>
