<svg width="35" height="29" viewBox="0 0 35 29" fill="none" xmlns="http://www.w3.org/2000/svg">
<g clip-path="url(#clip0)">
<path d="M34.8757 13.5439C34.626 13.2419 31.4214 8.36039 30.8804 7.55519C30.2978 6.74999 30.0481 6.90097 29.6735 6.95129C29.299 7.00162 25.2621 7.85714 24.8043 7.90747C24.3465 8.00812 24.0552 8.20942 24.3465 8.71267C24.5962 9.1656 27.2597 13.6949 27.8424 14.7517L17.23 17.8215L8.82334 0.761304C8.49041 0.157403 8.40717 -0.0438975 7.65806 0.00642764C6.90896 0.0567527 1.04094 0.660654 0.624772 0.660654C0.2086 0.710979 -0.249188 0.912279 0.166983 2.12008C0.583154 3.32788 7.24189 20.6397 7.40836 21.143C7.57483 21.6462 8.07423 22.4514 9.1979 22.1495C10.3632 21.7972 14.3584 20.5391 16.5641 19.8345C17.7294 22.3508 20.06 27.4839 20.5178 28.2388C21.1004 29.2453 21.5166 29.044 22.3905 28.7421C23.098 28.4904 33.2942 24.0618 33.752 23.8102C34.2098 23.5586 34.5011 23.4076 34.1682 22.854C33.9185 22.4514 31.255 18.0731 29.84 15.8085C30.7972 15.5066 34.2514 14.3994 34.6259 14.2484C35.0421 14.0975 35.1254 13.8458 34.8757 13.5439ZM15.6069 18.3248C15.4821 18.3751 9.53083 20.0861 9.23951 20.1868C8.90658 20.2874 8.90658 20.2371 8.90658 20.0861C8.82334 19.9352 1.83167 2.42203 1.70682 2.22073C1.62358 2.01943 1.62358 1.81813 1.70682 1.81813C1.79005 1.81813 7.32513 1.21423 7.4916 1.21423C7.69968 1.21423 7.65806 1.26456 7.7413 1.41553C7.7413 1.41553 15.5237 17.6705 15.6485 17.9222C15.815 18.1738 15.7318 18.2744 15.6069 18.3248ZM32.337 22.0991C32.4202 22.3004 32.5451 22.4011 32.2122 22.5017C31.9208 22.6527 22.1824 26.6284 21.9743 26.7291C21.7663 26.8297 21.6414 26.88 21.3917 26.4271C21.142 25.9742 17.9791 19.3816 17.9791 19.3816L28.3418 16.1105C28.5915 16.0098 28.6747 15.9595 28.8412 16.2614C29.0076 16.6137 32.2538 21.9482 32.337 22.0991ZM33.0029 13.2419C32.7532 13.2923 28.966 14.4497 28.966 14.4497L25.8447 9.31657C25.7615 9.1656 25.6783 9.01462 25.8864 8.9643C26.0944 8.91397 29.6319 8.15909 29.7984 8.10877C29.9648 8.05844 30.0897 8.00812 30.2978 8.3604C30.5059 8.66235 33.1694 12.789 33.2942 12.94C33.4191 13.091 33.2526 13.1916 33.0029 13.2419Z" fill="#FB503B"/>
</g>
<defs>
<clipPath id="clip0">
<rect width="35" height="29" fill="white"/>
</clipPath>
</defs>
</svg>
