<svg width="72" height="43" viewBox="0 0 72 43" fill="none" xmlns="http://www.w3.org/2000/svg">
<path d="M16.9888 11.2148H30.5687V12.2834H18.2339V20.3252H29.8331V21.3938H18.2339V30.2229H30.7101V31.2916H16.9888V11.2148ZM31.7851 11.2148H33.2282L39.6221 20.044L46.1573 11.2148L55.0463 0L40.4426 20.972L47.968 31.2916H46.4684L39.6221 21.8999L32.7475 31.2916H31.2761L38.8581 20.972L31.7856 11.2148H31.7851ZM48.5057 12.2834V11.2148H63.9807V12.2834H56.8517V31.2911H55.6065V12.2834H48.5062H48.5057ZM0 11.2148H1.55618L23.0126 43L14.1455 31.2916L1.3012 12.7332L1.24465 31.2916H0V11.2148ZM63.8559 29.9003C63.6009 29.9003 63.4103 29.7053 63.4103 29.4534C63.4103 29.201 63.6009 29.006 63.8554 29.006C64.1128 29.006 64.3005 29.201 64.3005 29.4534C64.3005 29.7053 64.1128 29.9003 63.8554 29.9003H63.8559ZM65.0786 28.7238H65.7451C65.7543 29.0811 66.0181 29.321 66.4052 29.321C66.8381 29.321 67.0833 29.0633 67.0833 28.5798V25.519H67.7615V28.5827C67.7615 29.4534 67.253 29.9547 66.411 29.9547C65.6212 29.9547 65.0791 29.4683 65.0791 28.7238H65.0786ZM68.6483 28.6853H69.3206C69.3781 29.0961 69.7837 29.3571 70.3683 29.3571C70.9128 29.3571 71.3126 29.0778 71.3126 28.694C71.3126 28.3641 71.0586 28.1657 70.4799 28.0308L69.9168 27.896C69.127 27.713 68.7663 27.3345 68.7663 26.6983C68.7663 25.9268 69.402 25.4135 70.3556 25.4135C71.2429 25.4135 71.8913 25.9268 71.9303 26.6559H71.2702C71.2068 26.2572 70.8558 26.0077 70.3468 26.0077C69.8105 26.0077 69.4537 26.263 69.4537 26.6531C69.4537 26.9622 69.6838 27.1394 70.2532 27.2714L70.7344 27.3884C71.6305 27.5955 72 27.9557 72 28.6068C72 29.4351 71.3516 29.9547 70.3166 29.9547C69.3479 29.9547 68.6965 29.4592 68.6483 28.6848V28.6853Z" fill="black"/>
</svg>
