<svg width="43" height="26" viewBox="0 0 43 26" fill="none" xmlns="http://www.w3.org/2000/svg">
<path d="M10.1292 6.78106H18.226V7.4272H10.8716V12.2897H17.7874V12.9358H10.8716V18.2743H18.3103V18.9205H10.1292V6.78106ZM18.9512 6.78106H19.8116L23.6239 12.1196L27.5204 6.78106L32.8203 0L24.1131 12.6807L28.6 18.9205H27.7058L23.6239 13.2418L19.525 18.9205H18.6478L23.1684 12.6807L18.9515 6.78106H18.9512ZM28.9206 7.4272V6.78106H38.1472V7.4272H33.8967V18.9202H33.1543V7.4272H28.9209H28.9206ZM0 6.78106H0.92784L13.7208 26L8.43398 18.9205L0.775816 7.69916L0.742097 18.9205H0V6.78106ZM38.0728 18.0792C37.9208 18.0792 37.8071 17.9613 37.8071 17.809C37.8071 17.6564 37.9208 17.5385 38.0725 17.5385C38.226 17.5385 38.3379 17.6564 38.3379 17.809C38.3379 17.9613 38.226 18.0792 38.0725 18.0792H38.0728ZM38.8018 17.3679H39.1992C39.2047 17.5839 39.362 17.729 39.5928 17.729C39.8509 17.729 39.9971 17.5732 39.9971 17.2808V15.4301H40.4014V17.2826C40.4014 17.809 40.0982 18.1122 39.5962 18.1122C39.1254 18.1122 38.8021 17.8181 38.8021 17.3679H38.8018ZM40.9302 17.3446H41.331C41.3653 17.593 41.6072 17.7508 41.9557 17.7508C42.2804 17.7508 42.5187 17.5819 42.5187 17.3498C42.5187 17.1504 42.3673 17.0304 42.0222 16.9489L41.6865 16.8673C41.2156 16.7567 41.0005 16.5278 41.0005 16.1432C41.0005 15.6767 41.3796 15.3663 41.9481 15.3663C42.4771 15.3663 42.8637 15.6767 42.887 16.1175H42.4934C42.4556 15.8764 42.2463 15.7256 41.9429 15.7256C41.6231 15.7256 41.4104 15.8799 41.4104 16.1158C41.4104 16.3027 41.5476 16.4099 41.8871 16.4897L42.174 16.5604C42.7082 16.6856 42.9286 16.9035 42.9286 17.2971C42.9286 17.798 42.542 18.1122 41.9249 18.1122C41.3473 18.1122 40.9589 17.8125 40.9302 17.3443V17.3446Z" fill="black"/>
</svg>
