<svg width="53" height="53" viewBox="0 0 53 53" fill="none" xmlns="http://www.w3.org/2000/svg">
<path d="M28.4419 3.80726C27.2663 3.1461 25.7337 3.14907 24.5571 3.80726C18.6641 7.05938 12.771 10.3125 6.87701 13.5631C5.73011 14.1665 4.95656 15.3981 4.9689 16.6765V36.3262C4.96061 37.6295 5.77406 38.873 6.95053 39.4681C8.6435 40.3688 10.2883 41.3609 12.0119 42.2016C14.0028 43.1799 16.4936 43.3963 18.5089 42.376C20.1448 41.5304 20.8713 39.6498 20.8693 37.9215C20.8825 31.4366 20.8713 24.9515 20.8744 18.4666C20.9132 18.1784 20.6969 17.8703 20.3825 17.8773C19.6294 17.8654 18.8753 17.8703 18.1222 17.8753C17.8376 17.8484 17.5599 18.0847 17.5814 18.3708C17.5712 24.8139 17.5834 31.259 17.5753 37.7032C17.5917 38.5946 16.9895 39.4513 16.1304 39.7524C14.1464 40.4478 8.48328 36.7708 8.48328 36.7708C8.27545 36.6745 8.14348 36.4491 8.16385 36.2252C8.16385 29.7423 8.16486 23.2592 8.16385 16.7773C8.13529 16.516 8.29635 16.2806 8.53634 16.1739C14.4099 12.9409 20.2805 9.69989 26.154 6.46495C26.358 6.32879 26.6424 6.3292 26.846 6.46594C32.7196 9.69989 38.5911 12.938 44.4657 16.1711C44.7065 16.2776 44.8607 16.517 44.8362 16.7773C44.8352 23.2592 44.8382 29.7423 44.8341 36.2243C44.8516 36.4537 44.7331 36.676 44.5188 36.7767C38.7 39.9922 32.8151 43.1039 27.049 46.4127C26.7974 46.557 26.5125 46.7205 26.2306 46.5615C24.7143 45.7228 23.2163 44.8514 21.705 44.0046C21.5408 43.902 21.3315 43.8581 21.1602 43.9727C20.4824 44.3298 19.8452 44.619 19.0671 44.927C17.9742 45.3596 18.1489 45.5366 19.1344 46.1108C20.9019 47.111 22.6723 48.1073 24.4396 49.1085C25.6031 49.8346 27.1664 49.8863 28.3674 49.2152C34.2614 45.9673 40.1534 42.7153 46.0485 39.4673C47.2219 38.8689 48.0394 37.6303 48.0311 36.326V16.6765C48.0424 15.4241 47.2985 14.2144 46.1862 13.6021C40.2728 10.3341 34.3564 7.07325 28.4419 3.80726Z" fill="#8CC84B"/>
<path d="M37.3349 18.5603C35.0217 17.3228 32.2697 17.2569 29.6991 17.4186C27.842 17.6021 25.8887 18.1146 24.5356 19.4458C23.1479 20.7841 22.8459 22.9451 23.505 24.6923C23.9774 25.9267 25.1664 26.7296 26.3959 27.1542C27.9799 27.7133 29.6434 27.8862 31.3074 28.0592C32.8252 28.2169 34.3435 28.3747 35.8024 28.8257C36.3983 29.0232 37.0922 29.3253 37.2748 29.9736C37.4433 30.7414 37.2586 31.634 36.6351 32.1675C34.6548 33.7348 29.1465 33.4947 27.1899 32.2611C26.399 31.7356 26.0581 30.8052 25.9195 29.9187C25.9041 29.6424 25.6817 29.3891 25.3817 29.41C24.6306 29.4011 23.8795 29.4031 23.1284 29.409C22.8663 29.3871 22.5939 29.5735 22.5795 29.8409C22.4252 33.9015 26.1544 35.6717 29.6533 36.0616C31.6523 36.252 33.6951 36.2411 35.6636 35.8122C37.1433 35.4752 38.6269 34.8549 39.6455 33.7151C40.9016 32.33 41.1485 30.2677 40.5852 28.5424C40.1545 27.2551 38.9238 26.4293 37.6657 26.0045C35.9549 25.4178 33.9272 25.1025 32.3777 24.9549C30.1253 24.7404 27.4488 24.828 26.8113 23.348C26.5572 22.573 26.7735 21.6108 27.4857 21.1341C29.37 19.8559 33.2049 20.0257 35.1564 20.9805C36.0525 21.4293 36.5717 22.3507 36.786 23.2811C36.8257 23.5544 37.0096 23.8395 37.326 23.8276C38.0718 23.8425 38.8178 23.8316 39.5637 23.8326C39.8199 23.8506 40.1005 23.7059 40.1505 23.4436C40.1189 21.4991 39.1259 19.5087 37.3349 18.5603Z" fill="#8CC84B"/>
</svg>
