<svg width="52" height="38" viewBox="0 0 52 38" fill="none" xmlns="http://www.w3.org/2000/svg">
<path d="M29.6296 10.4659L27.8501 13.4886L21.7641 3.14868L3.08138 34.8862H15.7309C15.7309 36.5555 17.1105 37.9088 18.8123 37.9088H3.08138C1.98058 37.9088 0.96349 37.3324 0.413181 36.3973C-0.137129 35.4621 -0.137073 34.31 0.413329 33.3749L19.0961 1.63737C19.6465 0.702122 20.6638 0.125977 21.7648 0.125977C22.8657 0.125977 23.883 0.702122 24.4335 1.63737L29.6296 10.4659Z" fill="#00C58E"/>
<path d="M43.1162 33.3749L31.4092 13.4886L29.6296 10.4659L27.8501 13.4886L16.1443 33.3749C15.5939 34.31 15.5938 35.4621 16.1441 36.3973C16.6944 37.3324 17.7115 37.9088 18.8123 37.9088H40.4443C41.5453 37.9088 42.5629 37.3331 43.1135 36.3978C43.6641 35.4626 43.6642 34.3102 43.1137 33.3749H43.1162ZM18.8123 34.8862L29.6296 16.5112L40.4443 34.8862H18.8123L18.8123 34.8862Z" fill="#2F495E"/>
<path d="M51.4863 36.3975C50.936 37.3326 49.919 37.9088 48.8183 37.9088H40.4444C42.1462 37.9088 43.5258 36.5556 43.5258 34.8862H48.8119L33.8127 9.4043L31.4092 13.4886L29.6296 10.466L31.1447 7.89299C31.6951 6.95774 32.7124 6.38159 33.8134 6.38159C34.9143 6.38159 35.9316 6.95774 36.4821 7.89299L51.4863 33.3749C52.0368 34.3101 52.0368 35.4623 51.4863 36.3975Z" fill="#108775"/>
</svg>
