<svg width="31" height="23" viewBox="0 0 31 23" fill="none" xmlns="http://www.w3.org/2000/svg">
<path d="M17.6639 6.33457L16.603 8.16405L12.9748 1.9057L1.83703 21.1152H9.37807C9.37807 22.1256 10.2005 22.9447 11.2151 22.9447H1.83704C1.18079 22.9447 0.574448 22.5959 0.246379 22.0298C-0.0816899 21.4638 -0.0816565 20.7665 0.246468 20.2005L11.3843 0.990964C11.7124 0.424891 12.3189 0.0761719 12.9752 0.0761719C13.6316 0.0761719 14.238 0.424891 14.5662 0.990964L17.6639 6.33457Z" fill="#00C58E"/>
<path d="M25.704 20.2005L18.7248 8.16408L17.6639 6.33459L16.603 8.16408L9.62453 20.2005C9.29641 20.7665 9.29638 21.4638 9.62445 22.0299C9.95251 22.5959 10.5589 22.9448 11.2151 22.9448H24.1111C24.7675 22.9448 25.3741 22.5963 25.7023 22.0302C26.0306 21.4641 26.0306 20.7666 25.7024 20.2005H25.704ZM11.2151 21.1153L17.6639 9.99356L24.1111 21.1153H11.2151L11.2151 21.1153Z" fill="#2F495E"/>
<path d="M30.6938 22.03C30.3657 22.5959 29.7594 22.9447 29.1033 22.9447H24.1111C25.1257 22.9447 25.9481 22.1256 25.9481 21.1152H29.0994L20.1577 5.69196L18.7248 8.16404L17.6639 6.33456L18.5671 4.77722C18.8952 4.21115 19.5017 3.86243 20.158 3.86243C20.8144 3.86243 21.4208 4.21115 21.749 4.77722L30.6938 20.2005C31.022 20.7665 31.022 21.4639 30.6938 22.03Z" fill="#108775"/>
</svg>
