<svg width="35" height="35" viewBox="0 0 35 35" fill="none" xmlns="http://www.w3.org/2000/svg">
<g clip-path="url(#clip0)">
<path d="M29.3672 13.918C29.3125 12.7148 29.4766 11.6484 28.9297 10.7461C27.6172 8.50391 24.3359 7.19141 17.7734 7.19141V7.38281H17.6367H17.7734V7.19141C11.2109 7.19141 7.76563 8.50391 6.45313 10.7734C5.9336 11.7031 5.98829 12.7422 5.90625 13.9453C5.85157 14.9023 5.41407 15.9141 5.60547 17.0078C5.82422 18.4297 5.90625 19.8516 6.125 21.1641C6.28907 22.2305 7.76563 23.1328 7.90235 24.1445C8.28516 26.9336 11.1836 28.2187 17.7461 28.2187V28.4375H17.582H17.7734V28.2187C24.3359 28.2187 27.125 26.9336 27.4805 24.1445C27.6172 23.1055 28.9844 22.2305 29.1484 21.1641C29.3672 19.8516 29.4492 18.4297 29.668 17.0078C29.8594 15.9141 29.4219 14.875 29.3672 13.918Z" fill="#EFCCA3"/>
<path d="M17.6641 14.9023C18.8398 14.9297 19.6602 15.668 20.4258 16.3516C21.3281 17.1445 22.8594 17.6914 23.4883 18.375C24.1172 19.0586 24.9375 19.7422 25.2383 20.8086C25.5391 21.875 25.6211 23.2422 25.6211 23.5977C25.6211 23.9531 25.8125 23.8711 26.3594 23.5977C27.6445 22.9688 29.0664 21.2734 29.0664 21.2734C28.9023 22.3398 27.5078 23.2969 27.3711 24.3086C27.043 27.0977 24.3359 28.4375 17.6367 28.4375H17.6094H17.7734" fill="#CCAC8D"/>
<path d="M21.9844 12.7696C22.2305 13.6173 23.1055 16.4884 21.4102 15.5313C21.4102 15.5313 22.1211 15.9415 22.5586 17.5001C23.0234 19.0587 24.1445 19.2501 24.1445 19.2501C24.1445 19.2501 25.9766 19.6056 27.3437 18.4298C28.4922 17.4454 28.6836 15.6954 28.1914 14.3556C27.6992 13.0431 26.8242 12.6329 25.5391 12.3595C24.2539 12.0587 21.6836 11.8126 21.9844 12.7696Z" fill="#CCAC8D"/>
<path d="M25.2383 18.293C26.5672 18.293 27.6445 17.2157 27.6445 15.8867C27.6445 14.5578 26.5672 13.4805 25.2383 13.4805C23.9093 13.4805 22.832 14.5578 22.832 15.8867C22.832 17.2157 23.9093 18.293 25.2383 18.293Z" fill="black"/>
<path d="M24.6094 15.4492C24.9567 15.4492 25.2383 15.1676 25.2383 14.8203C25.2383 14.473 24.9567 14.1914 24.6094 14.1914C24.262 14.1914 23.9805 14.473 23.9805 14.8203C23.9805 15.1676 24.262 15.4492 24.6094 15.4492Z" fill="white"/>
<path d="M21.5742 15.7773C21.5742 15.7773 23.7344 17.2539 24.9102 18.7031C26.0859 20.1523 26.0586 20.4258 26.0586 20.4258L25.2109 20.8086C25.2109 20.8086 24.0078 18.5391 22.5313 17.6914C21.0273 16.8437 20.8633 16.1328 20.8633 16.1328L21.5742 15.7773Z" fill="#EFCCA3"/>
<path d="M17.7461 14.9023C16.5703 14.9297 15.6953 15.668 14.9023 16.3516C14 17.1445 12.4141 17.6914 11.7852 18.375C11.1562 19.0586 10.3086 19.7422 10.0078 20.8086C9.70703 21.875 9.59766 23.2422 9.59766 23.5977C9.59766 23.9531 9.65234 23.9805 8.85938 23.5977C7.57422 22.9961 6.15234 21.2734 6.15234 21.2734C6.31641 22.3398 7.71094 23.2969 7.84766 24.3086C8.23047 27.0977 10.9375 28.4375 17.6367 28.4375H17.7734" fill="#CCAC8D"/>
<path d="M24.0898 19.5234C22.7773 17.9102 20.6719 16.4062 17.7461 16.4062H17.7187C14.793 16.4062 12.6875 17.9102 11.375 19.5234C10.0078 21.1914 10.1172 21.8477 10.1172 23.4336C10.1172 29.1758 12.1406 27.5352 13.4805 28.2461C14.8477 28.9297 16.2695 28.7109 17.7187 28.7109H17.7461C19.2227 28.7109 20.6172 28.9023 21.9844 28.2187C23.3242 27.5352 25.3477 29.2305 25.3477 23.4883C25.375 21.9023 25.457 21.1914 24.0898 19.5234Z" fill="#56332B"/>
<path d="M17.6094 17.8281C17.6094 17.8281 17.418 20.4805 17.0352 21L17.7461 20.836L17.6094 17.8281Z" fill="#442823"/>
<path d="M17.8008 17.8281C17.8008 17.8281 17.9922 20.4805 18.375 21L17.6641 20.836L17.8008 17.8281Z" fill="#442823"/>
<path d="M15.5039 17.1992C15.2305 16.5703 16.2148 15.5586 17.7734 15.5312C19.332 15.5312 20.3164 16.543 20.043 17.1992C19.7695 17.8555 18.7852 18.0469 17.7734 18.0742C16.7891 18.0469 15.7773 17.8555 15.5039 17.1992Z" fill="#56332B"/>
<path d="M17.7734 17.8281C17.7734 17.7187 18.7031 17.6914 19.1953 17.3633C19.1953 17.3633 18.1836 17.6914 17.9648 17.5547C17.7461 17.4453 17.6914 17.1172 17.6914 17.1172C17.6914 17.1172 17.6094 17.4453 17.4453 17.5547C17.2539 17.6641 16.1055 17.3633 16.1055 17.3633C16.1055 17.3633 17.6367 17.7461 17.6367 17.8281C17.6367 17.9102 17.6094 18.1836 17.6094 18.375C17.6094 19.0586 17.6094 20.7539 17.7187 20.8906C17.8828 21.1367 17.8281 19.0586 17.8281 18.375C17.8008 18.1562 17.8008 17.9375 17.7734 17.8281Z" fill="black"/>
<path d="M17.8281 21.4922C18.293 21.4922 19.1133 21.8203 19.8516 22.3398C19.1406 21.5469 18.293 21 17.8281 21C17.3359 21 16.2969 21.6015 15.5586 22.4765C16.3242 21.875 17.3086 21.4922 17.8281 21.4922Z" fill="#7F4A41"/>
<path d="M17.6367 26.3321C16.5977 26.3321 15.5859 26.004 14.6562 25.7579C14.4648 25.7032 14.2734 25.84 14.082 25.7853C12.3594 25.2384 10.9648 24.3087 10.1172 23.1329V23.4064C10.1172 29.1486 12.1406 27.5353 13.4805 28.2189C14.8477 28.9025 16.2695 28.6837 17.7188 28.6837H17.7461C19.2227 28.6837 20.6172 28.8751 21.9844 28.1915C23.3242 27.5079 25.3477 29.1759 25.3477 23.4337C25.3477 23.215 25.3477 22.9962 25.375 22.8048C24.582 24.09 23.1328 25.1017 21.3281 25.7032C21.1641 25.7579 20.7812 25.6212 20.6172 25.6486C19.6328 25.9767 18.7578 26.3321 17.6367 26.3321Z" fill="#442823"/>
<path d="M15.0391 23.2422C15.0391 23.2422 14.3555 25.293 14.8203 26.1953L14.1914 25.9219C14.1914 25.9219 14.6562 23.8438 15.0391 23.2422ZM20.4531 23.2422C20.4531 23.2422 21.1367 25.293 20.6719 26.1953L21.3008 25.9219C21.3008 25.9219 20.8086 23.8438 20.4531 23.2422Z" fill="#442823"/>
<path d="M13.2891 12.7696C13.043 13.6173 12.168 16.4884 13.8633 15.5313C13.8633 15.5313 13.1524 15.9415 12.7149 17.5001C12.2774 19.0587 11.1289 19.2501 11.1289 19.2501C11.1289 19.2501 9.29688 19.6056 7.92969 18.4298C6.78125 17.4454 6.58985 15.6954 7.08204 14.3556C7.57422 13.0157 8.44922 12.6329 9.73438 12.3595C11.0195 12.0587 13.5625 11.8126 13.2891 12.7696Z" fill="#CCAC8D"/>
<path d="M17.7461 21C18.4844 21 20.7812 22.5859 20.8086 24.5273V24.418C20.8086 22.3945 18.9492 20.7812 17.7461 20.7812C16.543 20.7812 14.6836 22.4219 14.6836 24.418V24.5273C14.7109 22.5859 17.0078 21 17.7461 21Z" fill="black"/>
<path d="M18.343 17.2142C18.46 17.184 18.509 16.9817 18.4524 16.7624C18.3958 16.543 18.2551 16.3897 18.1381 16.4198C18.0211 16.45 17.9722 16.6523 18.0288 16.8716C18.0853 17.091 18.226 17.2443 18.343 17.2142Z" fill="#331712"/>
<path d="M16.9375 17.2101C17.0529 17.2459 17.2009 17.0995 17.268 16.8832C17.3351 16.6668 17.296 16.4624 17.1806 16.4266C17.0652 16.3908 16.9173 16.5372 16.8501 16.7536C16.783 16.9699 16.8222 17.1743 16.9375 17.2101Z" fill="#331712"/>
<path d="M10.1719 18.293C11.5008 18.293 12.5781 17.2157 12.5781 15.8867C12.5781 14.5578 11.5008 13.4805 10.1719 13.4805C8.84294 13.4805 7.76562 14.5578 7.76562 15.8867C7.76562 17.2157 8.84294 18.293 10.1719 18.293Z" fill="black"/>
<path d="M10.8008 15.4492C11.1481 15.4492 11.4297 15.1676 11.4297 14.8203C11.4297 14.473 11.1481 14.1914 10.8008 14.1914C10.4534 14.1914 10.1719 14.473 10.1719 14.8203C10.1719 15.1676 10.4534 15.4492 10.8008 15.4492Z" fill="white"/>
<path d="M18.457 15.914C18.457 15.8866 17.8281 16.1874 17.6641 16.2148C17.5 16.1874 16.8711 15.8866 16.8711 15.914H18.457Z" fill="#7F4A41"/>
<path d="M13.6719 15.7773C13.6719 15.7773 11.5117 17.2539 10.3359 18.7031C9.16016 20.1523 9.1875 20.4258 9.1875 20.4258L10.0352 20.8086C10.0352 20.8086 11.2383 18.5391 12.7148 17.6914C14.1914 16.8437 14.3828 16.1328 14.3828 16.1328L13.6719 15.7773Z" fill="#EFCCA3"/>
<path d="M8.94141 11.4023C8.94141 11.4023 8.20312 13.4258 6.5625 14.2734C6.5625 14.2734 9.13281 13.9727 8.94141 11.4023ZM26.1953 11.4023C26.1953 11.4023 26.9336 13.4258 28.5742 14.2734C28.5742 14.2734 26.0039 13.9727 26.1953 11.4023ZM21.5195 15.1758C21.5195 15.1758 19.9062 13.4805 17.7461 13.4258H17.7734H17.8008C15.6133 13.4805 14.0273 15.1758 14.0273 15.1758C15.9141 13.8633 17.5273 13.8906 17.8008 13.8906C17.7734 13.8906 19.6328 13.8633 21.5195 15.1758ZM19.6328 11.6211C19.6328 11.6211 18.8125 10.4727 17.7188 10.4453H17.7734C16.9531 10.4727 15.8867 11.6211 15.8867 11.6211C16.8164 10.7187 17.7734 10.7461 17.7734 10.7461C17.7734 10.7461 18.6758 10.7187 19.6328 11.6211ZM10.1719 20.0156C10.1719 20.0156 8.88672 20.6445 7.95703 20.2617H7.92969C7.10938 19.7969 6.69922 18.4023 6.69922 18.4023C6.69922 18.4023 7.51953 20.8633 10.1719 20.0156ZM25.1562 20.0156C25.1562 20.0156 26.4414 20.6445 27.3711 20.2617C28.4648 19.7969 28.6289 18.4023 28.6289 18.4023C28.6289 18.4023 27.8086 20.8633 25.1562 20.0156Z" fill="#CCAC8D"/>
<path d="M11.6484 11.2656C12.3594 11.1289 13.5352 11.1016 14.4648 11.4023C15.6406 11.8125 14.6836 13.3164 14.9297 13.3984C15.1758 13.4805 15.5039 12.3594 17.6914 12.4688C19.9062 12.5781 20.1523 13.5625 20.4531 13.3984C20.7539 13.2344 20.1523 10.6641 23.4609 11.2656C23.4609 11.2656 19.9883 10.3359 20.1523 12.8516C20.1523 12.8516 18.1562 11.3203 15.3672 12.6875C15.3945 12.6875 16.1055 10.3359 11.6484 11.2656ZM23.7617 11.2656C23.8164 11.2656 23.8438 11.293 23.8711 11.293C23.8984 11.293 23.8438 11.2656 23.7617 11.2656ZM10.6914 7.90234C10.6914 7.90234 7.73828 11.6211 7.30078 13.043C6.86328 14.4922 6.53516 20.4258 6.15234 21.2735L4.78516 15.4219L7.30078 9.32422L10.6914 7.90234ZM24.582 7.90234C24.582 7.90234 27.5352 11.6211 27.9727 13.043C28.4102 14.4922 28.7383 20.4258 29.1211 21.2735L30.4883 15.4219L27.9727 9.32422L24.582 7.90234Z" fill="#CCAC8D"/>
<path d="M24.4453 7.90244C24.4453 7.90244 27.6172 10.5548 28.5469 13.6173C29.4766 16.6798 29.0938 20.3985 29.8047 20.8634C30.8164 21.5196 31.9649 17.6095 32.3477 17.1993C32.9493 16.5431 34.9454 14.8751 35.0821 14.5743C35.2188 14.2735 31.0352 9.70712 29.2031 8.80478C26.9883 7.76572 24.2539 7.68369 24.4453 7.90244Z" fill="#56332B"/>
<path d="M27.1523 9.54297C27.1523 9.54297 30.8984 14.3281 30.8438 20.2891L32.3477 17.2266C32.3203 17.2266 31.0078 13.3164 27.1523 9.54297Z" fill="#442823"/>
<path d="M10.6914 7.90244C10.6914 7.90244 7.51953 10.5548 6.58984 13.6173C5.66015 16.6798 6.04296 20.3985 5.33203 20.8634C4.32031 21.5196 3.17187 17.6095 2.78906 17.1993C2.18749 16.5431 0.191401 14.8751 0.0546825 14.5743C-0.0820362 14.2735 4.10156 9.70712 5.93359 8.80478C8.14843 7.76572 10.8828 7.68369 10.6914 7.90244Z" fill="#56332B"/>
<path d="M7.98438 9.54297C7.98438 9.54297 4.23828 14.3281 4.29297 20.2891L2.81641 17.2266C2.81641 17.2266 4.12891 13.3164 7.98438 9.54297Z" fill="#442823"/>
<path d="M5.96094 20.3984C5.96094 20.3984 6.23438 21.8749 6.67187 22.3398C7.10937 22.8046 6.80859 21.9843 6.80859 21.9843C6.80859 21.9843 6.34375 21.7382 6.42578 19.8515C6.50781 17.9648 5.96094 20.3984 5.96094 20.3984ZM29.2852 20.3984C29.2852 20.3984 29.0117 21.8749 28.5742 22.3398C28.1367 22.8046 28.4375 21.9843 28.4375 21.9843C28.4375 21.9843 28.9023 21.7382 28.8203 19.8515C28.7383 17.9648 29.2852 20.3984 29.2852 20.3984Z" fill="#CCAC8D"/>
<path d="M14.9023 19.4961C15.0232 19.4961 15.1211 19.3982 15.1211 19.2774C15.1211 19.1565 15.0232 19.0586 14.9023 19.0586C14.7815 19.0586 14.6836 19.1565 14.6836 19.2774C14.6836 19.3982 14.7815 19.4961 14.9023 19.4961Z" fill="#442823"/>
<path d="M13.6445 20.8086C13.7653 20.8086 13.8633 20.7107 13.8633 20.5898C13.8633 20.469 13.7653 20.3711 13.6445 20.3711C13.5237 20.3711 13.4258 20.469 13.4258 20.5898C13.4258 20.7107 13.5237 20.8086 13.6445 20.8086Z" fill="#442823"/>
<path d="M13.2344 19.4961C13.3552 19.4961 13.4531 19.3982 13.4531 19.2774C13.4531 19.1565 13.3552 19.0586 13.2344 19.0586C13.1136 19.0586 13.0156 19.1565 13.0156 19.2774C13.0156 19.3982 13.1136 19.4961 13.2344 19.4961Z" fill="#442823"/>
<path d="M20.2344 19.4961C20.3552 19.4961 20.4531 19.3982 20.4531 19.2774C20.4531 19.1565 20.3552 19.0586 20.2344 19.0586C20.1136 19.0586 20.0156 19.1565 20.0156 19.2774C20.0156 19.3982 20.1136 19.4961 20.2344 19.4961Z" fill="#442823"/>
<path d="M21.4922 20.8086C21.613 20.8086 21.7109 20.7107 21.7109 20.5898C21.7109 20.469 21.613 20.3711 21.4922 20.3711C21.3714 20.3711 21.2734 20.469 21.2734 20.5898C21.2734 20.7107 21.3714 20.8086 21.4922 20.8086Z" fill="#442823"/>
<path d="M21.9023 19.4961C22.0232 19.4961 22.1211 19.3982 22.1211 19.2774C22.1211 19.1565 22.0232 19.0586 21.9023 19.0586C21.7815 19.0586 21.6836 19.1565 21.6836 19.2774C21.6836 19.3982 21.7815 19.4961 21.9023 19.4961Z" fill="#442823"/>
</g>
<defs>
<clipPath id="clip0">
<rect width="35" height="35" fill="white"/>
</clipPath>
</defs>
</svg>
