<svg width="59" height="58" viewBox="0 0 59 58" fill="none" xmlns="http://www.w3.org/2000/svg">
<g clip-path="url(#clip0_21_97)">
<path d="M49.5048 23.064C49.4126 21.0702 49.6892 19.3031 48.7673 17.8077C46.5548 14.0921 41.0235 11.9171 29.961 11.9171V12.2343H29.7306H29.961V11.9171C18.8985 11.9171 13.0907 14.0921 10.8782 17.8531C10.0024 19.3937 10.0946 21.1156 9.95634 23.1093C9.86416 24.6952 9.12666 26.3718 9.44931 28.1843C9.81806 30.5406 9.95634 32.8968 10.3251 35.0718C10.6017 36.839 13.0907 38.3343 13.3212 40.0109C13.9665 44.6327 18.8524 46.7624 29.9149 46.7624V47.1249H29.6384H29.961V46.7624C41.0235 46.7624 45.7251 44.6327 46.3243 40.0109C46.5548 38.289 48.8595 36.839 49.136 35.0718C49.5048 32.8968 49.6431 30.5406 50.0118 28.1843C50.3345 26.3718 49.597 24.6499 49.5048 23.064Z" fill="#EFCCA3"/>
<path d="M29.7765 24.6953C31.7585 24.7406 33.1414 25.9641 34.432 27.0969C35.9531 28.4109 38.5343 29.3172 39.5945 30.45C40.6546 31.5828 42.0375 32.7156 42.5445 34.4828C43.0515 36.25 43.1898 38.5156 43.1898 39.1047C43.1898 39.6938 43.5125 39.5578 44.4343 39.1047C46.6007 38.0625 48.9976 35.2531 48.9976 35.2531C48.721 37.0203 46.3703 38.6063 46.1398 40.2828C45.5867 44.9047 41.0234 47.125 29.7304 47.125H29.6843H29.9609" fill="#CCAC8D"/>
<path d="M37.0593 21.161C37.4741 22.5657 38.9491 27.3235 36.0913 25.7376C36.0913 25.7376 37.2897 26.4173 38.0272 29.0001C38.8108 31.5829 40.7007 31.9001 40.7007 31.9001C40.7007 31.9001 43.789 32.4891 46.0936 30.5407C48.0296 28.9094 48.3522 26.0094 47.5225 23.7891C46.6929 21.6141 45.2179 20.9344 43.0515 20.4813C40.8851 19.9829 36.5522 19.5751 37.0593 21.161Z" fill="#CCAC8D"/>
<path d="M42.5445 30.314C44.7847 30.314 46.6008 28.5287 46.6008 26.3265C46.6008 24.1243 44.7847 22.339 42.5445 22.339C40.3043 22.339 38.4883 24.1243 38.4883 26.3265C38.4883 28.5287 40.3043 30.314 42.5445 30.314Z" fill="black"/>
<path d="M41.4845 25.6016C42.07 25.6016 42.5447 25.135 42.5447 24.5594C42.5447 23.9838 42.07 23.5172 41.4845 23.5172C40.899 23.5172 40.4243 23.9838 40.4243 24.5594C40.4243 25.135 40.899 25.6016 41.4845 25.6016Z" fill="white"/>
<path d="M36.3679 26.1454C36.3679 26.1454 40.0093 28.5923 41.9913 30.9938C43.9734 33.3954 43.9273 33.8485 43.9273 33.8485L42.4984 34.4829C42.4984 34.4829 40.4702 30.7219 37.9812 29.3173C35.446 27.9126 35.1694 26.7344 35.1694 26.7344L36.3679 26.1454Z" fill="#EFCCA3"/>
<path d="M29.9148 24.6953C27.9328 24.7406 26.4578 25.9641 25.1211 27.0969C23.6 28.4109 20.9266 29.3172 19.8664 30.45C18.8062 31.5828 17.3773 32.7156 16.8703 34.4828C16.3633 36.25 16.1789 38.5156 16.1789 39.1047C16.1789 39.6938 16.2711 39.7391 14.9344 39.1047C12.768 38.1078 10.3711 35.2531 10.3711 35.2531C10.6477 37.0203 12.9984 38.6063 13.2289 40.2828C13.8742 44.9047 18.4375 47.125 29.7305 47.125H29.9609" fill="#CCAC8D"/>
<path d="M40.6087 32.3531C38.3962 29.6797 34.847 27.1875 29.9149 27.1875H29.8688C24.9368 27.1875 21.3876 29.6797 19.1751 32.3531C16.8704 35.1172 17.0548 36.2047 17.0548 38.8328C17.0548 48.3484 20.4657 45.6297 22.7243 46.8078C25.029 47.9406 27.4259 47.5781 29.8688 47.5781H29.9149C32.404 47.5781 34.7548 47.8953 37.0595 46.7625C39.3181 45.6297 42.729 48.4391 42.729 38.9234C42.7751 36.2953 42.9134 35.1172 40.6087 32.3531Z" fill="#56332B"/>
<path d="M29.6843 29.5438C29.6843 29.5438 29.3616 33.9392 28.7163 34.8001L29.9148 34.5282L29.6843 29.5438Z" fill="#442823"/>
<path d="M30.0071 29.5438C30.0071 29.5438 30.3297 33.9392 30.975 34.8001L29.7766 34.5282L30.0071 29.5438Z" fill="#442823"/>
<path d="M26.1351 28.5015C25.6741 27.4593 27.3335 25.7827 29.9608 25.7374C32.5882 25.7374 34.2476 27.414 33.7866 28.5015C33.3257 29.589 31.6663 29.9062 29.9608 29.9515C28.3015 29.9062 26.596 29.589 26.1351 28.5015Z" fill="#56332B"/>
<path d="M29.9609 29.5437C29.9609 29.3625 31.5281 29.3172 32.3577 28.7734C32.3577 28.7734 30.6523 29.3172 30.2835 29.0906C29.9148 28.9093 29.8226 28.3656 29.8226 28.3656C29.8226 28.3656 29.6843 28.9093 29.4078 29.0906C29.0851 29.2718 27.1492 28.7734 27.1492 28.7734C27.1492 28.7734 29.7304 29.4078 29.7304 29.5437C29.7304 29.6797 29.6843 30.1328 29.6843 30.45C29.6843 31.5828 29.6843 34.3921 29.8687 34.6187C30.1453 35.0265 30.0531 31.5828 30.0531 30.45C30.007 30.0875 30.007 29.725 29.9609 29.5437Z" fill="black"/>
<path d="M30.0531 35.6155C30.8367 35.6155 32.2195 36.1593 33.464 37.0202C32.2656 35.7062 30.8367 34.7999 30.0531 34.7999C29.2234 34.7999 27.4718 35.7968 26.2273 37.2468C27.5179 36.2499 29.1773 35.6155 30.0531 35.6155Z" fill="#7F4A41"/>
<path d="M29.7305 43.6361C27.9789 43.6361 26.2734 43.0923 24.7062 42.6845C24.3836 42.5939 24.0609 42.8205 23.7383 42.7298C20.8344 41.8236 18.4836 40.283 17.0547 38.3345V38.7876C17.0547 48.3033 20.4656 45.6298 22.7242 46.7626C25.0289 47.8955 27.4258 47.533 29.8688 47.533H29.9148C32.4039 47.533 34.7547 47.8501 37.0594 46.7173C39.318 45.5845 42.7289 48.3486 42.7289 38.833C42.7289 38.4705 42.7289 38.108 42.775 37.7908C41.4383 39.9205 38.9953 41.597 35.9531 42.5939C35.6766 42.6845 35.0312 42.458 34.7547 42.5033C33.0953 43.047 31.6203 43.6361 29.7305 43.6361Z" fill="#442823"/>
<path d="M25.3515 38.5156C25.3515 38.5156 24.1992 41.9141 24.9828 43.4094L23.9226 42.9563C23.9226 42.9563 24.7062 39.5125 25.3515 38.5156ZM34.4781 38.5156C34.4781 38.5156 35.6304 41.9141 34.8468 43.4094L35.907 42.9563C35.907 42.9563 35.0773 39.5125 34.4781 38.5156Z" fill="#442823"/>
<path d="M22.4016 21.161C21.9868 22.5657 20.5118 27.3235 23.3696 25.7376C23.3696 25.7376 22.1711 26.4173 21.4336 29.0001C20.6961 31.5829 18.7602 31.9001 18.7602 31.9001C18.7602 31.9001 15.6719 32.4891 13.3672 30.5407C11.4313 28.9094 11.1086 26.0094 11.9383 23.7891C12.768 21.5688 14.243 20.9344 16.4094 20.4813C18.5758 19.9829 22.8625 19.5751 22.4016 21.161Z" fill="#CCAC8D"/>
<path d="M29.9149 34.8C31.1595 34.8 35.0313 37.4281 35.0774 40.6453V40.4641C35.0774 37.1109 31.9431 34.4375 29.9149 34.4375C27.8868 34.4375 24.7524 37.1562 24.7524 40.4641V40.6453C24.7985 37.4281 28.6704 34.8 29.9149 34.8Z" fill="black"/>
<path d="M30.921 28.5263C31.1182 28.4763 31.2007 28.1411 31.1053 27.7776C31.0099 27.4141 30.7728 27.16 30.5756 27.21C30.3784 27.26 30.2958 27.5952 30.3912 27.9587C30.4866 28.3222 30.7238 28.5763 30.921 28.5263Z" fill="#331712"/>
<path d="M28.5519 28.5195C28.7464 28.5788 28.9958 28.3363 29.1089 27.9777C29.222 27.6192 29.1561 27.2805 28.9616 27.2212C28.7671 27.1619 28.5177 27.4044 28.4045 27.7629C28.2914 28.1215 28.3573 28.4602 28.5519 28.5195Z" fill="#331712"/>
<path d="M17.1468 30.314C19.387 30.314 21.2031 28.5287 21.2031 26.3265C21.2031 24.1243 19.387 22.339 17.1468 22.339C14.9066 22.339 13.0906 24.1243 13.0906 26.3265C13.0906 28.5287 14.9066 30.314 17.1468 30.314Z" fill="black"/>
<path d="M18.2071 25.6016C18.7926 25.6016 19.2673 25.135 19.2673 24.5594C19.2673 23.9838 18.7926 23.5172 18.2071 23.5172C17.6216 23.5172 17.147 23.9838 17.147 24.5594C17.147 25.135 17.6216 25.6016 18.2071 25.6016Z" fill="white"/>
<path d="M31.1134 26.3718C31.1134 26.3265 30.0532 26.8249 29.7767 26.8702C29.5001 26.8249 28.4399 26.3265 28.4399 26.3718H31.1134Z" fill="#7F4A41"/>
<path d="M23.0468 26.1454C23.0468 26.1454 19.4054 28.5923 17.4233 30.9938C15.4413 33.3954 15.4874 33.8485 15.4874 33.8485L16.9163 34.4829C16.9163 34.4829 18.9444 30.7219 21.4335 29.3173C23.9225 27.9126 24.2452 26.7344 24.2452 26.7344L23.0468 26.1454Z" fill="#EFCCA3"/>
<path d="M15.0727 18.8954C15.0727 18.8954 13.8281 22.2485 11.0625 23.6532C11.0625 23.6532 15.3953 23.1548 15.0727 18.8954ZM44.1578 18.8954C44.1578 18.8954 45.4023 22.2485 48.168 23.6532C48.168 23.6532 43.8352 23.1548 44.1578 18.8954ZM36.2758 25.1485C36.2758 25.1485 33.5563 22.3391 29.9148 22.2485H29.9609H30.007C26.3195 22.3391 23.6461 25.1485 23.6461 25.1485C26.8266 22.9735 29.5461 23.0188 30.007 23.0188C29.9609 23.0188 33.0953 22.9735 36.2758 25.1485ZM33.0953 19.2579C33.0953 19.2579 31.7125 17.3548 29.8688 17.3094H29.9609C28.5781 17.3548 26.7805 19.2579 26.7805 19.2579C28.3477 17.7626 29.9609 17.8079 29.9609 17.8079C29.9609 17.8079 31.482 17.7626 33.0953 19.2579ZM17.1469 33.1688C17.1469 33.1688 14.9805 34.211 13.4133 33.5766H13.3672C11.9844 32.8063 11.293 30.4954 11.293 30.4954C11.293 30.4954 12.6758 34.5735 17.1469 33.1688ZM42.4062 33.1688C42.4062 33.1688 44.5727 34.211 46.1398 33.5766C47.9836 32.8063 48.2602 30.4954 48.2602 30.4954C48.2602 30.4954 46.8773 34.5735 42.4062 33.1688Z" fill="#CCAC8D"/>
<path d="M19.6359 18.6688C20.8344 18.4422 22.8164 18.3969 24.3836 18.8953C26.3656 19.575 24.7523 22.0672 25.1672 22.2032C25.582 22.3391 26.1352 20.4813 29.8227 20.6625C33.5562 20.8438 33.9711 22.475 34.4781 22.2032C34.9852 21.9313 33.9711 17.6719 39.5484 18.6688C39.5484 18.6688 33.6945 17.1282 33.9711 21.2969C33.9711 21.2969 30.6063 18.7594 25.9047 21.025C25.9508 21.025 27.1492 17.1282 19.6359 18.6688ZM40.0555 18.6688C40.1477 18.6688 40.1938 18.7141 40.2398 18.7141C40.2859 18.7141 40.1938 18.6688 40.0555 18.6688ZM18.0227 13.0953C18.0227 13.0953 13.0445 19.2578 12.307 21.6141C11.5695 24.0157 11.0164 33.8485 10.3711 35.2532L8.06641 25.5563L12.307 15.4516L18.0227 13.0953ZM41.4383 13.0953C41.4383 13.0953 46.4164 19.2578 47.1539 21.6141C47.8914 24.0157 48.4445 33.8485 49.0898 35.2532L51.3945 25.5563L47.1539 15.4516L41.4383 13.0953Z" fill="#CCAC8D"/>
<path d="M41.2079 13.0954C41.2079 13.0954 46.5548 17.4907 48.122 22.5657C49.6892 27.6407 49.0439 33.8032 50.2423 34.5735C51.9478 35.661 53.8838 29.1813 54.5291 28.5016C55.5432 27.4142 58.908 24.6501 59.1385 24.1517C59.369 23.6532 52.3166 16.086 49.2283 14.5907C45.4947 12.8688 40.8853 12.7329 41.2079 13.0954Z" fill="#56332B"/>
<path d="M45.771 15.8141C45.771 15.8141 52.0858 23.7438 51.9937 33.6219L54.5288 28.5469C54.4827 28.5469 52.2702 22.0672 45.771 15.8141Z" fill="#442823"/>
<path d="M18.0227 13.0954C18.0227 13.0954 12.6758 17.4907 11.1086 22.5657C9.5414 27.6407 10.1867 33.8032 8.98828 34.5735C7.28281 35.661 5.34687 29.1813 4.70156 28.5016C3.6875 27.4142 0.322654 24.6501 0.0921853 24.1517C-0.138283 23.6532 6.91406 16.086 10.0023 14.5907C13.7359 12.8688 18.3453 12.7329 18.0227 13.0954Z" fill="#56332B"/>
<path d="M13.4593 15.8141C13.4593 15.8141 7.14443 23.7438 7.23662 33.6219L4.74756 28.5469C4.74756 28.5469 6.96006 22.0672 13.4593 15.8141Z" fill="#442823"/>
<path d="M10.0483 33.8031C10.0483 33.8031 10.5093 36.25 11.2468 37.0203C11.9843 37.7906 11.4772 36.4312 11.4772 36.4312C11.4772 36.4312 10.6937 36.0234 10.8319 32.8969C10.9702 29.7703 10.0483 33.8031 10.0483 33.8031ZM49.3663 33.8031C49.3663 33.8031 48.9054 36.25 48.1679 37.0203C47.4304 37.7906 47.9374 36.4312 47.9374 36.4312C47.9374 36.4312 48.721 36.0234 48.5827 32.8969C48.4444 29.7703 49.3663 33.8031 49.3663 33.8031Z" fill="#CCAC8D"/>
<path d="M25.1212 32.3079C25.3248 32.3079 25.4899 32.1456 25.4899 31.9454C25.4899 31.7452 25.3248 31.5829 25.1212 31.5829C24.9175 31.5829 24.7524 31.7452 24.7524 31.9454C24.7524 32.1456 24.9175 32.3079 25.1212 32.3079Z" fill="#442823"/>
<path d="M23.0008 34.4828C23.2045 34.4828 23.3696 34.3205 23.3696 34.1203C23.3696 33.9201 23.2045 33.7578 23.0008 33.7578C22.7972 33.7578 22.6321 33.9201 22.6321 34.1203C22.6321 34.3205 22.7972 34.4828 23.0008 34.4828Z" fill="#442823"/>
<path d="M22.3094 32.3079C22.5131 32.3079 22.6782 32.1456 22.6782 31.9454C22.6782 31.7452 22.5131 31.5829 22.3094 31.5829C22.1058 31.5829 21.9407 31.7452 21.9407 31.9454C21.9407 32.1456 22.1058 32.3079 22.3094 32.3079Z" fill="#442823"/>
<path d="M34.1095 32.3079C34.3131 32.3079 34.4782 32.1456 34.4782 31.9454C34.4782 31.7452 34.3131 31.5829 34.1095 31.5829C33.9058 31.5829 33.7407 31.7452 33.7407 31.9454C33.7407 32.1456 33.9058 32.3079 34.1095 32.3079Z" fill="#442823"/>
<path d="M36.2298 34.4828C36.4335 34.4828 36.5986 34.3205 36.5986 34.1203C36.5986 33.9201 36.4335 33.7578 36.2298 33.7578C36.0262 33.7578 35.8611 33.9201 35.8611 34.1203C35.8611 34.3205 36.0262 34.4828 36.2298 34.4828Z" fill="#442823"/>
<path d="M36.9212 32.3079C37.1249 32.3079 37.29 32.1456 37.29 31.9454C37.29 31.7452 37.1249 31.5829 36.9212 31.5829C36.7176 31.5829 36.5525 31.7452 36.5525 31.9454C36.5525 32.1456 36.7176 32.3079 36.9212 32.3079Z" fill="#442823"/>
</g>
<defs>
<clipPath id="clip0_21_97">
<rect width="59" height="58" fill="white"/>
</clipPath>
</defs>
</svg>
