<svg width="53" height="53" viewBox="0 0 53 53" fill="none" xmlns="http://www.w3.org/2000/svg">
<g clip-path="url(#clip0_114_211)">
<path d="M26.2756 0.0148926C12.8533 0.0148926 13.6914 5.83557 13.6914 5.83557L13.7063 11.866H26.5149V13.6765H8.61893C8.61893 13.6765 0.0300293 12.7024 0.0300293 26.2453C0.0300293 39.7887 7.52663 39.3084 7.52663 39.3084H12.0006V33.0237C12.0006 33.0237 11.7594 25.5271 19.3775 25.5271H32.0814C32.0814 25.5271 39.2188 25.6425 39.2188 18.6291V7.03284C39.2188 7.03284 40.3028 0.0148926 26.2756 0.0148926ZM19.2129 4.07022C19.5156 4.06995 19.8154 4.12936 20.095 4.24507C20.3747 4.36077 20.6289 4.53049 20.8429 4.74451C21.0569 4.95854 21.2266 5.21267 21.3423 5.49235C21.458 5.77204 21.5175 6.0718 21.5172 6.37448C21.5175 6.67715 21.458 6.97691 21.3423 7.2566C21.2266 7.53629 21.0569 7.79042 20.8429 8.00444C20.6289 8.21847 20.3747 8.38818 20.095 8.50389C19.8154 8.61959 19.5156 8.67901 19.2129 8.67873C18.9102 8.67901 18.6105 8.61959 18.3308 8.50389C18.0511 8.38818 17.797 8.21847 17.583 8.00444C17.3689 7.79042 17.1992 7.53629 17.0835 7.2566C16.9678 6.97691 16.9084 6.67715 16.9087 6.37448C16.9084 6.0718 16.9678 5.77204 17.0835 5.49235C17.1992 5.21267 17.3689 4.95854 17.583 4.74451C17.797 4.53049 18.0511 4.36077 18.3308 4.24507C18.6105 4.12936 18.9102 4.06995 19.2129 4.07022V4.07022Z" fill="url(#paint0_linear_114_211)"/>
<path d="M26.6567 52.612C40.0789 52.612 39.2408 46.7913 39.2408 46.7913L39.2259 40.7611H26.4171V38.9506H44.3131C44.3131 38.9506 52.902 39.9247 52.902 26.3814C52.902 12.8382 45.4054 13.3185 45.4054 13.3185H40.9315V19.6029C40.9315 19.6029 41.1726 27.0995 33.5545 27.0995H20.8507C20.8507 27.0995 13.7133 26.9842 13.7133 33.9978V45.5943C13.7133 45.5943 12.6295 52.612 26.6564 52.612H26.6567ZM33.7193 48.5571C33.4166 48.5574 33.1169 48.4979 32.8372 48.3822C32.5575 48.2665 32.3034 48.0968 32.0894 47.8828C31.8753 47.6688 31.7056 47.4146 31.5899 47.135C31.4742 46.8553 31.4148 46.5555 31.4151 46.2528C31.4148 45.9501 31.4742 45.6504 31.5898 45.3706C31.7055 45.0909 31.8753 44.8368 32.0893 44.6227C32.3033 44.4087 32.5574 44.2389 32.8371 44.1232C33.1168 44.0075 33.4166 43.9481 33.7193 43.9484C34.022 43.9481 34.3218 44.0075 34.6014 44.1232C34.8811 44.2389 35.1353 44.4086 35.3493 44.6227C35.5633 44.8367 35.733 45.0908 35.8487 45.3705C35.9644 45.6502 36.0238 45.9499 36.0236 46.2526C36.0238 46.5553 35.9644 46.8551 35.8487 47.1347C35.733 47.4144 35.5633 47.6686 35.3493 47.8826C35.1353 48.0966 34.8811 48.2663 34.6014 48.382C34.3218 48.4977 34.022 48.5572 33.7193 48.5569V48.5571Z" fill="url(#paint1_linear_114_211)"/>
</g>
<defs>
<linearGradient id="paint0_linear_114_211" x1="5.11102" y1="4.74569" x2="31.3128" y2="30.6861" gradientUnits="userSpaceOnUse">
<stop stop-color="#387EB8"/>
<stop offset="1" stop-color="#366994"/>
</linearGradient>
<linearGradient id="paint1_linear_114_211" x1="21.1936" y1="21.403" x2="49.3313" y2="48.0025" gradientUnits="userSpaceOnUse">
<stop stop-color="#FFE052"/>
<stop offset="1" stop-color="#FFC331"/>
</linearGradient>
<clipPath id="clip0_114_211">
<rect width="53" height="52.793" fill="white"/>
</clipPath>
</defs>
</svg>
