<svg width="53" height="54" viewBox="0 0 53 54" fill="none" xmlns="http://www.w3.org/2000/svg">
<path d="M30.9369 26.9593C30.9369 24.5387 28.9506 22.5763 26.5 22.5763C24.0497 22.5763 22.0631 24.5387 22.0631 26.9593C22.0631 29.3802 24.0497 31.3426 26.5 31.3426C28.9506 31.3426 30.9369 29.3802 30.9369 26.9593Z" fill="#53C1DE"/>
<path fill-rule="evenodd" clip-rule="evenodd" d="M40.91 18.8219C41.847 15.0606 43.0248 8.08562 38.8728 5.7209C34.7404 3.36647 29.3627 7.87797 26.5231 10.586C23.6917 7.90496 18.163 3.41274 14.0146 5.78498C9.88368 8.14729 11.1576 15.0066 12.1153 18.7915C8.26189 19.8727 1.65625 22.2014 1.65625 26.9593C1.65625 31.7038 8.25502 34.2373 12.0856 35.3175C11.1243 39.1233 9.91424 45.8847 14.0504 48.2417C18.2142 50.6135 23.7258 46.2282 26.5917 43.4906C29.4496 46.2145 34.7756 50.6285 38.9089 48.2649C43.0553 45.8938 41.9753 39.0123 41.0175 35.2054C44.7308 34.1229 51.3438 31.6445 51.3438 26.9593C51.3438 22.2471 44.7027 19.8995 40.91 18.8219ZM40.4394 33.188C39.8105 31.2214 38.9617 29.1301 37.9233 26.9698C38.9144 24.8605 39.7302 22.7961 40.3415 20.8421C43.1219 21.6384 49.2213 23.4584 49.2213 26.9593C49.2213 30.4931 43.3683 32.3303 40.4394 33.188ZM37.8452 46.4502C34.7615 48.2136 30.1804 43.9925 28.0699 41.9865C29.47 40.4737 30.8692 38.715 32.2347 36.7621C34.6369 36.5516 36.9063 36.2073 38.9643 35.7374C39.6384 38.4301 40.9429 44.6787 37.8452 46.4502ZM15.111 46.425C12.0267 44.6682 13.4365 38.6347 14.1437 35.8313C16.1788 36.2759 18.4317 36.5959 20.8396 36.7888C22.2142 38.6998 23.6538 40.4563 25.1047 41.9945C23.3121 43.7075 18.2097 48.1899 15.111 46.425ZM3.77872 26.9593C3.77872 23.4123 9.84155 21.6056 12.6853 20.8113C13.3072 22.8091 14.1228 24.898 15.107 27.0104C14.11 29.1542 13.2828 31.2764 12.6552 33.2977C9.94362 32.531 3.77872 30.5086 3.77872 26.9593ZM15.078 7.59973C18.1749 5.8289 22.98 10.1416 25.0357 12.0827C23.5923 13.614 22.1658 15.3573 20.8031 17.2572C18.4662 17.4711 16.2292 17.8148 14.1727 18.2751C13.4011 15.2225 11.9845 9.36864 15.078 7.59973ZM33.7531 19.5363C35.3386 19.734 36.8575 19.9969 38.2837 20.3186C37.8556 21.6743 37.3219 23.092 36.6934 24.5452C35.7823 22.8374 34.8042 21.164 33.7531 19.5363ZM26.5237 13.5812C27.5027 14.6289 28.4833 15.7989 29.4477 17.0682C27.4913 16.9768 25.5316 16.9764 23.5751 17.0669C24.5405 15.8093 25.5294 14.641 26.5237 13.5812ZM16.3248 24.5437C15.7067 23.0955 15.1778 21.6715 14.746 20.2964C16.1636 19.983 17.6755 19.7269 19.2506 19.5324C18.1966 21.1565 17.2202 22.8293 16.3248 24.5437ZM19.2959 34.5359C17.6686 34.3565 16.134 34.1134 14.7167 33.8086C15.1554 32.4092 15.6959 30.9546 16.3273 29.4753C17.235 31.2074 18.2262 32.8965 19.2959 34.5359ZM26.5825 40.4856C25.5764 39.4132 24.573 38.2271 23.5929 36.9513C25.5606 37.0277 27.5321 37.0278 29.4994 36.9411C28.5319 38.2401 27.5549 39.428 26.5825 40.4856ZM36.7136 29.3999C37.3777 30.8953 37.9376 32.3421 38.3822 33.7178C36.9415 34.0426 35.3861 34.3041 33.7472 34.4983C34.8061 32.84 35.7996 31.1405 36.7136 29.3999ZM31.0501 34.7525C28.0405 34.9649 25.012 34.9627 22.0013 34.7699C20.2905 32.3012 18.7677 29.705 17.4531 27.0097C18.7613 24.32 20.2731 21.729 21.9758 19.2642C24.9887 19.0392 28.0201 19.0386 31.033 19.2655C32.721 21.7301 34.2306 24.3145 35.5691 26.98C34.2464 29.6684 32.7267 32.2646 31.0501 34.7525ZM37.8127 7.53738C40.9104 9.30241 39.5315 15.571 38.8548 18.2968C36.7935 17.827 34.5549 17.4772 32.2112 17.26C30.8459 15.3394 29.4313 13.5931 28.0111 12.0816C30.0933 10.0987 34.745 5.78962 37.8127 7.53738Z" fill="#53C1DE"/>
</svg>
