<svg width="42" height="31" viewBox="0 0 42 31" fill="none" xmlns="http://www.w3.org/2000/svg">
<g clip-path="url(#clip0)">
<path d="M36.143 17.8088C34.6746 17.817 33.4032 18.164 32.3367 18.6808C31.943 17.9139 31.5492 17.2437 31.4837 16.7433C31.4099 16.162 31.3196 15.8068 31.4099 15.1126C31.5 14.4182 31.9102 13.4333 31.9102 13.3526C31.9019 13.2799 31.8199 12.9247 30.975 12.9166C30.1302 12.9086 29.4 13.0781 29.318 13.2961C29.236 13.514 29.0719 14.0146 28.9653 14.5312C28.8176 15.2901 27.2754 17.9784 26.3977 19.3911C26.1106 18.8422 25.8645 18.3578 25.8152 17.9702C25.7414 17.389 25.6511 17.0338 25.7414 16.3396C25.8317 15.6452 26.2418 14.6604 26.2418 14.5797C26.2336 14.507 26.1516 14.1518 25.3068 14.1437C24.4617 14.1357 23.7318 14.3052 23.6497 14.5232C23.5677 14.7411 23.4775 15.2578 23.297 15.7583C23.1246 16.2588 21.0739 20.7474 20.5407 21.918C20.2699 22.5153 20.0321 22.9916 19.8598 23.3146C19.6875 23.6375 19.8516 23.3388 19.8352 23.3711C19.6875 23.6456 19.6055 23.7989 19.6055 23.7989V23.8071C19.4907 24.0089 19.3676 24.2026 19.3101 24.2026C19.2691 24.2026 19.1871 23.6617 19.3265 22.9191C19.63 21.3609 20.3683 18.9311 20.3602 18.8423C20.3602 18.8019 20.4996 18.3739 19.8843 18.1561C19.2855 17.9381 19.0723 18.3014 19.023 18.3014C18.9738 18.3014 18.9328 18.4305 18.9328 18.4305C18.9328 18.4305 19.5972 15.6939 17.6613 15.6939C16.4472 15.6939 14.7738 16.9936 13.9453 18.1804C13.4203 18.4629 12.3046 19.0602 11.1234 19.6981C10.6722 19.9402 10.2046 20.1986 9.76166 20.4327L9.67151 20.3357C7.32542 17.8734 2.98597 16.1297 3.16643 12.8198C3.23206 11.6169 3.65862 8.44425 11.5009 4.60155C17.9239 1.45311 23.0673 2.31691 23.9614 4.23827C25.2328 6.98306 21.2133 12.0851 14.536 12.8198C11.9931 13.1023 10.6559 12.1336 10.3196 11.7703C9.96691 11.3909 9.91769 11.3747 9.78644 11.4474C9.57316 11.5604 9.70441 11.8995 9.78644 12.1013C9.98331 12.6099 10.8036 13.514 12.1982 13.9661C13.4203 14.3617 16.4064 14.5797 20.0157 13.2073C24.0599 11.6653 27.2181 7.3867 26.2911 3.8104C25.3478 0.169516 19.2118 -1.02528 13.4122 1.00103C9.95862 2.21196 6.218 4.10103 3.52737 6.57941C0.328153 9.51795 -0.180441 12.0851 0.0328402 13.1508C0.779407 16.9531 6.10315 19.4315 8.23596 21.264C8.12932 21.3205 8.03089 21.377 7.94065 21.4255C6.87425 21.9421 2.8137 24.0331 1.79651 26.245C0.648075 28.7476 1.97698 30.5479 2.86292 30.7901C5.60276 31.5409 8.40823 30.1927 9.92581 27.9726C11.4351 25.7526 11.2547 22.8706 10.5574 21.5547L10.5328 21.5062L11.3695 21.0219C11.911 20.707 12.4442 20.4164 12.9117 20.166C12.6492 20.8684 12.4605 21.6999 12.3621 22.9108C12.2473 24.3318 12.8379 26.1723 13.6172 26.8989C13.9617 27.2136 14.3719 27.2218 14.6262 27.2218C15.5285 27.2218 15.9387 26.4871 16.3899 25.6072C16.9477 24.5335 17.4399 23.2903 17.4399 23.2903C17.4399 23.2903 16.8246 26.6567 18.5063 26.6567C19.1215 26.6567 19.7367 25.8736 20.0157 25.47V25.478C20.0157 25.478 20.0321 25.4538 20.0649 25.3973C20.0993 25.3472 20.1321 25.2961 20.1633 25.244V25.2278C20.4094 24.8081 20.959 23.8474 21.7793 22.257C22.8374 20.2065 23.8547 17.6393 23.8547 17.6393C23.8547 17.6393 23.9532 18.269 24.2567 19.3023C24.4371 19.9159 24.8308 20.5859 25.1343 21.2398C24.8882 21.5789 24.7406 21.7727 24.7406 21.7727L24.7488 21.7808C24.552 22.0391 24.3304 22.3137 24.1008 22.5881C23.2641 23.573 22.2633 24.6952 22.1321 25.0181C21.9762 25.3975 22.009 25.68 22.3125 25.9061C22.534 26.0676 22.9278 26.0998 23.3461 26.0676C24.1008 26.0191 24.6258 25.8335 24.8883 25.7204C25.2985 25.5751 25.766 25.3571 26.2172 25.0342C27.0375 24.4369 27.5379 23.5892 27.4887 22.459C27.4641 21.8374 27.259 21.2238 27.0047 20.6426C27.0785 20.5376 27.1525 20.4326 27.2262 20.3197C28.5223 18.4548 29.5231 16.4043 29.5231 16.4043C29.5231 16.4043 29.6215 17.034 29.925 18.0673C30.0808 18.5921 30.3926 19.1653 30.6715 19.7304C29.4574 20.7073 28.6946 21.8375 28.4321 22.5802C27.9481 23.9526 28.3254 24.5742 29.0391 24.7195C29.3589 24.7841 29.8184 24.6388 30.1628 24.4935C30.5894 24.3562 31.1062 24.122 31.5821 23.775C32.4024 23.1776 33.1899 22.3461 33.1489 21.2239C33.1242 20.7073 32.9848 20.1987 32.7961 19.7143C33.8297 19.2945 35.1667 19.0523 36.8649 19.2541C40.5153 19.6739 41.2371 21.9182 41.0978 22.8547C40.9583 23.7912 40.1954 24.3078 39.941 24.4692C39.6867 24.6226 39.6047 24.6792 39.6293 24.7922C39.6621 24.9618 39.777 24.9536 39.9985 24.9214C40.302 24.8729 41.918 24.1545 41.9836 22.4269C42.0821 20.2066 39.941 17.7847 36.143 17.8088ZM7.98987 27.1492C6.78401 28.4489 5.08597 28.9414 4.36409 28.5216C3.58479 28.0776 3.88823 26.1643 5.37307 24.7838C6.27542 23.9443 7.44846 23.1693 8.21956 22.693C8.39182 22.588 8.65432 22.4347 8.96604 22.2489C9.01526 22.2167 9.04807 22.2005 9.04807 22.2005C9.1055 22.1682 9.17112 22.1278 9.23675 22.0875C9.78636 24.0573 9.26136 25.7849 7.98987 27.1492ZM16.8082 21.2479C16.3899 22.257 15.5039 24.8484 14.9707 24.7031C14.5113 24.582 14.2324 22.6203 14.8804 20.6828C15.2085 19.7059 15.9058 18.5435 16.316 18.0913C16.9805 17.3647 17.7023 17.1226 17.8828 17.4213C18.0961 17.8088 17.0707 20.6182 16.8082 21.2479ZM24.0844 24.6708C23.9039 24.7597 23.7399 24.8242 23.666 24.7758C23.6086 24.7436 23.7398 24.6225 23.7398 24.6225C23.7398 24.6225 24.6503 23.6618 25.0113 23.2178C25.2164 22.9595 25.4624 22.6608 25.7249 22.3217V22.4186C25.725 23.581 24.593 24.356 24.0844 24.6708ZM29.6953 23.4114C29.564 23.3146 29.5805 23.0159 30.0234 22.0794C30.1957 21.7081 30.5894 21.0864 31.2703 20.4971C31.3523 20.7393 31.4016 20.9733 31.3933 21.1914C31.3852 22.6445 30.3352 23.1854 29.6953 23.4114Z" fill="#CF649A"/>
</g>
<defs>
<clipPath id="clip0">
<rect width="42" height="31" fill="white"/>
</clipPath>
</defs>
</svg>
