<svg width="70" height="51" viewBox="0 0 70 51" fill="none" xmlns="http://www.w3.org/2000/svg">
<path d="M60.2382 29.2985C57.791 29.3119 55.6718 29.8828 53.8945 30.733C53.2382 29.4712 52.582 28.3688 52.4727 27.5455C52.3497 26.5892 52.1993 26.0047 52.3497 24.8627C52.4999 23.7203 53.1835 22.1 53.1835 21.9672C53.1697 21.8477 53.033 21.2633 51.6249 21.25C50.2169 21.2367 48.9999 21.5156 48.8632 21.8742C48.7265 22.2328 48.4531 23.0563 48.2753 23.9063C48.0292 25.1547 45.4589 29.5774 43.996 31.9016C43.5175 30.9985 43.1074 30.2016 43.0252 29.564C42.9023 28.6078 42.7518 28.0233 42.9023 26.8813C43.0527 25.739 43.7363 24.1188 43.7363 23.986C43.7226 23.8664 43.5859 23.2821 42.1778 23.2688C40.7695 23.2555 39.5528 23.5344 39.4161 23.893C39.2794 24.2516 39.129 25.1016 38.8282 25.925C38.541 26.7485 35.123 34.1328 34.2343 36.0586C33.7831 37.0414 33.3868 37.825 33.0996 38.3563C32.8124 38.8875 33.0859 38.3961 33.0585 38.4492C32.8124 38.9008 32.6757 39.1531 32.6757 39.1531V39.1666C32.4843 39.4986 32.2792 39.8172 32.1834 39.8172C32.115 39.8172 31.9783 38.9274 32.2107 37.7056C32.7166 35.1422 33.9471 31.1447 33.9335 30.9986C33.9335 30.9322 34.1658 30.2281 33.1404 29.8697C32.1424 29.5111 31.7871 30.1087 31.7049 30.1087C31.6229 30.1087 31.5545 30.3212 31.5545 30.3212C31.5545 30.3212 32.6619 25.819 29.4354 25.819C27.4119 25.819 24.6229 27.9573 23.242 29.9097C22.367 30.3745 20.5076 31.3572 18.5389 32.4065C17.7869 32.805 17.0076 33.23 16.2693 33.6151L16.1191 33.4555C12.2089 29.4047 4.97651 26.536 5.27729 21.0906C5.38666 19.1117 6.0976 13.8922 19.1681 7.57034C29.8731 2.39065 38.4454 3.81175 39.9355 6.97268C42.0546 11.4883 35.3554 19.8821 24.2266 21.0906C19.9884 21.5555 17.7597 19.9617 17.1993 19.3641C16.6114 18.7399 16.5294 18.7133 16.3106 18.8328C15.9552 19.0188 16.1739 19.5766 16.3106 19.9086C16.6388 20.7453 18.0059 22.2328 20.3302 22.9766C22.3671 23.6274 27.3438 23.986 33.3595 21.7281C40.0997 19.1914 45.3634 12.1524 43.8184 6.26878C42.2462 0.278933 32.0196 -1.68669 22.3536 1.6469C16.5976 3.63909 10.3632 6.7469 5.87885 10.8242C0.54682 15.6586 -0.300837 19.8821 0.0546319 21.6352C1.29891 27.8906 10.1718 31.968 13.7265 34.9828C13.5488 35.0757 13.3847 35.1686 13.2343 35.2485C11.457 36.0983 4.6894 39.5383 2.99409 43.1772C1.08002 47.2944 3.29487 50.2563 4.77143 50.6547C9.33784 51.8899 14.0136 49.6719 16.5429 46.0196C19.0584 42.3672 18.7578 37.6258 17.5956 35.461L17.5545 35.3813L18.949 34.5844C19.8515 34.0664 20.7402 33.5883 21.5193 33.1765C21.082 34.3319 20.7674 35.6999 20.6035 37.6921C20.4121 40.0297 21.3964 43.0577 22.6953 44.253C23.2695 44.7709 23.9531 44.7843 24.3769 44.7843C25.8808 44.7843 26.5644 43.5755 27.3164 42.128C28.246 40.3616 29.0664 38.3163 29.0664 38.3163C29.0664 38.3163 28.041 43.8546 30.8437 43.8546C31.8691 43.8546 32.8945 42.5663 33.3593 41.9022V41.9155C33.3593 41.9155 33.3867 41.8757 33.4414 41.7827C33.4987 41.7003 33.5534 41.6162 33.6054 41.5305V41.5039C34.0156 40.8133 34.9316 39.2328 36.2988 36.6164C38.0623 33.243 39.7578 29.0196 39.7578 29.0196C39.7578 29.0196 39.9218 30.0555 40.4277 31.7555C40.7283 32.765 41.3846 33.8672 41.8904 34.943C41.4803 35.5008 41.2342 35.8197 41.2342 35.8197L41.2479 35.833C40.9199 36.258 40.5506 36.7097 40.1679 37.1611C38.7734 38.7814 37.1054 40.6276 36.8867 41.1589C36.6269 41.783 36.6816 42.2478 37.1874 42.6198C37.5566 42.8854 38.2128 42.9384 38.9101 42.8854C40.1679 42.8056 41.0429 42.5003 41.4804 42.3142C42.164 42.0752 42.9433 41.7166 43.6953 41.1853C45.0624 40.2026 45.8964 38.8081 45.8144 36.9487C45.7734 35.9261 45.4316 34.9167 45.0078 33.9604C45.1308 33.7878 45.254 33.615 45.3769 33.4292C47.5371 30.3611 49.205 26.9878 49.205 26.9878C49.205 26.9878 49.3691 28.0237 49.8749 29.7237C50.1346 30.587 50.6542 31.5301 51.1191 32.4598C49.0956 34.0668 47.8242 35.9262 47.3867 37.1481C46.58 39.4059 47.2089 40.4285 48.3984 40.6676C48.9314 40.7739 49.6972 40.5348 50.2713 40.2957C50.9822 40.07 51.8436 39.6847 52.6367 39.1137C54.0038 38.1309 55.3164 36.7629 55.248 34.9168C55.207 34.0668 54.9746 33.2301 54.6601 32.4332C56.3828 31.7426 58.6111 31.3442 61.4413 31.6762C67.5253 32.3668 68.7285 36.059 68.4962 37.5996C68.2638 39.1404 66.9923 39.9903 66.5683 40.2559C66.1445 40.5082 66.0078 40.6013 66.0488 40.7871C66.1035 41.0662 66.2949 41.0528 66.664 40.9998C67.1699 40.92 69.8632 39.7381 69.9726 36.896C70.1367 33.2431 66.5683 29.2587 60.2382 29.2985ZM13.3163 44.6649C11.3066 46.8031 8.47651 47.6133 7.27338 46.9227C5.97455 46.1922 6.48028 43.0446 8.95502 40.7735C10.4589 39.3922 12.414 38.1172 13.6992 37.3336C13.9863 37.161 14.4238 36.9088 14.9433 36.6031C15.0253 36.5502 15.08 36.5235 15.08 36.5235C15.1757 36.4703 15.2851 36.4039 15.3945 36.3375C16.3105 39.5781 15.4355 42.4203 13.3163 44.6649ZM28.0136 34.9563C27.3163 36.6164 25.8398 40.8797 24.9511 40.6406C24.1854 40.4414 23.7206 37.2141 24.8006 34.0266C25.3475 32.4194 26.5096 30.5071 27.1932 29.7632C28.3007 28.5679 29.5037 28.1694 29.8046 28.6608C30.1601 29.2985 28.4511 33.9203 28.0136 34.9563ZM40.1406 40.5875C39.8398 40.7337 39.5663 40.8399 39.4433 40.7603C39.3476 40.7072 39.5662 40.508 39.5662 40.508C39.5662 40.508 41.0838 38.9275 41.6854 38.197C42.0271 37.7722 42.4373 37.2808 42.8748 36.7228V36.8822C42.8749 38.7946 40.9882 40.0696 40.1406 40.5875ZM49.492 38.5156C49.2732 38.3563 49.3007 37.8649 50.0389 36.3242C50.3261 35.7133 50.9822 34.6906 52.117 33.7211C52.2537 34.1196 52.3359 34.5046 52.3221 34.8633C52.3085 37.2539 50.5585 38.1438 49.492 38.5156Z" fill="#CF649A"/>
</svg>
