<svg width="33" height="37" viewBox="0 0 33 37" fill="none" xmlns="http://www.w3.org/2000/svg">
<path d="M28.8446 7.26573C28.8187 7.08073 28.6539 6.97835 28.5176 6.96707C28.3816 6.95592 25.5037 6.74621 25.5037 6.74621C25.5037 6.74621 23.505 4.79548 23.2856 4.57956C23.0661 4.36377 22.6374 4.4294 22.471 4.47755C22.4465 4.48465 22.0343 4.60971 21.3524 4.81714C20.6848 2.92837 19.5064 1.19266 17.4334 1.19266C17.3762 1.19266 17.3173 1.19494 17.2584 1.19824C16.6688 0.431755 15.9385 0.0987549 15.3077 0.0987549C10.4787 0.0987549 8.17167 6.03333 7.44832 9.04908C5.57189 9.62068 4.23887 10.027 4.0686 10.0796C3.02122 10.4026 2.98809 10.4351 2.85056 11.4053C2.74706 12.1398 0.00652695 32.975 0.00652695 32.975L21.3613 36.9084L32.9321 34.4477C32.9321 34.4477 28.8703 7.45073 28.8448 7.26573H28.8446ZM20.1722 5.17599L18.3652 5.7258C18.3659 5.60061 18.3665 5.47744 18.3665 5.34275C18.3665 4.16888 18.2007 3.22374 17.9348 2.47448C19.003 2.60627 19.7143 3.80104 20.1722 5.17599ZM16.6098 2.70726C16.9068 3.43877 17.0999 4.48858 17.0999 5.90522C17.0999 5.9777 17.0992 6.04397 17.0986 6.111C15.9234 6.46884 14.6465 6.85734 13.3667 7.24711C14.0853 4.52076 15.4322 3.20397 16.6098 2.70726ZM15.1751 1.37209C15.3835 1.37209 15.5935 1.44165 15.7944 1.57761C14.2468 2.29354 12.5879 4.09666 11.8874 7.69744L8.93755 8.59558C9.75809 5.84909 11.7064 1.37209 15.175 1.37209H15.1751Z" fill="#95BF46"/>
<path d="M28.5176 6.96696C28.3816 6.95581 25.5037 6.7461 25.5037 6.7461C25.5037 6.7461 23.505 4.79536 23.2856 4.57944C23.2035 4.49911 23.0928 4.45793 22.977 4.44019L21.3624 36.9081L32.9321 34.4476C32.9321 34.4476 28.8701 7.45062 28.8446 7.26562C28.8187 7.08062 28.6538 6.97823 28.5176 6.96696Z" fill="#5E8E3E"/>
<path d="M17.4335 13.2523L16.0068 17.4244C16.0068 17.4244 14.7568 16.7686 13.2245 16.7686C10.9781 16.7686 10.8651 18.1544 10.8651 18.5037C10.8651 20.4092 15.9177 21.1393 15.9177 25.6026C15.9177 29.1142 13.6522 31.3754 10.5974 31.3754C6.93165 31.3754 5.05703 29.1326 5.05703 29.1326L6.03855 25.9445C6.03855 25.9445 7.9655 27.5708 9.5915 27.5708C10.654 27.5708 11.0861 26.7485 11.0861 26.1476C11.0861 23.662 6.94093 23.5511 6.94093 19.4668C6.94093 16.0292 9.45074 12.7026 14.517 12.7026C16.4691 12.7026 17.4335 13.2523 17.4335 13.2523Z" fill="white"/>
</svg>
