<svg width="55" height="62" viewBox="0 0 55 62" fill="none" xmlns="http://www.w3.org/2000/svg">
<path d="M48.0745 12.1749C48.0313 11.8649 47.7566 11.6934 47.5295 11.6745C47.3028 11.6558 42.5063 11.3044 42.5063 11.3044C42.5063 11.3044 39.175 8.03558 38.8094 7.67378C38.4436 7.31218 37.7291 7.42217 37.4517 7.50285C37.4109 7.51474 36.7239 7.72431 35.5875 8.07189C34.4747 4.90692 32.5108 1.99844 29.0558 1.99844C28.9605 1.99844 28.8623 2.00226 28.7641 2.00778C27.7815 0.723405 26.5643 0.165405 25.513 0.165405C17.4647 0.165405 13.6196 10.1098 12.414 15.1633C9.28659 16.1211 7.06489 16.802 6.78111 16.8901C5.03547 17.4313 4.98026 17.4857 4.75104 19.1115C4.57854 20.3424 0.0109863 55.2554 0.0109863 55.2554L35.6023 61.8465L54.8869 57.7231C54.8869 57.7231 48.1172 12.4849 48.0747 12.1749H48.0745ZM33.6204 8.67321L30.6088 9.5945C30.6099 9.38472 30.6109 9.17834 30.6109 8.95263C30.6109 6.98562 30.3347 5.40186 29.8915 4.14636C31.6717 4.36718 32.8573 6.36923 33.6204 8.67321ZM27.6831 4.53641C28.1781 5.76218 28.4999 7.52132 28.4999 9.89516C28.4999 10.0166 28.4988 10.1277 28.4977 10.24C26.5392 10.8396 24.4109 11.4906 22.278 12.1437C23.4756 7.57526 25.7205 5.36874 27.6831 4.53641ZM25.2919 2.2991C25.6393 2.2991 25.9892 2.41567 26.3242 2.64349C23.7448 3.84315 20.98 6.86459 19.8125 12.8983L14.896 14.4033C16.2636 9.8011 19.5108 2.2991 25.2917 2.2991H25.2919Z" fill="#95BF46"/>
<path d="M47.5294 11.6745C47.3028 11.6558 42.5062 11.3044 42.5062 11.3044C42.5062 11.3044 39.175 8.03559 38.8094 7.67378C38.6725 7.53916 38.488 7.47016 38.2951 7.44043L35.604 61.8461L54.8868 57.7231C54.8868 57.7231 48.1169 12.4849 48.0744 12.1749C48.0312 11.8649 47.7565 11.6934 47.5294 11.6745Z" fill="#5E8E3E"/>
<path d="M29.0559 22.2066L26.6781 29.1978C26.6781 29.1978 24.5947 28.0987 22.0409 28.0987C18.297 28.0987 18.1086 30.421 18.1086 31.0062C18.1086 34.1992 26.5296 35.4226 26.5296 42.9017C26.5296 48.7859 22.7537 52.575 17.6624 52.575C11.5528 52.575 8.42847 48.8167 8.42847 48.8167L10.0643 43.4745C10.0643 43.4745 13.2759 46.1998 15.9859 46.1998C17.7567 46.1998 18.477 44.8218 18.477 43.8149C18.477 39.6499 11.5683 39.4641 11.5683 32.6201C11.5683 26.8598 15.7513 21.2855 24.1951 21.2855C27.4486 21.2855 29.0559 22.2066 29.0559 22.2066Z" fill="white"/>
</svg>
