<svg width="70" height="41" viewBox="0 0 70 41" fill="none" xmlns="http://www.w3.org/2000/svg">
<path d="M35 0.0544434C25.6668 0.0544434 19.8332 4.59797 17.5 13.6848C21 9.14123 25.0832 7.43744 29.75 8.57339C32.4125 9.22136 34.3156 11.1022 36.4221 13.1837C39.8538 16.5751 43.8252 20.4999 52.5 20.4999C61.8332 20.4999 67.6668 15.9564 70 6.8696C66.5 11.4131 62.4168 13.1169 57.75 11.981C55.0875 11.333 53.1844 9.45218 51.0779 7.37062C47.6462 3.97928 43.6748 0.0544434 35 0.0544434ZM17.5 20.4999C8.16676 20.4999 2.33324 25.0434 0 34.1302C3.5 29.5867 7.58324 27.8829 12.25 29.0189C14.9125 29.6668 16.8156 31.5477 18.9221 33.6292C22.3538 37.0206 26.3252 40.9454 35 40.9454C44.3332 40.9454 50.1668 36.4019 52.5 27.3151C49 31.8586 44.9168 33.5624 40.25 32.4264C37.5875 31.7785 35.6844 29.8976 33.5779 27.8161C30.1462 24.4248 26.1748 20.4999 17.5 20.4999Z" fill="url(#paint0_linear_21_95)"/>
<defs>
<linearGradient id="paint0_linear_21_95" x1="-1.9446" y1="13.1395" x2="57.6937" y2="48.4586" gradientUnits="userSpaceOnUse">
<stop stop-color="#2298BD"/>
<stop offset="1" stop-color="#0ED7B5"/>
</linearGradient>
</defs>
</svg>
