<svg width="42" height="25" viewBox="0 0 42 25" fill="none" xmlns="http://www.w3.org/2000/svg">
<path d="M21 0.0332031C15.4001 0.0332031 11.8999 2.80365 10.5 8.34437C12.6 5.57393 15.0499 4.53503 17.85 5.22768C19.4475 5.62279 20.5894 6.76963 21.8533 8.03887C23.9123 10.1068 26.2951 12.5 31.5 12.5C37.0999 12.5 40.6001 9.72951 42 4.18879C39.9 6.95923 37.4501 7.99813 34.65 7.30548C33.0525 6.91037 31.9106 5.76353 30.6467 4.49429C28.5877 2.4264 26.2049 0.0332031 21 0.0332031ZM10.5 12.5C4.90005 12.5 1.39995 15.2704 0 20.8111C2.1 18.0407 4.54995 17.0018 7.35 17.6944C8.94748 18.0895 10.0894 19.2364 11.3533 20.5056C13.4123 22.5735 15.7951 24.9667 21 24.9667C26.5999 24.9667 30.1001 22.1963 31.5 16.6555C29.4 19.426 26.9501 20.4649 24.15 19.7722C22.5525 19.3771 21.4106 18.2303 20.1467 16.961C18.0877 14.8932 15.7049 12.5 10.5 12.5Z" fill="url(#paint0_linear)"/>
<defs>
<linearGradient id="paint0_linear" x1="-1.16676" y1="8.01193" x2="34.9136" y2="29.0376" gradientUnits="userSpaceOnUse">
<stop stop-color="#2298BD"/>
<stop offset="1" stop-color="#0ED7B5"/>
</linearGradient>
</defs>
</svg>
