<svg width="46" height="47" viewBox="0 0 46 47" fill="none" xmlns="http://www.w3.org/2000/svg">
<ellipse cx="23" cy="23.5" rx="23" ry="23.5" fill="#028CB0"/>
<path d="M7.38154 23.5C7.38154 29.8612 10.9815 35.34 16.1877 37.9442L8.73846 16.9681C7.84397 19.023 7.38158 21.2488 7.38154 23.5ZM23 39.5523C24.8138 39.5523 26.5585 39.225 28.1923 38.6415L28.0815 38.4281L23.2769 24.9088L18.5969 38.8977C19.9815 39.3246 21.4631 39.5523 23 39.5523ZM25.1462 15.9719L30.7954 33.2338L32.36 27.8831C33.0246 25.6631 33.5369 24.0692 33.5369 22.6888C33.5369 20.6965 32.8446 19.3304 32.2631 18.2773C31.46 16.9396 30.7262 15.8154 30.7262 14.5062C30.7262 13.0262 31.8062 11.66 33.3569 11.66H33.5508C30.6729 8.94464 26.9067 7.441 23 7.44769C20.4133 7.4472 17.867 8.10761 15.5903 9.36952C13.3135 10.6314 11.3777 12.4553 9.95692 14.6769L10.9538 14.7054C12.5877 14.7054 15.1077 14.4919 15.1077 14.4919C15.9662 14.4492 16.0631 15.7158 15.2185 15.8154C15.2185 15.8154 14.3738 15.9292 13.4185 15.9719L19.1231 33.3619L22.5431 22.8312L20.1062 15.9719C19.5603 15.941 19.0154 15.8935 18.4723 15.8296C17.6277 15.7727 17.7246 14.4492 18.5692 14.4919C18.5692 14.4919 21.1446 14.7054 22.6815 14.7054C24.3154 14.7054 26.8354 14.4919 26.8354 14.4919C27.68 14.4492 27.7908 15.7158 26.9462 15.8154C26.9462 15.8154 26.1015 15.915 25.1462 15.9719ZM30.8508 37.375C33.2135 35.963 35.1744 33.9385 36.5375 31.5037C37.9006 29.0689 38.6181 26.3091 38.6185 23.5C38.6185 20.7108 37.9262 18.0923 36.7077 15.8012C36.9551 18.3218 36.5838 20.866 35.6277 23.2012L30.8508 37.375ZM23 42C18.2261 42 13.6477 40.0509 10.2721 36.5815C6.89642 33.1121 5 28.4065 5 23.5C5 18.5935 6.89642 13.8879 10.2721 10.4185C13.6477 6.9491 18.2261 5 23 5C27.7739 5 32.3523 6.9491 35.7279 10.4185C39.1036 13.8879 41 18.5935 41 23.5C41 28.4065 39.1036 33.1121 35.7279 36.5815C32.3523 40.0509 27.7739 42 23 42Z" fill="white"/>
</svg>
