<svg width="35" height="35" viewBox="0 0 35 35" fill="none" xmlns="http://www.w3.org/2000/svg">
<g clip-path="url(#clip0)">
<path d="M17.5078 -0.000361485C27.0715 0.0184176 34.7485 7.62684 34.9941 17.0251C35.2541 27.1195 27.0296 35.2249 17.099 34.9952C7.81415 34.7843 0.42758 27.3752 0.0187401 18.3107C-0.436329 8.26533 7.60034 -0.00758422 17.5078 -0.000361485Z" fill="#3398C2"/>
<path d="M11.0618 12.2555C11.176 11.812 11.3406 11.383 11.5516 10.9742C11.7582 10.5798 12.0529 10.2851 12.4805 10.1436C12.7868 10.0439 13.0425 9.86767 13.2722 9.6351C14.0826 8.82037 15.0664 8.34656 16.2106 8.21944C16.3984 8.20066 16.4938 8.13132 16.566 7.95509C16.7379 7.53761 16.9517 7.13603 17.2349 6.78067C17.609 6.30975 18.0569 5.95873 18.7041 5.99628C19.1129 6.0194 19.4539 6.1913 19.7024 6.52065C19.9812 6.88757 20.1878 7.29782 20.3871 7.71096C20.4521 7.8453 20.5056 7.89442 20.6703 7.85975C21.2742 7.72541 21.7639 7.98976 22.0239 8.55169C22.3259 9.20895 22.4718 9.90523 22.544 10.6174C22.6972 12.098 22.5975 13.5556 22.0962 14.9741C21.8015 15.8076 21.3883 16.5805 20.8841 17.3071C20.8234 17.3952 20.8075 17.453 20.8913 17.544C22.2421 19.0593 22.9037 20.826 22.8272 22.8614V23.0073C22.9225 23.0116 22.9962 22.9538 23.0684 22.9148C23.6651 22.6086 24.2083 22.2185 24.8093 21.9166C25.6544 21.4919 26.5385 21.1944 27.4978 21.2016C28.9164 21.2131 29.828 22.5941 29.2343 23.8249C29.0002 24.3102 28.6188 24.6555 28.0944 24.7696C27.1381 24.9834 26.2886 25.4168 25.4781 25.9484C24.1433 26.8353 22.6813 27.494 21.1514 27.9982C21.0488 28.0328 20.952 28.0747 20.8639 28.1441C20.455 28.4503 19.9769 28.576 19.4784 28.6453C17.9673 28.8562 16.449 28.9472 14.9263 29.0122C14.2993 29.0397 13.6752 28.9545 13.1205 28.6222C12.9717 28.5298 12.8417 28.3579 12.6885 28.3319C12.5397 28.3087 12.3707 28.446 12.206 28.485C11.2308 28.7031 10.3164 28.5196 9.47125 28.0068C8.96995 27.7049 8.73302 27.2268 8.75903 26.6374C8.76625 26.4799 8.72147 26.3658 8.62901 26.2402C8.22306 25.6739 8.02514 25.0282 7.9139 24.3464C7.69575 23.0044 8.17394 21.895 9.06096 20.9228C9.14475 20.8303 9.17509 20.7393 9.17509 20.6165C9.17509 19.2746 9.4308 17.9961 10.1199 16.826C10.5056 16.1717 11.004 15.6097 11.5588 15.1013C11.6657 15.0059 11.6773 14.9409 11.605 14.8181C11.371 14.4281 11.2265 13.9991 11.0994 13.5628C10.9925 13.4863 11.0618 13.3678 11.0185 13.2725C11.0113 13.2002 11.0185 13.1266 10.9954 13.0543V12.5762C11.0141 12.5069 11.0141 12.4346 11.0141 12.3624C11.0315 12.3277 11.0243 12.2815 11.0618 12.2555Z" fill="#FEFEFE"/>
<path d="M11.0503 13.2696C11.0806 13.3649 11.043 13.4718 11.0994 13.5643C11.0835 13.5759 11.0835 13.6524 11.0618 13.599C11.0199 13.4964 10.9896 13.3808 10.9896 13.2696C10.9824 12.9027 10.9477 12.5314 11.0503 12.1674C11.0546 12.1977 11.0575 12.228 11.0662 12.2555C11.0618 12.2902 11.0589 12.3248 11.0546 12.3552C11.0199 12.4202 11.0589 12.4967 11.0243 12.5617V13.063C11.0503 13.128 11.017 13.2046 11.0503 13.2696Z" fill="#3298C3"/>
<path d="M21.8 23.0609C21.8 23.4133 21.7191 23.7571 21.6743 24.101C21.6368 24.4029 21.6671 24.4375 21.9734 24.3841C22.6625 24.2656 23.2851 23.9753 23.8861 23.6344C24.529 23.2674 25.1415 22.85 25.8292 22.5755C26.3608 22.3617 26.904 22.2201 27.4819 22.2201C27.9832 22.2201 28.3313 22.4917 28.392 22.9207C28.4498 23.318 28.2317 23.6979 27.8329 23.7817C26.6931 24.0229 25.7093 24.5849 24.75 25.2089C23.4643 26.0396 22.0644 26.639 20.6067 27.0984C20.5533 27.1143 20.4839 27.1259 20.4493 27.1591C20.1054 27.5231 19.6504 27.5838 19.1909 27.6445C17.9023 27.8135 16.605 27.8886 15.3048 27.9651C14.9306 27.9883 14.555 27.9998 14.1808 27.9276C13.5842 27.8091 13.3314 27.5867 13.2404 27.097C13.1595 26.6564 13.3661 26.2403 13.8067 25.9529C13.8529 25.9225 13.902 25.8922 13.9757 25.846C13.7388 25.7001 13.5438 25.5282 13.395 25.3144C13.3227 25.2147 13.2837 25.2768 13.2606 25.3606C13.1884 25.6365 13.1147 25.9153 13.0425 26.1912C12.9933 26.3747 12.9312 26.5553 12.8546 26.73C12.6322 27.2385 12.2277 27.4841 11.6917 27.5332C11.1442 27.5823 10.6284 27.461 10.1387 27.2198C9.80207 27.0551 9.70239 26.8066 9.81363 26.4426C9.87141 26.2476 9.98265 26.0786 10.1156 25.872C9.65327 25.9644 9.44957 25.6957 9.28921 25.3707C8.92949 24.6586 8.8067 23.9059 8.95261 23.1259C9.07107 22.5062 9.43513 22.002 9.87141 21.5658C10.1271 21.3101 10.2037 21.0645 10.1965 20.7048C10.1387 18.6275 10.9231 16.9215 12.5383 15.6026C12.6798 15.4842 12.8214 15.3614 12.9702 15.2545C13.0627 15.1895 13.0728 15.1476 12.9977 15.0522C12.5802 14.5279 12.2551 13.9587 12.1063 13.2971C11.9373 12.5517 12.1901 11.9045 12.5657 11.2848C12.6192 11.201 12.703 11.1592 12.7954 11.1245C13.2664 10.9555 13.6637 10.6998 14.0234 10.3401C14.8338 9.52969 15.8364 9.15844 16.9835 9.20756C17.1294 9.21478 17.1944 9.17289 17.2392 9.03565C17.4111 8.53439 17.6249 8.05191 17.9124 7.60554C18.0193 7.43653 18.1378 7.28052 18.2909 7.15484C18.5741 6.92082 18.8153 6.95549 19.006 7.26607C19.3585 7.828 19.6301 8.43327 19.9046 9.0371C19.974 9.19022 20.0274 9.24367 20.1878 9.13966C20.3756 9.02121 20.585 8.93742 20.796 8.86375C20.965 8.80597 21.0632 8.84497 21.1369 9.02121C21.3507 9.53692 21.4663 10.0772 21.5313 10.6319C21.5501 10.785 21.5848 10.9338 21.566 11.0869C21.5544 11.4192 21.5703 11.7529 21.5732 12.0895C21.5732 12.2382 21.5197 12.3885 21.566 12.5402C21.5313 13.4502 21.29 14.3112 20.939 15.1447C20.6096 15.9248 20.1314 16.6167 19.6532 17.3101C19.4654 17.5773 19.4698 17.5817 19.7139 17.7998C20.9072 18.8745 21.566 20.2252 21.787 21.8012C21.7942 21.8619 21.7913 21.9269 21.7913 21.9919C21.7422 22.1378 21.7957 22.2794 21.7986 22.4209C21.8116 22.6362 21.7625 22.8514 21.8 23.0609Z" fill="#3398C2"/>
<path d="M21.5703 12.543C21.5241 12.5054 21.5357 12.4505 21.5357 12.4014V11.2342C21.5357 11.1851 21.5241 11.1317 21.5703 11.0927C21.6209 11.5751 21.6238 12.0605 21.5703 12.543Z" fill="#2B95C1"/>
<path d="M21.8001 23.0608C21.7235 22.7661 21.7842 22.4685 21.7654 22.1738C21.7611 22.1131 21.7423 22.0437 21.8001 21.9946C21.8492 22.35 21.842 22.7054 21.8001 23.0608Z" fill="#2693BF"/>
<path d="M11.0199 12.5618C11.0243 12.4925 10.9896 12.4159 11.0503 12.3552C11.0503 12.4231 11.0546 12.4968 11.0199 12.5618ZM11.0503 13.2696C10.9925 13.209 11.0228 13.1324 11.0199 13.0631C11.0589 13.1281 11.0503 13.2003 11.0503 13.2696Z" fill="#3398C2"/>
</g>
<defs>
<clipPath id="clip0">
<rect width="35" height="35" fill="white"/>
</clipPath>
</defs>
</svg>
