<svg width="59" height="58" viewBox="0 0 59 58" fill="none" xmlns="http://www.w3.org/2000/svg">
<g clip-path="url(#clip0_21_136)">
<path d="M29.5132 -0.00048045C45.6348 0.0306392 58.5759 12.6389 58.9899 28.2131C59.4283 44.9411 45.5642 58.3728 28.824 57.9922C13.1724 57.6427 0.720726 45.3648 0.0315386 30.3436C-0.735578 13.697 12.8119 -0.0124495 29.5132 -0.00048045Z" fill="#3398C2"/>
<path d="M18.6471 20.3092C18.8394 19.5743 19.1171 18.8634 19.4726 18.1859C19.8209 17.5324 20.3177 17.0441 21.0385 16.8095C21.5548 16.6443 21.9858 16.3522 22.3731 15.9668C23.7393 14.6167 25.3977 13.8316 27.3264 13.6209C27.643 13.5898 27.8038 13.4749 27.9255 13.1828C28.2153 12.491 28.5757 11.8255 29.0531 11.2367C29.6838 10.4563 30.4387 9.87458 31.5298 9.93681C32.2189 9.97512 32.7937 10.26 33.2125 10.8058C33.6826 11.4138 34.0308 12.0936 34.3669 12.7783C34.4765 13.0009 34.5666 13.0823 34.8442 13.0248C35.8621 12.8022 36.6877 13.2403 37.1261 14.1715C37.635 15.2607 37.881 16.4145 38.0028 17.5946C38.2609 20.0483 38.0929 22.4637 37.2478 24.8144C36.751 26.1956 36.0545 27.4763 35.2046 28.6804C35.1023 28.8264 35.0755 28.9222 35.2168 29.073C37.4938 31.5841 38.6092 34.5118 38.4801 37.8847V38.1264C38.6408 38.1336 38.765 38.0379 38.8868 37.9732C39.8926 37.4657 40.8082 36.8194 41.8213 36.3191C43.246 35.6153 44.7364 35.1222 46.3534 35.1342C48.7448 35.1533 50.2815 37.4418 49.2806 39.4813C48.8861 40.2857 48.2432 40.8578 47.3592 41.0469C45.747 41.4012 44.315 42.1193 42.9488 43.0002C40.6986 44.4701 38.2341 45.5616 35.6551 46.3971C35.4822 46.4545 35.3191 46.5239 35.1705 46.6389C34.4813 47.1463 33.6753 47.3546 32.8351 47.4695C30.2878 47.819 27.7283 47.9698 25.1615 48.0775C24.1046 48.123 23.0525 47.9818 22.1174 47.4312C21.8665 47.278 21.6473 46.9931 21.3892 46.95C21.1384 46.9117 20.8534 47.1392 20.5758 47.2038C18.932 47.5653 17.3904 47.2612 15.9658 46.4114C15.1208 45.9111 14.7214 45.1188 14.7652 44.1421C14.7774 43.8812 14.7019 43.6921 14.546 43.4838C13.8617 42.5454 13.5281 41.4754 13.3406 40.3455C12.9728 38.1216 13.7789 36.2832 15.2742 34.6721C15.4154 34.5189 15.4666 34.3681 15.4666 34.1647C15.4666 31.9408 15.8976 29.8223 17.0592 27.8833C17.7095 26.7989 18.5496 25.8677 19.4848 25.0251C19.665 24.8671 19.6845 24.7593 19.5627 24.5559C19.1682 23.9095 18.9247 23.1986 18.7104 22.4756C18.5302 22.3488 18.6471 22.1525 18.574 21.9945C18.5618 21.8748 18.574 21.7527 18.535 21.633V20.8407C18.5667 20.7258 18.5667 20.6061 18.5667 20.4864C18.5959 20.4289 18.5837 20.3523 18.6471 20.3092Z" fill="#FEFEFE"/>
<path d="M18.6277 21.9897C18.6788 22.1477 18.6155 22.3248 18.7105 22.478C18.6837 22.4972 18.6837 22.624 18.6472 22.5355C18.5765 22.3655 18.5254 22.174 18.5254 21.9897C18.5132 21.3816 18.4548 20.7664 18.6277 20.1631C18.635 20.2134 18.6399 20.2636 18.6545 20.3091C18.6472 20.3666 18.6423 20.424 18.635 20.4743C18.5765 20.582 18.6423 20.7089 18.5838 20.8166V21.6473C18.6277 21.755 18.5717 21.8819 18.6277 21.9897Z" fill="#3298C3"/>
<path d="M36.7486 38.2152C36.7486 38.7993 36.6122 39.369 36.5367 39.9387C36.4734 40.439 36.5245 40.4965 37.0408 40.4079C38.2024 40.2116 39.252 39.7305 40.2651 39.1655C41.3488 38.5575 42.3814 37.8657 43.5406 37.4108C44.4368 37.0565 45.3524 36.8219 46.3266 36.8219C47.1716 36.8219 47.7585 37.272 47.8608 37.983C47.9582 38.6413 47.5905 39.2708 46.9183 39.4097C44.9969 39.8095 43.3385 40.7407 41.7214 41.7748C39.554 43.1513 37.1942 44.1447 34.737 44.9059C34.6469 44.9323 34.53 44.9514 34.4716 45.0065C33.892 45.6097 33.1248 45.7103 32.3504 45.8108C30.1781 46.0909 27.9912 46.2154 25.7995 46.3422C25.1687 46.3805 24.5356 46.3997 23.9048 46.28C22.8991 46.0837 22.4729 45.7151 22.3195 44.9035C22.1831 44.1734 22.5313 43.484 23.2741 43.0076C23.352 42.9574 23.4348 42.9071 23.559 42.8305C23.1596 42.5887 22.8309 42.3038 22.58 41.9495C22.4583 41.7844 22.3925 41.8873 22.3535 42.0261C22.2318 42.4834 22.1076 42.9454 21.9858 43.4026C21.903 43.7066 21.7983 44.0059 21.6692 44.2955C21.2942 45.1381 20.6123 45.5451 19.7088 45.6265C18.7858 45.7079 17.9164 45.5068 17.0909 45.107C16.5235 44.8341 16.3554 44.4224 16.5429 43.8191C16.6403 43.496 16.8279 43.2159 17.0519 42.8736C16.2726 43.0268 15.9292 42.5815 15.6589 42.0429C15.0525 40.8627 14.8455 39.6156 15.0915 38.3229C15.2912 37.2959 15.9049 36.4605 16.6403 35.7375C17.0714 35.3138 17.2005 34.9069 17.1883 34.3108C17.0909 30.8685 18.4132 28.0413 21.1359 25.8558C21.3746 25.6595 21.6132 25.456 21.8641 25.2788C22.0199 25.1711 22.037 25.1017 21.9103 24.9437C21.2065 24.0747 20.6586 23.1316 20.4077 22.0352C20.1228 20.8 20.549 19.7275 21.1822 18.7006C21.2723 18.5617 21.4135 18.4923 21.5694 18.4349C22.3633 18.1548 23.033 17.7311 23.6394 17.135C25.0056 15.7921 26.6957 15.1768 28.6293 15.2582C28.8753 15.2702 28.9848 15.2008 29.0603 14.9734C29.3501 14.1427 29.7106 13.3432 30.1952 12.6035C30.3754 12.3234 30.5751 12.0649 30.8332 11.8566C31.3105 11.4688 31.7172 11.5262 32.0387 12.0409C32.6329 12.9721 33.0907 13.9751 33.5535 14.9758C33.6703 15.2295 33.7605 15.3181 34.0308 15.1457C34.3474 14.9494 34.7005 14.8106 35.056 14.6885C35.341 14.5927 35.5066 14.6574 35.6308 14.9494C35.9912 15.804 36.186 16.6993 36.2956 17.6186C36.3273 17.8723 36.3857 18.1189 36.354 18.3726C36.3346 18.9232 36.3613 19.4762 36.3662 20.0339C36.3662 20.2805 36.2761 20.5295 36.354 20.7808C36.2956 22.2889 35.8889 23.7157 35.2971 25.0969C34.7419 26.3896 33.9358 27.5362 33.1297 28.6853C32.8131 29.1281 32.8204 29.1353 33.232 29.4968C35.2435 31.2778 36.354 33.516 36.7266 36.1277C36.7388 36.2283 36.7339 36.336 36.7339 36.4437C36.6511 36.6855 36.7413 36.9201 36.7461 37.1547C36.768 37.5114 36.6852 37.8681 36.7486 38.2152Z" fill="#3398C2"/>
<path d="M36.3614 20.7856C36.2835 20.7234 36.3029 20.6324 36.3029 20.551V18.6168C36.3029 18.5354 36.2835 18.4468 36.3614 18.3822C36.4466 19.1817 36.4515 19.9861 36.3614 20.7856Z" fill="#2B95C1"/>
<path d="M36.7486 38.2151C36.6195 37.7267 36.7218 37.2335 36.6902 36.7451C36.6829 36.6446 36.6512 36.5296 36.7486 36.4482C36.8314 37.0372 36.8193 37.6261 36.7486 38.2151Z" fill="#2693BF"/>
<path d="M18.5765 20.8166C18.5838 20.7017 18.5254 20.5748 18.6277 20.4742C18.6277 20.5868 18.635 20.7088 18.5765 20.8166ZM18.6277 21.9895C18.5302 21.889 18.5814 21.7621 18.5765 21.6472C18.6423 21.7549 18.6277 21.8746 18.6277 21.9895Z" fill="#3398C2"/>
</g>
<defs>
<clipPath id="clip0_21_136">
<rect width="59" height="58" fill="white"/>
</clipPath>
</defs>
</svg>
