<svg width="54" height="53" viewBox="0 0 54 53" fill="none" xmlns="http://www.w3.org/2000/svg">
<path fill-rule="evenodd" clip-rule="evenodd" d="M10.6578 33.4038L8.18594 34.275L8.05322 41.3692L16.6098 38.3535C13.675 37.4025 11.5318 35.7291 10.6578 33.4038Z" fill="#FDBD39"/>
<path fill-rule="evenodd" clip-rule="evenodd" d="M11.9514 25.9004L3.375 28.923L8.186 34.2749L10.6578 33.4037C9.7863 31.0852 10.3238 28.4643 11.9514 25.9004Z" fill="#F69833"/>
<path fill-rule="evenodd" clip-rule="evenodd" d="M26.3839 15.6639C15.4627 19.5129 8.42187 27.4553 10.6578 33.4038L50.207 19.4653C47.9711 13.5168 37.3051 11.8149 26.3839 15.6639Z" fill="#FECF33"/>
<path fill-rule="evenodd" clip-rule="evenodd" d="M34.4808 37.2051C45.4021 33.3561 52.4561 25.4489 50.2069 19.4652L10.6577 33.4037C12.9069 39.3874 23.5596 41.0541 34.4808 37.2051Z" fill="#EE6723"/>
<path fill-rule="evenodd" clip-rule="evenodd" d="M50.2069 19.4652L10.6577 33.4037C11.4321 35.464 14.3854 36.479 18.529 36.479C22.5688 36.479 27.7401 35.515 33.1313 33.6149C44.0526 29.7659 51.7364 23.5341 50.2069 19.4652Z" fill="#F69833"/>
<path fill-rule="evenodd" clip-rule="evenodd" d="M42.3358 16.3899C38.296 16.3899 33.1247 17.3539 27.7334 19.254C16.8122 23.103 9.1284 29.3348 10.6579 33.4037L50.2071 19.4652C49.4327 17.4049 46.4794 16.3899 42.3358 16.3899Z" fill="#FDBD39"/>
<path fill-rule="evenodd" clip-rule="evenodd" d="M40.1515 41.7448H40.1512C38.9876 41.7448 37.2709 40.7307 35.0488 38.7309C32.42 36.365 29.4086 32.8996 26.5693 28.9732C23.7301 25.047 21.3971 21.1218 20.0001 17.9204C18.478 14.4317 18.261 12.2867 19.3551 11.5448C19.595 11.3823 19.8841 11.2999 20.2145 11.2999C21.1044 11.2999 22.8385 11.9391 26.045 14.9845L26.1151 15.0511L26.1056 15.1457C26.0837 15.3645 26.0635 15.5853 26.0455 15.8019L26.0097 16.2321L25.6951 15.9264C22.2403 12.5684 20.7194 12.2059 20.2258 12.2059C20.0851 12.2059 19.973 12.2335 19.8926 12.288C19.4181 12.6097 19.3875 14.1853 20.8632 17.5672C22.2353 20.7115 24.5343 24.5774 27.3369 28.4528C30.1395 32.3285 33.1048 35.7427 35.6867 38.0663C38.4708 40.5719 39.7254 40.8425 40.1357 40.8425C40.2773 40.8425 40.3924 40.8131 40.4777 40.7552C40.9784 40.4159 40.979 38.728 39.3333 35.0879L39.2578 34.9208L39.4232 34.8335C39.5886 34.7461 39.7485 34.6601 39.8985 34.5779L40.0966 34.4692L40.188 34.6711C41.3548 37.2504 42.4455 40.5285 41.0153 41.4985C40.7742 41.6619 40.4836 41.7448 40.1515 41.7448ZM40.1512 41.3469H40.1515L40.1513 41.5458L40.1512 41.3469Z" fill="#EE6723"/>
<path fill-rule="evenodd" clip-rule="evenodd" d="M34.7462 37.0966L34.7295 37.2949C34.4534 40.5909 33.7265 44.5534 31.831 44.7138C31.7928 44.7171 31.7533 44.7188 31.7137 44.7188C30.426 44.7188 29.2078 42.9388 28.0929 39.4284C27.038 36.1073 26.2195 31.6482 25.788 26.8726C25.3565 22.098 25.363 17.569 25.8062 14.1201C26.2893 10.3619 27.2091 8.39921 28.5398 8.28655C28.5791 8.28305 28.6199 8.28125 28.6601 8.28125C29.5943 8.28125 31.0021 9.30169 32.4433 14.0547L31.5023 14.2299C31.0211 12.6416 30.4967 11.3498 29.9761 10.4621C29.4945 9.64104 29.0262 9.18887 28.6575 9.18887C28.6454 9.18887 28.6332 9.18935 28.6211 9.19035C28.0443 9.23922 27.2043 10.589 26.736 14.2322C26.3007 17.6192 26.2954 22.0803 26.7213 26.7936C27.1473 31.5077 27.9525 35.9001 28.9884 39.1617C29.4524 40.6225 29.9613 41.8264 30.4601 42.6433C30.92 43.3966 31.3652 43.8115 31.7134 43.8115C31.7254 43.8115 31.7373 43.811 31.7492 43.81C32.3011 43.7633 33.3411 42.3587 33.7789 37.4169L34.7462 37.0966Z" fill="#EE6723"/>
</svg>
