<svg width="44" height="44" viewBox="0 0 44 44" fill="none" xmlns="http://www.w3.org/2000/svg">
<path d="M36.6667 36.6666H7.33341C6.36095 36.6666 5.42832 36.2803 4.74069 35.5927C4.05306 34.9051 3.66675 33.9724 3.66675 33V10.8405C3.70787 9.89593 4.11226 9.00377 4.79549 8.35026C5.47872 7.69676 6.38797 7.33242 7.33341 7.33331H36.6667C37.6392 7.33331 38.5718 7.71962 39.2595 8.40726C39.9471 9.09489 40.3334 10.0275 40.3334 11V33C40.3334 33.9724 39.9471 34.9051 39.2595 35.5927C38.5718 36.2803 37.6392 36.6666 36.6667 36.6666ZM7.33341 14.4246V33H36.6667V14.4246L22.0001 24.2L7.33341 14.4246ZM8.80008 11L22.0001 19.8L35.2001 11H8.80008Z" fill="white"/>
</svg>
