<svg width="46" height="46" viewBox="0 0 46 46" fill="none" xmlns="http://www.w3.org/2000/svg">
<path d="M16.7555 16.6405C14.6989 18.3885 13.9457 21.5759 15.7205 24.1327C17.3884 26.5309 19.4705 28.6124 21.8692 30.2795C24.426 32.0543 27.6134 31.3011 29.3614 29.2445L29.3806 29.2541C31.613 30.2889 33.9826 30.997 36.4167 31.3567V36.4167H36.409C21.1255 36.4377 9.5661 24.7461 9.58335 9.591V9.58333H14.6434V9.58525C15.0037 12.0194 15.7129 14.3884 16.7459 16.6194L16.7555 16.6386V16.6405ZM36.4167 40.25H38.3334C38.8417 40.25 39.3292 40.0481 39.6886 39.6886C40.0481 39.3292 40.25 38.8417 40.25 38.3333V29.7045C40.2504 29.2447 40.0855 28.8001 39.7854 28.4518C39.4853 28.1034 39.0699 27.8746 38.6151 27.807L36.9783 27.5655C34.9077 27.2582 32.8919 26.6553 30.9925 25.7753L29.5493 25.1064C29.144 24.9187 28.6859 24.8783 28.254 24.9924C27.8222 25.1065 27.4438 25.3678 27.1841 25.7312L26.5305 26.6455C25.9574 27.4486 24.863 27.692 24.0561 27.1304C22.033 25.7241 20.2767 23.9684 18.8696 21.9458C18.308 21.137 18.5534 20.0426 19.3545 19.4714L20.2688 18.8198C20.6326 18.56 20.8943 18.1812 21.0084 17.749C21.1225 17.3167 21.0819 16.8582 20.8936 16.4527L20.2228 15.0075C19.3437 13.108 18.7414 11.0922 18.4345 9.02175L18.1911 7.38492C18.1235 6.93012 17.8947 6.51477 17.5463 6.21464C17.198 5.91451 16.7534 5.7496 16.2936 5.75H7.66669C7.15836 5.75 6.67084 5.95193 6.3114 6.31138C5.95195 6.67082 5.75002 7.15834 5.75002 7.66667V9.58525C5.73085 26.8487 18.9942 40.2749 36.4148 40.25H36.4167Z" fill="white"/>
</svg>
